<svg xmlns="http://www.w3.org/2000/svg" viewBox="0 0 48.61 48.4"><defs><style>.cls-1{fill:#fff;}</style></defs><g id="Layer_2" data-name="Layer 2"><g id="Layer_1-2" data-name="Layer 1"><path class="cls-1" d="M48.61,21.61v4.11c0,1.93-.23,3.87-.12,5.8a5.62,5.62,0,0,1-5.57,5.67c-.6,0-1.2,0-1.92,0,0,2,0,3.91,0,5.78a5.24,5.24,0,0,1-2.31,4.3,15,15,0,0,1-2.18,1.13H13a2.42,2.42,0,0,0-.51-.14A5.52,5.52,0,0,1,7.54,42.9c0-1.14,0-2.29,0-3.44,0-.74,0-1.47,0-2.27-.68,0-1.14,0-1.61,0a5.65,5.65,0,0,1-5.54-4,5.22,5.22,0,0,1-.17-1.48C.1,29,.05,26.28,0,23.55v-.43c.06-1,.13-1.92.18-2.89a5.36,5.36,0,0,1,5.31-5.29c.61,0,1.22,0,2,0,0-.58,0-1,0-1.49,0-2.81,0-5.61.11-8.42a5.43,5.43,0,0,1,5.07-5q11.49,0,23,0A5.38,5.38,0,0,1,41,5.45c0,2.66,0,5.32,0,8v1.49c.77,0,1.37,0,2,0a5.38,5.38,0,0,1,5.43,5.3C48.47,20.69,48.55,21.15,48.61,21.61ZM37.22,28h-26c0,.49,0,.88,0,1.27q0,6.59,0,13.17c0,1.54.68,2.21,2.24,2.21H35.12a1.84,1.84,0,0,0,2.11-2.1q0-6.74,0-13.49C37.27,28.73,37.24,28.38,37.22,28Zm0-13.25c0-3,0-6,0-8.94,0-1.52-.65-2.16-2.15-2.16-2.26,0-4.53,0-6.8,0-4.92,0-9.85,0-14.77,0-1.63,0-2.21.62-2.23,2.2l0,4.53c0,1.43,0,2.85,0,4.34Zm2.86,9.38a2.78,2.78,0,1,0,.06-5.55,2.78,2.78,0,0,0-.06,5.55Z"/><path class="cls-1" d="M15.12,31.73H33.47v3.48H15.12Z"/><path class="cls-1" d="M15.14,37.27H27.88v3.55H15.14Z"/></g></g></svg>
