<?xml version="1.0" encoding="utf-8"?>
<!-- Generator: Adobe Illustrator 22.0.1, SVG Export Plug-In . SVG Version: 6.00 Build 0)  -->
<svg version="1.1" id="Layer_1" xmlns="http://www.w3.org/2000/svg" xmlns:xlink="http://www.w3.org/1999/xlink" x="0px" y="0px"
	 viewBox="0 0 250.4 359.9" style="enable-background:new 0 0 250.4 359.9;" xml:space="preserve">
<style type="text/css">
	.st0{clip-path:url(#SVGID_2_);}
</style>
<title>Asset 1</title>
<g id="Layer_2_1_">
	<g id="Layer_1-2">
		<g>
			<defs>
				<rect id="SVGID_1_" y="-0.1" width="250.5" height="360"/>
			</defs>
			<clipPath id="SVGID_2_">
				<use xlink:href="#SVGID_1_"  style="overflow:visible;"/>
			</clipPath>
			<g class="st0">
				<path d="M245.8,431.9c-0.6,0-1.3-0.2-1.7-0.7l-18.2-17.3l-7.8,7.8c-1,1-2.6,1-3.5,0l-9.5-9.5c-1-1-1-2.6,0-3.5l8.3-8.2
					L179,366.2c-1-1-1-2.6,0-3.5l27.5-27.5c1-1,2.6-1,3.5,0l10,10c1,1,1,2.6,0,3.5l-16.3,16.2l43,43l36.2-36.2c1-1,2.6-1,3.5,0
					l46,46c0.9,0.9,1,2.4,0.1,3.4c-8.8,10.3-10.4,10.3-11.5,10.3c-1.6,0-2.3,0-35.7-34.5l-2.4-2.5c-4.8,3.6-21.2,20.8-35.5,36.7
					c-0.5,0.5-1.1,0.8-1.8,0.8L245.8,431.9z M283.5,388.9c0.7,0,1.5,0.3,2,0.8c0.4,0.3,1.7,1.7,3.6,3.8
					c17.9,18.5,28.7,29.4,32.2,32.5c2.1-2,4.1-4.1,6-6.3l-42.6-42.7l-36.2,36.2c-1,1-2.6,1-3.5,0l-46.5-46.5c-1-1-1-2.6,0-3.5
					l16.2-16.2l-6.5-6.5l-24,24l34.2,34.2c1,1,1,2.6,0,3.5l-8.2,8.2l6,6l7.7-7.7c1-1,2.5-1,3.5,0l18.1,17.2
					c3-3.3,9.3-10.2,15.9-17.1C280.2,389,282,389,283.5,388.9L283.5,388.9z"/>
				<path d="M244.8,393.9c-0.7,0-1.3-0.3-1.8-0.7l-26-26c-1-1-1-2.6,0-3.5l10.5-10.5c1-1,2.6-1,3.5,0l26,26c1,1,1,2.6,0,3.5
					l-10.5,10.5C246.1,393.7,245.4,393.9,244.8,393.9z M222.2,365.4l22.5,22.5l7-7l-22.5-22.5L222.2,365.4z"/>
				<path d="M264.8,374.9c-0.7,0-1.3-0.3-1.8-0.7l-58-58c-0.5-0.5-0.7-1.1-0.7-1.8c0-0.7,0.3-1.3,0.8-1.8l58-56c1-1,2.5-1,3.5,0
					l10,10c1,1,1,2.6,0,3.5l-45.7,45.8l45.2,45.2c1,1,1,2.6,0,3.5l-9.5,9.5C266.1,374.7,265.4,374.9,264.8,374.9z M210.3,314.5
					l54.4,54.5l6-6l-45.2-45.2c-1-1-1-2.6,0-3.5l45.7-45.7l-6.5-6.5L210.3,314.5z"/>
				<path d="M255.3,327.4c-0.7,0-1.3-0.3-1.8-0.7l-9.4-9.5c-1-1-1-2.5,0-3.5l37.3-37.5c0.9-0.9,2.3-1,3.2-0.3
					c10.3,7.6,10.5,10.1,10.6,10.9c0.1,0.9-0.2,1.8-0.9,2.4l-7.2,7.2l7.2,7.2c1,1,1,2.5,0,3.5l-9.4,9.5c-1,0.9-2.6,0.9-3.5,0
					l-7.1-7.2l-17.1,17.2C256.7,327.2,256,327.4,255.3,327.4z M249.4,315.4l5.9,6l17.1-17.2c1-1,2.6-1,3.5,0l7.2,7.2l5.9-6l-7.2-7.2
					c-1-1-1-2.5,0-3.5l7.9-7.9c-2-2-4.1-3.9-6.3-5.5L249.4,315.4z"/>
				<path d="M190.2,431.4c-0.7,0-1.3-0.3-1.8-0.7l-20-20c-1-1-1-2.6,0-3.5l5.8-5.7L139,366.2c-1-1-1-2.6,0-3.5l6.7-6.7l-8.7-8.7
					c-1-1-1-2.6,0-3.5l29.5-29.5c1-1,2.6-1,3.5,0l8.6,8.6c6.7-7.8,8.2-7.8,9.1-7.8s2.5,0,11.2,8.2c1,0.9,1.1,2.5,0.1,3.5
					c0,0,0,0-0.1,0.1l-18,18c-1,1-2.6,1-3.5,0l-7.3-7.2l-6.5,6.5l7.7,7.7c1,1,1,2.6,0,3.5l-7.7,7.7l35.7,35.7c1,1,1,2.6,0,3.5
					l-7.3,7.2l8.7,8.7c1,1,1,2.6,0,3.5l-9,9C191.5,431.2,190.9,431.4,190.2,431.4z M173.8,408.9l16.5,16.5l5.5-5.5l-8.7-8.7
					c-1-1-1-2.6,0-3.5l7.3-7.2l-35.7-35.7c-1-1-1-2.6,0-3.5l7.7-7.7l-7.7-7.7c-1-1-1-2.6,0-3.5l10-10c1-1,2.6-1,3.5,0l7.2,7.2
					l14.4-14.4c-1.8-1.7-3.8-3.3-5.8-4.8c-2.6,2.4-5,5-7.2,7.8c-0.4,0.5-1.1,0.9-1.8,0.9c-0.7,0-1.4-0.2-1.9-0.7l-8.8-8.7l-26,26
					l8.7,8.7c1,1,1,2.6,0,3.5l-6.7,6.7l35.2,35.2c1,1,1,2.6,0,3.5L173.8,408.9z"/>
				<path d="M133.2,340.4c-0.7,0-1.3-0.3-1.8-0.7l-10-10c-1-1-1-2.6,0-3.5l44-44c1-1,2.6-1,3.5,0l6.2,6.2l10.7-10.7c1-1,2.6-1,3.5,0
					l10.2,10.3l65.7-65.7c1-1,2.6-1,3.5,0l9,9c1,1,1,2.6,0,3.5l-78.5,78.5c-1,1-2.6,1-3.5,0l-9.2-9.3l-6.7,6.7c-1,1-2.6,1-3.5,0
					l-6.2-6.2L135,339.7C134.6,340.2,133.9,340.4,133.2,340.4z M126.8,327.9l6.5,6.5l35.2-35.2c1-1,2.6-1,3.5,0l6.2,6.2l6.7-6.7
					c1-1,2.6-1,3.5,0l9.2,9.3l75-75l-5.5-5.5l-65.7,65.7c-1,1-2.6,1-3.5,0l-10.2-10.3L177,293.7c-1,1-2.6,1-3.5,0l-6.2-6.2
					L126.8,327.9z"/>
				<path d="M-4.8,431.9c-0.6,0-1.3-0.2-1.7-0.7l-18.3-17.3l-7.8,7.8c-1,1-2.6,1-3.5,0l-9.5-9.5c-1-1-1-2.6,0-3.5l8.2-8.2
					l-34.2-34.2c-1-1-1-2.6,0-3.5l27.5-27.5c1-1,2.6-1,3.5,0l10,10c1,1,1,2.6,0,3.5l-16.3,16.2l43,43l36.2-36.2c1-1,2.6-1,3.5,0
					l46,46c0.9,0.9,1,2.4,0.1,3.4c-8.8,10.4-10.4,10.4-11.4,10.4c-1.6,0-2.3,0-35.7-34.5l-2.4-2.5c-4.8,3.6-21.2,20.8-35.5,36.7
					C-3.3,431.6-4,431.9-4.8,431.9L-4.8,431.9z M33,388.9c0.7,0,1.5,0.3,2,0.8c0.4,0.3,1.7,1.7,3.6,3.8
					c17.9,18.5,28.7,29.4,32.2,32.5c2.1-2,4.1-4.1,6-6.3l-42.6-42.7L-2,413.2c-1,1-2.6,1-3.5,0L-52,366.7c-1-1-1-2.6,0-3.5
					l16.3-16.2l-6.5-6.5l-24,24l34.2,34.2c1,1,1,2.6,0,3.5l-8.2,8.2l6,6l7.7-7.7c1-1,2.5-1,3.5,0L-4.8,426c3-3.3,9.3-10.2,15.9-17.1
					C29.7,389.1,31.5,389,33,389L33,388.9z"/>
				<path d="M-5.8,393.9c-0.7,0-1.3-0.3-1.8-0.7l-26-26c-1-1-1-2.6,0-3.5l10.5-10.5c1-1,2.6-1,3.5,0l26,26c1,1,1,2.6,0,3.5L-4,393.2
					C-4.4,393.7-5.1,393.9-5.8,393.9z M-28.2,365.4l22.5,22.5l7-7l-22.5-22.5L-28.2,365.4z"/>
				<path d="M14.2,374.9c-0.7,0-1.3-0.3-1.8-0.7l-58-58c-0.5-0.5-0.7-1.1-0.7-1.8c0-0.7,0.3-1.3,0.8-1.8l58-56c1-1,2.5-1,3.5,0
					l10,10c1,1,1,2.6,0,3.5l-45.8,45.8l45.2,45.2c1,1,1,2.6,0,3.5l-9.5,9.5C15.5,374.7,14.9,374.9,14.2,374.9z M-40.2,314.5
					l54.4,54.5l6-6L-25,317.7c-1-1-1-2.6,0-3.5l45.7-45.7l-6.5-6.5L-40.2,314.5z"/>
				<path d="M4.8,327.4c-0.7,0-1.3-0.3-1.8-0.7l-9.4-9.5c-1-1-1-2.5,0-3.5l37.3-37.5c0.9-0.9,2.3-1,3.2-0.3
					c10.3,7.6,10.5,10.1,10.6,10.9c0.1,0.9-0.2,1.8-0.9,2.4l-7.2,7.2l7.2,7.2c1,1,1,2.5,0,3.5l-9.4,9.5c-1,0.9-2.6,0.9-3.6,0
					l-7.2-7.2L6.6,326.7C6.1,327.2,5.5,327.4,4.8,327.4z M-1.1,315.4l5.9,6l17.1-17.2c1-1,2.6-1,3.5,0l7.2,7.2l5.9-6l-7.2-7.2
					c-1-1-1-2.5,0-3.5l7.9-7.9c-2-2-4.1-3.9-6.3-5.5L-1.1,315.4z"/>
				<path d="M51.8,374.4c-0.7,0-1.3-0.3-1.8-0.7l-37.5-37.5c-1-1-1-2.6,0-3.5L23,322.2c1-1,2.6-1,3.5,0l8.2,8.2L50,315.2
					c1-1,2.6-1,3.5,0l9,9c0.9,1,0.9,2.5,0,3.5c-7.8,8.2-12.2,12.8-14.8,15.2c1.5,1.4,3.4,3.5,6.1,6.4l16.6-16.6c1-1,2.6-1,3.5,0
					l8.5,8.5c1,1,1,2.6,0,3.5l-29,29C53,374.2,52.4,374.4,51.8,374.4z M17.8,334.4l34,34l25.5-25.5l-5-5l-16.7,16.7
					c-0.5,0.5-1.1,0.7-1.8,0.7c-0.7,0-1.3-0.3-1.8-0.8c-3.4-3.7-7.4-8-8.9-9.2l-0.2-0.1c-0.9-0.4-1.6-1.3-1.6-2.3
					c0-1.1,0.7-2,1.6-2.4H43c1.8-1.6,8.2-8.1,14.3-14.5l-5.5-5.5l-15.2,15.2c-1,1-2.6,1-3.5,0l-8.2-8.2L17.8,334.4z"/>
				<path d="M71.2,394.9c-0.7,0-1.3-0.3-1.8-0.7L59,383.7c-1-1-1-2.6,0-3.5l36.3-36.2L50,297.7c-1-1-1-2.5,0-3.5l8.3-8.2l-35.7-35.7
					c-1-1-1-2.6,0-3.5l9-9c1-1,2.6-1,3.5,0l47.5,47.5c1,1,1,2.6,0,3.5l-6.7,6.7l63.7,63.7c1,1,1,2.6,0,3.5l-11,11c-1,1-2.6,1-3.5,0
					l-15.8-15.8L73,394.2C72.6,394.7,71.9,394.9,71.2,394.9z M64.2,381.9l7,7l36.2-36.2c1-1,2.6-1,3.5,0l15.7,15.7l7.5-7.5
					l-63.7-63.7c-1-1-1-2.6,0-3.5l6.7-6.7l-44-44l-5.5,5.5l35.7,35.7c1,1,1,2.6,0,3.5l-8.3,8.3l45.3,46.2c1,1,1,2.5,0,3.5
					L64.2,381.9z"/>
				<path d="M-117.2,340.4c-0.7,0-1.3-0.3-1.8-0.7l-10-10c-1-1-1-2.6,0-3.5l44-44c1-1,2.6-1,3.5,0l6.2,6.2l10.7-10.7
					c1-1,2.6-1,3.5,0l10.2,10.3L15,222.2c1-1,2.6-1,3.5,0l9,9c1,1,1,2.6,0,3.5L-51,313.2c-1,1-2.6,1-3.5,0l-9.2-9.3l-6.7,6.7
					c-1,1-2.6,1-3.5,0l-6.2-6.2l-35.2,35.3C-115.9,340.2-116.6,340.4-117.2,340.4z M-123.8,327.9l6.5,6.5l35.2-35.2c1-1,2.6-1,3.5,0
					l6.2,6.2l6.7-6.7c1-1,2.6-1,3.5,0l9.3,9.3l75-75l-5.5-5.5L-49,293.2c-1,1-2.6,1-3.5,0l-10.2-10.3l-10.7,10.8c-1,1-2.6,1-3.5,0
					l-6.2-6.2L-123.8,327.9z"/>
				<path d="M258.5,160.4c-0.7,0-1.3-0.3-1.8-0.7l-10-10c-1-1-1-2.6,0-3.5l44-44c1-1,2.6-1,3.5,0l6.2,6.2l10.7-10.7c1-1,2.6-1,3.5,0
					l10.2,10.3l65.7-65.7c1-1,2.6-1,3.5,0l9,9c1,1,1,2.6,0,3.5l-78.5,78.5c-1,1-2.6,1-3.5,0l-9.2-9.3l-6.8,6.8c-1,1-2.6,1-3.5,0
					l-6.2-6.2l-35.2,35.2C259.8,160.2,259.2,160.4,258.5,160.4z M252,147.9l6.5,6.5l35.2-35.2c1-1,2.6-1,3.5,0l6.2,6.2l6.7-6.7
					c1-1,2.6-1,3.5,0l9.2,9.2l75-75l-5.5-5.5l-65.7,65.7c-1,1-2.6,1-3.5,0L313,102.9l-10.8,10.8c-1,1-2.6,1-3.5,0l-6.2-6.2
					L252,147.9z"/>
				<path d="M120.5,251.9c-0.6,0-1.3-0.2-1.7-0.7l-18.2-17.3l-7.8,7.8c-1,1-2.6,1-3.5,0l-9.5-9.5c-1-1-1-2.6,0-3.5l8.2-8.2
					l-34.2-34.2c-1-1-1-2.6,0-3.5l27.5-27.5c1-1,2.6-1,3.5,0l10,10c1,1,1,2.6,0,3.5l-16.2,16.2l43,43l36.2-36.2c1-1,2.6-1,3.5,0
					l46,46c0.9,0.9,1,2.4,0.1,3.4c-8.8,10.4-10.4,10.4-11.4,10.4c-1.6,0-2.3,0-35.7-34.5l-2.4-2.5c-4.8,3.6-21.2,20.8-35.5,36.7
					c-0.5,0.5-1.1,0.8-1.8,0.8L120.5,251.9z M158.2,208.9c0.7,0,1.5,0.3,2,0.8c0.4,0.4,1.7,1.7,3.6,3.8
					c17.9,18.5,28.7,29.4,32.2,32.5c2.1-2,4.1-4.1,6-6.4l-42.6-42.6l-36.2,36.3c-1,1-2.6,1-3.5,0l-46.5-46.5c-1-1-1-2.6,0-3.5
					l16.2-16.2l-6.5-6.5l-24,24l34.2,34.2c1,1,1,2.6,0,3.5l-8.2,8.2l6,6l7.7-7.7c1-1,2.5-1,3.5,0l18.1,17.2
					c3-3.3,9.3-10.2,15.9-17.1C154.9,208.9,156.8,208.9,158.2,208.9z"/>
				<path d="M119.5,213.9c-0.7,0-1.3-0.3-1.8-0.7l-26-26c-1-1-1-2.6,0-3.5l10.5-10.5c1-1,2.6-1,3.5,0l26,26c1,1,1,2.6,0,3.5
					l-10.5,10.5C120.8,213.7,120.2,213.9,119.5,213.9z M97,185.4l22.5,22.5l7-7L104,178.5L97,185.4z"/>
				<path d="M143,264.9c-0.6,0-1.3-0.2-1.7-0.7l-10.5-10c-0.5-0.5-0.8-1.1-0.8-1.8c0-0.7,0.2-1.3,0.7-1.8l25-25.5
					c0.5-0.5,1.1-0.7,1.8-0.8c0.7,0,1.3,0.3,1.8,0.7l10.5,10.5c1,1,1,2.6,0,3.5l-25,25C144.3,264.7,143.7,264.9,143,264.9z
					 M136.1,252.4l6.9,6.6l21.5-21.5l-6.9-7L136.1,252.4z"/>
				<path d="M215,233.9c-0.7,0-1.3-0.3-1.8-0.7l-10.5-10.5c-1-1-1-2.6,0-3.5l32.5-32.5c1-1,2.6-1,3.5,0l10.5,10.5c1,1,1,2.6,0,3.5
					l-32.5,32.5C216.3,233.7,215.7,233.9,215,233.9z M208,220.9l7,7l29-29l-7-7L208,220.9z"/>
				<path d="M139.5,194.9c-0.7,0-1.3-0.3-1.8-0.7l-58-58c-0.5-0.5-0.7-1.1-0.7-1.8c0-0.7,0.3-1.3,0.8-1.8l58-56c1-1,2.5-1,3.5,0
					l10,10c1,1,1,2.6,0,3.5l-45.7,45.8l45.2,45.2c1,1,1,2.6,0,3.5l-9.5,9.5C140.8,194.7,140.2,194.9,139.5,194.9z M85.1,134.5
					l54.4,54.5l6-6l-45.2-45.2c-1-1-1-2.6,0-3.5L146,88.4l-6.5-6.5L85.1,134.5z"/>
				<path d="M130.1,147.4c-0.7,0-1.3-0.3-1.8-0.7l-9.4-9.5c-1-1-1-2.5,0-3.5l37.3-37.5c0.9-0.9,2.3-1,3.2-0.3
					c10.3,7.6,10.5,10.1,10.6,10.9c0.1,0.9-0.2,1.8-0.9,2.4l-7.2,7.2l7.2,7.2c1,1,1,2.5,0,3.5l-9.4,9.5c-1,0.9-2.6,0.9-3.5,0
					l-7.2-7.2l-17.1,17.2C131.4,147.2,130.7,147.4,130.1,147.4z M124.2,135.4l5.9,6l17.2-17.2c1-1,2.6-1,3.5,0l7.2,7.2l5.9-5.9
					l-7.2-7.2c-1-1-1-2.5,0-3.5l7.9-7.9c-2-2-4.1-3.9-6.3-5.5L124.2,135.4z"/>
				<path d="M126.2,318.4c-0.5,0-1-0.2-1.5-0.5c-10.3-7.6-10.5-10.1-10.6-10.9c-0.1-0.9,0.2-1.8,0.9-2.4l16.2-16.2l-17.7-17.7
					c-1-1-1-2.6,0-3.5l9.4-9.5c0.5-0.5,1.1-0.7,1.8-0.7l0,0c0.7,0,1.3,0.3,1.8,0.7l17.7,17.7l32.6-32.7c0.5-0.5,1.1-0.7,1.8-0.7l0,0
					c0.7,0,1.3,0.3,1.8,0.7l9.4,9.5c1,1,1,2.5,0,3.5l-61.8,62C127.6,318.2,126.9,318.4,126.2,318.4z M119.7,307.1
					c2,2,4.1,3.9,6.3,5.5l58.5-58.7l-5.9-6l-32.6,32.7c-1,0.9-2.6,0.9-3.5,0l-17.7-17.7l-5.9,6l17.7,17.7c1,1,1,2.6,0,3.5
					L119.7,307.1z"/>
				<path d="M111.1,299.5c-0.7,0-1.3-0.3-1.8-0.7l-37.5-37.5c-0.9-0.9-1-2.2-0.2-3.2c7.6-10.4,10-10.6,10.9-10.7
					c0.9-0.1,1.8,0.2,2.4,0.9l7.2,7.2l7.2-7.2c1-1,2.6-1,3.5,0l9.5,9.5c1,1,1,2.6,0,3.5l-7.2,7.2l17.2,17.2c1,1,1,2.6,0,3.5
					l-9.5,9.5C112.4,299.2,111.7,299.5,111.1,299.5z M76.9,259.3l34.2,34.2l6-6l-17.2-17.2c-1-1-1-2.6,0-3.5l7.2-7.2l-6-6l-7.2,7.2
					c-1,1-2.6,1-3.5,0l-7.9-7.8C80.4,254.9,78.6,257,76.9,259.3L76.9,259.3z"/>
				<path d="M177,194.4c-0.7,0-1.3-0.3-1.8-0.7l-37.5-37.5c-1-1-1-2.6,0-3.5l10.5-10.5c1-1,2.6-1,3.5,0l8.2,8.2l15.2-15.2
					c1-1,2.6-1,3.5,0l9,9c1,1,1,2.5,0,3.5c-7.8,8.2-12.2,12.8-14.8,15.2c1.5,1.4,3.4,3.5,6.1,6.4l16.6-16.6c1-1,2.6-1,3.5,0l8.5,8.5
					c1,1,1,2.6,0,3.5l-29,29C178.3,194.2,177.7,194.4,177,194.4z M143,154.4l34,34l25.5-25.5l-5-5l-16.7,16.7
					c-0.5,0.5-1.1,0.7-1.8,0.7c-0.7,0-1.3-0.3-1.8-0.8c-3.4-3.7-7.4-8-8.9-9.2l-0.2-0.1c-1-0.4-1.6-1.3-1.6-2.4c0-1.1,0.7-2,1.6-2.4
					h0.1c1.8-1.6,8.2-8.1,14.3-14.5l-5.5-5.5l-15.2,15.2c-1,1-2.6,1-3.5,0l-8.2-8.2L143,154.4z"/>
				<path d="M65,251.4c-0.7,0-1.3-0.3-1.8-0.7l-20-20c-1-1-1-2.6,0-3.5l5.7-5.7l-35.2-35.2c-1-1-1-2.6,0-3.5l6.7-6.7l-8.7-8.7
					c-1-1-1-2.6,0-3.5l29.5-29.5c1-1,2.6-1,3.5,0l8.6,8.6c6.7-7.8,8.2-7.8,9.1-7.8s2.5,0,11.2,8.2c1,0.9,1.1,2.5,0.1,3.5
					c0,0,0,0-0.1,0.1l-18,18c-1,1-2.6,1-3.5,0l-7.2-7.2l-6.5,6.5l7.7,7.7c1,1,1,2.6,0,3.5l-7.7,7.7l35.7,35.7c1,1,1,2.6,0,3.5
					l-7.2,7.2l8.7,8.7c1,1,1,2.6,0,3.5l-9,9C66.3,251.2,65.7,251.4,65,251.4z M48.5,228.9L65,245.4l5.5-5.5l-8.7-8.7
					c-1-1-1-2.6,0-3.5l7.2-7.2l-35.7-35.7c-1-1-1-2.6,0-3.5l7.7-7.7l-7.7-7.7c-1-1-1-2.6,0-3.5l10-10c1-1,2.6-1,3.5,0l7.2,7.2
					L68.4,145c-1.8-1.7-3.8-3.3-5.8-4.8c-2.6,2.4-5,5-7.2,7.8c-0.4,0.5-1.1,0.9-1.8,0.9c-0.7,0-1.4-0.2-1.9-0.7l-8.7-8.7l-26,26
					l8.7,8.7c1,1,1,2.6,0,3.5l-6.7,6.7l35.2,35.2c1,1,1,2.6,0,3.5L48.5,228.9z"/>
				<path d="M196.5,214.9c-0.7,0-1.3-0.3-1.8-0.7l-10.5-10.5c-1-1-1-2.6,0-3.5l36.2-36.2l-45.2-46.2c-1-1-1-2.5,0-3.5l8.2-8.2
					l-35.7-35.7c-1-1-1-2.6,0-3.5l9-9c1-1,2.6-1,3.5,0l47.5,47.5c1,1,1,2.6,0,3.5l-6.7,6.7l63.7,63.7c1,1,1,2.6,0,3.5l-11,11
					c-1,1-2.6,1-3.5,0l-15.8-15.8l-36.2,36.3C197.8,214.7,197.2,214.9,196.5,214.9z M189.5,201.9l7,7l36.2-36.2c1-1,2.6-1,3.5,0
					l15.7,15.7l7.5-7.5l-63.7-63.7c-1-1-1-2.6,0-3.5l6.7-6.7l-44-44l-5.5,5.5l35.7,35.7c1,1,1,2.6,0,3.5l-8.2,8.2l45.3,46.2
					c1,1,1,2.5,0,3.5L189.5,201.9z"/>
				<path d="M8,160.4c-0.7,0-1.3-0.3-1.8-0.7l-10-10c-1-1-1-2.6,0-3.5l44-44c1-1,2.6-1,3.5,0l6.2,6.2l10.7-10.7c1-1,2.6-1,3.5,0
					l10.2,10.3l65.8-65.8c1-1,2.6-1,3.5,0l9,9c1,1,1,2.6,0,3.5l-78.5,78.5c-1,1-2.6,1-3.5,0l-9.2-9.3l-6.7,6.7c-1,1-2.6,1-3.5,0
					l-6.2-6.2L9.8,159.7C9.3,160.2,8.7,160.4,8,160.4z M1.5,147.9l6.5,6.5l35.2-35.2c1-1,2.6-1,3.5,0l6.2,6.2l6.7-6.7
					c1-1,2.6-1,3.5,0l9.2,9.2l75-75l-5.5-5.5l-65.8,65.8c-1,1-2.6,1-3.5,0l-10.2-10.3l-10.7,10.7c-1,1-2.6,1-3.5,0l-6.2-6.2
					L1.5,147.9z"/>
				<path d="M-54,214.9c-0.7,0-1.3-0.3-1.8-0.7l-10.5-10.5c-1-1-1-2.6,0-3.5l36.2-36.2l-45.3-46.2c-1-1-1-2.5,0-3.5l8.2-8.2
					l-35.7-35.7c-1-1-1-2.6,0-3.5l9-9c1-1,2.6-1,3.5,0l47.5,47.5c1,1,1,2.6,0,3.5l-6.7,6.7l63.7,63.7c1,1,1,2.6,0,3.5l-11,11
					c-1,1-2.6,1-3.5,0L-16,177.9l-36.2,36.3C-52.7,214.7-53.3,214.9-54,214.9z M-61,201.9l7,7l36.2-36.3c1-1,2.6-1,3.5,0l15.7,15.7
					l7.5-7.5l-63.7-63.7c-1-1-1-2.6,0-3.5l6.7-6.7l-44-44l-5.5,5.5l35.8,35.8c1,1,1,2.6,0,3.5l-8.2,8.2l45.2,46.2c1,1,1,2.5,0,3.5
					L-61,201.9z"/>
				<path d="M245.8,71.9c-0.6,0-1.3-0.2-1.7-0.7l-18.2-17.3l-7.8,7.8c-1,1-2.6,1-3.5,0l-9.5-9.5c-1-1-1-2.6,0-3.5l8.3-8.2L179,6.2
					c-1-1-1-2.6,0-3.5l27.5-27.5c1-1,2.6-1,3.5,0l10,10c1,1,1,2.6,0,3.5L203.8,4.9l43,43L283,11.7c1-1,2.6-1,3.5,0l46,46
					c0.9,0.9,1,2.4,0.1,3.4c-8.8,10.3-10.4,10.3-11.5,10.3c-1.6,0-2.3,0-35.7-34.5l-2.4-2.5c-4.8,3.6-21.2,20.8-35.5,36.7
					c-0.5,0.5-1.1,0.8-1.8,0.8H245.8z M283.5,28.9c0.7,0,1.5,0.3,2,0.8c0.4,0.4,1.7,1.7,3.6,3.8c17.9,18.5,28.7,29.4,32.2,32.5
					c2.1-2,4.1-4.1,6-6.4l-42.6-42.6l-36.2,36.2c-1,1-2.6,1-3.5,0L198.5,6.7c-1-1-1-2.6,0-3.5l16.2-16.2l-6.5-6.5l-24,24l34.2,34.2
					c1,1,1,2.6,0,3.5l-8.2,8.2l6,6l7.7-7.7c1-1,2.5-1,3.5,0l18.1,17.2c3-3.3,9.3-10.2,15.9-17.1C280.2,29,282,29,283.5,28.9
					L283.5,28.9z"/>
				<path d="M244.8,33.9c-0.7,0-1.3-0.3-1.8-0.7l-26-26c-1-1-1-2.6,0-3.5l10.5-10.5c1-1,2.6-1,3.5,0l26,26c1,1,1,2.6,0,3.5
					l-10.5,10.5C246.1,33.7,245.4,33.9,244.8,33.9z M222.2,5.4l22.5,22.5l7-7L229.2-1.5L222.2,5.4z"/>
				<path d="M264.8,14.9c-0.7,0-1.3-0.3-1.8-0.7l-58-58c-0.5-0.5-0.7-1.1-0.7-1.8c0-0.7,0.3-1.3,0.8-1.8l58-56c1-1,2.5-1,3.5,0
					l10,10c1,1,1,2.6,0,3.5l-45.7,45.8L276,1.2c1,1,1,2.6,0,3.5l-9.5,9.5C266.1,14.7,265.4,14.9,264.8,14.9z M210.3-45.5l54.4,54.5
					l6-6l-45.3-45.2c-1-1-1-2.6,0-3.5l45.8-45.7l-6.5-6.5L210.3-45.5z"/>
				<path d="M251.5,138.4c-0.5,0-1-0.2-1.5-0.5c-10.3-7.6-10.5-10.1-10.6-10.9c-0.1-0.9,0.2-1.8,0.9-2.4l16.2-16.2l-17.7-17.7
					c-1-1-1-2.6,0-3.5l9.4-9.5c0.5-0.5,1.1-0.7,1.8-0.7l0,0c0.7,0,1.3,0.3,1.8,0.7l17.7,17.7L302,62.7c0.5-0.5,1.1-0.7,1.8-0.7l0,0
					c0.7,0,1.3,0.3,1.8,0.7l9.4,9.5c1,1,1,2.5,0,3.5l-61.8,62C252.8,138.2,252.1,138.4,251.5,138.4z M244.9,127.1
					c2,2,4.1,3.9,6.4,5.5l58.5-58.7l-5.9-6l-32.6,32.7c-1,0.9-2.6,0.9-3.5,0L250,82.9l-5.9,6l17.7,17.7c1,1,1,2.6,0,3.5L244.9,127.1
					z"/>
				<path d="M236.3,119.5c-0.7,0-1.3-0.3-1.8-0.7l-37.5-37.5c-0.9-0.9-1-2.2-0.2-3.2c7.6-10.4,10-10.6,10.9-10.7
					c0.9-0.1,1.8,0.2,2.4,0.9l7.2,7.2l7.2-7.2c1-1,2.6-1,3.5,0l9.5,9.5c1,1,1,2.6,0,3.5l-7.2,7.2l17.2,17.2c1,1,1,2.6,0,3.5
					l-9.5,9.5C237.6,119.2,237,119.5,236.3,119.5z M202.1,79.3l34.2,34.2l6-6L225,90.3c-1-1-1-2.6,0-3.5l7.2-7.2l-6-6l-7.2,7.2
					c-1,1-2.6,1-3.5,0l-7.8-7.8C205.7,74.9,203.8,77,202.1,79.3z"/>
				<path d="M190.2,71.4c-0.7,0-1.3-0.3-1.8-0.7l-20-20c-1-1-1-2.6,0-3.5l5.8-5.7L139,6.2c-1-1-1-2.6,0-3.5l6.7-6.7l-8.7-8.7
					c-1-1-1-2.6,0-3.5l29.5-29.5c1-1,2.6-1,3.5,0l8.6,8.6c6.7-7.8,8.1-7.8,9.1-7.8s2.5,0,11.2,8.2c1,0.9,1.1,2.5,0.1,3.5
					c0,0,0,0-0.1,0.1l-18,18c-1,1-2.6,1-3.5,0l-7.2-7.2l-6.5,6.5l7.7,7.7c1,1,1,2.6,0,3.5l-7.7,7.7l35.7,35.7c1,1,1,2.6,0,3.5
					l-7.3,7.2l8.7,8.7c1,1,1,2.6,0,3.5l-9,9C191.5,71.2,190.9,71.4,190.2,71.4z M173.8,48.9l16.5,16.5l5.5-5.5l-8.7-8.7
					c-1-1-1-2.6,0-3.5l7.3-7.2L158.5,4.7c-1-1-1-2.6,0-3.5l7.7-7.7l-7.7-7.7c-1-1-1-2.6,0-3.5l10-10c1-1,2.6-1,3.5,0l7.2,7.2
					L193.7-35c-1.8-1.7-3.8-3.3-5.8-4.8c-2.6,2.4-5,5-7.2,7.8c-0.4,0.5-1.1,0.9-1.8,0.9c-0.7,0-1.4-0.2-1.9-0.7l-8.8-8.7l-26,26
					l8.7,8.7c1,1,1,2.6,0,3.5l-6.7,6.7l35.2,35.2c1,1,1,2.6,0,3.5L173.8,48.9z"/>
				<path d="M-4.8,71.9c-0.6,0-1.3-0.2-1.7-0.7l-18.3-17.3l-7.8,7.8c-1,1-2.6,1-3.5,0l-9.5-9.5c-1-1-1-2.6,0-3.5l8.2-8.2L-71.5,6.2
					c-1-1-1-2.6,0-3.5L-44-24.8c1-1,2.6-1,3.5,0l10,10c1,1,1,2.6,0,3.5L-46.8,4.9l43,43l36.2-36.2c1-1,2.6-1,3.5,0l46,46
					c0.9,0.9,1,2.4,0.1,3.4c-8.8,10.4-10.4,10.4-11.4,10.4c-1.6,0-2.3,0-35.7-34.5l-2.4-2.5C27.8,38,11.5,55.2-2.9,71.1
					C-3.3,71.6-4,71.9-4.8,71.9L-4.8,71.9z M33,28.9c0.7,0,1.5,0.3,2,0.8c0.4,0.4,1.7,1.7,3.6,3.8c17.9,18.5,28.7,29.4,32.2,32.5
					c2.1-2,4.1-4.1,6-6.4L34.2,16.9L-2,53.2c-1,1-2.6,1-3.5,0L-52,6.7c-1-1-1-2.6,0-3.5l16.3-16.2l-6.5-6.5l-24,24L-32,38.7
					c1,1,1,2.6,0,3.5l-8.2,8.2l6,6l7.7-7.7c1-1,2.5-1,3.5,0L-4.8,66c3-3.3,9.3-10.2,15.9-17.1C29.7,29.1,31.5,29,33,29L33,28.9z"/>
				<path d="M-5.8,33.9c-0.7,0-1.3-0.3-1.8-0.7l-26-26c-1-1-1-2.6,0-3.5L-23-6.8c1-1,2.6-1,3.5,0l26,26c1,1,1,2.6,0,3.5L-4,33.2
					C-4.4,33.7-5.1,33.9-5.8,33.9z M-28.2,5.4l22.5,22.5l7-7L-21.2-1.5L-28.2,5.4z"/>
				<path d="M17.8,84.9c-0.6,0-1.3-0.2-1.7-0.7l-10.5-10c-0.5-0.5-0.8-1.1-0.8-1.8c0-0.7,0.2-1.3,0.7-1.8l25-25.5
					c0.5-0.5,1.1-0.7,1.8-0.8c0.7,0,1.3,0.3,1.8,0.7l10.5,10.5c1,1,1,2.6,0,3.5l-25,25C19.1,84.7,18.4,84.9,17.8,84.9z M10.8,72.4
					l6.9,6.6l21.5-21.5l-7-6.9L10.8,72.4z"/>
				<path d="M89.8,53.9c-0.7,0-1.3-0.3-1.8-0.7L77.5,42.7c-1-1-1-2.6,0-3.5L110,6.7c1-1,2.6-1,3.5,0L124,17.2c1,1,1,2.6,0,3.5
					L91.5,53.2C91.1,53.7,90.4,53.9,89.8,53.9z M82.8,40.9l7,7l29-29l-7-7L82.8,40.9z"/>
				<path d="M14.2,14.9c-0.7,0-1.3-0.3-1.8-0.7l-58-58c-0.5-0.5-0.7-1.1-0.7-1.8c0-0.7,0.3-1.3,0.8-1.8l58-56c1-1,2.5-1,3.5,0l10,10
					c1,1,1,2.6,0,3.5l-45.8,45.8L25.5,1.2c1,1,1,2.6,0,3.5L16,14.2C15.5,14.7,14.9,14.9,14.2,14.9z M-40.2-45.5L14.2,8.9l6-6
					L-25-42.3c-1-1-1-2.6,0-3.5l45.7-45.7l-6.5-6.5L-40.2-45.5z"/>
				<path d="M1,138.4c-0.5,0-1-0.2-1.5-0.5c-10.3-7.6-10.5-10.1-10.6-10.9c-0.1-0.9,0.2-1.8,0.9-2.4l16.2-16.2l-17.7-17.7
					c-1-1-1-2.6,0-3.5l9.4-9.5c0.5-0.5,1.1-0.7,1.8-0.7l0,0c0.7,0,1.3,0.3,1.8,0.7l17.7,17.7l32.6-32.7c0.5-0.5,1.1-0.7,1.8-0.7l0,0
					c0.7,0,1.3,0.3,1.8,0.7l9.4,9.5c1,1,1,2.5,0,3.5l-61.8,62C2.3,138.2,1.6,138.4,1,138.4z M-5.6,127.1c2,2,4.1,3.9,6.3,5.5
					l58.5-58.7l-5.9-6l-32.6,32.7c-1,0.9-2.6,0.9-3.5,0L-0.5,82.9l-5.9,6l17.7,17.7c1,1,1,2.6,0,3.5L-5.6,127.1z"/>
				<path d="M51.8,14.4c-0.7,0-1.3-0.3-1.8-0.7L12.5-23.8c-1-1-1-2.6,0-3.5L23-37.8c1-1,2.6-1,3.5,0l8.2,8.2L50-44.8
					c1-1,2.6-1,3.5,0l9,9c0.9,1,0.9,2.5,0,3.5c-7.8,8.2-12.2,12.8-14.8,15.2c1.5,1.4,3.4,3.5,6.1,6.4l16.6-16.7c1-1,2.6-1,3.5,0
					l8.5,8.5c1,1,1,2.6,0,3.5l-29,29C53,14.2,52.4,14.4,51.8,14.4z M17.8-25.6l34,34l25.5-25.5l-5-5L55.5-5.3
					c-0.5,0.5-1.1,0.7-1.8,0.7c-0.7,0-1.3-0.3-1.8-0.8c-3.4-3.7-7.4-8-8.9-9.2l-0.2-0.1c-0.9-0.4-1.6-1.3-1.6-2.3
					c0-1.1,0.7-2,1.6-2.4H43c1.8-1.6,8.2-8.1,14.3-14.5l-5.5-5.5L36.5-24.3c-1,1-2.6,1-3.5,0l-8.2-8.2L17.8-25.6z"/>
				<path d="M71.2,34.9c-0.7,0-1.3-0.3-1.8-0.7L59,23.7c-1-1-1-2.6,0-3.5l36.3-36.2L50-62.3c-1-1-1-2.5,0-3.5l8.3-8.2l-35.8-35.7
					c-1-1-1-2.6,0-3.5l9-9c1-1,2.6-1,3.5,0l47.5,47.5c1,1,1,2.6,0,3.5l-6.7,6.7l63.7,63.7c1,1,1,2.6,0,3.5l-11,11c-1,1-2.6,1-3.5,0
					L109.2-2.1L73,34.2C72.6,34.7,71.9,34.9,71.2,34.9z M64.2,21.9l7,7l36.2-36.2c1-1,2.6-1,3.5,0l15.7,15.7l7.5-7.5L70.5-62.8
					c-1-1-1-2.6,0-3.5l6.8-6.7l-44-44l-5.5,5.5l35.7,35.7c1,1,1,2.6,0,3.5l-8.3,8.3l45.3,46.2c1,1,1,2.5,0,3.5L64.2,21.9z"/>
			</g>
		</g>
	</g>
</g>
</svg>
