<?xml version="1.0" encoding="utf-8"?>
<!-- Generator: Adobe Illustrator 22.1.0, SVG Export Plug-In . SVG Version: 6.00 Build 0)  -->
<svg version="1.1" id="Layer_1" xmlns="http://www.w3.org/2000/svg" xmlns:xlink="http://www.w3.org/1999/xlink" x="0px" y="0px"
	 viewBox="0 0 519.5 239" style="enable-background:new 0 0 519.5 239;" xml:space="preserve">
<style type="text/css">
	.st0{fill:#FEFEFE;}
	.st1{fill:#012E53;}
	.st2{fill:#032F54;}
	.st3{fill:#053156;}
	.st4{fill:#032F55;}
	.st5{fill:#033055;}
	.st6{fill:#022F54;}
	.st7{fill:#022E54;}
	.st8{fill:#012E54;}
	.st9{fill:#F7F9FA;}
	.st10{fill:#8197AA;}
	.st11{fill:#1C4465;}
	.st12{fill:#FBFCFC;}
	.st13{fill:#FCFCFC;}
	.st14{fill:#1E4667;}
	.st15{fill:#E4E9ED;}
	.st16{fill:#E6EAEE;}
</style>
<g>
	<g>
		<path class="st0" d="M333,234.7c-9.7,0-19.5,0-29.2,0c-0.1-0.5-0.1-1.2-0.4-1.6c-4.2-7.7-8.4-15.5-12.6-23.2
			c-0.6-1.1-1.4-1.6-2.6-1.5c-2.5,0-5,0-7.4,0c-1.2,0-2,0.5-2.6,1.5c-4.3,7.7-8.6,15.5-12.9,23.2c-0.3,0.5-0.3,1.1-0.4,1.6
			c-10.2,0-20.4,0-30.5,0c0.4-0.4,0.8-0.9,1.1-1.3c4.4-7.8,8.8-15.7,13.1-23.5c0.7-1.2,0.5-1.5-0.9-1.5c-1.8,0-3.6,0-5.4,0
			c-1.3-0.1-2.1,0.5-2.8,1.7c-2.9,5.5-5.9,10.9-8.9,16.3c-0.3,0.5-0.6,0.9-1,1.5c-0.5-0.9-0.8-1.5-1.2-2.1
			c-2.7-5.2-5.4-10.4-8.1-15.7c-0.7-1.3-1.5-1.8-3-1.8c-1.7,0.1-3.3,0-5,0c-1.5,0-1.7,0.3-1,1.7c3.9,7.4,7.8,14.8,11.7,22.1
			c0.5,0.9,1.1,1.7,1.6,2.6c-12.3,0-24.7,0-37,0c1-1.7,0.5-3.6,0.3-5.3c0-0.2-0.8-0.6-1.2-0.6c-1.3-0.1-2.5,0-3.8,0
			c-4.8,0-9.6,0-14.5,0c-1.3,0-1.9-0.5-1.7-1.8c0-0.2,0-0.4,0-0.5c0-2.3,0-2.3,2.2-2.3c4.8,0,9.6,0,14.5,0c3.3,0,3.3,0,3.3-3.4
			c0-1.7-0.2-1.9-2-1.9c-5.3,0-10.6,0-15.9,0c-0.6,0-1.6-0.2-1.7-0.4c-0.3-1-0.4-2.2-0.2-3.3c0.1-0.3,1.1-0.7,1.8-0.7
			c5.9-0.1,11.8-0.1,17.7,0c1.3,0,1.8-0.5,1.7-1.8c-0.1-0.8,0-1.6,0-2.4c0-1.6-0.3-1.9-1.9-1.9c-8.6,0-17.2,0-25.8,0
			c-1.5,0-1.8,0.3-1.8,1.8c0,7.6,0,15.2,0,22.8c0,0.6,0.3,1.2,0.5,1.7c-7.7,0-15.5,0-23.2,0c0.2-0.5,0.5-1.1,0.5-1.6
			c0.1-1,0-2.1,0-3.1c0-1.7-0.2-1.9-2-1.9c-4.7,0-9.4,0-14,0c-2.1,0-2.2,0-2.2-2.2c0-5.2,0-10.3,0-15.5c0-1.7-0.3-2-1.9-2
			c-1.4,0-2.8,0-4.2,0c-1.8,0-2,0.2-2,2c0,7.3,0,14.7,0,22c0,0.8,0.2,1.6,0.3,2.3c-8.1,0-16.2,0-24.3,0c0.1-1.4,0.3-2.7,0.4-4.1
			c0.1-1.6-0.2-1.9-1.9-1.9c-5.7,0-11.4,0-17,0c-2.4,0-2.5,0-2.5-2.5c0-0.1,0-0.2,0-0.3c0-1.6,0.2-1.8,1.8-1.8c4.9,0,9.7,0,14.6,0
			c3.9,0,3.5,0.2,3.5-3.6c0-1.2-0.4-1.7-1.7-1.7c-3,0.1-6,0-9.1,0c-2.3,0-4.7,0-7,0c-2,0-2.2-0.2-2.2-2.1c0-0.2,0-0.4,0-0.5
			c0-1.6,0.2-1.8,1.8-1.8c5.2,0,10.4,0,15.5,0c4.3,0,4,0.6,4-4.1c0-1.8-0.3-2-2-2c-8.5,0-16.9,0-25.4,0c-1.8,0-2,0.2-2,2
			c0,7.5,0,15,0,22.4c0,0.6,0.3,1.3,0.4,1.9c-17.8,0-35.7,0-53.5,0c0-19.4,0-38.7,0-58.1l0.1,0.1l0.1,0c0.6,2,2.1,3.3,3.5,3.1
			c7.9-1.2,15.7-2.4,23.6-3.5c10.5-1.5,21-3,31.6-4.2c11.7-1.4,23.4-2.5,35.2-3.6c12.4-1.2,24.8-2.1,37.3-3.2
			c2.4-0.2,3.4-1.3,3.5-3.7c0-3,0-5.9,0-8.9c0-2.4-0.6-3-3-3.1c-3.2-0.2-6.4-0.5-9.3-1.9c-3.2-1.5-4.9-4.1-4.9-7.7
			c0-1.2,0-2.4,0-3.6c0-15.2,0-30.5,0-45.7c0-4.6,2.7-7.8,7.2-8.7c0.8-0.1,1.5-0.3,2.2-0.4c1.7-0.4,2.4-1.3,2.4-3.1
			c0-3.3,0-6.6,0-9.9c0-2.6-0.8-3.4-3.5-3.4c-13.9,0-27.8,0-41.6,0c-0.3,0-0.6,0-0.9,0c-1.5,0.1-2.5,1.1-2.5,2.6c0,3.7,0,7.5,0,11.2
			c0,1.5,0.9,2.4,2.4,2.6c0.6,0.1,1.2,0.1,1.8,0.1c4.5,0.1,7.3,2.9,7.4,7.4c0,1.3,0.1,2.6,0.1,3.9c0,11.4,0,22.8,0,34.2
			c0,7.8-4,13.3-11.5,15.5c-6.4,1.9-12.8,1.4-18.8-1.6c-5.4-2.7-8.4-7.2-8.5-13.2c-0.1-12.4-0.1-24.9,0-37.3c0-3.3,1.6-5.8,4.6-7.5
			c1.8-1,3.7-1.4,5.8-1.4c2.6,0,3.4-0.9,3.4-3.4c0-3.2,0-6.4,0-9.6c0-2.7-0.8-3.5-3.6-3.5c-20,0-40.1,0-60.1,0C6.3,65,5,65.3,4,66.5
			C4,46,4,25.4,4,4.9c57.8,0,115.5,0,173.3,0c-0.2,0.4-0.5,0.9-0.5,1.3c0,7.9,0,15.8,0,23.6c0,0.9,0.5,1.4,1.4,1.4
			c7.8,0,15.7,0,23.5,0c1,0,1.4-0.5,1.3-1.4c0-1.2-0.1-2.3,0-3.5c0.1-1.3-0.5-1.7-1.8-1.7c-4.8,0-9.6,0-14.5,0c-1.8,0-2-0.2-2-1.9
			c0-5.3,0-10.6,0-15.9c0-0.6-0.3-1.2-0.5-1.9c13.1,0,26.1,0,39.2,0c-0.2,0.5-0.5,1.1-0.5,1.6c0,7.7,0,15.5,0,23.2
			c0,1.2,0.5,1.6,1.6,1.6c1.6,0,3.2,0,4.9,0c1.2,0,1.6-0.5,1.6-1.7c0-7.6,0-15.3,0-22.9c0-0.6-0.3-1.2-0.5-1.7c8.6,0,17.1,0,25.7,0
			c-0.2,0.5-0.6,1-0.6,1.6c0,7.7,0,15.5,0,23.2c0,1.1,0.4,1.6,1.5,1.5c1.7,0,3.3,0,5,0c1.2,0,1.6-0.5,1.6-1.6c0-2.3,0-4.7,0-7
			c0-1.8,0.2-2,2-2c4.9,0,9.8,0,14.7,0c3.1,0,3.2,0.4,3.1-3.1c0-1.9-0.1-2.1-2.1-2.1c-5.4,0-10.7,0-16.1,0c-0.6,0-1.4-0.2-1.6-0.6
			c-1.1-1.9,0.1-3.8,2.3-3.8c5.3,0,10.5,0,15.8,0c0.7,0,1.6,0.1,1.6-0.8c0-1.7-0.2-3.4-0.3-5.1c7.8,0,15.7,0,23.5,0
			c-0.2,0.6-0.5,1.2-0.5,1.9c0,7.5,0,15,0,22.6c0,1.8,0.2,1.9,1.9,1.9c7.9,0,15.8,0,23.6,0c4.3,0,3.9,0.4,3.9-3.8
			c0-2.1-0.1-2.2-2.2-2.2c-5.8,0-11.6,0-17.4,0c-1.3,0-1.8-0.5-1.7-1.8c0-0.3,0-0.5,0-0.8c0-1.8,0.2-2,2-2c4.9,0,9.8,0,14.7,0
			c3.3,0,3.2,0.4,3.2-3.2c0-1.9-0.1-2-2-2c-5.4,0-10.7,0-16.1,0c-0.6,0-1.6-0.3-1.6-0.6c-0.2-1.1-0.2-2.3,0-3.3
			c0.1-0.4,1.3-0.6,2-0.6c5.8,0,11.6,0,17.4-0.1c0.5,0,1.5-0.4,1.5-0.7c0.1-1.8,0.6-3.6-0.4-5.2c60.2,0,120.5,0,180.8,0
			c0,20.5,0,41.1,0,61.6c-0.9-1.2-2-1.5-3.5-1.5c-19.1,0-38.1,0-57.2,0c-0.3,0-0.6,0-0.9,0c-1.5,0.1-2.5,0.9-2.6,2.4
			c-0.1,3.9-0.1,7.7,0,11.6c0,1.5,1,2.2,2.5,2.3c4.6,0.2,7.5,3,7.6,7.6c0.2,6.8,0.2,13.6,0.2,20.4c0,1.7-1.1,2.8-2.8,2.8
			c-8.8,0-17.6,0-26.4,0c-1.8,0-2.9-1-2.9-2.8c0-6.9-0.1-13.8,0.1-20.7c0.1-5.7,1.6-7,7.3-7.2c2.1-0.1,3-0.9,3-3.1
			c0-3.4,0-6.8,0-10.1c0-2.2-0.9-3.1-3.1-3.1c-19.4,0-38.7,0-58.1,0c-2.1,0-3,1-3.1,3.1c0,3.4,0,6.8,0,10.3c0,2.2,0.9,3.1,3.1,3.2
			c1.7,0,3.3,0,5,0.2c3.9,0.4,6.9,3.5,7.1,7c0.1,2,0.2,4,0.2,5.9c0,14.7,0,29.5,0,44.2c0,1.1-0.1,2.3-0.2,3.4
			c-0.5,3.6-2.7,5.9-6.3,6.5c-1.2,0.2-2.3,0.3-3.5,0.5c-2.1,0.2-2.6,0.8-2.7,2.9c0,3.3,0,6.7,0,10c0,1.8,0.8,2.7,2.6,2.8
			c4.2,0.4,8.3,0.6,12.5,1c12.6,1.1,25.1,2.1,37.7,3.2c1.9,0.2,3.8,0.4,5.6,0.6c1.8,0.1,3.1-0.7,3.1-2c0.1-3.7,0.1-7.5,0-11.2
			c0-1.8-0.7-2.3-2.4-2.7c-4.7-1-7.5-4.1-7.7-8.8c-0.2-4.5-0.2-9.1-0.2-13.6c0-1.8,1.1-2.8,2.9-2.8c8.7,0,17.5,0,26.2,0
			c1.9,0,2.9,1,2.9,2.9c0,4.7,0,9.4,0,14.1c0,1.8-0.1,3.5-0.2,5.3c-0.3,2.9-1.7,4.3-4.6,4.6c-0.9,0.1-1.8,0.1-2.7,0.1
			c-2,0.1-2.8,0.8-2.9,2.8c0,3.6,0,7.1,0,10.7c0,1.8,0.7,2.5,2.5,2.7c2.2,0.3,4.4,0.5,6.6,0.8c17.2,2.4,34.3,4.7,51.5,7.2
			c1.7,0.2,2.8-0.1,3.7-1.5c0,18.8,0,37.7,0,56.5c-20,0-40,0-60,0c0.3-0.1,0.6-0.2,0.8-0.3c3.3-0.9,5.7-3.5,5.9-7
			c0.2-3.7,0.2-7.5,0-11.2c-0.3-4.4-2.3-6.6-6-7.4c-0.9-0.2-1.8-0.3-2.7-0.4c-8.3-0.1-16.6-0.1-24.8-0.1c-1.3,0-1.6,0.7-1.6,1.8
			c0,7.6,0,15.2,0,22.8c0,0.6,0.3,1.2,0.5,1.7c-8.2,0-16.4,0-24.6,0c0.2-1.3,0.4-2.6,0.5-3.9c0.1-1.8-0.2-2-2-2
			c-5.9,0-11.7,0-17.6,0c-1.5,0-1.8-0.3-1.8-1.8c0-0.3,0-0.6,0-0.9c0-1.7,0.1-1.8,1.9-1.8c4.9,0,9.8,0,14.7,0c3.3,0,3.3,0,3.3-3.3
			c0-1.8-0.2-2-2-2c-5.3,0-10.6,0-15.9,0c-1.8,0-1.9-0.2-1.9-2.5c0-1.8,0.1-1.9,1.9-1.9c5.9,0,11.7,0,17.6,0c1.6,0,1.9-0.3,1.9-1.9
			c0-0.7,0-1.4,0-2.2c0-1.8-0.2-2-2-2c-8.5,0-16.9,0-25.4,0c-1.8,0-2,0.2-2,2c0,7.4,0,14.9,0,22.3c0,0.7,0.2,1.4,0.3,2.1
			c-11.5,0-23.1,0-34.6,0c0.1-0.6,0.3-1.3,0.3-1.9c0-5.3,0-10.5,0-15.8c0-1.7,0.3-1.9,2-1.9c2.7,0,5.5,0,8.2,0
			c1.1,0,1.6-0.5,1.6-1.5c0-1.2,0-2.4,0-3.6c0-1.1-0.6-1.5-1.6-1.5c-9.5,0-19,0-28.5,0c-1.1,0-1.5,0.5-1.5,1.6c0,1.2,0,2.3,0,3.5
			c0,1.1,0.5,1.6,1.6,1.6c2.7,0,5.5,0,8.2,0c1.7,0,1.9,0.2,1.9,2c0,5.3,0,10.5,0,15.8C332.6,233.4,332.9,234,333,234.7z
			 M155.5,108.9c0.6-4,0.9-7.9,1.8-11.6c1.4-5.7,4.5-10.2,10.1-12.6c3.5-1.5,7.2-1.6,10.9-1.5c1.4,0.1,2.2,1.2,2.2,2.7
			c0,16.5,0,33.1,0,49.6c0,3.8-1.7,6.9-5.1,8.8c-1.2,0.7-2.5,1.4-3.8,1.6c-4.1,0.8-8.3,1.5-12.5,2.2c-2.3,0.3-3.2,1.2-3.2,3.5
			c0,3,0,5.9,0,8.9c0,2.4,1.1,3.3,3.5,3.2c3.2-0.2,6.5-0.4,9.7-0.5c12.2-0.5,24.4-1.2,36.7-1.5c11.7-0.4,23.4-0.5,35.1-0.7
			c2.1,0,3.1-1,3.1-3.1c0-3.2,0-6.4,0-9.6c0-1.8-0.8-2.6-2.6-2.8c-3.1-0.2-6.2-0.3-9.3-0.5c-2.8-0.2-5.4-0.8-7.9-2.2
			c-2.7-1.6-4.6-3.8-5-7c-0.2-2-0.3-4-0.3-6.1c0-14.4,0-28.8,0-43.2c0-0.4,0-0.8,0-1.2c0.2-1.2,1.1-2.2,2.3-2.2
			c3.5-0.1,6.9-0.1,10.2,1.2c6.1,2.4,9.4,7.1,10.9,13.2c0.9,3.6,1.2,7.2,1.7,11.1c0.3,0,1,0.2,1.6,0.2c3.9,0,7.7,0,11.6,0
			c2.5,0,3.4-0.9,3.4-3.4c0-12.3,0-24.6,0-36.9c0-2.8-0.8-3.6-3.6-3.6c-38.2,0-76.5,0-114.7,0c-2.8,0-3.6,0.8-3.6,3.6
			c0,12.2,0,24.4,0,36.6c0,0.4,0,0.8,0,1.2c0.2,1.5,1.1,2.4,2.6,2.5C146.2,109,151,108.9,155.5,108.9z M314.6,65
			c-5.9,0-11.9,0-17.8,0c-2.3,0-3.5,0.8-4.3,3c-6.6,18.9-13.2,37.8-19.8,56.7c-1.6,4.6-3.3,9.2-5.2,13.7c-1.4,3.2-4,5.4-7.4,6.1
			c-2.6,0.5-5.2,0.7-7.9,0.9c-2.1,0.2-2.9,0.8-2.9,3c0,3.2,0,6.3,0,9.5c0,2.1,1,3,3,3c9.7,0,19.4,0.1,29.1,0.1
			c2.3,0,3.1-0.7,3.7-2.9c1.1-3.8,2.2-7.6,3.3-11.4c0.6-2.1,2-3.1,4.2-3.1c8.3,0,16.6,0,24.9,0c2.2,0,3.5,1,4.2,3.1
			c1.3,3.9,2.5,7.9,3.8,11.8c0.8,2.5,2.3,3.6,4.4,3.7c11.9,0.6,23.8,1.2,35.7,1.8c1.7,0.1,3.4,0.2,5.1,0.2c1.7,0,2.8-0.9,2.8-2.3
			c0-3.6,0-7.2,0-10.8c0-1.3-0.7-2.1-1.9-2.4c-0.5-0.1-1.1-0.2-1.6-0.4c-4.6-1-8.2-3.3-10.2-7.8c-0.8-1.8-1.7-3.6-2.3-5.5
			c-7-22.3-14-44.6-21.1-67c-0.7-2.4-1.8-3.2-4.3-3.2C326.3,65,320.5,65,314.6,65z M474.7,213.9c1.6,0,2.9-1.2,2.9-2.8
			c0-1.6-1.2-2.8-2.8-2.8c-1.6,0-2.8,1.2-2.8,2.8C471.9,212.7,473.1,213.9,474.7,213.9z"/>
		<path class="st1" d="M516,178.2c-0.9,1.3-2,1.7-3.7,1.5c-17.1-2.4-34.3-4.8-51.5-7.2c-2.2-0.3-4.4-0.5-6.6-0.8
			c-1.8-0.2-2.5-0.9-2.5-2.7c0-3.6,0-7.1,0-10.7c0-2,0.8-2.7,2.9-2.8c0.9,0,1.8,0,2.7-0.1c2.9-0.3,4.3-1.7,4.6-4.6
			c0.2-1.7,0.2-3.5,0.2-5.3c0-4.7,0-9.4,0-14.1c0-1.9-1-2.9-2.9-2.9c-8.7,0-17.5,0-26.2,0c-1.9,0-2.9,0.9-2.9,2.8
			c0,4.5,0,9.1,0.2,13.6c0.2,4.7,3,7.8,7.7,8.8c1.8,0.4,2.4,0.9,2.4,2.7c0.1,3.7,0.1,7.5,0,11.2c0,1.3-1.3,2.2-3.1,2
			c-1.9-0.1-3.8-0.4-5.6-0.6c-12.6-1.1-25.1-2.2-37.7-3.2c-4.2-0.4-8.3-0.6-12.5-1c-1.8-0.2-2.6-1.1-2.6-2.8c0-3.3,0-6.7,0-10
			c0-2.1,0.6-2.7,2.7-2.9c1.2-0.1,2.3-0.3,3.5-0.5c3.6-0.6,5.9-2.9,6.3-6.5c0.1-1.1,0.2-2.2,0.2-3.4c0-14.7,0-29.5,0-44.2
			c0-2-0.1-4-0.2-5.9c-0.2-3.6-3.2-6.6-7.1-7c-1.6-0.2-3.3-0.1-5-0.2c-2.2-0.1-3.1-1-3.1-3.2c0-3.4,0-6.8,0-10.3
			c0-2.1,1-3.1,3.1-3.1c19.4,0,38.7,0,58.1,0c2.2,0,3.1,0.9,3.1,3.1c0,3.4,0,6.8,0,10.1c0,2.2-0.8,3-3,3.1c-5.7,0.3-7.1,1.5-7.3,7.2
			c-0.2,6.9-0.1,13.8-0.1,20.7c0,1.8,1.1,2.8,2.9,2.8c8.8,0,17.6,0,26.4,0c1.7,0,2.8-1.1,2.8-2.8c0-6.8,0-13.6-0.2-20.4
			c-0.1-4.6-3-7.4-7.6-7.6c-1.5-0.1-2.4-0.8-2.5-2.3c-0.1-3.9-0.1-7.7,0-11.6c0-1.5,1.1-2.3,2.6-2.4c0.3,0,0.6,0,0.9,0
			c19.1,0,38.1,0,57.2,0c1.5,0,2.6,0.4,3.5,1.5c0,4.5,0,9,0,13.5c-1,1.2-2.2,1.6-3.8,1.5c-0.8-0.1-1.7,0.1-2.6,0.1
			c-5.5,0.3-8.9,3.8-8.9,9.3c0,20.7,0.1,41.4,0.1,62.2c0,4.2,2.5,7.4,6.5,8.5c1.8,0.5,3.7,0.8,5.5,1.4c1.1,0.3,2.1,0.9,3.1,1.3
			C516,169,516,173.6,516,178.2z"/>
		<path class="st1" d="M4,66.5C5,65.3,6.3,65,7.9,65c20,0,40.1,0,60.1,0c2.8,0,3.6,0.8,3.6,3.5c0,3.2,0,6.4,0,9.6
			c0,2.5-0.9,3.4-3.4,3.4c-2.1,0-4,0.4-5.8,1.4c-2.9,1.6-4.5,4.2-4.6,7.5c-0.1,12.4-0.1,24.9,0,37.3c0.1,6.1,3.1,10.5,8.5,13.2
			c6,3,12.3,3.5,18.8,1.6c7.5-2.2,11.5-7.7,11.5-15.5c0.1-11.4,0-22.8,0-34.2c0-1.3-0.1-2.6-0.1-3.9c-0.1-4.5-3-7.3-7.4-7.4
			c-0.6,0-1.2,0-1.8-0.1c-1.5-0.2-2.4-1.1-2.4-2.6c0-3.7,0-7.5,0-11.2c0-1.5,1-2.5,2.5-2.6c0.3,0,0.6,0,0.9,0c13.9,0,27.8,0,41.6,0
			c2.7,0,3.5,0.8,3.5,3.4c0,3.3,0,6.6,0,9.9c0,1.7-0.7,2.6-2.4,3.1c-0.7,0.2-1.5,0.3-2.2,0.4c-4.6,0.8-7.2,4-7.2,8.7
			c0,15.2,0,30.5,0,45.7c0,1.2,0,2.4,0,3.6c0,3.6,1.7,6.2,4.9,7.7c2.9,1.4,6.1,1.7,9.3,1.9c2.4,0.1,3,0.8,3,3.1c0,3,0,5.9,0,8.9
			c0,2.4-1.1,3.5-3.5,3.7c-12.4,1-24.8,2-37.3,3.2c-11.7,1.1-23.5,2.2-35.2,3.6c-10.5,1.2-21.1,2.7-31.6,4.2
			c-7.9,1.1-15.7,2.3-23.6,3.5c-1.5,0.2-2.9-1.1-3.5-3.1c0-4.2,0-8.3,0-12.5c0.4-1.5,1.6-1.9,3-2.1c4.7-0.7,8.9-2.4,12.5-5.5
			c1.3-1.1,2.1-2.3,1.2-4c-0.1-0.2-0.2-0.5-0.2-0.8c-0.4-5.8-1.2-11.5-1.2-17.3c-0.2-13.9-0.1-27.7-0.1-41.6c0-1.1,0-2.2-0.1-3.2
			c-0.3-4.3-3.3-7.4-7.6-7.8c-1.4-0.2-2.9-0.2-4.3-0.1c-1.5,0-2.7-0.4-3.5-1.8C4,75.3,4,70.9,4,66.5z"/>
		<path class="st0" d="M4,79.8c0.8,1.4,2,1.8,3.5,1.8c1.4,0,2.9,0,4.3,0.1c4.3,0.5,7.2,3.5,7.6,7.8c0.1,1.1,0.1,2.2,0.1,3.2
			c0,13.9-0.1,27.7,0.1,41.6c0.1,5.8,0.8,11.6,1.2,17.3c0,0.3,0.1,0.6,0.2,0.8c0.9,1.7,0.1,2.9-1.2,4c-3.6,3.1-7.8,4.8-12.5,5.5
			c-1.3,0.2-2.5,0.6-3,2.1c-0.1,0-0.2,0-0.2,0C4,136,4,107.9,4,79.8z"/>
		<path class="st0" d="M516,164.4c-1-0.5-2-1-3.1-1.3c-1.8-0.5-3.7-0.8-5.5-1.4c-4.1-1.2-6.5-4.3-6.5-8.5
			c-0.1-20.7-0.1-41.4-0.1-62.2c0-5.5,3.5-9,8.9-9.3c0.9,0,1.7-0.2,2.6-0.1c1.5,0.1,2.8-0.3,3.8-1.5C516,108.1,516,136.3,516,164.4z
			"/>
		<path class="st2" d="M428.1,234.7c-0.2-0.6-0.5-1.2-0.5-1.7c0-7.6,0-15.2,0-22.8c0-1.1,0.3-1.8,1.6-1.8c8.3,0.1,16.6,0.1,24.8,0.1
			c0.9,0,1.8,0.2,2.7,0.4c3.7,0.8,5.7,3.1,6,7.4c0.3,3.7,0.2,7.5,0,11.2c-0.2,3.4-2.6,6-5.9,7c-0.3,0.1-0.6,0.2-0.8,0.3
			C446.7,234.7,437.4,234.7,428.1,234.7z M443.9,214.9c-2.3,0-4.5,0-6.8,0c-1,0-1.5,0.4-1.5,1.5c0,3.5,0,6.9,0,10.4
			c0,0.8,0.3,1.4,1.2,1.4c4.6,0,9.2,0.1,13.8-0.1c2.7-0.1,3.9-1.4,4-4.1c0.1-1.6,0.1-3.1,0-4.7c-0.1-3.2-1.3-4.3-4.5-4.4
			C448.1,214.9,446,214.9,443.9,214.9z"/>
		<path class="st3" d="M57.5,234.7c-0.1-0.6-0.4-1.3-0.4-1.9c0-7.5,0-15,0-22.4c0-1.8,0.2-2,2-2c8.5,0,16.9,0,25.4,0
			c1.8,0,2,0.2,2,2c0,4.7,0.3,4.1-4,4.1c-5.2,0-10.4,0-15.5,0c-1.6,0-1.8,0.2-1.8,1.8c0,0.2,0,0.4,0,0.5c0,2,0.2,2.1,2.2,2.1
			c2.3,0,4.7,0,7,0c3,0,6,0,9.1,0c1.2,0,1.7,0.5,1.7,1.7c0,3.8,0.3,3.6-3.5,3.6c-4.9,0-9.7,0-14.6,0c-1.6,0-1.8,0.2-1.8,1.8
			c0,0.1,0,0.2,0,0.3c0,2.5,0,2.5,2.5,2.5c5.7,0,11.4,0,17,0c1.6,0,1.9,0.2,1.9,1.9c0,1.4-0.3,2.7-0.4,4.1
			C76.6,234.7,67.1,234.7,57.5,234.7z"/>
		<path class="st4" d="M159.2,234.7c-0.2-0.6-0.5-1.2-0.5-1.7c0-7.6,0-15.2,0-22.8c0-1.5,0.3-1.8,1.8-1.8c8.6,0,17.2,0,25.8,0
			c1.6,0,1.8,0.3,1.9,1.9c0,0.8,0,1.6,0,2.4c0.1,1.3-0.5,1.8-1.7,1.8c-5.9,0-11.8,0-17.7,0c-0.6,0-1.7,0.4-1.8,0.7
			c-0.2,1.1-0.1,2.2,0.2,3.3c0.1,0.3,1.1,0.4,1.7,0.4c5.3,0,10.6,0,15.9,0c1.7,0,2,0.2,2,1.9c0,3.4,0,3.4-3.3,3.4
			c-4.8,0-9.6,0-14.5,0c-2.2,0-2.2,0-2.2,2.3c0,0.2,0,0.4,0,0.5c-0.1,1.3,0.5,1.8,1.7,1.8c4.8,0,9.6,0,14.5,0c1.3,0,2.5,0,3.8,0
			c0.4,0,1.2,0.3,1.2,0.6c0.2,1.8,0.7,3.6-0.3,5.3C178.1,234.7,168.6,234.7,159.2,234.7z"/>
		<path class="st5" d="M374.9,234.7c-0.1-0.7-0.3-1.4-0.3-2.1c0-7.4,0-14.9,0-22.3c0-1.8,0.2-2,2-2c8.5,0,16.9,0,25.4,0
			c1.8,0,2,0.2,2,2c0,0.7,0,1.4,0,2.2c0,1.6-0.3,1.9-1.9,1.9c-5.9,0-11.7,0-17.6,0c-1.8,0-1.9,0.1-1.9,1.9c0,2.3,0.1,2.5,1.9,2.5
			c5.3,0,10.6,0,15.9,0c1.9,0,2,0.2,2,2c0,3.3,0,3.3-3.3,3.3c-4.9,0-9.8,0-14.7,0c-1.7,0-1.9,0.1-1.9,1.8c0,0.3,0,0.6,0,0.9
			c0,1.6,0.3,1.8,1.8,1.8c5.9,0,11.7,0,17.6,0c1.8,0,2,0.2,2,2c-0.1,1.3-0.3,2.6-0.5,3.9C394,234.7,384.4,234.7,374.9,234.7z"/>
		<path class="st4" d="M335.2,4.9c1,1.7,0.4,3.5,0.4,5.2c0,0.3-1,0.7-1.5,0.7c-5.8,0.1-11.6,0-17.4,0.1c-0.7,0-1.9,0.2-2,0.6
			c-0.3,1-0.2,2.2,0,3.3c0,0.3,1,0.6,1.6,0.6c5.4,0,10.7,0,16.1,0c1.8,0,2,0.1,2,2c0,3.6,0.1,3.2-3.2,3.2c-4.9,0-9.8,0-14.7,0
			c-1.8,0-2,0.2-2,2c0,0.3,0,0.5,0,0.8c-0.1,1.3,0.4,1.8,1.7,1.8c5.8,0,11.6,0,17.4,0c2,0,2.2,0.2,2.2,2.2c0,4.2,0.4,3.8-3.9,3.8
			c-7.9,0-15.8,0-23.6,0c-1.8,0-1.9-0.2-1.9-1.9c0-7.5,0-15,0-22.6c0-0.6,0.3-1.2,0.5-1.9C316.2,4.9,325.7,4.9,335.2,4.9z"/>
		<path class="st6" d="M264.9,234.7c0.1-0.5,0.2-1.2,0.4-1.6c4.3-7.7,8.6-15.5,12.9-23.2c0.6-1.1,1.4-1.6,2.6-1.5c2.5,0,5,0,7.4,0
			c1.2,0,2,0.5,2.6,1.5c4.2,7.7,8.4,15.5,12.6,23.2c0.3,0.5,0.3,1.1,0.4,1.6c-2.7,0-5.4,0-8.1,0c-0.6-1.1-1.4-2.1-1.9-3.2
			c-0.6-1.1-1.3-1.6-2.6-1.6c-4.5,0-9,0-13.5,0c-1.2,0-2,0.5-2.6,1.6c-0.6,1.1-1.4,2.1-2.1,3.2C270.3,234.7,267.6,234.7,264.9,234.7
			z M284.6,214.6c-0.2,0-0.3,0-0.5,0c-1.6,3-3.3,6-4.9,9c-0.1,0.1,0.4,0.7,0.6,0.7c3.2,0,6.4,0,10.1,0
			C288,220.9,286.3,217.7,284.6,214.6z"/>
		<path class="st5" d="M224.6,234.7c-0.5-0.9-1.2-1.7-1.6-2.6c-3.9-7.4-7.8-14.8-11.7-22.1c-0.7-1.4-0.6-1.6,1-1.7
			c1.7,0,3.3,0.1,5,0c1.5-0.1,2.3,0.5,3,1.8c2.7,5.2,5.4,10.4,8.1,15.7c0.3,0.6,0.7,1.2,1.2,2.1c0.4-0.6,0.8-1.1,1-1.5
			c3-5.4,6-10.9,8.9-16.3c0.6-1.2,1.4-1.7,2.8-1.7c1.8,0.1,3.6,0,5.4,0c1.4,0,1.6,0.3,0.9,1.5c-4.4,7.9-8.7,15.7-13.1,23.5
			c-0.3,0.5-0.7,0.9-1.1,1.3C231.1,234.7,227.8,234.7,224.6,234.7z"/>
		<path class="st7" d="M283.2,4.9c0.1,1.7,0.3,3.4,0.3,5.1c0,0.9-0.9,0.8-1.6,0.8c-5.3,0-10.5,0-15.8,0c-2.2,0-3.4,1.9-2.3,3.8
			c0.2,0.4,1.1,0.6,1.6,0.6c5.4,0,10.7,0,16.1,0c1.9,0,2,0.1,2.1,2.1c0,3.6,0,3.1-3.1,3.1c-4.9,0-9.8,0-14.7,0c-1.9,0-2,0.2-2,2
			c0,2.3,0,4.7,0,7c0,1.1-0.4,1.7-1.6,1.6c-1.7,0-3.3,0-5,0c-1.1,0-1.5-0.5-1.5-1.5c0-7.7,0-15.5,0-23.2c0-0.5,0.4-1.1,0.6-1.6
			C265.2,4.9,274.2,4.9,283.2,4.9z"/>
		<path class="st3" d="M333,234.7c-0.1-0.6-0.4-1.3-0.4-1.9c0-5.3,0-10.5,0-15.8c0-1.7-0.2-2-1.9-2c-2.7,0-5.5,0-8.2,0
			c-1.1,0-1.7-0.5-1.6-1.6c0-1.2,0-2.3,0-3.5c0-1.1,0.4-1.6,1.5-1.6c9.5,0,19,0,28.5,0c1.1,0,1.6,0.5,1.6,1.5c0,1.2,0,2.4,0,3.6
			c0,1.1-0.5,1.5-1.6,1.5c-2.7,0-5.5,0-8.2,0c-1.7,0-2,0.3-2,1.9c0,5.3,0,10.5,0,15.8c0,0.6-0.2,1.3-0.3,1.9
			C337.9,234.7,335.4,234.7,333,234.7z"/>
		<path class="st2" d="M184.3,4.9c0.2,0.6,0.5,1.2,0.5,1.9c0,5.3,0,10.6,0,15.9c0,1.7,0.2,1.9,2,1.9c4.8,0,9.6,0,14.5,0
			c1.3,0,1.8,0.4,1.8,1.7c-0.1,1.2,0,2.3,0,3.5c0,1-0.4,1.4-1.3,1.4c-7.8,0-15.7,0-23.5,0c-1,0-1.4-0.4-1.4-1.4c0-7.9,0-15.8,0-23.6
			c0-0.4,0.3-0.9,0.5-1.3C179.6,4.9,182,4.9,184.3,4.9z"/>
		<path class="st5" d="M110.5,234.7c-0.1-0.8-0.3-1.6-0.3-2.3c0-7.3,0-14.7,0-22c0-1.8,0.2-2,2-2c1.4,0,2.8,0,4.2,0
			c1.7,0,1.9,0.3,1.9,2c0,5.2,0,10.3,0,15.5c0,2.2,0,2.2,2.2,2.2c4.7,0,9.4,0,14,0c1.7,0,2,0.2,2,1.9c0,1,0.1,2.1,0,3.1
			c0,0.5-0.3,1.1-0.5,1.6C127.4,234.7,119,234.7,110.5,234.7z"/>
		<path class="st8" d="M230.5,4.9c0.2,0.6,0.5,1.2,0.5,1.7c0,7.6,0,15.3,0,22.9c0,1.2-0.4,1.8-1.6,1.7c-1.6,0-3.2,0-4.9,0
			c-1.1,0-1.6-0.4-1.6-1.6c0-7.7,0-15.5,0-23.2c0-0.5,0.3-1.1,0.5-1.6C225.8,4.9,228.2,4.9,230.5,4.9z"/>
		<path class="st9" d="M273,234.7c0.7-1.1,1.5-2.1,2.1-3.2c0.6-1.1,1.4-1.6,2.6-1.6c4.5,0,9,0,13.5,0c1.2,0,2,0.5,2.6,1.6
			c0.6,1.1,1.3,2.1,1.9,3.2C288.1,234.7,280.5,234.7,273,234.7z"/>
		<path class="st10" d="M4,164.1c0.1,0,0.2,0,0.2,0c0,4.2,0,8.3,0,12.5c0,0-0.1,0-0.1,0L4,176.5C4,172.4,4,168.2,4,164.1z"/>
		<path class="st8" d="M155.5,108.9c-4.5,0-9.4,0-14.2,0c-1.5,0-2.4-1-2.6-2.5c0-0.4,0-0.8,0-1.2c0-12.2,0-24.4,0-36.6
			c0-2.8,0.8-3.6,3.6-3.6c38.2,0,76.5,0,114.7,0c2.8,0,3.6,0.8,3.6,3.6c0,12.3,0,24.6,0,36.9c0,2.6-0.9,3.4-3.4,3.4
			c-3.9,0-7.7,0-11.6,0c-0.6,0-1.2-0.1-1.6-0.2c-0.6-3.8-0.9-7.5-1.7-11.1c-1.5-6.1-4.8-10.8-10.9-13.2c-3.3-1.3-6.8-1.4-10.2-1.2
			c-1.2,0-2.2,1-2.3,2.2c-0.1,0.4,0,0.8,0,1.2c0,14.4,0,28.8,0,43.2c0,2,0.1,4.1,0.3,6.1c0.4,3.2,2.3,5.4,5,7c2.4,1.4,5.1,2,7.9,2.2
			c3.1,0.2,6.2,0.3,9.3,0.5c1.8,0.1,2.6,1,2.6,2.8c0,3.2,0,6.4,0,9.6c0,2.1-1,3-3.1,3.1c-11.7,0.2-23.4,0.3-35.1,0.7
			c-12.2,0.4-24.4,1-36.7,1.5c-3.2,0.1-6.5,0.3-9.7,0.5c-2.4,0.1-3.4-0.9-3.5-3.2c0-3,0-5.9,0-8.9c0-2.3,0.9-3.2,3.2-3.5
			c4.2-0.6,8.3-1.3,12.5-2.2c1.3-0.3,2.6-1,3.8-1.6c3.4-1.9,5.1-5,5.1-8.8c0.1-16.5,0-33.1,0-49.6c0-1.5-0.9-2.7-2.2-2.7
			c-3.7-0.2-7.4-0.1-10.9,1.5c-5.6,2.4-8.7,6.9-10.1,12.6C156.4,101,156.1,104.9,155.5,108.9z"/>
		<path class="st1" d="M314.6,65c5.9,0,11.7,0,17.6,0c2.5,0,3.6,0.8,4.3,3.2c7,22.3,14,44.7,21.1,67c0.6,1.9,1.5,3.7,2.3,5.5
			c2,4.4,5.6,6.8,10.2,7.8c0.5,0.1,1.1,0.2,1.6,0.4c1.2,0.3,1.9,1.1,1.9,2.4c0,3.6,0,7.2,0,10.8c0,1.3-1.1,2.2-2.8,2.3
			c-1.7,0-3.4-0.1-5.1-0.2c-11.9-0.6-23.8-1.2-35.7-1.8c-2.1-0.1-3.6-1.3-4.4-3.7c-1.3-3.9-2.6-7.9-3.8-11.8
			c-0.7-2.1-1.9-3.1-4.2-3.1c-8.3,0-16.6,0-24.9,0c-2.2,0-3.5,1-4.2,3.1c-1.1,3.8-2.2,7.6-3.3,11.4c-0.6,2.2-1.5,2.9-3.7,2.9
			c-9.7,0-19.4-0.1-29.1-0.1c-2,0-3-0.9-3-3c0-3.2,0-6.3,0-9.5c0-2.2,0.8-2.8,2.9-3c2.6-0.2,5.3-0.3,7.9-0.9
			c3.5-0.7,6.1-2.9,7.4-6.1c1.9-4.5,3.5-9.1,5.2-13.7c6.6-18.9,13.2-37.8,19.8-56.7c0.7-2.1,2-3,4.3-3C302.7,65,308.7,65,314.6,65z
			 M304.8,93.5c-0.1,0-0.3,0-0.4,0c-0.2,0.5-0.4,1-0.6,1.6c-2.7,9.6-5.4,19.3-8.1,28.9c-0.6,2.1,0.1,3,2.4,3c4.6,0,9.2,0,13.8,0
			c2.3,0,3-0.9,2.4-3.1c-2.9-9.7-5.8-19.3-8.7-29C305.3,94.4,305,94,304.8,93.5z"/>
		<path class="st11" d="M474.7,213.9c-1.6,0-2.8-1.2-2.8-2.8c0-1.6,1.2-2.8,2.8-2.8c1.6,0,2.8,1.2,2.8,2.8
			C477.6,212.6,476.3,213.9,474.7,213.9z M473.5,212.8c0.9,0.8,1.7,0.9,2.5-0.1l0,0c1-0.6,1.2-1.6,0.6-2.7c-0.6-1.1-1.7-1.4-3-0.7
			C472.2,210.4,472.2,211.9,473.5,212.8L473.5,212.8z"/>
		<path class="st0" d="M443.9,214.9c2.1,0,4.1,0,6.2,0c3.3,0,4.4,1.2,4.5,4.4c0.1,1.6,0.1,3.1,0,4.7c-0.1,2.7-1.3,4.1-4,4.1
			c-4.6,0.1-9.2,0.1-13.8,0.1c-0.9,0-1.2-0.6-1.2-1.4c0-3.5,0-6.9,0-10.4c0-1,0.5-1.5,1.5-1.5C439.4,214.9,441.7,214.9,443.9,214.9z
			"/>
		<path class="st12" d="M284.6,214.6c1.7,3.2,3.4,6.3,5.3,9.8c-3.7,0-6.9,0-10.1,0c-0.2,0-0.6-0.6-0.6-0.7c1.6-3,3.2-6,4.9-9
			C284.3,214.6,284.5,214.6,284.6,214.6z"/>
		<path class="st13" d="M304.8,93.5c0.2,0.5,0.5,0.9,0.6,1.4c2.9,9.7,5.8,19.3,8.7,29c0.7,2.2,0,3.1-2.4,3.1c-4.6,0-9.2,0-13.8,0
			c-2.2,0-2.9-0.9-2.4-3c2.7-9.6,5.4-19.3,8.1-28.9c0.2-0.5,0.4-1,0.6-1.6C304.5,93.5,304.7,93.5,304.8,93.5z"/>
		<path class="st14" d="M476,212.6C476,212.6,476,212.6,476,212.6c-0.5-0.4-1.1-0.8-1.5-1.2c-0.3,0.5-0.6,0.9-0.9,1.3l0,0
			c0-1.1,0-2.1,0-3.2c0.5,0,1.1-0.2,1.6,0c0.4,0.2,0.9,1.1,0.8,1.1C475.2,211.3,475.8,212,476,212.6z"/>
		<path class="st15" d="M476,212.6c-0.2-0.6-0.7-1.3,0-2c0.1-0.1-0.4-0.9-0.8-1.1c-0.4-0.2-1,0-1.6,0c0-0.1,0-0.2,0-0.3
			c1.4-0.7,2.4-0.4,3,0.7C477.2,211,476.9,212,476,212.6z"/>
		<path class="st16" d="M473.6,209.3c0,0.1,0,0.2,0,0.3c0,1.1,0,2.1,0,3.2C472.2,211.9,472.2,210.4,473.6,209.3z"/>
		<path class="st16" d="M473.5,212.8c0.3-0.4,0.6-0.9,0.9-1.3c0.4,0.4,1,0.8,1.5,1.2C475.2,213.7,474.4,213.5,473.5,212.8z"/>
	</g>
</g>
</svg>
