<?xml version="1.0" encoding="utf-8"?>
<!-- Generator: Adobe Illustrator 22.1.0, SVG Export Plug-In . SVG Version: 6.00 Build 0)  -->
<svg version="1.1" id="Layer_1" xmlns="http://www.w3.org/2000/svg" xmlns:xlink="http://www.w3.org/1999/xlink" x="0px" y="0px"
	 viewBox="0 0 360 216" style="enable-background:new 0 0 360 216;" xml:space="preserve">
<style type="text/css">
	.st0{fill:#DB6015;}
	.st1{fill:#00567D;}
	.st2{fill-rule:evenodd;clip-rule:evenodd;fill:#F5A800;}
	.st3{fill:#70D44B;}
</style>
<g>
	<g>
		<rect x="153.4" y="188.7" class="st0" width="55.1" height="1.1"/>
		<rect x="153.4" y="171.9" class="st0" width="55.1" height="1.1"/>
		<path class="st1" d="M163.5,176.3v0.8c0,0-0.1,0-0.1,0c-0.1,0-0.1,0-0.1,0c-0.4,0-0.7,0.1-0.8,0.3c-0.1,0.2-0.2,0.6-0.2,1.2
			c0,0.4,0,0.9,0,1.4c0,0.5,0,0.8,0,0.9c0,1.1,0.2,1.9,0.5,2.3c0.4,0.5,0.9,0.7,1.8,0.7c0.5,0,0.9-0.1,1.3-0.3
			c0.4-0.2,0.6-0.5,0.7-0.8c0.1-0.2,0.2-0.5,0.2-1c0-0.4,0.1-1.3,0.1-2.5v-1.1c0-0.5-0.1-0.8-0.2-0.9c-0.1-0.2-0.4-0.2-0.8-0.2h-0.2
			v-0.8c0.4,0,0.8,0.1,1.1,0.1c0.3,0,0.5,0,0.8,0c0.2,0,0.5,0,0.8,0c0.3,0,0.7,0,1.1-0.1v0.8c0,0-0.1,0-0.1,0c0,0-0.1,0-0.1,0
			c-0.6,0-0.9,0.7-0.9,2.2v0.4c0,0.1,0,0.3,0,0.5c0,1.6-0.1,2.7-0.4,3.3c-0.3,0.6-0.7,1.1-1.4,1.5c-0.7,0.4-1.5,0.6-2.4,0.6
			c-0.7,0-1.4-0.1-1.9-0.2c-0.5-0.2-1-0.4-1.3-0.7c-0.4-0.4-0.7-0.8-0.8-1.2c-0.2-0.4-0.3-1.1-0.3-1.9c0-0.3,0-0.8,0-1.4
			c0-0.6,0-1.1,0-1.4c0-0.7-0.1-1.1-0.2-1.3c-0.1-0.2-0.4-0.3-0.7-0.3c0,0-0.1,0-0.1,0c-0.1,0-0.1,0-0.1,0v-0.8
			c0.5,0,0.9,0.1,1.3,0.1c0.4,0,0.8,0,1.1,0c0.3,0,0.6,0,1,0C162.4,176.4,162.9,176.4,163.5,176.3"/>
		<path class="st1" d="M172.9,184.4c0,0,0.1,0,0.2,0c0.1,0,0.1,0,0.1,0c0.3,0,0.5,0,0.6-0.1c0.1-0.1,0.2-0.2,0.3-0.5
			c0-0.1,0-0.4,0.1-0.8c0-0.4,0-1.2,0-2.2v-3.2c-0.1,0-0.3,0-0.4,0c-0.1,0-0.3,0-0.5,0c-0.7,0-1.2,0.1-1.5,0.3
			c-0.2,0.2-0.4,0.6-0.5,1.1l-0.9-0.2c0.1-0.4,0.2-0.8,0.2-1.2c0.1-0.4,0.1-0.9,0.2-1.4c0.7,0,1.3,0.1,2,0.1c0.6,0,1.3,0,1.9,0
			c1.5,0,2.6,0,3.5,0c0.9,0,1.5-0.1,1.8-0.1c0,0.4,0,0.9,0.1,1.3c0,0.4,0.1,0.9,0.1,1.3l-0.8,0.1c-0.1-0.6-0.3-0.9-0.5-1.1
			c-0.2-0.2-0.6-0.3-1.3-0.3c-0.1,0-0.2,0-0.4,0c-0.2,0-0.4,0-0.6,0c0,0.9,0,1.5,0,2c0,0.5,0,0.9,0,1.4v0.8c0,0.7,0,1.2,0,1.5
			c0,0.3,0,0.5,0.1,0.6c0.1,0.2,0.2,0.3,0.3,0.3c0.1,0.1,0.3,0.1,0.6,0.1c0,0,0.1,0,0.1,0c0.1,0,0.1,0,0.1,0l0,0.8
			c-0.5,0-1-0.1-1.5-0.1c-0.4,0-0.8,0-1.2,0c-0.3,0-0.6,0-1,0c-0.4,0-0.9,0-1.5,0.1L172.9,184.4z"/>
		<path class="st1" d="M184.5,176.2h2.3c0.6,1.5,1.1,2.9,1.6,4.2s0.9,2.3,1.2,3.1c0.1,0.4,0.3,0.6,0.5,0.7c0.2,0.1,0.4,0.1,0.8,0.1
			h0.1l0,0.8c-0.5,0-1-0.1-1.4-0.1c-0.4,0-0.8,0-1.1,0c-0.3,0-0.7,0-1.1,0c-0.4,0-0.9,0-1.4,0.1v-0.8h0.1c0.4,0,0.6,0,0.8-0.1
			c0.1-0.1,0.2-0.2,0.2-0.4c0-0.1,0-0.1,0-0.2c0-0.1-0.1-0.2-0.1-0.3l-0.3-0.9c-0.2,0-0.5,0-0.7,0c-0.3,0-0.6,0-1.2,0
			c-0.2,0-0.4,0-0.6,0c-0.2,0-0.5,0-0.7,0c0,0,0,0.1-0.1,0.2c-0.3,0.6-0.4,1-0.4,1.2c0,0.2,0.1,0.4,0.2,0.5c0.1,0.1,0.4,0.1,0.8,0.2
			v0.8c-0.6,0-1.1-0.1-1.3-0.1c-0.2,0-0.4,0-0.6,0c-0.2,0-0.4,0-0.7,0c-0.3,0-0.7,0-1.3,0.1v-0.8c0.6,0,1.1-0.3,1.4-1
			c0-0.1,0.1-0.2,0.1-0.2c0.5-1.1,1.1-2.3,1.6-3.5C183.5,178.6,184,177.4,184.5,176.2 M184.9,178.2l-1.2,3c0.1,0,0.3,0,0.5,0
			c0.2,0,0.3,0,0.4,0c0.2,0,0.6,0,1.1,0c0.1,0,0.2,0,0.2,0L184.9,178.2z"/>
		<path class="st1" d="M192.3,176.3c0.6,0,1.1,0.1,1.4,0.1c0.3,0,0.6,0,0.8,0c0.3,0,0.7,0,1.1,0c0.4,0,0.9,0,1.4-0.1v0.8h-0.2
			c-0.4,0-0.6,0.1-0.8,0.3c-0.1,0.2-0.2,0.6-0.2,1.4v0.2v1.1c0.3,0,0.6,0,0.9,0c0.3,0,0.6,0,0.9,0c0.5,0,1.1,0,1.6,0
			c0.1,0,0.2,0,0.3,0h0v-1.4c0-0.6-0.1-1.1-0.2-1.2c-0.1-0.2-0.4-0.2-0.8-0.2h-0.1v-0.8c0.5,0,1,0.1,1.4,0.1c0.4,0,0.7,0,1,0
			c0.2,0,0.5,0,0.9,0c0.4,0,0.8,0,1.4-0.1v0.8c0,0-0.1,0-0.1,0c0,0-0.1,0-0.2,0c-0.3,0-0.6,0.1-0.7,0.4c-0.1,0.3-0.2,0.9-0.2,1.9
			v0.5v0.5v0.8c0,0.2,0,0.4,0,0.7c0,0.3,0,0.5,0,0.6c0,0.5,0,0.9,0,1.1c0,0.2,0.1,0.4,0.1,0.5c0.1,0.1,0.2,0.2,0.3,0.2
			c0.1,0.1,0.3,0.1,0.5,0.1c0,0,0.1,0,0.1,0c0.1,0,0.1,0,0.1,0v0.8c-0.6,0-1.1-0.1-1.5-0.1c-0.4,0-0.7,0-0.9,0c-0.3,0-0.6,0-1,0
			c-0.4,0-0.9,0-1.5,0.1v-0.8c0,0,0.1,0,0.1,0c0,0,0.1,0,0.2,0c0.4,0,0.6-0.1,0.7-0.3c0.1-0.2,0.2-0.6,0.2-1.3v-0.2v0v-1.3
			c-0.3,0-0.6,0-0.9,0c-0.3,0-0.6,0-0.9,0c-0.4,0-0.8,0-1.4,0c-0.2,0-0.3,0-0.4,0v1.3v0.2c0,0.7,0.1,1.2,0.2,1.3
			c0.1,0.2,0.4,0.3,0.7,0.3h0.2h0.1v0.8c-0.6,0-1.1-0.1-1.5-0.1c-0.4,0-0.8,0-1,0c-0.2,0-0.5,0-0.9,0c-0.4,0-0.9,0-1.5,0.1v-0.8h0.2
			c0.2,0,0.4,0,0.5-0.1c0.1,0,0.2-0.1,0.3-0.2c0.1-0.2,0.2-1.1,0.2-2.5v-0.4v-0.8c0-0.2,0-0.6,0-0.9c0-0.4,0-0.6,0-0.8
			c0-0.7-0.1-1.1-0.2-1.3c-0.1-0.2-0.4-0.3-0.7-0.3c-0.1,0-0.1,0-0.2,0c0,0-0.1,0-0.1,0V176.3z"/>
	</g>
	<g>
		<polygon class="st0" points="38.5,125.8 37.1,125.8 37.1,110.1 53.5,111.5 38.5,111.5 		"/>
		<polygon class="st0" points="324.3,125.8 323,125.8 323,111.5 307.9,111.5 324.3,110.1 		"/>
		<path class="st0" d="M325,178.7l-0.9-0.3c-5.1-1.5-16.9-4.2-16.9-4.2c6.1,0.4,11.4,1.2,16.4,2.6v-15h1.4V178.7z"/>
		<path class="st0" d="M37,178.7v-16.9h1.4v15c5-1.4,10.3-2.2,16.4-2.6c0,0-11.8,2.7-16.9,4.2L37,178.7z"/>
		<path class="st1" d="M275.5,102.2c-3-3.4-37.7-41.3-37.7-41.3l-14.6,2.8c-2.7-2.6-39-36.3-39-36.3l-23.4,25.1l-9.3-2.9l-21.9,19.9
			l-14.9-3.8c0,0-26,33.7-28.2,36.6c2.6-2.6,30.5-27.7,30.5-27.7c2.1,0.4,7.3,1.4,7.3,1.4l-7.9,8.3l36-26.2l3.6,1.2l-5.2,8.6
			l33.8-26.2l47.8,32.7l-3.6-4.3l6.8-1.1L275.5,102.2z"/>
		<path class="st1" d="M181.1,127.5c0,7.1,0,14.3,0,21.4c1.5,0,3.1,0,4.6,0c0-7.1,0-14.3,0-21.4
			C184.2,127.5,182.7,127.5,181.1,127.5"/>
		<path class="st1" d="M79.4,144.1c0.6,0,1.1-0.1,1.7-0.1c-0.3-2.7-0.6-5.4-0.9-8.1C79.9,138.7,79.7,141.4,79.4,144.1"/>
		<path class="st1" d="M238.8,127.7c0,7.5,0,15.1,0.1,22.6c1.5,0.1,3.1,0.2,4.6,0.2c0-7.6,0-15.2-0.1-22.8
			C241.8,127.7,240.3,127.7,238.8,127.7"/>
		<path class="st1" d="M42.2,114.9V171c92.1-11.6,185.3-11.6,277.4,0v-56.1C227.2,114.9,134.7,114.9,42.2,114.9 M69.8,158.5
			c-1.6,0.2-3.3,0.4-4.9,0.5c-0.3,0-0.4-0.1-0.3-0.4c0.1-0.1,0.1-0.3,0.2-0.4c-0.7-6.4-1.4-12.8-2.2-19.3
			c-0.8,6.5-1.5,13.1-2.3,19.8c0.1,0.1,0.1,0.3,0.2,0.4c0.1,0.2,0,0.4-0.3,0.4c-1.6,0.2-3.2,0.4-4.8,0.6c-0.3,0-0.4-0.1-0.3-0.4
			c0.1-0.4,0.3-0.9,0.4-1.3c-1.3-10.4-2.6-20.9-4-31.6c-0.3-0.8-0.5-1.7-0.8-2.5c-0.1-0.3,0-0.4,0.3-0.4h4.9c0.3,0,0.4,0.2,0.3,0.4
			c-0.1,0.3-0.2,0.6-0.3,0.8c0.7,6.5,1.4,13,2.1,19.4c0.7-6.5,1.5-12.9,2.2-19.3c-0.1-0.3-0.2-0.7-0.3-1c-0.1-0.3,0-0.4,0.3-0.4h5
			c0.3,0,0.4,0.2,0.3,0.4c-0.1,0.3-0.2,0.6-0.3,1c0.7,6.3,1.4,12.5,2.1,18.7c0.7-6.3,1.5-12.6,2.2-18.9c-0.1-0.3-0.2-0.5-0.3-0.8
			c-0.1-0.2,0-0.4,0.3-0.4h4.9c0.3,0,0.4,0.1,0.3,0.4c-0.3,0.8-0.5,1.5-0.8,2.3c-1.4,10-2.7,20.1-4.1,30.3c0.1,0.4,0.3,0.8,0.4,1.2
			C70.2,158.3,70.1,158.4,69.8,158.5 M87.1,156.7c-1.6,0.1-3.2,0.3-4.8,0.5c-0.3,0-0.4-0.1-0.3-0.4c0.1-0.3,0.2-0.7,0.4-1
			c-0.3-2.5-0.5-5-0.8-7.5c-0.9,0.1-1.8,0.2-2.6,0.3c-0.3,2.5-0.6,5-0.9,7.5c0.1,0.3,0.2,0.6,0.3,0.9c0.1,0.2,0,0.4-0.3,0.4
			c-1.6,0.2-3.3,0.3-4.9,0.5c-0.3,0-0.4-0.1-0.3-0.4c0.2-0.7,0.4-1.3,0.6-1.9c1.4-10.4,2.8-20.6,4.2-30.7c-0.1-0.3-0.2-0.5-0.3-0.8
			c-0.1-0.2,0-0.4,0.3-0.4c1.6,0,3.3,0,4.9,0c0.3,0,0.4,0.1,0.3,0.4c-0.1,0.3-0.2,0.5-0.3,0.8c1.4,10,2.7,19.8,4.1,29.5
			c0.2,0.6,0.4,1.2,0.6,1.8C87.5,156.6,87.4,156.7,87.1,156.7 M102.7,131.8c-1.6,0-3.3,0.1-4.9,0.1c-0.3,0-0.4-0.1-0.3-0.4
			c0.1-0.4,0.3-0.7,0.4-1.1c0-0.8,0-1.7,0-2.5c-1.5,0-3.1,0-4.6,0c0,3,0,6.1,0,9.1c2.5,0.8,5,1.6,7.5,2.4c0.2,0,0.3,0.1,0.4,0.3
			c0.4,0.5,0.8,1,1.2,1.6c0.1,0.1,0.2,0.2,0.2,0.4c0,3.9,0,7.7,0,11.6c0,0.2-0.1,0.3-0.2,0.4c-0.6,0.6-1.2,1.2-1.9,1.7
			c-0.2,0.1-0.3,0.2-0.5,0.2c-2.9,0.2-5.8,0.5-8.7,0.7c-0.2,0-0.3,0-0.5-0.1c-0.6-0.5-1.3-1-1.9-1.5c-0.2-0.1-0.2-0.2-0.2-0.4
			c0-1.5,0-2.9,0-4.4c-0.1-0.4-0.3-0.7-0.4-1.1c-0.1-0.2,0.1-0.4,0.3-0.4c1.6-0.1,3.3-0.2,4.9-0.3c0.3,0,0.4,0.1,0.3,0.4
			c-0.1,0.4-0.3,0.8-0.4,1.1c0,0.8,0,1.7,0,2.5c1.5-0.1,3-0.2,4.6-0.3c0-3,0-6,0-9c-2.5-0.8-5-1.6-7.4-2.4c-0.2,0-0.3-0.1-0.4-0.3
			c-0.4-0.5-0.8-1.1-1.2-1.6c-0.1-0.1-0.2-0.2-0.2-0.4c0-4,0-8,0-12c0-0.2,0.1-0.3,0.2-0.4c0.6-0.6,1.3-1.1,1.9-1.7
			c0.2-0.1,0.3-0.2,0.5-0.2c2.9,0,5.8,0,8.7,0c0.2,0,0.3,0,0.5,0.2c0.6,0.5,1.2,1.1,1.9,1.6c0.2,0.1,0.2,0.2,0.2,0.4
			c0,1.4,0,2.8,0,4.2c0.1,0.4,0.3,0.7,0.4,1.1C103,131.7,102.9,131.8,102.7,131.8 M119.5,124.3c-0.1,0.4-0.3,0.7-0.4,1.1
			c0,9.2-0.1,18.4-0.1,27.6c0.1,0.3,0.3,0.7,0.4,1c0.1,0.2,0,0.4-0.3,0.4c-1.6,0.1-3.3,0.2-4.9,0.3c-0.3,0-0.4-0.1-0.3-0.3
			c0.1-0.4,0.3-0.7,0.4-1.1c0-4,0-7.9,0-11.9c-1.5,0-3.1,0.1-4.6,0.2c0,4,0,8,0,12c0.1,0.3,0.3,0.7,0.4,1c0.1,0.2,0,0.4-0.3,0.4
			c-1.6,0.1-3.3,0.2-4.9,0.3c-0.3,0-0.4-0.1-0.3-0.3c0.1-0.4,0.3-0.7,0.4-1.1c0-9.5,0.1-18.9,0.1-28.4c-0.1-0.4-0.3-0.8-0.4-1.1
			c-0.1-0.2,0.1-0.4,0.3-0.4c1.6,0,3.3,0,4.9,0c0.3,0,0.4,0.1,0.3,0.4c-0.1,0.4-0.3,0.7-0.4,1.1c0,3.9,0,7.8,0,11.7
			c1.5,0,3.1-0.1,4.6-0.1c0-3.9,0-7.8,0-11.6c-0.1-0.4-0.3-0.7-0.4-1.1c-0.1-0.2,0.1-0.4,0.3-0.4c1.6,0,3.3,0,4.9,0
			C119.5,123.9,119.6,124.1,119.5,124.3 M127.1,124.3c-0.1,0.4-0.3,0.7-0.4,1.1c0,9.1-0.1,18.1-0.1,27.2c0.1,0.3,0.3,0.7,0.4,1
			c0.1,0.2,0,0.3-0.3,0.4c-1.6,0.1-3.3,0.2-4.9,0.3c-0.3,0-0.4-0.1-0.3-0.3c0.1-0.4,0.3-0.7,0.4-1.1c0-9.1,0.1-18.3,0.1-27.4
			c-0.1-0.4-0.3-0.7-0.4-1.1c-0.1-0.2,0-0.4,0.3-0.4c1.6,0,3.3,0,4.9,0C127.1,123.9,127.2,124,127.1,124.3 M143.9,124.3
			c-0.1,0.4-0.3,0.7-0.4,1.1c0,8.8,0,17.7-0.1,26.5c0.1,0.3,0.3,0.7,0.4,1c0.1,0.2,0,0.3-0.3,0.3c-1.5,0.1-3,0.1-4.4,0.2
			c-0.2,0-0.3-0.1-0.4-0.2c-1.5-5.2-3-10.4-4.5-15.7c0,4.9,0,9.9,0,14.8c0.1,0.3,0.3,0.7,0.4,1c0.1,0.2,0,0.3-0.3,0.4
			c-1.6,0.1-3.3,0.2-4.9,0.2c-0.3,0-0.4-0.1-0.3-0.3c0.1-0.4,0.3-0.7,0.4-1.1c0-9,0.1-18,0.1-27c-0.1-0.4-0.3-0.7-0.4-1.1
			c-0.1-0.2,0-0.3,0.3-0.3c1.5,0,2.9,0,4.4,0c0.2,0,0.3,0.1,0.4,0.3c1.5,5.3,3,10.6,4.5,15.8c0-4.9,0-9.8,0-14.7
			c-0.1-0.4-0.3-0.7-0.4-1.1c-0.1-0.2,0-0.3,0.3-0.3c1.6,0,3.3,0,4.9,0C143.9,123.9,144,124,143.9,124.3 M150.6,127.5
			c0,7.3,0,14.5,0,21.8c1.5,0,3.1-0.1,4.6-0.1c0-2.4,0-4.8,0-7.2c-0.3,0-0.6,0-1,0c-0.2,0-0.3-0.1-0.4-0.2c-0.3-1-0.6-2-0.8-3
			c-0.1-0.2,0.1-0.3,0.3-0.3c2.2,0,4.4-0.1,6.6-0.1c0.3,0,0.4,0.1,0.3,0.3c-0.1,0.3-0.3,0.7-0.4,1c0,3.7,0,7.4,0,11
			c0,0.2-0.1,0.2-0.2,0.4c-0.6,0.5-1.2,1-1.9,1.5c-0.2,0.1-0.3,0.2-0.5,0.2c-2.9,0.1-5.8,0.1-8.7,0.2c-0.2,0-0.3,0-0.5-0.2
			c-0.6-0.5-1.2-0.9-1.9-1.4c-0.2-0.1-0.2-0.2-0.2-0.4c0-8.4,0-16.8,0.1-25.1c0-0.2,0.1-0.3,0.2-0.4c0.6-0.5,1.2-1,1.9-1.5
			c0.2-0.1,0.3-0.2,0.5-0.2c2.9,0,5.8,0,8.7,0c0.2,0,0.3,0,0.5,0.2c0.6,0.5,1.2,1,1.9,1.5c0.2,0.1,0.2,0.2,0.2,0.4
			c0,1.3,0,2.6,0,3.8c0.1,0.3,0.3,0.7,0.4,1c0.1,0.2,0,0.3-0.3,0.3c-1.6,0-3.3,0-4.9,0c-0.3,0-0.4-0.1-0.3-0.3
			c0.1-0.3,0.3-0.7,0.4-1c0-0.8,0-1.5,0-2.3C153.6,127.5,152.1,127.5,150.6,127.5 M174.7,127.5c-1.4,0-2.8,0-4.2,0
			c0,7.9,0,15.8,0,23.7c0.1,0.3,0.3,0.7,0.4,1c0.1,0.2,0,0.3-0.3,0.3c-1.6,0-3.3,0-4.9,0.1c-0.3,0-0.4-0.1-0.3-0.3
			c0.1-0.3,0.3-0.7,0.4-1c0-7.9,0-15.8,0-23.8c-1.4,0-2.8,0-4.3,0c-0.2,0-0.4-0.1-0.3-0.3c0.2-1,0.3-2,0.5-3
			c0.1-0.2,0.2-0.3,0.4-0.3c4,0,7.9,0,11.9,0c0.3,0,0.4,0.1,0.4,0.3c0.2,1,0.3,2,0.5,3C175.1,127.4,174.9,127.5,174.7,127.5
			 M190.1,150.9c-0.6,0.5-1.2,1-1.9,1.4c-0.2,0.1-0.3,0.2-0.5,0.2c-2.9,0-5.8,0-8.7,0c-0.2,0-0.3,0-0.5-0.2c-0.6-0.5-1.2-1-1.9-1.4
			c-0.2-0.1-0.2-0.2-0.2-0.4c0-8.2,0-16.4,0-24.6c0-0.2,0.1-0.2,0.2-0.4c0.6-0.5,1.2-1,1.9-1.4c0.2-0.1,0.3-0.2,0.5-0.2
			c2.9,0,5.8,0,8.7,0c0.2,0,0.3,0,0.5,0.2c0.6,0.5,1.2,1,1.9,1.5c0.2,0.1,0.2,0.2,0.2,0.4c0,8.2,0,16.4,0,24.7
			C190.3,150.7,190.3,150.8,190.1,150.9 M206.8,152.8c-1.5,0-2.9-0.1-4.4-0.1c-0.2,0-0.3-0.1-0.4-0.3c-1.5-5.2-3.1-10.3-4.6-15.5
			c0,4.8,0,9.6,0,14.3c0.1,0.3,0.3,0.7,0.4,1c0.1,0.2,0,0.3-0.3,0.3c-1.6,0-3.3,0-4.9-0.1c-0.3,0-0.4-0.1-0.3-0.3
			c0.1-0.3,0.3-0.7,0.4-1c0-8.7,0-17.3,0-26c-0.1-0.3-0.3-0.7-0.4-1c-0.1-0.2,0-0.3,0.3-0.3c1.5,0,2.9,0,4.4,0
			c0.2,0,0.3,0.1,0.4,0.2c1.5,5.1,3.1,10.3,4.6,15.5c0-4.8,0-9.6,0-14.3c-0.1-0.3-0.3-0.7-0.4-1c-0.1-0.2,0-0.3,0.3-0.3
			c1.6,0,3.3,0,4.9,0c0.3,0,0.4,0.1,0.3,0.3c-0.1,0.3-0.3,0.7-0.4,1c0,8.7,0,17.5,0,26.2c0.1,0.3,0.3,0.7,0.4,1
			C207.1,152.7,207,152.8,206.8,152.8 M232.6,146.7c-0.1,0.3-0.3,0.7-0.4,1c0,1.3,0,2.7,0,4c0,0.2-0.1,0.3-0.2,0.4
			c-0.6,0.5-1.2,1-1.9,1.4c-0.2,0.1-0.3,0.2-0.5,0.1c-2.9-0.1-5.8-0.3-8.7-0.4c-0.2,0-0.3-0.1-0.5-0.2c-0.6-0.5-1.2-1-1.9-1.6
			c-0.2-0.1-0.2-0.2-0.2-0.4c0-8.4,0-16.8-0.1-25.2c0-0.2,0.1-0.3,0.2-0.4c0.6-0.5,1.2-1,1.9-1.5c0.2-0.1,0.3-0.2,0.5-0.2
			c2.9,0,5.8,0,8.7,0c0.2,0,0.3,0,0.5,0.2c0.6,0.5,1.2,1,1.9,1.5c0.2,0.1,0.2,0.2,0.2,0.4c0,1.3,0,2.7,0,4c0.1,0.3,0.3,0.7,0.4,1
			c0.1,0.2,0,0.3-0.3,0.3c-1.6,0-3.3,0-4.9-0.1c-0.3,0-0.4-0.1-0.3-0.3c0.1-0.3,0.3-0.7,0.4-1c0-0.8,0-1.5,0-2.3c-1.5,0-3.1,0-4.6,0
			c0,7.4,0,14.7,0.1,22.1c1.5,0.1,3.1,0.1,4.6,0.2c0-0.8,0-1.5,0-2.3c-0.1-0.3-0.3-0.7-0.4-1c-0.1-0.2,0-0.3,0.3-0.3
			c1.6,0.1,3.3,0.1,4.9,0.2C232.6,146.3,232.7,146.4,232.6,146.7 M247.8,152.9c-0.6,0.5-1.2,1-1.9,1.4c-0.2,0.1-0.3,0.2-0.5,0.1
			c-2.9-0.2-5.8-0.3-8.7-0.5c-0.2,0-0.3-0.1-0.5-0.2c-0.6-0.5-1.2-1.1-1.9-1.6c-0.2-0.1-0.2-0.2-0.2-0.4c0-8.6-0.1-17.2-0.1-25.8
			c0-0.2,0-0.3,0.2-0.4c0.6-0.5,1.2-1,1.9-1.5c0.2-0.1,0.3-0.2,0.5-0.2c2.9,0,5.8,0,8.7,0c0.2,0,0.3,0,0.5,0.2
			c0.6,0.5,1.2,1,1.9,1.6c0.2,0.1,0.2,0.2,0.2,0.4c0,8.8,0.1,17.7,0.1,26.5C248.1,152.7,248,152.8,247.8,152.9 M264.6,124.3
			c-0.1,0.4-0.3,0.8-0.4,1.2c0,9.4,0.1,18.8,0.1,28.2c0,0.2-0.1,0.3-0.2,0.4c-0.6,0.5-1.2,1-1.9,1.5c-0.2,0.1-0.3,0.2-0.5,0.1
			c-2.9-0.2-5.8-0.4-8.7-0.6c-0.2,0-0.3-0.1-0.5-0.2c-0.6-0.6-1.2-1.1-1.9-1.7c-0.2-0.1-0.2-0.2-0.2-0.4c0-9.1-0.1-18.2-0.1-27.3
			c-0.1-0.4-0.3-0.7-0.4-1.1c-0.1-0.2,0-0.4,0.3-0.4c1.6,0,3.3,0,4.9,0c0.3,0,0.4,0.1,0.3,0.4c-0.1,0.4-0.3,0.8-0.4,1.1
			c0,8.6,0.1,17.2,0.1,25.9c1.5,0.1,3.1,0.2,4.6,0.3c0-8.7-0.1-17.4-0.1-26.1c-0.1-0.4-0.3-0.8-0.4-1.1c-0.1-0.2,0-0.4,0.3-0.4
			c1.6,0,3.3,0,4.9,0C264.6,123.9,264.7,124.1,264.6,124.3 M281.3,157.4c-1.5-0.1-2.9-0.3-4.4-0.4c-0.2,0-0.3-0.1-0.4-0.3
			c-1.5-6-3.1-12-4.6-17.9c0,5.4,0,10.8,0,16.3c0.1,0.4,0.3,0.8,0.4,1.2c0.1,0.2,0,0.4-0.3,0.4c-1.6-0.1-3.3-0.3-4.9-0.4
			c-0.3,0-0.4-0.2-0.3-0.4c0.1-0.4,0.3-0.7,0.4-1.1c0-9.7-0.1-19.4-0.1-29.2c-0.1-0.4-0.3-0.8-0.4-1.2c-0.1-0.2,0-0.4,0.3-0.4
			c1.5,0,2.9,0,4.4,0c0.2,0,0.3,0.1,0.4,0.3c1.5,5.8,3.1,11.7,4.6,17.7c0-5.5,0-10.9,0-16.4c-0.1-0.4-0.3-0.8-0.4-1.2
			c-0.1-0.2,0-0.4,0.3-0.4c1.6,0,3.3,0,4.9,0c0.3,0,0.4,0.1,0.3,0.4c-0.1,0.4-0.3,0.8-0.4,1.2c0,10.1,0,20.2,0.1,30.3
			c0.1,0.4,0.3,0.8,0.4,1.2C281.6,157.2,281.5,157.4,281.3,157.4 M296,128.3c-1.4,0-2.8,0-4.2-0.1c0,9.5,0,19,0,28.6
			c0.1,0.4,0.3,0.8,0.4,1.2c0.1,0.3,0,0.4-0.3,0.4c-1.6-0.2-3.3-0.3-4.9-0.5c-0.3,0-0.4-0.2-0.3-0.4c0.1-0.4,0.3-0.8,0.4-1.1
			c0-9.4,0-18.8-0.1-28.2c-1.4,0-2.8,0-4.3-0.1c-0.2,0-0.4-0.2-0.3-0.3c0.2-1.2,0.3-2.4,0.5-3.5c0.1-0.2,0.2-0.3,0.4-0.3
			c4,0,7.9,0,11.9,0c0.3,0,0.4,0.1,0.4,0.4c0.2,1.2,0.3,2.5,0.5,3.7C296.3,128.2,296.2,128.3,296,128.3 M311.1,124.4
			c-0.2,0.3-0.5,0.6-0.7,1c-1.4,6.1-2.8,12.1-4.2,18c0,5,0,10,0,15c0.1,0.5,0.3,0.9,0.4,1.4c0.1,0.3,0,0.4-0.3,0.4
			c-1.6-0.2-3.3-0.4-4.9-0.6c-0.3,0-0.4-0.2-0.3-0.4c0.1-0.4,0.3-0.8,0.4-1.2c0-5,0-10,0-15c-1.4-5.9-2.8-11.7-4.3-17.5
			c-0.2-0.3-0.5-0.6-0.7-1c-0.2-0.3-0.1-0.5,0.2-0.5c1.8,0,3.7,0,5.5,0c0.3,0,0.4,0.2,0.3,0.4c-0.1,0.2-0.1,0.5-0.2,0.7
			c0.5,3.1,1,6.3,1.6,9.4c0.5-3.1,1-6.2,1.5-9.4c-0.1-0.2-0.2-0.5-0.3-0.7c-0.1-0.3,0-0.4,0.3-0.4c1.8,0,3.6,0,5.4,0
			C311.2,123.9,311.3,124.1,311.1,124.4"/>
		<path class="st2" d="M209.5,42.6c35.3,7.2,65.6,27.4,85.4,55.2c0.2,0.3,0.6,0.4,0.9,0.2c0.3-0.2,0.4-0.6,0.2-0.9
			c-20.2-34.4-55.4-59-96.7-64.7L209.5,42.6z M172.1,31.5c-45.3,3-84.5,28.6-106.2,65.6c-0.2,0.3-0.1,0.7,0.2,0.9
			c0.3,0.2,0.7,0.1,0.9-0.2c22-31,57.2-52.6,97.9-57.1L172.1,31.5z"/>
		<path class="st0" d="M228.6,94.4l-5.7-3.4l-26.2-3.5l-9.9-11.3h-24.3l7.5-7.3h44l2.5,3.9l-3.1-0.9l-5.5,1.3h-7.3l-6.3,3.2
			l25.6-0.3l2,2l-14.8,4.1l18.7-0.3l10.1,5.2l21.4,10.2C257.3,97.1,248,93.4,228.6,94.4"/>
		<path class="st0" d="M179.6,95.8l7-0.4l7-0.3c4.4-0.2,8.8-0.3,13.5-0.5c4.5-0.2,8.9-0.2,12.7-0.2c0.7,0,1.4,0,2.1,0l-1.3-1.2
			l-19.2-2.3L175,91l16.8-3.5l-6.8-8.2h-41l-7.3,6l7.5,2.7l-10,1.2l-18.7,2.2l0.2-0.1l-0.3,0l-15.3,11.2
			C100.2,102.6,137.2,97.4,179.6,95.8 M184.7,82l-3.4,1.7l-17.6,0.5l-12-3.2L184.7,82z"/>
		<path class="st3" d="M277.8,108.4c-39-8.9-133.8-2.9-192.6,0.3c0,0,0.1,0,0.1-0.1c3.1-1.9,6.6-3,10.2-3.3
			c18.3-1.8,84.6-7.9,140.6-7.9c14,0,27.9,3.4,40.2,10.2C276.9,107.9,277.3,108.2,277.8,108.4"/>
		<path class="st3" d="M259,118.1c-34.8-10-120.6-9.3-173.8-9.4c0,0,0.1,0,0.1,0c2.9-1.5,6.1-2.3,9.4-2.5
			c16.6-0.7,76.8-2.9,127.3-0.1c12.7,0.7,25,4.5,35.8,11.2C258.2,117.6,258.6,117.8,259,118.1"/>
	</g>
</g>
</svg>
