<svg xmlns="http://www.w3.org/2000/svg" viewBox="0 0 42.66 39.62"><defs><style>.cls-1{fill:#231f20;}</style></defs><title>Asset 3</title><g id="Layer_2" data-name="Layer 2"><g id="Layer_1-2" data-name="Layer 1"><path class="cls-1" d="M39.6,9.43V6.34a4.08,4.08,0,0,0-4.07-4.07H32.3a4.08,4.08,0,0,0-4.07,4.07v8a4.07,4.07,0,0,0-1.6,3.21V32H17.26V26.72a4.06,4.06,0,0,0-1.31-3V4.07A4.08,4.08,0,0,0,11.88,0H8.65A4.08,4.08,0,0,0,4.59,4.07v9.84H4.28A4.08,4.08,0,0,0,.21,18V34.62A3.91,3.91,0,0,0,0,35.81,3.8,3.8,0,0,0,3.78,39.6h.27l.23,0H7.51l.23,0h.68l.23,0h3.23l.23,0h20l.23,0h6.29a4,4,0,0,0,.86-.1,3.8,3.8,0,0,0,2-1.06,4.06,4.06,0,0,0,1.24-2.91V13.35A4.07,4.07,0,0,0,39.6,9.43M18.78,38.1c-.25-.25-.5-.5-.73-.76-1.24-1.42-.79-3.79-.79-3.79h9.37c0,2.05,2.09,2.34,3.62,3.39A1.84,1.84,0,0,1,31,38.1Z"/></g></g></svg>