<svg xmlns="http://www.w3.org/2000/svg" viewBox="0 0 41.83 22.03"><defs><style>.cls-1{fill:#231f20;}</style></defs><title>Asset 1</title><g id="Layer_2" data-name="Layer 2"><g id="Layer_1-2" data-name="Layer 1"><path class="cls-1" d="M41.1,19,36.86,16V10.08l2.2-1.18a.93.93,0,0,0,.35-.36.48.48,0,0,0,.1-.28V4.9c0-.33-.37-.6-.82-.6h-.14c-.45,0-.82.27-.82.6V7.5L36.86,8V2A1.93,1.93,0,0,0,35,0h-.31a1.93,1.93,0,0,0-1.87,2V5.12l-.92-.49V2c0-.33-.37-.6-.82-.6h-.13c-.46,0-.82.27-.82.6V5.38a.45.45,0,0,0,.1.29.77.77,0,0,0,.34.35l2.25,1.21v6L26.73,9a1.81,1.81,0,0,0-1-.33A1.84,1.84,0,0,0,24.64,9l-3.27,2.28V8.91l1.17-.62a.47.47,0,0,0,.18-.19A.24.24,0,0,0,22.77,8V6.22c0-.18-.19-.32-.43-.32h-.07a.38.38,0,0,0-.42.32V7.57l-.48.25V6.19a1,1,0,0,0-1-1h-.16a1,1,0,0,0-1,1V9.3l-.45-.25V7.71c0-.17-.2-.32-.43-.32h-.07a.39.39,0,0,0-.42.32V9.45a.24.24,0,0,0,.05.14.41.41,0,0,0,.18.19l1.14.61v2.32L17.46,14l-1,.69-3.73-2.59a1.82,1.82,0,0,0-2.09,0l-5,3.45L.73,19a1.65,1.65,0,0,0-.64,1.89A1.76,1.76,0,0,0,1.77,22H40.06a1.75,1.75,0,0,0,1.68-1.17A1.65,1.65,0,0,0,41.1,19"/></g></g></svg>