<svg xmlns="http://www.w3.org/2000/svg" viewBox="0 0 43.02 28.65"><defs><style>.cls-1{fill:#231f20;}</style></defs><title>Asset 5</title><g id="Layer_2" data-name="Layer 2"><g id="Layer_1-2" data-name="Layer 1"><path class="cls-1" d="M39.22,21.05h-.85L35,14.9V8.19A8.21,8.21,0,0,0,26.77,0h-4.1a8.21,8.21,0,0,0-8.19,8.19V14.9l-4.22,6.15H5.87V17.32l1.91-1a.67.67,0,0,0,.3-.3.33.33,0,0,0,.09-.23V13.06c0-.27-.32-.49-.71-.49H7.34c-.39,0-.71.22-.71.49V15.2l-.76.39V10.65A1.64,1.64,0,0,0,4.24,9H4a1.63,1.63,0,0,0-1.62,1.63v2.59l-.81-.4V10.69c0-.27-.32-.49-.71-.49H.71c-.39,0-.71.22-.71.49v2.77a.41.41,0,0,0,.09.23.76.76,0,0,0,.3.29l2,1v6.52a3.8,3.8,0,0,0,1.76,7.16H39.22a3.8,3.8,0,1,0,0-7.6"/></g></g></svg>