<svg xmlns="http://www.w3.org/2000/svg" viewBox="0 0 42.88 26.94"><defs><style>.cls-1{fill:#231f20;}</style></defs><title>Asset 6</title><g id="Layer_2" data-name="Layer 2"><g id="Layer_1-2" data-name="Layer 1"><path class="cls-1" d="M41.93,13.32a.94.94,0,0,0,.84-.46.79.79,0,0,0-.12-.95l-2.08-2.2a.43.43,0,0,0,0-.05V7.51a.51.51,0,1,0-1,0V8.66L36.15,5.05a1,1,0,0,0-.72-.3,1,1,0,0,0-.72.3l-3.4,3.58.38.4a1.42,1.42,0,0,1,.21,1.7,1.63,1.63,0,0,1-1.42.78H29.32v1.81h.79v6H28.23V11.12h1.55a1.23,1.23,0,0,0,1.08-.59,1,1,0,0,0-.15-1.23L22.26.39A1.26,1.26,0,0,0,21.33,0a1.3,1.3,0,0,0-.94.39l-4.72,5V3.88a.81.81,0,1,0-1.61,0V7.07L11.94,9.3a1,1,0,0,0-.15,1.23,1.23,1.23,0,0,0,1.09.59h1.54v8.22h-1.3V13.7h.51V11.89H12.46A1.65,1.65,0,0,1,11,11.11a1.44,1.44,0,0,1,.21-1.7l.53-.55L8.52,5.43a1,1,0,0,0-1.44,0L3.73,9V7.89a.51.51,0,1,0-1,0V10L.57,12.29a.8.8,0,0,0-.11,1,.94.94,0,0,0,.84.46H2.48v5.89A3.79,3.79,0,0,0,3.8,26.94H38.86a3.78,3.78,0,0,0,1.88-7.07V13.32ZM19.48,19.26V14.58a.35.35,0,0,1,.35-.35h2.92a.35.35,0,0,1,.35.35v4.68a.19.19,0,0,0,0,.08H19.48v-.08"/><path class="cls-1" d="M20.3,16.4a.41.41,0,1,0,.41.41.41.41,0,0,0-.41-.41"/></g></g></svg>