<?xml version="1.0" encoding="utf-8"?>
<svg version="1.1" id="Layer_1" xmlns="http://www.w3.org/2000/svg" xmlns:xlink="http://www.w3.org/1999/xlink" x="0px" y="0px"
	 viewBox="0 0 57 57" style="enable-background:new 0 0 57 57;" xml:space="preserve">
<style type="text/css">
	.st0{fill:#00A89C;}
	.st1{fill:#FFFFFF;}
</style>
<g>
	<circle class="st0" cx="28.5" cy="28.5" r="28.3"/>
	<g>
		<path class="st1" d="M43.2,33.4c-3.1,0-5.6,2.5-5.6,5.6s2.5,5.6,5.6,5.6c3.1,0,5.6-2.5,5.6-5.6S46.3,33.4,43.2,33.4z M43.2,42.5
			c-1.9,0-3.5-1.6-3.5-3.5s1.6-3.5,3.5-3.5c1.9,0,3.5,1.6,3.5,3.5S45.1,42.5,43.2,42.5z"/>
		<path class="st1" d="M15.9,33.4c-3.1,0-5.6,2.5-5.6,5.6s2.5,5.6,5.6,5.6c3.1,0,5.6-2.5,5.6-5.6S19,33.4,15.9,33.4z M15.9,42.5
			c-1.9,0-3.5-1.6-3.5-3.5s1.6-3.5,3.5-3.5c1.9,0,3.5,1.6,3.5,3.5S17.8,42.5,15.9,42.5z"/>
		<path class="st1" d="M46.9,30.1v-2.3c0-2.9-2.4-5.3-5.3-5.3h-2.5l-6-8.8c0,0-0.2-0.3-0.5-0.6c-0.4-0.8-1.5-0.7-1.5-0.7l-12.5,0
			c0,0-1.4,0-1.6,1.1c0,0.2,0,0.4,0,0.5c0,0.2,0,0.3,0,0.5c0,0.3,0,4.7,0,8h-1.7c-2.9,0-5.3,2.4-5.3,5.3V33c0,0.5,0.1,1.1,0.2,1.6
			c1.3-1.7,3.3-2.7,5.6-2.7c3.7,0,6.8,2.8,7.1,6.4h12.9c0.4-3.6,3.4-6.4,7.1-6.4c1.9,0,3.7,0.8,5,2c0.6-0.2,1.2-0.6,1.4-1.4
			C49.7,31,48.2,30.2,46.9,30.1z M34.8,33.2h-2c0.2-0.3,0.3-0.6,0.2-1c-0.2-1.1-1.1-1-1.1-1l-8.3,0c0,0-0.2,0-0.4,0.1l0-10
			c0,0,0-1.1-1.1-1.3c-1.1-0.2-1.6,0.9-1.6,1.6c0,0.1,0,0.3,0,0.6h-0.9l0-7.1c2.4,0,10.3,0,11.1,0c0,0,0,0,0.1,0
			c0.1,0.2,0.2,0.4,0.4,0.6c0.2,0.3,3.8,5.6,6.4,9.4v0.3l-2.3-0.9c0,0-0.1-0.1-0.3-0.1l0.1-0.6c0,0,0.1-0.3-0.5-0.4
			c-0.6-0.2-0.9,0.1-0.9,0.2c0,0.1-0.4,2.1-0.4,2.3s0.2,0.5,0.8,0.5c0.6,0.1,0.6-0.2,0.6-0.2l0.1-0.5c0.1,0,0.1,0.1,0.2,0.1
			c0.1,0,1.3,0.6,2.6,1.1v5.4C36.8,32.9,35.8,33.2,34.8,33.2z"/>
	</g>
</g>
</svg>
