<?xml version="1.0" encoding="utf-8"?>
<svg version="1.1" id="Layer_1" xmlns="http://www.w3.org/2000/svg" xmlns:xlink="http://www.w3.org/1999/xlink" x="0px" y="0px"
	 viewBox="0 0 57 57" style="enable-background:new 0 0 57 57;" xml:space="preserve">
<style type="text/css">
	.st0{fill:#FF5A00;}
	.st1{fill:#FFFFFF;}
</style>
<g>
	<circle class="st0" cx="28.5" cy="28.5" r="28.4"/>
	<g>
		<path class="st1" d="M16.9,43.5c3.6,0,6.4-2.9,6.4-6.4c0-3.6-2.9-6.4-6.4-6.4c-3.5,0-6.4,2.9-6.4,6.4
			C10.4,40.6,13.3,43.5,16.9,43.5z M9,37.1c0-4.4,3.5-7.9,7.9-7.9c4.4,0,7.9,3.5,7.9,7.9c0,4.4-3.5,7.9-7.9,7.9
			C12.5,45,9,41.4,9,37.1z"/>
		<path class="st1" d="M40.1,43.6c3.5,0,6.4-2.9,6.4-6.4c0-3.6-2.9-6.4-6.4-6.4c-3.6,0-6.4,2.9-6.4,6.4
			C33.7,40.7,36.6,43.6,40.1,43.6z M32.2,37.2c0-4.4,3.5-7.9,7.9-7.9c4.4,0,7.9,3.5,7.9,7.9s-3.5,7.9-7.9,7.9
			C35.8,45.1,32.2,41.5,32.2,37.2z"/>
		<path class="st1" d="M32.2,17.9c1.6,0,3-1.3,3-3c0-1.6-1.3-3-3-3c-1.6,0-3,1.3-3,3C29.3,16.6,30.6,17.9,32.2,17.9z"/>
		<path class="st1" d="M32.4,25.1c-0.4,0-0.9-0.2-1.2-0.7l-1.9-3l-4,3.9l3.7,1.9c1.5,0.7,1.3,2.1,1.3,2.1v8.4c0,0.9-0.8,1.7-1.7,1.7
			s-1.7-0.8-1.7-1.7v-6.7l-6.4-3.6c-0.8-0.4-1.3-1.2-1.3-2.2c0-0.6,0.2-1.2,0.6-1.7l6.3-6.3c0.8-0.9,1.9-0.7,1.9-0.7
			c1.3,0,2,1.1,2,1.1l3.3,5.1l5,0c1.8,0,1.8,2.3,0,2.3L32.4,25.1L32.4,25.1z"/>
	</g>
</g>
</svg>
