<?xml version="1.0" encoding="utf-8"?>
<!-- Generator: Adobe Illustrator 22.1.0, SVG Export Plug-In . SVG Version: 6.00 Build 0)  -->
<svg version="1.1" id="Layer_1" xmlns="http://www.w3.org/2000/svg" xmlns:xlink="http://www.w3.org/1999/xlink" x="0px" y="0px"
	 viewBox="0 0 57 57" style="enable-background:new 0 0 57 57;" xml:space="preserve">
<style type="text/css">
	.st0{fill:#662F8E;}
	.st1{fill:#FFFFFF;}
</style>
<g>
	<circle class="st0" cx="28.5" cy="28.4" r="28.3"/>
	<g>
		<path class="st1" d="M24.2,14.5c1.5,0,2.7-1.2,2.7-2.7c0-1.5-1.2-2.7-2.7-2.7c-1.5,0-2.7,1.2-2.7,2.7
			C21.5,13.3,22.7,14.5,24.2,14.5"/>
		<path class="st1" d="M44.3,22.3l-2.9-0.6l-1.7,3.3c0.3,0.1,0.6,0.1,0.8,0.1C42.4,25.2,43.9,24,44.3,22.3 M9,28c0-2.2,1.8-4,4-4
			h8.4v-6c0-1.5,1.2-2.7,2.7-2.7c1.5,0,2.7,1.2,2.7,2.7v0.9l4,1c0.7,0.2,1.1,0.9,1,1.6c-0.2,0.7-0.9,1.1-1.6,1l-3.4-0.8V24h4
			l11-11.4l-0.3,3l5.4,3.6c0.9,0.5,1.2,1.7,0.7,2.6c-0.4,0.7-1.2,1.1-2,0.9l-0.4-0.1c-0.5,2.1-2.4,3.7-4.7,3.7
			c-0.4,0-0.9-0.1-1.3-0.2l-4.1,8.4V46c0,1-0.8,1.8-1.8,1.8c-1,0-1.8-0.8-1.8-1.8V34.2h-9.1L20.9,37l3.4,8.1c0.5,0.9,0.2,2-0.7,2.4
			c-0.9,0.5-2,0.2-2.5-0.7l-4-9.4v-3l-1.8,2.8V46c0,1-0.8,1.8-1.8,1.8c-1,0-1.8-0.8-1.8-1.8V36l1.5-2.3v-7.9L11.8,28v6.6H9V28z"/>
	</g>
</g>
</svg>
