<svg xmlns="http://www.w3.org/2000/svg" viewBox="0 0 75.07 68.27"><defs><style>.cls-1{fill:#fff;}</style></defs><title>Asset 2</title><g id="Layer_2" data-name="Layer 2"><g id="Layer_1-2" data-name="Layer 1"><path class="cls-1" d="M0,3.88A21.94,21.94,0,0,1,1.14,1.67,3.34,3.34,0,0,1,3.67.12C5.25,0,6.84.08,8.5.08V2.65c0,.86,0,1.73,0,2.58a4.85,4.85,0,0,0,3.8,4.52,8.62,8.62,0,0,0,4,0,5,5,0,0,0,3.88-5.17c0-1.51,0-3,0-4.58h20.5V4.66A5,5,0,0,0,41.84,8a5,5,0,0,0,3.6,1.89,7.92,7.92,0,0,0,4.07-.42,5,5,0,0,0,3-4.9c0-1.3,0-2.6,0-3.89V.06a36.87,36.87,0,0,1,4.71,0,4.43,4.43,0,0,1,3.71,4.19c0,.24,0,.48,0,.72v22.5l-5.17-.35V16.4H5.28v.7c0,9,0,17.95,0,26.92a3.78,3.78,0,0,0,4.05,4c7.54,0,15.07,0,22.61,0h.72L33,53.89H5.16C2.43,53.89.92,52.76.1,50.14L0,49.93Z"/><path class="cls-1" d="M55.28,68.27,53,67.81A18.06,18.06,0,0,1,40.09,57a17.73,17.73,0,0,1,1.48-16.64,17.46,17.46,0,0,1,12.64-8.23,17.64,17.64,0,0,1,13,3,17.88,17.88,0,0,1,7.2,10.12c.3,1,.45,2.14.67,3.22v3.12c-.08.42-.17.85-.24,1.28A17.8,17.8,0,0,1,69.72,63a17.37,17.37,0,0,1-8.56,4.77c-.92.21-1.84.36-2.76.54ZM68.92,50.13a12,12,0,1,0-12,12A12.06,12.06,0,0,0,68.92,50.13Z"/><path class="cls-1" d="M21.16,39.24a4.66,4.66,0,0,1-4.64,4.66,4.74,4.74,0,0,1-4.64-4.68,4.7,4.7,0,0,1,4.63-4.62A4.63,4.63,0,0,1,21.16,39.24Z"/><path class="cls-1" d="M30.44,29.79a4.63,4.63,0,1,1,4.68-4.58A4.62,4.62,0,0,1,30.44,29.79Z"/><path class="cls-1" d="M49.07,25.18a4.62,4.62,0,1,1-4.63-4.64A4.56,4.56,0,0,1,49.07,25.18Z"/><path class="cls-1" d="M35.12,39.24a4.63,4.63,0,1,1-4.64-4.64A4.67,4.67,0,0,1,35.12,39.24Z"/><path class="cls-1" d="M21.16,25.14a4.59,4.59,0,0,1-4.62,4.65,4.63,4.63,0,1,1-.05-9.25A4.6,4.6,0,0,1,21.16,25.14Z"/><path class="cls-1" d="M63.42,44.71l2.91,3L54.06,59.34C52.7,58,48.47,54.14,47,52.71l2.86-2.82,4.19,4.39C55.59,52.67,62,46.21,63.42,44.71Z"/></g></g></svg>