<?xml version="1.0" encoding="utf-8"?>
<!-- Generator: Adobe Illustrator 22.1.0, SVG Export Plug-In . SVG Version: 6.00 Build 0)  -->
<svg version="1.1" id="Layer_1" xmlns="http://www.w3.org/2000/svg" xmlns:xlink="http://www.w3.org/1999/xlink" x="0px" y="0px"
	 viewBox="0 0 57 57" style="enable-background:new 0 0 57 57;" xml:space="preserve">
<style type="text/css">
	.st0{fill:#FFFFFF;}
</style>
<g>
	<path class="st0" d="M39,26.7h-0.8v-2c0-0.5-0.4-0.9-0.9-0.9h-2.2c-0.5,0-0.9,0.4-0.9,0.9v2H18c-1,0-1.8,0.8-1.8,1.8
		s0.8,1.8,1.8,1.8h16.4v2c0,0.5,0.4,0.9,0.9,0.9h2.2c0.5,0,0.9-0.4,0.9-0.9v-2H39c1,0,1.8-0.8,1.8-1.8S40,26.7,39,26.7z"/>
	<path class="st0" d="M39,36.3H22.6V34c0-0.5-0.4-0.9-0.9-0.9h-2.2c-0.5,0-0.9,0.4-0.9,0.9v2.3H18c-1,0-1.8,0.8-1.8,1.8
		s0.8,1.8,1.8,1.8h0.8v1.7c0,0.5,0.4,0.9,0.9,0.9h2.2c0.5,0,0.9-0.4,0.9-0.9v-1.7H39c1,0,1.8-0.8,1.8-1.8S40,36.3,39,36.3z"/>
	<path class="st0" d="M18,21.4h0.8V23c0,0.5,0.4,0.9,0.9,0.9h2.2c0.5,0,0.9-0.4,0.9-0.9v-1.7H39c1,0,1.8-0.8,1.8-1.8
		S40,17.8,39,17.8H22.6v-2.3c0-0.5-0.4-0.9-0.9-0.9h-2.2c-0.5,0-0.9,0.4-0.9,0.9v2.3H18c-1,0-1.8,0.8-1.8,1.8S17,21.4,18,21.4z"/>
</g>
</svg>
