<?xml version="1.0" encoding="utf-8"?>
<!-- Generator: Adobe Illustrator 22.1.0, SVG Export Plug-In . SVG Version: 6.00 Build 0)  -->
<svg version="1.1" id="Layer_1" xmlns="http://www.w3.org/2000/svg" xmlns:xlink="http://www.w3.org/1999/xlink" x="0px" y="0px"
	 viewBox="0 0 30 30" style="enable-background:new 0 0 30 30;" xml:space="preserve">
<style type="text/css">
	.st0{fill:#FFFFFF;}
</style>
<g>
	<path class="st0" d="M26.3,13h-0.9v-2.2c0-0.5-0.4-1-1-1h-2.4c-0.5,0-1,0.4-1,1V13H3.7c-1.1,0-1.9,0.9-1.9,1.9s0.9,1.9,1.9,1.9
		h17.6V19c0,0.5,0.4,1,1,1h2.4c0.5,0,1-0.4,1-1v-2.2h0.6c1.1,0,1.9-0.9,1.9-1.9S27.4,13,26.3,13z"/>
	<path class="st0" d="M26.3,23.3H8.7v-2.5c0-0.5-0.4-1-1-1H5.3c-0.5,0-1,0.4-1,1v2.5H3.7c-1.1,0-1.9,0.9-1.9,1.9
		c0,1.1,0.9,1.9,1.9,1.9h0.9V29c0,0.5,0.4,1,1,1h2.4c0.5,0,1-0.4,1-1v-1.8h17.4c1.1,0,1.9-0.9,1.9-1.9
		C28.2,24.2,27.4,23.3,26.3,23.3z"/>
	<path class="st0" d="M3.7,7.3h0.9V9c0,0.5,0.4,1,1,1h2.4c0.5,0,1-0.4,1-1V7.2h17.4c1.1,0,1.9-0.9,1.9-1.9s-0.9-1.8-1.9-1.8H8.7V1
		c0-0.5-0.4-1-1-1H5.3c-0.5,0-1,0.4-1,1v2.5H3.7c-1.1,0-1.9,0.9-1.9,1.9S2.6,7.3,3.7,7.3z"/>
</g>
</svg>
