<?xml version="1.0" encoding="utf-8"?>
<!-- Generator: Adobe Illustrator 22.1.0, SVG Export Plug-In . SVG Version: 6.00 Build 0)  -->
<svg version="1.1" id="Layer_1" xmlns="http://www.w3.org/2000/svg" xmlns:xlink="http://www.w3.org/1999/xlink" x="0px" y="0px"
	 viewBox="0 0 30 30" style="enable-background:new 0 0 30 30;" xml:space="preserve">
<style type="text/css">
	.st0{fill:#FFFFFF;}
</style>
<g>
	<path class="st0" d="M15.6,0c-0.1,0-0.2,0-0.3,0l0,0c-0.1,0-0.2,0-0.2,0l0,0l0,0c-0.1,0-0.2,0-0.2,0c-0.1,0-0.2,0-0.3,0
		C7.5,0.3,3.5,4.4,3.5,11.4c0,2.4,1.1,4.2,1.4,4.7l7.8,12.7c0.5,0.8,1.3,1.2,2.3,1.2s1.8-0.5,2.2-1.2l7.8-12.7
		c0.4-0.5,1.4-2.2,1.4-4.7C26.5,4.4,22.5,0.3,15.6,0z M15,14.8c-2.9,0-5.2-2.3-5.2-5.3s2.3-5.3,5.2-5.3s5.2,2.3,5.2,5.3
		S17.9,14.8,15,14.8z"/>
</g>
</svg>
