<?xml version="1.0" encoding="utf-8"?>
<!-- Generator: Adobe Illustrator 22.1.0, SVG Export Plug-In . SVG Version: 6.00 Build 0)  -->
<svg version="1.1" id="Layer_1" xmlns="http://www.w3.org/2000/svg" xmlns:xlink="http://www.w3.org/1999/xlink" x="0px" y="0px"
	 viewBox="0 0 57 57" style="enable-background:new 0 0 57 57;" xml:space="preserve">
<style type="text/css">
	.st0{fill:#ED264C;}
	.st1{fill:#FFFFFF;}
</style>
<circle class="st0" cx="28.5" cy="28.5" r="28.2"/>
<path class="st1" d="M28.7,14.9c1.7,0,3.1-1.4,3.1-3.1s-1.4-3.1-3.1-3.1s-3.1,1.4-3.1,3.1S27,14.9,28.7,14.9z"/>
<path class="st1" d="M23.4,15.4c0.1-0.5-0.2-1-0.7-1.1l-2.6-0.6c-0.5-0.1-1,0.2-1.1,0.7l-2.2,9.1c-0.1,0.5,0.2,1,0.7,1.1l2.6,0.6
	c0.5,0.1,1-0.2,1.1-0.7L23.4,15.4z"/>
<path class="st1" d="M35.5,47.7C35.5,47.7,35.5,47.7,35.5,47.7c0,0.4,0.3,0.8,0.7,0.8c0.4,0,0.7-0.3,0.7-0.6l5.3-28.5c0,0,0,0,0-0.1
	c0-0.4-0.3-0.7-0.7-0.7c-0.4,0-0.6,0.3-0.7,0.6L35.5,47.7z"/>
<path class="st1" d="M18,45.8c0,0.1,0,0.3,0,0.4c0,1.2,1,2.2,2.2,2.2c1,0,1.8-0.7,2.1-1.6l3.8-15.7l3.6,15.6c0.2,1,1.1,1.7,2.1,1.7
	c1.2,0,2.2-1,2.2-2.2c0-0.2,0-0.3,0-0.5l-5-20.7l0.4-1.8l0.3,1.4c0.3,0.9,1.1,1,1.1,1L36,27c0.1,0,0.2,0,0.3,0
	c0.8,0,1.5-0.7,1.5-1.5c0-0.7-0.5-1.3-1.2-1.5L32.2,23L31,18c-0.6-2.7-3.2-2.7-3.2-2.7c-2.6-0.1-3.2,2.6-3.2,2.6L18,45.8z"/>
</svg>
