<?xml version="1.0" encoding="utf-8"?>
<!-- Generator: Adobe Illustrator 22.1.0, SVG Export Plug-In . SVG Version: 6.00 Build 0)  -->
<svg version="1.1" id="Layer_1" xmlns="http://www.w3.org/2000/svg" xmlns:xlink="http://www.w3.org/1999/xlink" x="0px" y="0px"
	 viewBox="0 0 30 30" style="enable-background:new 0 0 30 30;" xml:space="preserve">
<style type="text/css">
	.st0{fill:#FFFFFF;}
</style>
<g>
	<path class="st0" d="M29.4,15.2c-0.8-0.4-1.7-0.8-2.5-1.2c-0.4-0.2-0.6-0.4-0.6-0.8c0-0.2,0-0.4-0.1-0.6c-0.1-0.5,0.1-1,0.4-1.4
		c0.6-0.6,1.2-1.2,1.8-1.8c0.4-0.4,0.5-0.8,0.3-1.3c-0.3-0.7-0.7-1.3-1-1.9c-0.3-0.5-0.8-0.7-1.3-0.5c-0.9,0.3-1.8,0.5-2.7,0.8
		c-0.3,0.2-0.6,0.1-0.8-0.2c-0.2-0.3-0.4-0.4-0.7-0.6c-0.4-0.3-0.5-0.6-0.4-1.1c0.1-0.8,0.2-1.7,0.3-2.3c0.1-0.9-0.2-1.3-0.8-1.5
		c-0.6-0.3-1.3-0.5-1.9-0.7c-0.7-0.2-1-0.1-1.4,0.5c-0.5,0.8-1.1,1.5-1.6,2.3c-0.2,0.3-0.4,0.3-0.7,0.3h-1.1c-0.3,0-0.6-0.1-0.8-0.4
		c-0.5-0.8-1.1-1.6-1.6-2.4c-0.3-0.4-0.7-0.7-1.2-0.5c-0.8,0.3-1.4,0.5-2.2,0.8C8.3,1.1,8.1,1.5,8.2,2c0.1,1,0.2,1.9,0.3,3
		c0.1,0.3,0,0.5-0.3,0.7C7.8,5.9,7.5,6.1,7.3,6.4C7,6.6,6.8,6.6,6.5,6.5C5.6,6.3,4.6,6,3.7,5.8c-0.6-0.1-0.9,0-1.3,0.5
		c-0.3,0.6-0.7,1.2-1,1.8c-0.3,0.7-0.3,1,0.3,1.5c0.7,0.7,1.3,1.3,2,2C4,11.8,4.1,12,4,12.3c-0.1,0.4-0.2,0.8-0.2,1.1
		s-0.2,0.5-0.5,0.7c-0.9,0.4-1.8,0.8-2.6,1.2c-0.5,0.3-0.8,0.6-0.7,1.1c0.2,0.8,0.3,1.5,0.4,2.3c0.1,0.5,0.4,0.8,0.9,0.8
		c0.9,0.1,1.9,0.2,2.9,0.3c0.3,0,0.5,0.2,0.7,0.4c0.2,0.3,0.3,0.6,0.5,0.9c0.2,0.3,0.3,0.5,0.1,0.8l-1.3,2.5c-0.3,0.6-0.3,1,0.3,1.4
		c0.5,0.5,1,0.9,1.5,1.3c0.5,0.4,0.9,0.3,1.4,0c0.8-0.5,1.5-1.1,2.3-1.6c0.3-0.2,0.5-0.2,0.8-0.1c0.3,0.1,0.7,0.3,1,0.3
		c0.3,0.1,0.5,0.3,0.6,0.6c0.2,0.9,0.4,1.8,0.7,2.7c0.2,0.6,0.5,0.9,1.1,0.9h2.1c0.6,0,0.9-0.3,1.1-0.8c0.3-0.9,0.5-1.9,0.8-2.8
		c0.1-0.3,0.3-0.4,0.5-0.5c0.3-0.2,0.8-0.3,1.1-0.4c0.3-0.2,0.5-0.1,0.8,0.1c0.7,0.5,1.4,1.1,2.2,1.6c0.5,0.4,1,0.4,1.5,0
		c0.5-0.4,1-0.8,1.5-1.3c0.5-0.5,0.6-0.8,0.3-1.5c-0.4-0.8-0.8-1.7-1.2-2.5c-0.1-0.3-0.1-0.5,0.1-0.8c0.3-0.3,0.4-0.7,0.6-1
		c0.1-0.3,0.3-0.4,0.6-0.4c0.9,0,1.9-0.1,2.8-0.2c0.7-0.1,1-0.3,1.2-1c0.2-0.6,0.3-1.3,0.3-1.9C30.1,15.9,29.8,15.6,29.4,15.2z
		 M10.6,19.9c-0.1-0.1-0.3-0.2-0.4-0.4C6.1,14.4,9.7,8.3,14.9,8.3c3.6,0,6.5,3,6.5,6.5C21.4,19.7,16,23.4,10.6,19.9z"/>
</g>
</svg>
