<?xml version="1.0" encoding="utf-8"?>
<!-- Generator: Adobe Illustrator 22.1.0, SVG Export Plug-In . SVG Version: 6.00 Build 0)  -->
<svg version="1.1" id="Layer_1" xmlns="http://www.w3.org/2000/svg" xmlns:xlink="http://www.w3.org/1999/xlink" x="0px" y="0px"
	 viewBox="0 0 57 57" style="enable-background:new 0 0 57 57;" xml:space="preserve">
<style type="text/css">
	.st0{fill:#4D4E4E;}
</style>
<g>
	<path class="st0" d="M39.9,1.4H17.1C8.5,1.4,1.4,8.5,1.4,17.1v22.8c0,8.7,7.1,15.8,15.8,15.8h22.8c8.7,0,15.8-7.1,15.8-15.8V17.1
		C55.6,8.5,48.5,1.4,39.9,1.4z M46.4,30.2c-0.1,0.8-0.2,1.6-0.4,2.3c-0.2,0.8-0.6,1.1-1.4,1.2c-1.1,0.1-2.2,0.2-3.3,0.2
		c-0.4,0-0.6,0.2-0.7,0.5c-0.2,0.4-0.4,0.8-0.7,1.2c-0.2,0.3-0.2,0.6-0.1,0.9c0.5,1,0.9,2,1.4,3c0.4,0.8,0.3,1.2-0.3,1.8
		c-0.6,0.5-1.2,1-1.8,1.5c-0.6,0.5-1.2,0.5-1.8,0c-0.9-0.6-1.8-1.3-2.6-1.9c-0.3-0.2-0.6-0.3-0.9-0.1c-0.4,0.2-0.9,0.3-1.3,0.5
		c-0.3,0.1-0.5,0.3-0.6,0.6c-0.3,1.1-0.6,2.2-0.9,3.3c-0.2,0.7-0.6,1-1.3,1c-0.8,0-1.6,0-2.5,0c-0.7,0-1.1-0.4-1.3-1.1
		c-0.3-1.1-0.6-2.1-0.8-3.2c-0.1-0.4-0.3-0.6-0.7-0.7c-0.4-0.1-0.8-0.3-1.2-0.4c-0.3-0.1-0.6-0.1-0.9,0.1c-0.9,0.6-1.8,1.3-2.7,1.9
		c-0.6,0.4-1.1,0.5-1.7,0c-0.6-0.5-1.2-1-1.8-1.6c-0.6-0.5-0.6-1-0.3-1.7c0.5-1,1-2,1.5-3c0.2-0.3,0.1-0.6-0.1-0.9
		c-0.2-0.4-0.4-0.7-0.6-1.1c-0.2-0.3-0.4-0.5-0.8-0.5c-1.1-0.1-2.3-0.2-3.4-0.3c-0.6-0.1-1-0.4-1.1-1c-0.2-0.9-0.3-1.8-0.5-2.7
		c-0.1-0.6,0.2-1,0.8-1.3c1-0.5,2-0.9,3.1-1.4c0.4-0.2,0.6-0.4,0.6-0.8c0-0.4,0.1-0.8,0.2-1.3c0.1-0.3,0-0.6-0.3-0.8
		c-0.8-0.8-1.6-1.6-2.4-2.4c-0.6-0.6-0.7-1-0.3-1.8c0.4-0.7,0.8-1.4,1.2-2.1c0.4-0.6,0.8-0.7,1.5-0.6c1.1,0.3,2.2,0.6,3.3,0.9
		c0.4,0.1,0.6,0.1,0.9-0.2c0.3-0.3,0.7-0.6,1.1-0.9c0.3-0.2,0.4-0.4,0.3-0.8c-0.1-1.2-0.2-2.3-0.3-3.5c-0.1-0.6,0.2-1.1,0.7-1.3
		c0.9-0.4,1.7-0.7,2.6-1c0.6-0.2,1.1,0.1,1.4,0.6c0.6,0.9,1.3,1.8,1.9,2.8c0.2,0.4,0.5,0.5,0.9,0.5c0.4,0,0.9,0,1.3,0
		c0.3,0,0.6-0.1,0.8-0.4c0.6-0.9,1.3-1.8,1.9-2.7c0.5-0.7,0.9-0.8,1.7-0.6c0.7,0.2,1.5,0.5,2.2,0.8c0.7,0.3,1,0.7,0.9,1.8
		c-0.1,0.7-0.2,1.7-0.3,2.7c-0.1,0.6,0,1,0.5,1.3c0.3,0.2,0.6,0.4,0.8,0.7c0.3,0.3,0.6,0.4,1,0.2c1.1-0.3,2.1-0.6,3.2-0.9
		c0.7-0.2,1.2,0,1.6,0.6c0.4,0.7,0.8,1.4,1.2,2.2c0.3,0.6,0.2,1.1-0.3,1.6c-0.8,0.8-1.6,1.6-2.4,2.4c-0.3,0.3-0.4,0.5-0.3,0.9
		c0.1,0.4,0.2,0.8,0.2,1.2c0,0.4,0.2,0.7,0.7,0.9c1,0.4,2,0.9,3,1.4C46.2,29.1,46.5,29.5,46.4,30.2z"/>
	<path class="st0" d="M28.5,20.5c-4.3,0-7.7,3.5-7.7,7.7c0,4.3,3.4,7.7,7.7,7.7c4.3,0,7.7-3.5,7.7-7.7C36.2,24,32.8,20.5,28.5,20.5z
		"/>
</g>
</svg>
