<?xml version="1.0" encoding="utf-8"?>
<!-- Generator: Adobe Illustrator 22.1.0, SVG Export Plug-In . SVG Version: 6.00 Build 0)  -->
<svg version="1.1" id="Layer_1" xmlns="http://www.w3.org/2000/svg" xmlns:xlink="http://www.w3.org/1999/xlink" x="0px" y="0px"
	 viewBox="0 0 30 30" style="enable-background:new 0 0 30 30;" xml:space="preserve">
<style type="text/css">
	.st0{fill:#FFFFFF;}
</style>
<g>
	<g>
		<path class="st0" d="M25.9,30H4c-2.1,0-4-1.7-4-4V4c0-2.2,1.7-4,4-4H26c2.1,0,4,1.7,4,4v22C29.9,28.3,28.2,30,25.9,30z M4,2.9
			C3.4,2.9,2.7,3.4,2.7,4v22c0,0.6,0.5,1.1,1.2,1.1H26c0.6,0,1.2-0.5,1.2-1.1V4c0-0.6-0.5-1.1-1.2-1.1H4z"/>
	</g>
	<g>
		<path class="st0" d="M22.9,9.2H6.6c-0.8,0-1.4-0.6-1.4-1.4s0.6-1.4,1.4-1.4h16.3c0.8,0,1.4,0.6,1.4,1.4S23.6,9.2,22.9,9.2z"/>
	</g>
	<g>
		<path class="st0" d="M23,16.7H6.7c-0.8,0-1.4-0.6-1.4-1.4c0-0.8,0.6-1.4,1.4-1.4H23c0.8,0,1.4,0.6,1.4,1.4
			C24.4,16.1,23.7,16.7,23,16.7z"/>
	</g>
	<g>
		<path class="st0" d="M23,23.8H6.7c-0.8,0-1.4-0.6-1.4-1.4c0-0.8,0.6-1.4,1.4-1.4H23c0.8,0,1.4,0.6,1.4,1.4
			C24.4,23.1,23.7,23.8,23,23.8z"/>
	</g>
</g>
</svg>
