<?xml version="1.0" encoding="utf-8"?>
<!-- Generator: Adobe Illustrator 22.1.0, SVG Export Plug-In . SVG Version: 6.00 Build 0)  -->
<svg version="1.1" id="Layer_1" xmlns="http://www.w3.org/2000/svg" xmlns:xlink="http://www.w3.org/1999/xlink" x="0px" y="0px"
	 viewBox="0 0 57 57" style="enable-background:new 0 0 57 57;" xml:space="preserve">
<style type="text/css">
	.st0{fill:#FFFFFF;}
</style>
<g>
	<g>
		<path class="st0" d="M39.3,43.1H17.7c-2.1,0-3.9-1.7-3.9-3.9V17.7c0-2.1,1.7-3.9,3.9-3.9h21.7c2.1,0,3.9,1.7,3.9,3.9v21.5
			C43.2,41.4,41.5,43.1,39.3,43.1z M17.7,16.6c-0.6,0-1.2,0.5-1.2,1.1v21.5c0,0.6,0.5,1.1,1.2,1.1h21.7c0.6,0,1.2-0.5,1.2-1.1V17.7
			c0-0.6-0.5-1.1-1.2-1.1H17.7z"/>
	</g>
	<g>
		<path class="st0" d="M36.3,22.8h-16c-0.8,0-1.4-0.6-1.4-1.4s0.6-1.4,1.4-1.4h16c0.8,0,1.4,0.6,1.4,1.4S37,22.8,36.3,22.8z"/>
	</g>
	<g>
		<path class="st0" d="M36.4,30.1h-16c-0.8,0-1.4-0.6-1.4-1.4s0.6-1.4,1.4-1.4h16c0.8,0,1.4,0.6,1.4,1.4S37.1,30.1,36.4,30.1z"/>
	</g>
	<g>
		<path class="st0" d="M36.4,37h-16c-0.8,0-1.4-0.6-1.4-1.4s0.6-1.4,1.4-1.4h16c0.8,0,1.4,0.6,1.4,1.4S37.1,37,36.4,37z"/>
	</g>
</g>
</svg>
