<?xml version="1.0" encoding="utf-8"?>
<!-- Generator: Adobe Illustrator 22.1.0, SVG Export Plug-In . SVG Version: 6.00 Build 0)  -->
<svg version="1.1" id="Layer_1" xmlns="http://www.w3.org/2000/svg" xmlns:xlink="http://www.w3.org/1999/xlink" x="0px" y="0px"
	 viewBox="0 0 36 36" style="enable-background:new 0 0 36 36;" xml:space="preserve">
<style type="text/css">
	.st0{fill:#FFFFFF;}
	.st1{fill:none;stroke:#FFFFFF;stroke-width:0.961;stroke-linecap:round;stroke-linejoin:round;stroke-miterlimit:10;}
</style>
<g>
	<circle cx="111" cy="-98" r="17"/>
</g>
<path d="M111-80c-9.9,0-18-8.1-18-18c0-9.9,8.1-18,18-18c9.9,0,18,8.1,18,18C129-88.1,120.9-80,111-80 M111-114.2
	c-8.9,0-16.2,7.3-16.2,16.2c0,8.9,7.3,16.2,16.2,16.2c8.9,0,16.2-7.3,16.2-16.2C127.2-106.9,119.9-114.2,111-114.2"/>
<g>
	<path class="st0" d="M109.6-106.9c1,0,1.7-0.8,1.7-1.7c0-1-0.8-1.7-1.7-1.7c-1,0-1.7,0.8-1.7,1.7
		C107.9-107.7,108.6-106.9,109.6-106.9"/>
	<path class="st0" d="M122.5-101.9l-1.8-0.4l-1.1,2.1c0.2,0,0.4,0.1,0.5,0.1C121.3-100.1,122.3-100.9,122.5-101.9 M99.9-98.3
		c0-1.4,1.1-2.6,2.6-2.6h5.4v-3.9c0-1,0.8-1.7,1.7-1.7c1,0,1.7,0.8,1.7,1.7v0.6l2.6,0.7c0.4,0.1,0.7,0.6,0.6,1
		c-0.1,0.5-0.5,0.7-1,0.6l-2.2-0.5v1.5h2.6l7.1-7.3l-0.2,1.9l3.5,2.3c0.6,0.3,0.8,1.1,0.5,1.7c-0.3,0.5-0.8,0.7-1.3,0.6l-0.3-0.1
		c-0.3,1.4-1.6,2.4-3,2.4c-0.3,0-0.6,0-0.8-0.1l-2.6,5.4v7.4c0,0.6-0.5,1.2-1.2,1.2c-0.6,0-1.1-0.5-1.1-1.2v-7.6h-5.8l-1,1.8
		l2.2,5.2c0.3,0.6,0.1,1.3-0.4,1.6c-0.6,0.3-1.3,0.1-1.6-0.4l-2.5-6v-1.9l-1.1,1.8v5.6c0,0.6-0.5,1.2-1.2,1.2
		c-0.6,0-1.2-0.5-1.2-1.2v-6.4l1-1.5v-5.1l-0.9,1.5v4.2h-1.8V-98.3z"/>
</g>
<g>
	<g>
		<circle cx="115" cy="-53" r="17"/>
	</g>
	<path d="M115-35c-9.9,0-18-8.1-18-18c0-9.9,8.1-18,18-18c9.9,0,18,8.1,18,18C133-43.1,124.9-35,115-35 M115-69.2
		c-8.9,0-16.2,7.3-16.2,16.2c0,8.9,7.3,16.2,16.2,16.2c8.9,0,16.2-7.3,16.2-16.2C131.2-61.9,123.9-69.2,115-69.2"/>
	<g>
		<path class="st0" d="M111.1-61c0.1-0.3-0.1-0.6-0.4-0.7l-1.7-0.4c-0.3-0.1-0.6,0.1-0.7,0.4l-1.4,5.8c-0.1,0.3,0.1,0.6,0.4,0.7
			l1.7,0.4c0.3,0.1,0.6-0.1,0.7-0.4L111.1-61z"/>
		<path class="st0" d="M118.8-40.2C118.8-40.2,118.8-40.2,118.8-40.2c0,0.3,0.2,0.5,0.5,0.5c0.2,0,0.4-0.2,0.5-0.4l3.4-18.3v0
			c0-0.2-0.2-0.5-0.5-0.5c-0.2,0-0.4,0.2-0.5,0.4L118.8-40.2z"/>
		<path class="st0" d="M107.6-41.4c0,0.1,0,0.2,0,0.3c0,0.8,0.6,1.4,1.4,1.4c0.6,0,1.2-0.4,1.4-1l2.4-10.1l2.3,10
			c0.1,0.6,0.7,1.1,1.4,1.1c0.8,0,1.4-0.6,1.4-1.4c0-0.1,0-0.2,0-0.3l-3.2-13.3l0.3-1.2l0.2,0.9c0.2,0.6,0.7,0.7,0.7,0.7l3.3,0.8
			c0.1,0,0.1,0,0.2,0c0.5,0,1-0.4,1-1c0-0.5-0.3-0.8-0.7-0.9l-2.8-0.7l-0.8-3.2c-0.4-1.8-2.1-1.7-2.1-1.7c-1.6,0-2.1,1.7-2.1,1.7
			L107.6-41.4z"/>
		<path class="st0" d="M114.6-62.3c1.1,0,2-0.9,2-2c0-1.1-0.9-2-2-2c-1.1,0-2,0.9-2,2C112.6-63.2,113.5-62.3,114.6-62.3"/>
	</g>
</g>
<g>
	<circle cx="117" cy="-7" r="17"/>
</g>
<path d="M117,11c-9.9,0-18-8.1-18-18c0-9.9,8.1-18,18-18c9.9,0,18,8.1,18,18C135,2.9,126.9,11,117,11 M117-23.2
	c-8.9,0-16.2,7.3-16.2,16.2c0,8.9,7.3,16.2,16.2,16.2c8.9,0,16.2-7.3,16.2-16.2C133.2-15.9,125.9-23.2,117-23.2"/>
<g>
	<path class="st0" d="M128.2-5.9v-1.5c0-1.9-1.6-3.5-3.5-3.5h-1.7l-3.9-5.8c0,0-0.1-0.2-0.3-0.4c-0.3-0.5-1-0.5-1-0.5l-8.2,0
		c0,0-0.9,0-1,0.7c0,0.1,0,0.2,0,0.3c0,0.1,0,0.2,0,0.3c0,0.2,0,3.1,0,5.2h-1.1c-1.9,0-3.5,1.6-3.5,3.5V-4c0,0.4,0.1,0.7,0.2,1
		c0.9-1.1,2.2-1.8,3.7-1.8c2.4,0,4.4,1.9,4.7,4.2h8.5c0.2-2.4,2.2-4.2,4.7-4.2c1.3,0,2.4,0.5,3.2,1.3c0.4-0.1,0.8-0.4,0.9-0.9
		C130.1-5.4,129.1-5.9,128.2-5.9 M120.3-3.9H119c0.1-0.2,0.2-0.4,0.1-0.7c-0.1-0.7-0.7-0.7-0.7-0.7l-5.4,0c0,0-0.1,0-0.2,0l0-6.5
		c0,0,0-0.7-0.7-0.9c-0.7-0.1-1.1,0.6-1,1.1c0,0,0,0.2,0,0.4h-0.6l0-4.6c1.5,0,6.8,0,7.3,0c0,0,0,0,0,0c0.1,0.1,0.2,0.3,0.2,0.4
		c0.2,0.2,2.5,3.7,4.2,6.2V-9l-1.5-0.6c0,0-0.1,0-0.2-0.1l0.1-0.4c0,0,0-0.2-0.3-0.3c-0.4-0.1-0.6,0-0.6,0.2c0,0.1-0.2,1.4-0.3,1.5
		c0,0.1,0.1,0.3,0.5,0.4c0.4,0,0.4-0.1,0.4-0.1l0.1-0.3c0,0,0.1,0,0.1,0.1c0.1,0,0.9,0.4,1.7,0.7v3.5C121.6-4.1,121-3.9,120.3-3.9"
		/>
	<path class="st0" d="M125.8-3.8c-2,0-3.7,1.6-3.7,3.7c0,2,1.6,3.6,3.7,3.6c2,0,3.7-1.6,3.7-3.6C129.4-2.1,127.8-3.8,125.8-3.8
		 M125.8,2.2c-1.3,0-2.3-1-2.3-2.3c0-1.3,1-2.3,2.3-2.3c1.3,0,2.3,1,2.3,2.3C128.1,1.1,127.1,2.2,125.8,2.2"/>
	<path class="st0" d="M107.9-3.8c-2,0-3.7,1.6-3.7,3.7c0,2,1.6,3.6,3.7,3.6c2,0,3.6-1.6,3.6-3.6C111.6-2.1,109.9-3.8,107.9-3.8
		 M107.9,2.2c-1.3,0-2.3-1-2.3-2.3c0-1.3,1-2.3,2.3-2.3c1.3,0,2.3,1,2.3,2.3C110.2,1.1,109.2,2.2,107.9,2.2"/>
</g>
<g>
	<circle cx="119" cy="39" r="17"/>
</g>
<path d="M119,57c-9.9,0-18-8.1-18-18c0-9.9,8.1-18,18-18c9.9,0,18,8.1,18,18C137,48.9,128.9,57,119,57 M119,22.8
	c-8.9,0-16.2,7.3-16.2,16.2c0,8.9,7.3,16.2,16.2,16.2c8.9,0,16.2-7.3,16.2-16.2C135.2,30.1,127.9,22.8,119,22.8"/>
<g>
	<path class="st0" d="M111.6,48.6c2.3,0,4.1-1.8,4.1-4.1c0-2.3-1.8-4.1-4.1-4.1c-2.3,0-4.1,1.8-4.1,4.1
		C107.4,46.8,109.3,48.6,111.6,48.6 M106.5,44.5c0-2.8,2.3-5.1,5.1-5.1c2.8,0,5.1,2.3,5.1,5.1c0,2.8-2.3,5.1-5.1,5.1
		C108.8,49.6,106.5,47.3,106.5,44.5"/>
	<path class="st0" d="M126.4,48.7c2.3,0,4.1-1.8,4.1-4.1c0-2.3-1.8-4.1-4.1-4.1c-2.3,0-4.1,1.8-4.1,4.1
		C122.3,46.8,124.2,48.7,126.4,48.7 M121.4,44.5c0-2.8,2.3-5.1,5.1-5.1c2.8,0,5.1,2.3,5.1,5.1c0,2.8-2.3,5.1-5.1,5.1
		C123.7,49.6,121.4,47.3,121.4,44.5"/>
	<path class="st0" d="M121.4,32.2c1,0,1.9-0.8,1.9-1.9c0-1.1-0.9-1.9-1.9-1.9c-1.1,0-1.9,0.9-1.9,1.9
		C119.5,31.4,120.3,32.2,121.4,32.2"/>
	<path class="st0" d="M121.5,36.8c-0.3,0-0.6-0.1-0.8-0.5l-1.2-1.9l-2.5,2.5l2.4,1.2c1,0.5,0.8,1.3,0.8,1.3v5.4
		c0,0.6-0.5,1.1-1.1,1.1c-0.6,0-1.1-0.5-1.1-1.1v-4.3l-4.1-2.3c-0.5-0.3-0.8-0.8-0.8-1.4c0-0.4,0.2-0.8,0.4-1.1l4-4
		c0.5-0.6,1.2-0.5,1.2-0.5c0.8,0,1.3,0.7,1.3,0.7l2.1,3.3l3.2,0c1.1,0,1.1,1.5,0,1.5H121.5z"/>
</g>
<g>
	<circle cx="119" cy="90" r="17"/>
</g>
<path d="M119,108c-9.9,0-18-8.1-18-18c0-9.9,8.1-18,18-18c9.9,0,18,8.1,18,18C137,99.9,128.9,108,119,108 M119,73.8
	c-8.9,0-16.2,7.3-16.2,16.2c0,8.9,7.3,16.2,16.2,16.2c8.9,0,16.2-7.3,16.2-16.2C135.2,81.1,127.9,73.8,119,73.8"/>
<g>
	<path class="st0" d="M123.4,93.8c0,0,0,0.1,0,0.1c0,3.7-3,6.7-6.7,6.7s-6.7-3-6.7-6.7c0-2.2,1.1-4.2,2.8-5.5l-0.2-2
		c-2.6,1.5-4.4,4.3-4.4,7.5c0,4.7,3.8,8.5,8.5,8.5c4,0,7.4-2.8,8.3-6.5L123.4,93.8z"/>
	<path class="st0" d="M115.6,77.5c1.2,0,2.2,1,2.2,2.2s-1,2.2-2.2,2.2c-1.2,0-2.2-1-2.2-2.2S114.4,77.5,115.6,77.5"/>
	<path class="st0" d="M129.6,96.5l-4.9-6.8c-0.3-0.4-0.7-0.5-1.1-0.5c0,0-0.1,0-0.1,0H118l-0.1-1.2h4.1c0.5,0,0.9-0.4,0.9-0.9
		c0-0.5-0.4-0.9-0.9-0.9h-4.3l-0.2-2c-0.1-1.2-1.2-2-2.4-1.9c-1.2,0.1-2,1.2-1.9,2.4l0.6,5.6c0.1,1.1,1.1,1.9,2.1,1.9c0,0,0,0,0,0
		h7.3l4.2,5.9c0.4,0.6,1.2,0.7,1.8,0.2C129.9,97.9,130,97.1,129.6,96.5"/>
</g>
<g>
	<circle cx="123" cy="141" r="17"/>
</g>
<path d="M123,159c-9.9,0-18-8.1-18-18c0-9.9,8.1-18,18-18c9.9,0,18,8.1,18,18C141,150.9,132.9,159,123,159 M123,124.8
	c-8.9,0-16.2,7.3-16.2,16.2c0,8.9,7.3,16.2,16.2,16.2c8.9,0,16.2-7.3,16.2-16.2C139.2,132.1,131.9,124.8,123,124.8"/>
<g>
	<path class="st0" d="M127.1,149.2c-0.4,0-10.1,0.1-11,0c-0.8,0-2.1,0.6-1.8,1.7c0.2,1.1,1.5,1.1,1.5,1.1l11.6,0c0,0,1.3,0,1.5-1.1
		C129.2,149.7,127.9,149.1,127.1,149.2"/>
	<path class="st0" d="M131.2,138.5c-0.3,0-8,0-8.6,0c-0.6,0-1.6,0.4-1.4,1.3c0.2,0.9,1.2,0.8,1.2,0.8l9.1,0c0,0,1,0,1.2-0.9
		C132.8,138.9,131.8,138.5,131.2,138.5"/>
	<path class="st0" d="M130.9,141.5c-0.2,0-16,0-16.5,0c-0.5,0-1.2,0.3-1,0.9c0.1,0.5,0.5,0.6,0.7,0.6c0.3,2,1.5,2.7,1.5,2.7v2.6v2.8
		h10.1v-2.8h0.1c3.9-1.1,5-3.7,5.2-5.3l0.1,0c0,0,0.7,0,0.8-0.6C132.1,141.8,131.3,141.5,130.9,141.5"/>
	<path class="st0" d="M120.6,130v2.8l0.3,0c0,0,1.3,0,1.5-1.1C122.6,130.6,121.4,130,120.6,130"/>
	<rect x="114.4" y="130" class="st0" width="6.2" height="2.8"/>
	<rect x="113.9" y="132.7" class="st0" width="6.9" height="9.4"/>
</g>
<g>
	<circle cx="123" cy="193" r="17"/>
</g>
<path d="M123,211c-9.9,0-18-8.1-18-18c0-9.9,8.1-18,18-18c9.9,0,18,8.1,18,18C141,202.9,132.9,211,123,211 M123,176.8
	c-8.9,0-16.2,7.3-16.2,16.2c0,8.9,7.3,16.2,16.2,16.2c8.9,0,16.2-7.3,16.2-16.2C139.2,184.1,131.9,176.8,123,176.8"/>
<g>
	<path class="st0" d="M132.4,196.1c-0.6-0.2-1-0.8-1-1.4c0.1-0.8,0.6-1.3,1.4-1.3c0.2,0,0.4-0.1,0.5-0.3c0-0.3-0.1-0.3-0.4-0.4
		c-0.4-0.2-0.8-0.2-1.2-0.2c-1.9,0-3.3,0.9-4.1,2.6c-0.3,0.6-0.8,1-1.4,1.2c-0.2,0-0.4,0-0.6-0.1c-0.6-0.2-1-0.8-1-1.4
		c0.1-0.8,0.6-1.3,1.4-1.3c0.2,0,0.4-0.1,0.5-0.3c0-0.3-0.1-0.3-0.4-0.4c-0.4-0.2-0.8-0.2-1.2-0.2c-1.9,0-3.3,0.9-4.1,2.6
		c-0.3,0.6-0.8,1-1.4,1.2c-0.2,0-0.4,0-0.6-0.1c-0.6-0.2-1-0.8-1-1.4c0.1-0.8,0.6-1.3,1.4-1.3c0.2,0,0.4-0.1,0.5-0.3
		c0-0.3-0.1-0.3-0.4-0.4c-0.4-0.2-0.8-0.2-1.2-0.2c-1.9,0-3.3,0.9-4.1,2.6c-0.4,0.8-1,1.2-1.8,1.3c-0.2,0-2.4,0.2-2.5,0.3
		c0,0.2,0.1,0.3,0.1,0.5c1.2,5,7.8,8.7,13.2,8.7c5.6,0,12.2-4.1,13.1-9.5c0-0.1,0-0.1,0-0.2C135.8,196.2,133,196.3,132.4,196.1"/>
	<path class="st0" d="M124.7,183.4c0.3,1.4-0.5,2.7-1.9,3.1s-2.7-0.5-3.1-1.9c-0.3-1.4,0.5-2.7,1.9-3.1
		C123,181.2,124.4,182.1,124.7,183.4"/>
	<path class="st0" d="M124.6,190.2l3.2-4.5c0,0,0.6-0.7,0.5-2.2c-0.1-1.5-0.1-2.3-0.1-2.3s0-1.1-0.7-1c-0.7,0-1.1,0.5-1,1.1
		c0,0.7,0.2,2.9,0.2,2.9l-2.3,2.7c0,0-0.5,0.2-0.5,0.7c0,0.5,0.2,2.8,0.2,2.8S124.5,190.4,124.6,190.2"/>
	<path class="st0" d="M122.3,190.8l-5-2.5c0,0-0.9-0.3-1.5-1.7c-0.6-1.3-0.9-2.1-0.9-2.1s-0.5-0.9,0.2-1.2c0.7-0.3,1.2-0.1,1.4,0.5
		c0.3,0.6,1.2,2.6,1.2,2.6l3.2,1.3c0,0,0.5-0.1,0.8,0.4c0.2,0.5,1.2,2.6,1.2,2.6S122.6,190.9,122.3,190.8"/>
	<path class="st0" d="M122,192.8c0.8-0.7,1.9-1.1,3.2-1.1c0.3,0,0.5,0,0.7,0.1c-0.4-1.6-0.8-3.3-0.9-3.8c-0.3-1.2-1.2-0.8-1.2-0.8
		s-0.9,0.2-2,0.5c-1.1,0.3-0.7,1.4-0.7,1.4L122,192.8z"/>
</g>
<g>
	<circle cx="122" cy="240" r="17"/>
</g>
<path d="M122,258c-9.9,0-18-8.1-18-18c0-9.9,8.1-18,18-18c9.9,0,18,8.1,18,18C140,249.9,131.9,258,122,258 M122,223.8
	c-8.9,0-16.2,7.3-16.2,16.2c0,8.9,7.3,16.2,16.2,16.2c8.9,0,16.2-7.3,16.2-16.2C138.2,231.1,130.9,223.8,122,223.8"/>
<g>
	<path class="st0" d="M122,226.2c-7.6,0-13.8,6.2-13.8,13.8c0,7.6,6.2,13.8,13.8,13.8c7.6,0,13.8-6.2,13.8-13.8
		C135.8,232.4,129.6,226.2,122,226.2 M127.9,243.5c0.7,0.7,1.3,2.3,0.1,3c-1.2,0.7-2.2-0.4-2.2-0.4l-3.8-3.9l-3.8,3.9
		c0,0-1.1,1.1-2.2,0.4c-1.2-0.7-0.6-2.3,0.1-3c0.3-0.3,1.8-1.8,3.6-3.6l-3.8-3.8c0,0-1.1-1.1-0.3-2.2c0.8-1.2,2.3-0.5,3,0.2
		c0.1,0.2,1.7,1.7,3.5,3.5c1.8-1.8,3.3-3.3,3.5-3.5c0.7-0.7,2.2-1.3,3-0.2c0.8,1.2-0.3,2.2-0.3,2.2l-3.8,3.8
		C126.1,241.7,127.7,243.2,127.9,243.5"/>
</g>
<g>
	<circle cx="126" cy="288" r="17"/>
</g>
<path d="M126,306c-9.9,0-18-8.1-18-18c0-9.9,8.1-18,18-18c9.9,0,18,8.1,18,18C144,297.9,135.9,306,126,306 M126,271.8
	c-8.9,0-16.2,7.3-16.2,16.2c0,8.9,7.3,16.2,16.2,16.2c8.9,0,16.2-7.3,16.2-16.2C142.2,279.1,134.9,271.8,126,271.8"/>
<g>
	<path class="st0" d="M130.1,291.2L130.1,291.2c-0.1-2.2-1.8-3.9-4-3.9c-2.2,0-3.9,1.7-4,3.9l0,0c0,0,0,0,0,0.1c0,0,0,0,0,0.1
		c0,0.2,0,0.4,0,0.5c0.1,1.2,0.7,3.8,4,6.1c3.3-2.3,3.9-4.9,4-6.1c0-0.2,0-0.3,0-0.5C130.1,291.3,130.1,291.2,130.1,291.2
		C130.1,291.2,130.1,291.2,130.1,291.2 M126.1,294.2c-1.7,0-3-1.3-3-3c0-1.7,1.3-3,3-3c1.7,0,3,1.3,3,3
		C129.1,292.9,127.8,294.2,126.1,294.2"/>
	<path class="st0" d="M127.9,291.1C127.9,291.1,127.9,291.1,127.9,291.1C127.9,291.1,127.9,291.1,127.9,291.1c0,0.1,0,0.1,0,0.1
		c0.1,0.1,0.2,0.2,0.3,0.3c0.1,0.1,0.1,0.2,0.1,0.2c0,0.1,0,0.2,0,0.3c0,0.1-0.1,0.1-0.1,0.2c0,0.1-0.1,0.1-0.2,0.2
		c-0.1,0.1-0.3,0.2-0.4,0.2c-0.1,0-0.1,0-0.2,0c-0.1,0-0.1,0-0.2,0c-0.1,0-0.2,0-0.3,0c-0.1,0-0.2,0-0.3,0c0,0-0.1,0-0.1,0
		c0,0,0,0-0.1-0.1c0,0,0-0.1,0-0.1c0,0,0-0.1,0-0.1c0-0.1,0-0.2,0-0.4c0-0.1,0-0.2,0-0.4c0-0.1,0-0.3,0-0.4c0-0.1,0-0.3,0-0.4
		c0-0.1,0-0.1,0-0.2c0-0.1,0-0.1,0-0.2c0-0.1,0-0.2,0-0.2c0-0.1,0-0.2,0-0.2c0,0,0-0.1,0-0.1c0,0,0-0.1,0-0.1c0,0,0,0,0,0
		c0,0,0,0,0,0c0.1,0,0.2,0,0.4,0c0.1,0,0.2,0,0.4,0c0.1,0,0.1,0,0.2,0c0,0,0.1,0,0.2,0c0.1,0,0.2,0,0.3,0.1c0.1,0,0.2,0.1,0.2,0.1
		c0,0,0.1,0.1,0.1,0.1c0,0,0.1,0.1,0.1,0.1c0,0.1,0,0.1,0.1,0.2c0,0.1,0,0.1,0,0.2c0,0.1,0,0.1,0,0.1c0,0,0,0.1-0.1,0.1
		c0,0-0.1,0.1-0.1,0.1C128,291,128,291,127.9,291.1 M126.9,290.8L126.9,290.8c0,0.1,0.1,0.1,0.1,0.1c0,0,0,0,0.1,0s0.1,0,0.1,0
		c0,0,0.1,0,0.1,0c0,0,0.1,0,0.1,0c0,0,0.1,0,0.1-0.1c0,0,0,0,0-0.1c0-0.1,0-0.1,0-0.2c0,0,0-0.1-0.1-0.1c0,0-0.1-0.1-0.1-0.1
		c-0.1,0-0.1-0.1-0.2-0.1c-0.1,0-0.1,0-0.2,0c0,0,0,0-0.1,0c0,0,0,0,0,0c0,0.1,0,0.2,0,0.3C126.9,290.6,126.9,290.7,126.9,290.8
		 M127,291.4C127,291.4,127,291.4,127,291.4C126.9,291.4,126.9,291.4,127,291.4L127,291.4l-0.1,0.3c0,0.1,0,0.1,0,0.2
		c0,0.1,0,0.1,0,0.2c0,0,0,0.1,0.1,0.1c0.1,0,0.1,0,0.2,0c0.1,0,0.1,0,0.2,0c0.1,0,0.1,0,0.2-0.1c0-0.1,0.1-0.1,0.1-0.2
		c0,0,0-0.1,0-0.1c0,0-0.1-0.1-0.1-0.1c-0.1-0.1-0.1-0.1-0.2-0.1c-0.1,0-0.1,0-0.2-0.1C127.1,291.4,127.1,291.4,127,291.4
		C127.1,291.4,127,291.4,127,291.4"/>
	<path class="st0" d="M126.1,292.6C126.1,292.7,126.1,292.7,126.1,292.6c0,0.1-0.1,0.1-0.1,0.1c0,0-0.1,0-0.1,0c0,0-0.1,0-0.1,0
		h-0.1h-0.1c-0.1,0-0.1,0-0.1-0.1c0-0.1,0-0.1-0.1-0.2c0-0.1,0-0.1-0.1-0.2c0-0.1-0.1-0.2-0.1-0.3c0,0,0,0,0,0c0,0,0,0,0,0
		c-0.1,0-0.1,0-0.2,0c-0.1,0-0.1,0-0.2,0c-0.1,0-0.1,0-0.2,0c-0.1,0-0.1,0-0.2,0c0,0,0,0,0,0c0,0.1,0,0.1,0,0.1c0,0,0,0.1,0,0.2
		c0,0,0,0.1,0,0.1c0,0,0,0.1,0,0.1c0,0,0,0.1,0,0.1c0,0,0,0.1,0,0.1c0,0,0,0,0,0c0,0,0,0,0,0h-0.1c0,0-0.1,0-0.1,0c0,0-0.1,0-0.1,0
		c0,0-0.1,0-0.1,0c0,0,0,0-0.1,0c0,0,0-0.1,0-0.1c0,0,0,0,0,0c0,0,0,0,0,0c0-0.1,0.1-0.2,0.1-0.3c0-0.1,0.1-0.2,0.1-0.3
		c0-0.1,0.1-0.2,0.1-0.3c0-0.1,0.1-0.2,0.1-0.3c0-0.1,0.1-0.2,0.1-0.3c0-0.1,0.1-0.2,0.1-0.3c0-0.1,0-0.2,0.1-0.2
		c0-0.1,0-0.2,0.1-0.2c0-0.1,0-0.1,0.1-0.2c0-0.1,0-0.1,0.1-0.2c0,0,0,0,0,0c0,0,0,0,0-0.1c0,0,0,0,0-0.1c0,0,0,0,0.1,0
		c0.1,0,0.2,0,0.2,0c0.1,0,0.1,0,0.2,0c0,0,0,0,0.1,0c0,0,0,0,0,0.1c0,0.1,0,0.1,0,0.1c0,0,0,0.1,0.1,0.1c0,0,0,0.1,0.1,0.1
		c0,0,0,0.1,0.1,0.1c0,0.1,0.1,0.3,0.1,0.4c0,0.1,0.1,0.3,0.1,0.4c0,0.1,0,0.1,0.1,0.2c0,0.1,0,0.1,0.1,0.2c0,0.1,0,0.2,0.1,0.3
		c0,0.1,0.1,0.2,0.1,0.3c0,0.1,0,0.2,0.1,0.2C126.1,292.5,126.1,292.6,126.1,292.6 M125.1,291.4
		C125.1,291.4,125.1,291.4,125.1,291.4C125.1,291.4,125.1,291.4,125.1,291.4c0-0.1,0-0.2,0-0.3c0-0.1,0-0.1-0.1-0.2c0,0,0-0.1,0-0.1
		c0,0,0-0.1,0-0.1c0,0,0,0,0,0c0,0,0,0,0,0c0,0,0,0,0,0.1c0,0,0,0,0,0.1l-0.1,0.2c0,0,0,0.1,0,0.1c0,0,0,0.1,0,0.1v0c0,0,0,0,0,0
		l0.1,0c0,0,0.1,0,0.1,0C125,291.4,125,291.4,125.1,291.4"/>
	<path class="st0" d="M127.4,301.4c-0.5,0.6-1.5,0.7-2.1,0.1c-0.6-0.5-0.7-1.5-0.1-2.1c0.5-0.6,1.5-0.7,2.1-0.1
		C127.9,299.9,127.9,300.8,127.4,301.4"/>
	<path class="st0" d="M121.9,300.7C121.9,300.7,121.9,300.7,121.9,300.7c-0.6-0.2-1.1-0.4-1.6-0.6c-0.1,0-0.1-0.1-0.1-0.1
		c0-0.1,0.1-0.1,0.1-0.1c0.5,0.2,1,0.4,1.6,0.6c0.1,0,0.1,0.1,0.1,0.1C122,300.7,121.9,300.8,121.9,300.7 M130.3,300.7
		C130.3,300.7,130.2,300.7,130.3,300.7c-0.1-0.1-0.1-0.2,0-0.2c0.5-0.2,1.1-0.4,1.6-0.6c0.1,0,0.1,0,0.1,0c0,0.1,0,0.1-0.1,0.1
		C131.4,300.3,130.9,300.5,130.3,300.7C130.3,300.7,130.3,300.7,130.3,300.7 M118.8,299.3C118.7,299.3,118.7,299.3,118.8,299.3
		c-0.5-0.3-1-0.7-1.4-1c0,0-0.1-0.1,0-0.2c0,0,0.1-0.1,0.2,0c0.4,0.4,0.9,0.7,1.4,1c0.1,0,0.1,0.1,0,0.1
		C118.8,299.3,118.8,299.3,118.8,299.3 M133.4,299.2C133.4,299.2,133.3,299.2,133.4,299.2c-0.1-0.1-0.1-0.2,0-0.2
		c0.5-0.3,0.9-0.7,1.4-1c0,0,0.1,0,0.2,0c0,0,0,0.1,0,0.2C134.4,298.5,133.9,298.9,133.4,299.2C133.4,299.2,133.4,299.2,133.4,299.2
		 M116.1,297.1C116.1,297.1,116.1,297.1,116.1,297.1c-0.5-0.5-0.8-0.9-1.2-1.4c0,0,0-0.1,0-0.1c0,0,0.1,0,0.1,0
		c0.3,0.5,0.7,0.9,1.1,1.3C116.3,297,116.2,297.1,116.1,297.1C116.2,297.1,116.2,297.1,116.1,297.1 M136,297
		C136,297,136,297,136,297c-0.1-0.1-0.1-0.1-0.1-0.2c0.4-0.4,0.7-0.9,1.1-1.3c0,0,0.1-0.1,0.1,0c0,0,0.1,0.1,0,0.1
		C136.8,296.1,136.5,296.5,136,297C136.1,297,136,297,136,297 M114.1,294.4C114.1,294.3,114,294.3,114.1,294.4
		c-0.4-0.6-0.6-1.1-0.8-1.6c0-0.1,0-0.1,0.1-0.1c0.1,0,0.1,0,0.1,0.1c0.2,0.5,0.5,1,0.7,1.5C114.2,294.2,114.2,294.3,114.1,294.4
		C114.2,294.4,114.1,294.4,114.1,294.4 M138,294.2C138,294.2,137.9,294.2,138,294.2c-0.1,0-0.1-0.1-0.1-0.2c0.3-0.5,0.5-1,0.7-1.6
		c0-0.1,0.1-0.1,0.1-0.1c0.1,0,0.1,0.1,0.1,0.1c-0.2,0.5-0.4,1.1-0.7,1.6C138.1,294.2,138,294.2,138,294.2 M112.9,291.2
		C112.8,291.2,112.8,291.1,112.9,291.2c-0.2-0.6-0.3-1.2-0.4-1.8c0-0.1,0-0.1,0.1-0.1c0.1,0,0.1,0,0.1,0.1c0.1,0.6,0.2,1.1,0.3,1.7
		C113,291.1,112.9,291.2,112.9,291.2C112.9,291.2,112.9,291.2,112.9,291.2 M139.2,291.2C139.2,291.2,139.2,291.2,139.2,291.2
		c-0.1,0-0.1-0.1-0.1-0.1c0.1-0.5,0.2-1.1,0.3-1.7c0-0.1,0.1-0.1,0.1-0.1c0.1,0,0.1,0.1,0.1,0.1c-0.1,0.6-0.2,1.1-0.3,1.7
		C139.3,291.1,139.2,291.2,139.2,291.2 M112.4,287.8c-0.1,0-0.1-0.1-0.1-0.1c0-0.5,0-0.9,0.1-1.4c0-0.1,0-0.2,0-0.4
		c0-0.1,0.1-0.1,0.1-0.1c0,0,0,0,0,0c0.1,0,0.1,0.1,0.1,0.1c0,0.1,0,0.2,0,0.4c0,0.4-0.1,0.9-0.1,1.3
		C112.6,287.7,112.5,287.8,112.4,287.8L112.4,287.8z M139.5,288c-0.1,0-0.1-0.1-0.1-0.1c0-0.6,0-1.1-0.1-1.7c0-0.1,0-0.1,0.1-0.1
		c0.1,0,0.1,0,0.1,0.1c0.1,0.6,0.1,1.2,0.1,1.7C139.6,288,139.6,288,139.5,288C139.5,288,139.5,288,139.5,288 M112.9,284.4
		C112.9,284.4,112.9,284.4,112.9,284.4c-0.1,0-0.1-0.1-0.1-0.1c0.1-0.6,0.3-1.1,0.5-1.6c0-0.1,0.1-0.1,0.1-0.1
		c0.1,0,0.1,0.1,0.1,0.1c-0.2,0.5-0.4,1.1-0.5,1.6C113,284.3,112.9,284.4,112.9,284.4 M139.2,284.9
		C139.2,284.9,139.1,284.8,139.2,284.9c-0.2-0.6-0.4-1.2-0.6-1.7c0-0.1,0-0.1,0.1-0.1c0.1,0,0.1,0,0.1,0.1c0.2,0.5,0.4,1.1,0.5,1.7
		C139.3,284.8,139.3,284.9,139.2,284.9C139.2,284.9,139.2,284.9,139.2,284.9 M114.2,281.2C114.2,281.2,114.2,281.2,114.2,281.2
		c-0.1,0-0.1-0.1-0.1-0.2c0.3-0.5,0.6-1,0.9-1.4c0,0,0.1-0.1,0.2,0c0,0,0.1,0.1,0,0.1c-0.3,0.5-0.7,0.9-0.9,1.4
		C114.3,281.2,114.2,281.2,114.2,281.2 M138,281.7C138,281.6,138,281.6,138,281.7c-0.3-0.6-0.6-1.1-1-1.5c0,0,0-0.1,0-0.1
		c0,0,0.1,0,0.1,0c0.3,0.5,0.6,1,0.9,1.5C138.2,281.5,138.1,281.6,138,281.7C138.1,281.6,138.1,281.7,138,281.7 M116.2,278.5
		C116.2,278.5,116.2,278.4,116.2,278.5c-0.1-0.1-0.1-0.1-0.1-0.2c0.4-0.4,0.8-0.8,1.3-1.2c0,0,0.1,0,0.2,0c0,0,0,0.1,0,0.2
		C117.1,277.6,116.7,278,116.2,278.5C116.3,278.4,116.3,278.5,116.2,278.5 M136.1,278.8C136.1,278.8,136,278.8,136.1,278.8
		c-0.4-0.5-0.9-0.9-1.3-1.2c0,0-0.1-0.1,0-0.2c0,0,0.1,0,0.2,0c0.4,0.4,0.8,0.8,1.2,1.2C136.2,278.7,136.2,278.8,136.1,278.8
		C136.2,278.8,136.1,278.8,136.1,278.8 M118.9,276.3C118.9,276.3,118.8,276.3,118.9,276.3c-0.1-0.1-0.1-0.2,0-0.2
		c0.5-0.3,1-0.6,1.5-0.8c0.1,0,0.1,0,0.1,0.1c0,0.1,0,0.1-0.1,0.1C119.9,275.7,119.4,276,118.9,276.3
		C118.9,276.3,118.9,276.3,118.9,276.3 M133.5,276.6C133.5,276.6,133.5,276.6,133.5,276.6c-0.5-0.3-1-0.6-1.5-0.9
		c-0.1,0-0.1-0.1,0-0.1c0-0.1,0.1-0.1,0.1,0c0.5,0.3,1,0.6,1.5,0.9C133.6,276.4,133.6,276.5,133.5,276.6
		C133.6,276.6,133.6,276.6,133.5,276.6 M122,274.9C122,274.9,121.9,274.9,122,274.9c-0.1-0.1-0.1-0.2,0-0.2c0.6-0.2,1.1-0.3,1.7-0.4
		c0.1,0,0.1,0,0.1,0.1c0,0.1,0,0.1-0.1,0.1C123.2,274.6,122.6,274.7,122,274.9C122,274.9,122,274.9,122,274.9 M130.4,275.1
		C130.4,275,130.4,275,130.4,275.1c-0.6-0.2-1.1-0.3-1.7-0.5c-0.1,0-0.1-0.1-0.1-0.1s0.1-0.1,0.1-0.1c0.6,0.1,1.1,0.3,1.7,0.5
		c0.1,0,0.1,0.1,0.1,0.1C130.5,275,130.5,275.1,130.4,275.1 M125.4,274.3c-0.1,0-0.1,0-0.1-0.1c0-0.1,0-0.1,0.1-0.1
		c0.6,0,1.2,0,1.7,0c0,0,0,0,0,0c0.1,0,0.1,0.1,0.1,0.1c0,0.1-0.1,0.1-0.1,0.1C126.5,274.3,126,274.3,125.4,274.3
		C125.4,274.3,125.4,274.3,125.4,274.3"/>
	<path class="st1" d="M121.9,300.7C121.9,300.7,121.9,300.7,121.9,300.7c-0.6-0.2-1.1-0.4-1.6-0.6c-0.1,0-0.1-0.1-0.1-0.1
		c0-0.1,0.1-0.1,0.1-0.1c0.5,0.2,1,0.4,1.6,0.6c0.1,0,0.1,0.1,0.1,0.1C122,300.7,121.9,300.8,121.9,300.7z M130.3,300.7
		C130.3,300.7,130.2,300.7,130.3,300.7c-0.1-0.1-0.1-0.2,0-0.2c0.5-0.2,1.1-0.4,1.6-0.6c0.1,0,0.1,0,0.1,0c0,0.1,0,0.1-0.1,0.1
		C131.4,300.3,130.9,300.5,130.3,300.7C130.3,300.7,130.3,300.7,130.3,300.7z M118.8,299.3C118.7,299.3,118.7,299.3,118.8,299.3
		c-0.5-0.3-1-0.7-1.4-1c0,0-0.1-0.1,0-0.2c0,0,0.1-0.1,0.2,0c0.4,0.4,0.9,0.7,1.4,1c0.1,0,0.1,0.1,0,0.1
		C118.8,299.3,118.8,299.3,118.8,299.3z M133.4,299.2C133.4,299.2,133.3,299.2,133.4,299.2c-0.1-0.1-0.1-0.2,0-0.2
		c0.5-0.3,0.9-0.7,1.4-1c0,0,0.1,0,0.2,0c0,0,0,0.1,0,0.2C134.4,298.5,133.9,298.9,133.4,299.2C133.4,299.2,133.4,299.2,133.4,299.2
		z M116.1,297.1C116.1,297.1,116.1,297.1,116.1,297.1c-0.5-0.5-0.8-0.9-1.2-1.4c0,0,0-0.1,0-0.1c0,0,0.1,0,0.1,0
		c0.3,0.5,0.7,0.9,1.1,1.3C116.3,297,116.2,297.1,116.1,297.1C116.2,297.1,116.2,297.1,116.1,297.1z M136,297
		C136,297,136,297,136,297c-0.1-0.1-0.1-0.1-0.1-0.2c0.4-0.4,0.7-0.9,1.1-1.3c0,0,0.1-0.1,0.1,0c0,0,0.1,0.1,0,0.1
		C136.8,296.1,136.5,296.5,136,297C136.1,297,136,297,136,297z M114.1,294.4C114.1,294.3,114,294.3,114.1,294.4
		c-0.4-0.6-0.6-1.1-0.8-1.6c0-0.1,0-0.1,0.1-0.1c0.1,0,0.1,0,0.1,0.1c0.2,0.5,0.5,1,0.7,1.5C114.2,294.2,114.2,294.3,114.1,294.4
		C114.2,294.4,114.1,294.4,114.1,294.4z M138,294.2C138,294.2,137.9,294.2,138,294.2c-0.1,0-0.1-0.1-0.1-0.2c0.3-0.5,0.5-1,0.7-1.6
		c0-0.1,0.1-0.1,0.1-0.1c0.1,0,0.1,0.1,0.1,0.1c-0.2,0.5-0.4,1.1-0.7,1.6C138.1,294.2,138,294.2,138,294.2z M112.9,291.2
		C112.8,291.2,112.8,291.1,112.9,291.2c-0.2-0.6-0.3-1.2-0.4-1.8c0-0.1,0-0.1,0.1-0.1c0.1,0,0.1,0,0.1,0.1c0.1,0.6,0.2,1.1,0.3,1.7
		C113,291.1,112.9,291.2,112.9,291.2C112.9,291.2,112.9,291.2,112.9,291.2z M139.2,291.2C139.2,291.2,139.2,291.2,139.2,291.2
		c-0.1,0-0.1-0.1-0.1-0.1c0.1-0.5,0.2-1.1,0.3-1.7c0-0.1,0.1-0.1,0.1-0.1c0.1,0,0.1,0.1,0.1,0.1c-0.1,0.6-0.2,1.1-0.3,1.7
		C139.3,291.1,139.2,291.2,139.2,291.2z M112.4,287.8c-0.1,0-0.1-0.1-0.1-0.1c0-0.5,0-0.9,0.1-1.4c0-0.1,0-0.2,0-0.4
		c0-0.1,0.1-0.1,0.1-0.1c0,0,0,0,0,0c0.1,0,0.1,0.1,0.1,0.1c0,0.1,0,0.2,0,0.4c0,0.4-0.1,0.9-0.1,1.3
		C112.6,287.7,112.5,287.8,112.4,287.8L112.4,287.8z M139.5,288c-0.1,0-0.1-0.1-0.1-0.1c0-0.6,0-1.1-0.1-1.7c0-0.1,0-0.1,0.1-0.1
		c0.1,0,0.1,0,0.1,0.1c0.1,0.6,0.1,1.2,0.1,1.7C139.6,288,139.6,288,139.5,288C139.5,288,139.5,288,139.5,288z M112.9,284.4
		C112.9,284.4,112.9,284.4,112.9,284.4c-0.1,0-0.1-0.1-0.1-0.1c0.1-0.6,0.3-1.1,0.5-1.6c0-0.1,0.1-0.1,0.1-0.1
		c0.1,0,0.1,0.1,0.1,0.1c-0.2,0.5-0.4,1.1-0.5,1.6C113,284.3,112.9,284.4,112.9,284.4z M139.2,284.9
		C139.2,284.9,139.1,284.8,139.2,284.9c-0.2-0.6-0.4-1.2-0.6-1.7c0-0.1,0-0.1,0.1-0.1c0.1,0,0.1,0,0.1,0.1c0.2,0.5,0.4,1.1,0.5,1.7
		C139.3,284.8,139.3,284.9,139.2,284.9C139.2,284.9,139.2,284.9,139.2,284.9z M114.2,281.2C114.2,281.2,114.2,281.2,114.2,281.2
		c-0.1,0-0.1-0.1-0.1-0.2c0.3-0.5,0.6-1,0.9-1.4c0,0,0.1-0.1,0.2,0c0,0,0.1,0.1,0,0.1c-0.3,0.5-0.7,0.9-0.9,1.4
		C114.3,281.2,114.2,281.2,114.2,281.2z M138,281.7C138,281.6,138,281.6,138,281.7c-0.3-0.6-0.6-1.1-1-1.5c0,0,0-0.1,0-0.1
		c0,0,0.1,0,0.1,0c0.3,0.5,0.6,1,0.9,1.5C138.2,281.5,138.1,281.6,138,281.7C138.1,281.6,138.1,281.7,138,281.7z M116.2,278.5
		C116.2,278.5,116.2,278.4,116.2,278.5c-0.1-0.1-0.1-0.1-0.1-0.2c0.4-0.4,0.8-0.8,1.3-1.2c0,0,0.1,0,0.2,0c0,0,0,0.1,0,0.2
		C117.1,277.6,116.7,278,116.2,278.5C116.3,278.4,116.3,278.5,116.2,278.5z M136.1,278.8C136.1,278.8,136,278.8,136.1,278.8
		c-0.4-0.5-0.9-0.9-1.3-1.2c0,0-0.1-0.1,0-0.2c0,0,0.1,0,0.2,0c0.4,0.4,0.8,0.8,1.2,1.2C136.2,278.7,136.2,278.8,136.1,278.8
		C136.2,278.8,136.1,278.8,136.1,278.8z M118.9,276.3C118.9,276.3,118.8,276.3,118.9,276.3c-0.1-0.1-0.1-0.2,0-0.2
		c0.5-0.3,1-0.6,1.5-0.8c0.1,0,0.1,0,0.1,0.1c0,0.1,0,0.1-0.1,0.1C119.9,275.7,119.4,276,118.9,276.3
		C118.9,276.3,118.9,276.3,118.9,276.3z M133.5,276.6C133.5,276.6,133.5,276.6,133.5,276.6c-0.5-0.3-1-0.6-1.5-0.9
		c-0.1,0-0.1-0.1,0-0.1c0-0.1,0.1-0.1,0.1,0c0.5,0.3,1,0.6,1.5,0.9C133.6,276.4,133.6,276.5,133.5,276.6
		C133.6,276.6,133.6,276.6,133.5,276.6z M122,274.9C122,274.9,121.9,274.9,122,274.9c-0.1-0.1-0.1-0.2,0-0.2
		c0.6-0.2,1.1-0.3,1.7-0.4c0.1,0,0.1,0,0.1,0.1c0,0.1,0,0.1-0.1,0.1C123.2,274.6,122.6,274.7,122,274.9
		C122,274.9,122,274.9,122,274.9z M130.4,275.1C130.4,275,130.4,275,130.4,275.1c-0.6-0.2-1.1-0.3-1.7-0.5c-0.1,0-0.1-0.1-0.1-0.1
		s0.1-0.1,0.1-0.1c0.6,0.1,1.1,0.3,1.7,0.5c0.1,0,0.1,0.1,0.1,0.1C130.5,275,130.5,275.1,130.4,275.1z M125.4,274.3
		c-0.1,0-0.1,0-0.1-0.1c0-0.1,0-0.1,0.1-0.1c0.6,0,1.2,0,1.7,0c0,0,0,0,0,0c0.1,0,0.1,0.1,0.1,0.1c0,0.1-0.1,0.1-0.1,0.1
		C126.5,274.3,126,274.3,125.4,274.3C125.4,274.3,125.4,274.3,125.4,274.3z"/>
</g>
<g>
	<circle cx="128" cy="337" r="17"/>
</g>
<path d="M128,355c-9.9,0-18-8.1-18-18c0-9.9,8.1-18,18-18c9.9,0,18,8.1,18,18C146,346.9,137.9,355,128,355 M128,320.8
	c-8.9,0-16.2,7.3-16.2,16.2c0,8.9,7.3,16.2,16.2,16.2c8.9,0,16.2-7.3,16.2-16.2C144.2,328.1,136.9,320.8,128,320.8"/>
<g>
	<path class="st0" d="M120.4,347.2C120.4,347.2,120.4,347.2,120.4,347.2c-0.7-0.1-1.2-0.4-1.7-0.8c0,0,0-0.1,0-0.2c0,0,0.1,0,0.2,0
		c0.4,0.4,0.9,0.7,1.5,0.8c0.1,0,0.1,0.1,0.1,0.1C120.5,347.1,120.5,347.2,120.4,347.2 M122.2,347.1c-0.1,0-0.1,0-0.1-0.1
		c0-0.1,0-0.1,0.1-0.1c0.6-0.1,1.2-0.4,1.6-0.8c0,0,0.1,0,0.2,0c0,0,0,0.1,0,0.2C123.5,346.6,122.9,346.9,122.2,347.1
		C122.3,347,122.3,347.1,122.2,347.1 M117.9,344.8c0,0-0.1,0-0.1-0.1c-0.2-0.5-0.4-1.1-0.5-1.8c0-0.1,0-0.1,0.1-0.1
		c0.1,0,0.1,0,0.1,0.1c0.1,0.7,0.3,1.2,0.4,1.7C118,344.7,118,344.8,117.9,344.8C117.9,344.8,117.9,344.8,117.9,344.8 M124.8,344.7
		C124.8,344.7,124.8,344.7,124.8,344.7c-0.1,0-0.1-0.1-0.1-0.1c0.1-0.4,0.1-0.8,0.1-1.1c0-0.2,0-0.3,0-0.3l0-0.4
		c0-0.1,0.1-0.1,0.1-0.1c0.1,0,0.1,0.1,0.1,0.1v0.4c0,0,0,0.1,0,0.3c0,0.3,0,0.7-0.1,1.1C124.9,344.7,124.8,344.7,124.8,344.7
		 M131.9,344.1c-0.1,0-0.1,0-0.1-0.1c-0.1-0.3-0.1-0.6-0.1-0.6v-1.2c0-0.1,0.1-0.1,0.1-0.1c0.1,0,0.1,0.1,0.1,0.1v1.2
		c0,0,0,0.3,0.1,0.6C132,344.1,132,344.1,131.9,344.1C131.9,344.1,131.9,344.1,131.9,344.1 M117.3,341.3c-0.1,0-0.1,0-0.1-0.1
		c0-0.1,0-0.3,0-0.4c0-0.9,0.1-1.5,0.1-1.5c0-0.1,0.1-0.1,0.1-0.1c0.1,0,0.1,0.1,0.1,0.1c0,0-0.1,0.6-0.1,1.4c0,0.1,0,0.2,0,0.4
		C117.4,341.2,117.3,341.3,117.3,341.3L117.3,341.3z M135.6,347.1c0-0.1,0-0.1,0.1-0.1c0.6-0.1,1.1-0.3,1.5-0.8c0,0,0.1,0,0.2,0
		c0,0,0,0.1,0,0.2c-0.5,0.4-1,0.7-1.7,0.8c0,0,0,0,0,0C135.6,347.2,135.6,347.1,135.6,347.1 M133.9,347c-0.7-0.2-1.2-0.4-1.7-0.8
		c0,0,0-0.1,0-0.2c0,0,0.1,0,0.2,0c0.4,0.4,0.9,0.6,1.6,0.8c0.1,0,0.1,0.1,0.1,0.1C134,347,133.9,347.1,133.9,347
		C133.9,347.1,133.9,347,133.9,347 M138.2,344.8c-0.1,0-0.1-0.1-0.1-0.1c0.2-0.5,0.3-1.1,0.4-1.7c0-0.1,0.1-0.1,0.1-0.1
		c0.1,0,0.1,0.1,0.1,0.1c-0.1,0.7-0.3,1.3-0.5,1.8C138.4,344.8,138.3,344.8,138.2,344.8C138.3,344.8,138.2,344.8,138.2,344.8
		 M138.9,341.3c-0.1,0-0.1-0.1-0.1-0.1c0-0.1,0-0.3,0-0.4c0-0.8-0.1-1.4-0.1-1.4c0-0.1,0-0.1,0.1-0.1c0.1,0,0.1,0,0.1,0.1
		c0,0,0.1,0.6,0.1,1.5c0,0.1,0,0.2,0,0.4C139,341.2,138.9,341.3,138.9,341.3L138.9,341.3z M124.9,341.1c-0.1,0-0.1,0-0.1-0.1v-1.8
		c0-0.1,0.1-0.1,0.1-0.1c0.1,0,0.1,0.1,0.1,0.1v1.8C125,341,125,341.1,124.9,341.1 M131.9,340.5c-0.1,0-0.1-0.1-0.1-0.1v-1.8
		c0-0.1,0.1-0.1,0.1-0.1c0.1,0,0.1,0.1,0.1,0.1v1.8C132,340.4,131.9,340.5,131.9,340.5 M124.9,337.4c-0.1,0-0.1-0.1-0.1-0.1v-1.8
		c0-0.1,0.1-0.1,0.1-0.1c0.1,0,0.1,0.1,0.1,0.1v1.8C125,337.4,125,337.4,124.9,337.4 M131.9,336.8c-0.1,0-0.1-0.1-0.1-0.1v-1.8
		c0-0.1,0.1-0.1,0.1-0.1c0.1,0,0.1,0.1,0.1,0.1v1.8C132,336.8,131.9,336.8,131.9,336.8 M124.9,333.8c-0.1,0-0.1-0.1-0.1-0.1v-0.1
		c0-0.1,0-0.9,0.2-1.7c0-0.1,0.1-0.1,0.1-0.1c0.1,0,0.1,0.1,0.1,0.1c-0.2,0.8-0.2,1.5-0.2,1.6v0.1C125,333.7,125,333.8,124.9,333.8
		 M131.9,333.2c-0.1,0-0.1-0.1-0.1-0.1v-0.4c0,0,0-0.1,0-0.3c0-0.2,0-0.6-0.1-1c0-0.1,0-0.1,0.1-0.1c0.1,0,0.1,0,0.1,0.1
		c0.1,0.4,0.1,0.8,0.1,1.1c0,0.2,0,0.3,0,0.3l0,0.4C132,333.1,131.9,333.2,131.9,333.2 M125.9,330.3
		C125.9,330.3,125.9,330.3,125.9,330.3c-0.1-0.1-0.1-0.1-0.1-0.2c0.4-0.5,0.9-0.9,1.5-1.1c0.1,0,0.1,0,0.1,0.1c0,0.1,0,0.1-0.1,0.1
		C126.9,329.5,126.4,329.8,125.9,330.3C126,330.3,125.9,330.3,125.9,330.3 M130.8,329.8C130.8,329.8,130.8,329.8,130.8,329.8
		c-0.5-0.4-1-0.6-1.7-0.7c-0.1,0-0.1-0.1-0.1-0.1c0-0.1,0.1-0.1,0.1-0.1c0.7,0.1,1.3,0.3,1.7,0.7C131,329.7,131,329.7,130.8,329.8
		C130.9,329.8,130.9,329.8,130.8,329.8"/>
	<path class="st0" d="M120.4,347.6c0,0-0.1,0-0.1,0c-0.7-0.1-1.4-0.4-1.9-0.9c-0.2-0.2-0.2-0.6,0-0.8c0.2-0.2,0.6-0.2,0.8,0
		c0.4,0.3,0.8,0.6,1.3,0.6c0.3,0,0.6,0.3,0.5,0.7C121,347.4,120.7,347.6,120.4,347.6 M135.8,347.6c-0.4,0-0.6-0.2-0.7-0.5
		c0,0,0,0,0,0c0-0.3,0.2-0.6,0.5-0.7c0.5-0.1,0.9-0.3,1.3-0.6c0.2-0.2,0.6-0.2,0.8,0c0.2,0.2,0.2,0.6,0,0.8
		C137.2,347.2,136.5,347.5,135.8,347.6L135.8,347.6z M133.9,347.5c0,0-0.1,0-0.1,0c-0.8-0.2-1.4-0.5-1.9-0.9
		c-0.1-0.1-0.2-0.3-0.2-0.4c0-0.2,0-0.3,0.2-0.4c0.1-0.1,0.3-0.2,0.4-0.2c0.2,0,0.3,0,0.4,0.2c0.3,0.3,0.8,0.5,1.3,0.7
		c0.3,0.1,0.5,0.4,0.4,0.7C134.4,347.3,134.2,347.5,133.9,347.5 M132.5,345.9C132.5,345.9,132.5,345.9,132.5,345.9
		C132.5,345.9,132.5,345.9,132.5,345.9 M122.2,347.5c-0.3,0-0.5-0.2-0.6-0.5c-0.1-0.3,0.1-0.6,0.4-0.7c0.5-0.1,1-0.3,1.3-0.7
		c0.1-0.1,0.3-0.2,0.4-0.2c0.2,0,0.3,0.1,0.4,0.2c0.1,0.1,0.2,0.3,0.2,0.4c0,0.2-0.1,0.3-0.2,0.4c-0.5,0.4-1.1,0.8-1.9,0.9
		C122.3,347.5,122.3,347.5,122.2,347.5 M124.1,346.4C124.1,346.4,124.1,346.4,124.1,346.4C124.1,346.4,124.1,346.4,124.1,346.4
		 M138.3,345.3c-0.1,0-0.1,0-0.2,0c0,0,0,0,0,0c-0.1-0.1-0.3-0.2-0.3-0.3c-0.1-0.1-0.1-0.3,0-0.5c0.2-0.5,0.3-1,0.4-1.6
		c0-0.3,0.3-0.5,0.6-0.5c0.4,0.1,0.6,0.4,0.5,0.7c-0.1,0.7-0.3,1.3-0.5,1.9C138.7,345.2,138.5,345.3,138.3,345.3 M117.9,345.3
		c-0.2,0-0.5-0.1-0.6-0.4c-0.2-0.5-0.4-1.2-0.5-1.9c0-0.3,0.2-0.6,0.5-0.7c0.3,0,0.6,0.2,0.7,0.5c0.1,0.6,0.2,1.2,0.4,1.6
		c0,0.1,0,0.3,0,0.5c-0.1,0.1-0.2,0.3-0.3,0.3C118,345.3,117.9,345.3,117.9,345.3 M118.2,344.6L118.2,344.6L118.2,344.6z
		 M117.8,342.9L117.8,342.9L117.8,342.9z M124.8,345.2c0,0-0.1,0-0.2,0c-0.3-0.1-0.5-0.4-0.4-0.7c0.1-0.4,0.1-0.7,0.1-0.9
		c0-0.1,0-0.2,0-0.2l0-0.5c0-0.3,0.3-0.6,0.6-0.6c0.3,0,0.6,0.3,0.6,0.6v0.4c0,0.1,0,0.2,0,0.3c0,0.3,0,0.7-0.2,1.2
		C125.3,345,125,345.2,124.8,345.2 M131.9,344.6c-0.3,0-0.5-0.2-0.6-0.5c-0.1-0.4-0.1-0.6-0.1-0.7v-1.2c0-0.3,0.3-0.6,0.6-0.6
		c0.3,0,0.6,0.3,0.6,0.6v1.2c0,0,0,0.2,0.1,0.5c0.1,0.3-0.1,0.6-0.5,0.7C132,344.6,132,344.6,131.9,344.6 M131.9,343.7v0.5V343.7
		L131.9,343.7z M131.6,344.1C131.6,344.1,131.6,344.1,131.6,344.1C131.6,344.1,131.6,344.1,131.6,344.1 M132.3,344L132.3,344
		L132.3,344z M138.9,341.7L138.9,341.7c-0.3,0-0.6-0.3-0.6-0.6l0-0.4c0-0.8-0.1-1.4-0.1-1.4c0-0.1,0.1-0.3,0.1-0.4
		c0.1-0.1,0.2-0.2,0.4-0.2c0.1,0,0.3,0,0.4,0.1c0.1,0.1,0.2,0.3,0.2,0.4c0,0,0.1,0.7,0.1,1.5c0,0.1,0,0.3,0,0.4
		C139.5,341.5,139.2,341.7,138.9,341.7 M138.4,339.4L138.4,339.4L138.4,339.4z M117.3,341.7c-0.3,0-0.6-0.3-0.6-0.6
		c0-0.1,0-0.3,0-0.4c0-0.9,0.1-1.5,0.1-1.5c0-0.2,0.1-0.3,0.2-0.4c0.1-0.1,0.3-0.1,0.5-0.1c0.1,0,0.2,0.1,0.3,0.2
		c0.1,0.1,0.1,0.3,0.1,0.4c0,0-0.1,0.6-0.1,1.4l0,0.4C117.9,341.5,117.6,341.7,117.3,341.7L117.3,341.7z M117.6,341.1L117.6,341.1
		L117.6,341.1z M117.7,339.4L117.7,339.4L117.7,339.4z M124.9,341.5c-0.3,0-0.6-0.3-0.6-0.6v-1.8c0-0.3,0.3-0.6,0.6-0.6
		c0.3,0,0.6,0.3,0.6,0.6v1.8C125.5,341.3,125.2,341.5,124.9,341.5 M131.9,341c-0.3,0-0.6-0.3-0.6-0.6v-1.8c0-0.3,0.3-0.6,0.6-0.6
		c0.3,0,0.6,0.3,0.6,0.6v1.8C132.5,340.7,132.2,341,131.9,341 M124.9,337.9c-0.3,0-0.6-0.3-0.6-0.6v-1.8c0-0.3,0.3-0.6,0.6-0.6
		c0.3,0,0.6,0.3,0.6,0.6v1.8C125.5,337.6,125.2,337.9,124.9,337.9 M131.9,337.3c-0.3,0-0.6-0.3-0.6-0.6v-1.8c0-0.3,0.3-0.6,0.6-0.6
		c0.3,0,0.6,0.3,0.6,0.6v1.8C132.5,337.1,132.2,337.3,131.9,337.3 M124.9,334.2c-0.3,0-0.6-0.3-0.6-0.6v-0.1c0-0.1,0-0.9,0.3-1.8
		c0.1-0.3,0.4-0.5,0.7-0.4c0.3,0.1,0.5,0.4,0.4,0.7c-0.2,0.8-0.2,1.4-0.2,1.5v0.1C125.5,334,125.2,334.2,124.9,334.2 M131.9,333.7
		c-0.3,0-0.6-0.3-0.6-0.6v-0.4c0-0.1,0-0.2,0-0.3c0-0.2,0-0.6-0.1-0.9c0-0.1,0-0.3,0.1-0.5c0.1-0.1,0.2-0.2,0.4-0.3
		c0.1,0,0.3,0,0.4,0.1c0.1,0.1,0.2,0.2,0.3,0.4c0.1,0.5,0.2,0.9,0.2,1.2c0,0.2,0,0.4,0,0.4l0,0.4
		C132.5,333.4,132.2,333.7,131.9,333.7 M132.2,333.1L132.2,333.1L132.2,333.1z M125.9,330.8c-0.1,0-0.3-0.1-0.4-0.1
		c-0.3-0.2-0.3-0.6-0.1-0.8c0.5-0.6,1-1,1.7-1.2c0.1,0,0.3,0,0.4,0c0.1,0.1,0.3,0.2,0.3,0.3c0.1,0.3-0.1,0.7-0.4,0.8
		c-0.5,0.2-0.9,0.4-1.2,0.8C126.3,330.7,126.1,330.8,125.9,330.8 M125.6,330C125.6,330,125.6,330,125.6,330
		C125.6,330,125.6,330,125.6,330 M127.5,329.5C127.5,329.5,127.5,329.5,127.5,329.5C127.5,329.5,127.5,329.5,127.5,329.5
		 M127.3,328.8C127.3,328.8,127.3,328.8,127.3,328.8C127.3,328.8,127.3,328.8,127.3,328.8 M130.8,330.3c-0.1,0-0.3-0.1-0.4-0.1
		c-0.3-0.3-0.8-0.5-1.3-0.5c-0.1,0-0.3-0.1-0.4-0.2c-0.1-0.1-0.1-0.3-0.1-0.4c0-0.1,0.1-0.3,0.2-0.4c0.1-0.1,0.3-0.1,0.5-0.1
		c0.8,0.1,1.4,0.4,1.9,0.8c0.2,0.2,0.3,0.6,0.1,0.8C131.2,330.2,131,330.3,130.8,330.3 M129.2,328.7
		C129.2,328.7,129.2,328.7,129.2,328.7C129.2,328.7,129.2,328.7,129.2,328.7"/>
	<path class="st0" d="M141.5,330.1L141.5,330.1c-0.1-1.6-1.4-2.9-3-2.9s-3,1.3-3,2.9h0c0,0,0,0,0,0c0,0,0,0,0,0.1c0,0.1,0,0.3,0,0.4
		c0.1,0.9,0.5,2.9,3,4.6c2.5-1.7,2.9-3.7,3-4.6C141.5,330.4,141.5,330.3,141.5,330.1C141.5,330.2,141.5,330.1,141.5,330.1
		C141.5,330.1,141.5,330.1,141.5,330.1 M138.5,332.4c-1.2,0-2.3-1-2.3-2.3c0-1.2,1-2.3,2.3-2.3s2.3,1,2.3,2.3
		C140.8,331.4,139.7,332.4,138.5,332.4"/>
	<path class="st0" d="M139.4,330C139.4,330,139.4,330,139.4,330c0,0.1,0,0.1,0,0.1c0,0,0,0,0,0c0.2,0.1,0.3,0.2,0.4,0.4
		c0.1,0.1,0.1,0.2,0.1,0.3c0,0.1,0,0.2,0,0.3c0,0.1-0.1,0.2-0.1,0.2s-0.1,0.1-0.2,0.2c-0.1,0.1-0.3,0.2-0.5,0.2c-0.1,0-0.2,0-0.3,0
		c-0.1,0-0.2,0-0.3,0c-0.1,0-0.3,0-0.4,0c-0.1,0-0.3,0-0.4,0c0,0-0.1,0-0.1,0c0,0-0.1,0-0.1-0.1c0,0,0-0.1,0-0.1c0,0,0-0.1,0-0.1
		c0-0.1,0-0.3,0-0.4c0-0.1,0-0.3,0-0.4c0-0.2,0-0.3,0-0.5c0-0.2,0-0.3,0-0.5c0-0.1,0-0.1,0-0.2c0-0.1,0-0.1,0-0.2c0-0.1,0-0.2,0-0.3
		c0-0.1,0-0.2,0-0.3c0,0,0-0.1,0-0.1c0,0,0-0.1,0-0.1c0,0,0,0,0,0c0,0,0,0,0,0c0.1,0,0.3,0,0.4,0s0.3,0,0.4,0c0.1,0,0.1,0,0.2,0
		c0.1,0,0.1,0,0.2,0c0.1,0,0.2,0,0.3,0.1s0.2,0.1,0.3,0.2c0.1,0,0.1,0.1,0.1,0.1c0,0,0.1,0.1,0.1,0.2c0,0.1,0.1,0.1,0.1,0.2
		c0,0.1,0,0.1,0,0.2c0,0.1,0,0.1,0,0.2c0,0.1,0,0.1-0.1,0.1c0,0-0.1,0.1-0.1,0.1C139.5,329.9,139.5,329.9,139.4,330 M138.3,329.7
		L138.3,329.7c0,0.1,0.1,0.1,0.2,0.1c0,0,0.1,0,0.1,0c0,0,0.1,0,0.1,0c0,0,0.1,0,0.1,0c0,0,0.1,0,0.1,0c0,0,0.1,0,0.1-0.1
		c0,0,0-0.1,0-0.1c0-0.1,0-0.1,0-0.2c0-0.1,0-0.1-0.1-0.1c0,0-0.1-0.1-0.1-0.1c-0.1,0-0.1-0.1-0.2-0.1c-0.1,0-0.2,0-0.2,0
		c0,0-0.1,0-0.1,0c0,0,0,0,0,0c0,0.1,0,0.2,0,0.3C138.3,329.5,138.3,329.6,138.3,329.7 M138.4,330.4
		C138.3,330.4,138.3,330.4,138.4,330.4c-0.1,0-0.1,0-0.1,0.1v0v0.3c0,0.1,0,0.1,0,0.2c0,0.1,0,0.1,0,0.2c0,0,0,0.1,0.1,0.1
		c0.1,0,0.2,0,0.2,0c0.1,0,0.2,0,0.2,0c0.1,0,0.1,0,0.2-0.1c0.1-0.1,0.1-0.1,0.1-0.2c0-0.1,0-0.1,0-0.1s-0.1-0.1-0.1-0.1
		c-0.1-0.1-0.1-0.1-0.2-0.1c-0.1,0-0.2-0.1-0.2-0.1C138.5,330.4,138.5,330.4,138.4,330.4C138.4,330.4,138.4,330.4,138.4,330.4"/>
	<path class="st0" d="M118.3,337.2c-0.3,0.4-0.9,0.4-1.3,0.1c-0.4-0.3-0.4-0.9-0.1-1.3c0.3-0.4,0.9-0.4,1.3-0.1
		C118.6,336.2,118.6,336.8,118.3,337.2"/>
	<path class="st0" d="M139.3,337.2c-0.3,0.4-0.9,0.4-1.3,0.1c-0.4-0.3-0.4-0.9-0.1-1.3c0.3-0.4,0.9-0.4,1.3-0.1
		C139.6,336.3,139.7,336.9,139.3,337.2"/>
	<path class="st0" d="M121.1,329.6L121.1,329.6c-0.1-1.8-1.5-3.2-3.3-3.2c-1.8,0-3.2,1.4-3.3,3.2h0c0,0,0,0,0,0c0,0,0,0,0,0.1
		c0,0.1,0,0.3,0,0.4c0.1,1,0.6,3.1,3.3,5c2.7-1.9,3.2-4,3.3-5c0-0.1,0-0.3,0-0.4C121.1,329.6,121.1,329.6,121.1,329.6
		C121.1,329.6,121.1,329.6,121.1,329.6 M117.8,332.1c-1.4,0-2.5-1.1-2.5-2.5c0-1.4,1.1-2.5,2.5-2.5c1.4,0,2.5,1.1,2.5,2.5
		C120.2,331,119.1,332.1,117.8,332.1"/>
	<path class="st0" d="M119.3,331.1C119.3,331.1,119.3,331.2,119.3,331.1c0,0.1-0.1,0.1-0.1,0.1c0,0-0.1,0-0.1,0c0,0-0.1,0-0.1,0
		h-0.1h-0.1c-0.1,0-0.1,0-0.1-0.1c0-0.1-0.1-0.2-0.1-0.2c0-0.1-0.1-0.2-0.1-0.2c0-0.1-0.1-0.2-0.1-0.3c0,0,0,0,0,0c0,0,0,0-0.1,0
		c-0.1,0-0.1,0-0.2,0c-0.1,0-0.1,0-0.2,0c-0.1,0-0.1,0-0.2,0c-0.1,0-0.1,0-0.2,0c0,0,0,0,0,0c0,0.1,0,0.1,0,0.2c0,0.1,0,0.1,0,0.2
		c0,0,0,0.1,0,0.1c0,0,0,0.1,0,0.1c0,0.1,0,0.1,0,0.2c0,0,0,0.1,0,0.2c0,0,0,0,0,0.1c0,0,0,0-0.1,0h-0.1c0,0-0.1,0-0.1,0
		c0,0-0.1,0-0.1,0c0,0-0.1,0-0.2,0c0,0-0.1,0-0.1,0c0,0,0-0.1,0-0.1c0,0,0-0.1,0-0.1c0,0,0,0,0,0c0-0.1,0.1-0.2,0.1-0.3
		c0-0.1,0.1-0.2,0.1-0.3c0-0.1,0.1-0.3,0.1-0.4c0-0.1,0.1-0.3,0.1-0.4c0-0.1,0.1-0.2,0.1-0.3c0-0.1,0.1-0.2,0.1-0.4
		c0-0.1,0.1-0.2,0.1-0.3c0-0.1,0.1-0.2,0.1-0.3c0-0.1,0-0.2,0.1-0.2c0-0.1,0-0.2,0.1-0.2c0,0,0,0,0-0.1c0,0,0,0,0-0.1
		c0,0,0-0.1,0.1-0.1c0,0,0.1,0,0.1,0c0.1,0,0.2,0,0.3,0c0.1,0,0.2,0,0.3,0c0,0,0.1,0,0.1,0c0,0,0,0.1,0,0.1c0,0.1,0,0.1,0.1,0.2
		c0,0,0,0.1,0.1,0.2c0,0.1,0,0.1,0.1,0.2c0,0.1,0,0.1,0.1,0.2c0.1,0.2,0.1,0.3,0.2,0.5s0.1,0.3,0.2,0.5c0,0.1,0.1,0.2,0.1,0.3
		c0,0.1,0,0.2,0.1,0.3c0,0.1,0.1,0.2,0.1,0.3c0,0.1,0.1,0.2,0.1,0.3c0,0.1,0.1,0.2,0.1,0.3C119.2,330.9,119.2,331,119.3,331.1
		 M118,329.5C118,329.6,118,329.5,118,329.5C118.1,329.5,118,329.5,118,329.5c0-0.2,0-0.2,0-0.3c0-0.1,0-0.2-0.1-0.2
		c0,0,0-0.1,0-0.1c0,0,0-0.1,0-0.1c0,0,0,0,0,0c0,0,0,0,0,0c0,0,0,0,0,0.1c0,0,0,0.1,0,0.1l-0.1,0.3c0,0,0,0.1,0,0.1
		c0,0,0,0.1,0,0.1v0c0,0,0,0,0,0l0.1,0c0.1,0,0.1,0,0.2,0C117.9,329.5,117.9,329.5,118,329.5"/>
</g>
<g>
	<circle cx="18" cy="18" r="17"/>
</g>
<path d="M18,36C8.1,36,0,27.9,0,18C0,8.1,8.1,0,18,0c9.9,0,18,8.1,18,18C36,27.9,27.9,36,18,36 M18,1.8C9.1,1.8,1.8,9.1,1.8,18
	c0,8.9,7.3,16.2,16.2,16.2c8.9,0,16.2-7.3,16.2-16.2C34.2,9.1,26.9,1.8,18,1.8"/>
<g>
	<path class="st0" d="M-106.9,143.1l-1.7-2.8c-0.1-0.2-0.3-0.3-0.5-0.3c-0.2,0-0.4,0.1-0.5,0.3l-1.7,2.8c-0.1,0.1-0.3,0.5-0.3,1
		c0,1.5,0.9,2.5,2.4,2.5c0,0,0,0,0.1,0c0,0,0,0,0.1,0h0h0c0,0,0,0,0,0c0,0,0.1,0,0.1,0c1.5-0.1,2.4-1,2.4-2.5
		C-106.6,143.6-106.8,143.2-106.9,143.1 M-109,145.1C-109,145.1-109,145.1-109,145.1L-109,145.1C-109,145.1-109,145.1-109,145.1
		L-109,145.1L-109,145.1C-109,145.1-109,145.1-109,145.1c-0.1,0-0.1,0-0.1,0c-0.7,0-1.1-0.4-1.1-1.1c0-0.2,0.1-0.4,0.1-0.5l0.8-1.3
		c0-0.1,0.1-0.1,0.2-0.1s0.2,0,0.2,0.1l0.8,1.3c0,0.1,0.1,0.2,0.1,0.5C-107.9,144.7-108.3,145.1-109,145.1"/>
	<path class="st0" d="M-106.2,138.7h-0.8c0-0.2,0.1-0.5,0.1-0.5c0,0,0,0,0-0.1h12v5.3c0,0.9,0.4,1.8,0.9,2.4c2-1.9,4.8-5.5,4.8-10.7
		c0-5.8-3.6-9.2-5.5-10.6c-0.1,0.4-0.2,0.8-0.2,1.2v6.7h-3.8c-0.1-0.9-0.7-1.7-1.5-2.1v-1c0.1,0.1,0.3,0.2,0.6,0.2
		c1,0,1.5-0.6,1.6-1.5c0,0,0,0,0,0c0,0,0,0,0,0v0v0c0,0,0,0,0,0c0,0,0,0,0,0c0-1-0.6-1.5-1.6-1.5c-0.3,0-0.6,0.1-0.7,0.2l-1.6,1
		l-1.6-1c-0.1-0.1-0.3-0.2-0.6-0.2c-1,0-1.5,0.6-1.6,1.5c0,0,0,0,0,0v0v0v0v0c0,0,0,0,0,0c0,1,0.6,1.5,1.6,1.5
		c0.3,0,0.6-0.1,0.6-0.2l0.5-0.3c0,0.1,0,0.2,0,0.3v0.9c-1,0.3-1.7,1.2-1.8,2.2h-2.4c-0.1,0-0.1,0-0.2,0c-0.1,0-0.2,0-0.4,0
		c-1.4,0.4-4,1.8-4.3,6.1c0,0,0,0,0,0.1h-0.7c-0.5,0-0.8,0.4-0.8,0.8c0,0.5,0.4,0.8,0.8,0.8h6.4c0.5,0,0.8-0.4,0.8-0.8
		C-105.4,139.1-105.8,138.7-106.2,138.7"/>
</g>
<g>
	<g>
		<circle cx="111" cy="-143" r="17"/>
	</g>
	<path d="M111-125c-9.9,0-18-8.1-18-18c0-9.9,8.1-18,18-18c9.9,0,18,8.1,18,18C129-133.1,120.9-125,111-125 M111-159.2
		c-8.9,0-16.2,7.3-16.2,16.2c0,8.9,7.3,16.2,16.2,16.2c8.9,0,16.2-7.3,16.2-16.2C127.2-151.9,119.9-159.2,111-159.2"/>
	<polygon class="st0" points="114.5,-145.6 101.3,-152 101.3,-150.8 114.1,-144.7 	"/>
	<path class="st0" d="M104.1-144.6l-1.3-0.7c-0.4-0.2-0.9-0.1-1.2,0.3c-0.2,0.4-0.1,0.9,0.3,1.2l2,1.2v9.8c0,0.8,0.7,1.5,1.5,1.5
		c0.8,0,1.5-0.7,1.5-1.5l0-3.8l2.7,4.6c0.4,0.7,1.3,0.9,2,0.5c0.7-0.4,0.9-1.3,0.5-2l-2.5-4.2h5.6v5c0,0.8,0.7,1.5,1.5,1.5
		c0.8,0,1.5-0.7,1.5-1.5v-5c0.4,0,0.5-0.3,0.5-0.6v-3.7l-4.7-2.3H104.1z"/>
	<polygon class="st0" points="114.6,-151.4 114.6,-145.6 118.8,-143.6 118.8,-144.4 122.3,-144.4 123.5,-147.2 	"/>
</g>
<g>
	<path class="st0" d="M26.8,22h-1.4c-0.1,0-0.3-0.1-0.3-0.3v-0.2c0-0.1,0.1-0.3,0.3-0.3h1.4c0.1,0,0.3,0.1,0.3,0.3v0.2
		C27.1,21.9,27,22,26.8,22 M23.4,22h-1.4c-0.1,0-0.3-0.1-0.3-0.3v-0.2c0-0.1,0.1-0.3,0.3-0.3h1.4c0.1,0,0.3,0.1,0.3,0.3v0.2
		C23.6,21.9,23.5,22,23.4,22 M20,22h-1.4c-0.1,0-0.3-0.1-0.3-0.3v-0.2c0-0.1,0.1-0.3,0.3-0.3H20c0.1,0,0.3,0.1,0.3,0.3v0.2
		C20.2,21.9,20.1,22,20,22 M16.9,22h-1.4c-0.1,0-0.3-0.1-0.3-0.3v-0.2c0-0.1,0.1-0.3,0.3-0.3h1.4c0.1,0,0.3,0.1,0.3,0.3v0.2
		C17.1,21.9,17,22,16.9,22 M13.9,22h-1.4c-0.1,0-0.3-0.1-0.3-0.3v-0.2c0-0.1,0.1-0.3,0.3-0.3h1.4c0.1,0,0.3,0.1,0.3,0.3v0.2
		C14.1,21.9,14,22,13.9,22 M10.8,22H9.4c-0.1,0-0.3-0.1-0.3-0.3v-0.2c0-0.1,0.1-0.3,0.3-0.3h1.4c0.1,0,0.3,0.1,0.3,0.3v0.2
		C11.1,21.9,11,22,10.8,22"/>
	<path class="st0" d="M31.8,16L31.8,16c0-1.3-1.1-2.3-2.3-2.3c-1.3,0-2.3,1-2.3,2.3h0c0,0,0,0,0,0c0,0,0,0,0,0c0,0.1,0,0.2,0,0.3
		c0.1,0.7,0.4,2.2,2.3,3.6c1.9-1.4,2.2-2.9,2.3-3.6C31.7,16.3,31.8,16.2,31.8,16C31.8,16.1,31.7,16.1,31.8,16
		C31.7,16,31.7,16,31.8,16 M29.4,17.8c-1,0-1.7-0.8-1.7-1.7c0-1,0.8-1.7,1.7-1.7c1,0,1.7,0.8,1.7,1.7C31.2,17,30.4,17.8,29.4,17.8"
		/>
	<path class="st0" d="M30.1,16C30.1,16,30.1,16,30.1,16C30.1,16,30.1,16,30.1,16c0,0.1,0,0.1,0,0.1c0.1,0.1,0.2,0.2,0.3,0.3
		c0,0.1,0.1,0.1,0.1,0.2c0,0.1,0,0.2,0,0.2c0,0.1-0.1,0.1-0.1,0.2c0,0-0.1,0.1-0.1,0.1c-0.1,0.1-0.2,0.2-0.4,0.2c-0.1,0-0.1,0-0.2,0
		c-0.1,0-0.1,0-0.2,0c-0.1,0-0.2,0-0.3,0c-0.1,0-0.2,0-0.3,0c0,0-0.1,0-0.1,0c0,0,0,0-0.1-0.1c0,0,0-0.1,0-0.1c0,0,0-0.1,0-0.1
		c0-0.1,0-0.2,0-0.3c0-0.1,0-0.2,0-0.3c0-0.1,0-0.2,0-0.3c0-0.1,0-0.2,0-0.4c0-0.1,0-0.1,0-0.2c0-0.1,0-0.1,0-0.2c0-0.1,0-0.1,0-0.2
		c0-0.1,0-0.1,0-0.2c0,0,0-0.1,0-0.1c0,0,0-0.1,0-0.1c0,0,0,0,0,0c0,0,0,0,0,0c0.1,0,0.2,0,0.3,0c0.1,0,0.2,0,0.3,0c0,0,0.1,0,0.1,0
		c0,0,0.1,0,0.1,0c0.1,0,0.2,0,0.2,0c0.1,0,0.1,0.1,0.2,0.1c0,0,0.1,0.1,0.1,0.1c0,0,0.1,0.1,0.1,0.1c0,0.1,0,0.1,0,0.2
		c0,0.1,0,0.1,0,0.2c0,0,0,0.1,0,0.1c0,0,0,0.1-0.1,0.1C30.3,15.8,30.2,15.8,30.1,16C30.2,15.9,30.2,15.9,30.1,16 M29.2,15.7
		L29.2,15.7c0,0.1,0,0.1,0.1,0.1c0,0,0,0,0.1,0c0,0,0,0,0.1,0c0,0,0.1,0,0.1,0c0,0,0,0,0.1,0c0,0,0,0,0.1,0c0,0,0,0,0-0.1
		c0-0.1,0-0.1,0-0.2c0,0,0-0.1,0-0.1s-0.1-0.1-0.1-0.1c-0.1,0-0.1,0-0.2-0.1c-0.1,0-0.1,0-0.2,0c0,0,0,0,0,0c0,0,0,0,0,0
		c0,0.1,0,0.2,0,0.2C29.2,15.6,29.2,15.6,29.2,15.7 M29.3,16.2C29.3,16.2,29.3,16.2,29.3,16.2C29.3,16.3,29.2,16.3,29.3,16.2
		L29.3,16.2l-0.1,0.3c0,0.1,0,0.1,0,0.2c0,0.1,0,0.1,0,0.2c0,0,0,0.1,0,0c0.1,0,0.1,0,0.2,0c0.1,0,0.1,0,0.2,0c0.1,0,0.1,0,0.1-0.1
		c0,0,0.1-0.1,0.1-0.1c0,0,0-0.1,0-0.1s0-0.1-0.1-0.1c0,0-0.1-0.1-0.2-0.1c-0.1,0-0.1,0-0.2-0.1C29.4,16.3,29.4,16.3,29.3,16.2
		C29.4,16.3,29.3,16.3,29.3,16.2"/>
	<path class="st0" d="M7.6,22.3c-0.4,0.5-1.1,0.5-1.5,0.1C5.6,22,5.6,21.3,6,20.8s1.1-0.5,1.5-0.1C8,21.1,8,21.8,7.6,22.3"/>
	<path class="st0" d="M30.2,22.2c-0.4,0.5-1.1,0.5-1.5,0.1c-0.5-0.4-0.5-1.1-0.1-1.5c0.4-0.5,1.1-0.5,1.5-0.1
		C30.6,21,30.6,21.7,30.2,22.2"/>
	<path class="st0" d="M9.3,15.8L9.3,15.8c0-1.4-1.2-2.5-2.5-2.5c-1.4,0-2.5,1.1-2.5,2.5l0,0c0,0,0,0,0,0c0,0,0,0,0,0
		c0,0.1,0,0.2,0,0.3c0.1,0.8,0.4,2.4,2.5,3.9c2.1-1.5,2.4-3.1,2.5-3.9C9.3,16.1,9.3,16,9.3,15.8C9.3,15.9,9.3,15.9,9.3,15.8
		C9.3,15.8,9.3,15.8,9.3,15.8 M6.8,17.8c-1.1,0-1.9-0.9-1.9-1.9c0-1.1,0.9-1.9,1.9-1.9c1.1,0,1.9,0.9,1.9,1.9
		C8.7,16.9,7.9,17.8,6.8,17.8"/>
	<path class="st0" d="M7.9,17C7.9,17,7.9,17.1,7.9,17c0,0.1,0,0.1-0.1,0.1s-0.1,0-0.1,0c0,0-0.1,0-0.1,0H7.6H7.5
		c-0.1,0-0.1,0-0.1-0.1c0-0.1,0-0.1-0.1-0.2c0-0.1,0-0.1-0.1-0.2c0-0.1-0.1-0.2-0.1-0.3c0,0,0,0,0,0c0,0,0,0,0,0c-0.1,0-0.1,0-0.2,0
		c-0.1,0-0.1,0-0.2,0c-0.1,0-0.1,0-0.2,0c-0.1,0-0.1,0-0.2,0c0,0,0,0,0,0c0,0,0,0.1,0,0.1c0,0,0,0.1,0,0.1c0,0,0,0.1,0,0.1
		c0,0,0,0.1,0,0.1c0,0,0,0.1,0,0.1c0,0,0,0.1,0,0.1c0,0,0,0,0,0c0,0,0,0,0,0H6c0,0-0.1,0-0.1,0c0,0-0.1,0-0.1,0c0,0-0.1,0-0.1,0
		c0,0,0,0-0.1,0c0,0,0-0.1,0-0.1c0,0,0,0,0,0c0,0,0,0,0,0c0-0.1,0.1-0.2,0.1-0.3c0-0.1,0.1-0.2,0.1-0.3c0-0.1,0.1-0.2,0.1-0.3
		C6,16,6,15.9,6.1,15.8c0-0.1,0.1-0.2,0.1-0.3c0-0.1,0.1-0.2,0.1-0.3c0-0.1,0-0.2,0.1-0.2c0-0.1,0-0.2,0.1-0.2c0-0.1,0-0.1,0-0.2
		c0-0.1,0-0.1,0-0.2c0,0,0,0,0,0c0,0,0,0,0,0c0,0,0,0,0-0.1c0,0,0,0,0.1,0c0.1,0,0.1,0,0.2,0c0.1,0,0.1,0,0.2,0c0,0,0,0,0.1,0
		c0,0,0,0,0,0.1c0,0.1,0,0.1,0,0.1c0,0,0,0.1,0,0.1c0,0,0,0.1,0,0.1c0,0,0,0.1,0.1,0.1c0,0.1,0.1,0.3,0.1,0.4c0,0.1,0.1,0.2,0.1,0.4
		c0,0.1,0,0.1,0.1,0.2c0,0.1,0,0.1,0.1,0.2c0,0.1,0,0.2,0.1,0.2c0,0.1,0.1,0.2,0.1,0.2c0,0.1,0,0.1,0.1,0.2
		C7.9,16.9,7.9,16.9,7.9,17 M6.9,15.8C7,15.8,7,15.8,6.9,15.8C7,15.8,7,15.8,6.9,15.8c0-0.1,0-0.2,0-0.3c0-0.1,0-0.1-0.1-0.2
		c0,0,0-0.1,0-0.1c0,0,0-0.1,0-0.1c0,0,0,0,0,0c0,0,0,0,0,0c0,0,0,0,0,0.1c0,0,0,0,0,0.1l-0.1,0.2c0,0,0,0.1,0,0.1c0,0,0,0.1,0,0.1
		v0c0,0,0,0,0,0l0.1,0c0,0,0.1,0,0.1,0C6.8,15.8,6.9,15.8,6.9,15.8"/>
</g>
</svg>
