<?xml version="1.0" encoding="utf-8"?>
<!-- Generator: Adobe Illustrator 22.1.0, SVG Export Plug-In . SVG Version: 6.00 Build 0)  -->
<svg version="1.1" id="Layer_1" xmlns="http://www.w3.org/2000/svg" xmlns:xlink="http://www.w3.org/1999/xlink" x="0px" y="0px"
	 viewBox="0 0 36 36" style="enable-background:new 0 0 36 36;" xml:space="preserve">
<style type="text/css">
	.st0{fill:#FFFFFF;}
	.st1{fill:none;stroke:#FFFFFF;stroke-width:0.961;stroke-linecap:round;stroke-linejoin:round;stroke-miterlimit:10;}
</style>
<g>
	<circle cx="111" cy="-98" r="17"/>
</g>
<path d="M111-80c-9.9,0-18-8.1-18-18c0-9.9,8.1-18,18-18c9.9,0,18,8.1,18,18C129-88.1,120.9-80,111-80 M111-114.2
	c-8.9,0-16.2,7.3-16.2,16.2c0,8.9,7.3,16.2,16.2,16.2c8.9,0,16.2-7.3,16.2-16.2C127.2-106.9,119.9-114.2,111-114.2"/>
<g>
	<path class="st0" d="M109.6-106.9c1,0,1.7-0.8,1.7-1.7c0-1-0.8-1.7-1.7-1.7c-1,0-1.7,0.8-1.7,1.7
		C107.9-107.7,108.6-106.9,109.6-106.9"/>
	<path class="st0" d="M122.5-101.9l-1.8-0.4l-1.1,2.1c0.2,0,0.4,0.1,0.5,0.1C121.3-100.1,122.3-100.9,122.5-101.9 M99.9-98.3
		c0-1.4,1.1-2.6,2.6-2.6h5.4v-3.9c0-1,0.8-1.7,1.7-1.7c1,0,1.7,0.8,1.7,1.7v0.6l2.6,0.7c0.4,0.1,0.7,0.6,0.6,1
		c-0.1,0.5-0.5,0.7-1,0.6l-2.2-0.5v1.5h2.6l7.1-7.3l-0.2,1.9l3.5,2.3c0.6,0.3,0.8,1.1,0.5,1.7c-0.3,0.5-0.8,0.7-1.3,0.6l-0.3-0.1
		c-0.3,1.4-1.6,2.4-3,2.4c-0.3,0-0.6,0-0.8-0.1l-2.6,5.4v7.4c0,0.6-0.5,1.2-1.2,1.2c-0.6,0-1.1-0.5-1.1-1.2v-7.6h-5.8l-1,1.8
		l2.2,5.2c0.3,0.6,0.1,1.3-0.4,1.6c-0.6,0.3-1.3,0.1-1.6-0.4l-2.5-6v-1.9l-1.1,1.8v5.6c0,0.6-0.5,1.2-1.2,1.2
		c-0.6,0-1.2-0.5-1.2-1.2v-6.4l1-1.5v-5.1l-0.9,1.5v4.2h-1.8V-98.3z"/>
</g>
<g>
	<g>
		<circle cx="115" cy="-53" r="17"/>
	</g>
	<path d="M115-35c-9.9,0-18-8.1-18-18c0-9.9,8.1-18,18-18c9.9,0,18,8.1,18,18C133-43.1,124.9-35,115-35 M115-69.2
		c-8.9,0-16.2,7.3-16.2,16.2c0,8.9,7.3,16.2,16.2,16.2c8.9,0,16.2-7.3,16.2-16.2C131.2-61.9,123.9-69.2,115-69.2"/>
	<g>
		<path class="st0" d="M111.1-61c0.1-0.3-0.1-0.6-0.4-0.7l-1.7-0.4c-0.3-0.1-0.6,0.1-0.7,0.4l-1.4,5.8c-0.1,0.3,0.1,0.6,0.4,0.7
			l1.7,0.4c0.3,0.1,0.6-0.1,0.7-0.4L111.1-61z"/>
		<path class="st0" d="M118.8-40.2C118.8-40.2,118.8-40.2,118.8-40.2c0,0.3,0.2,0.5,0.5,0.5c0.2,0,0.4-0.2,0.5-0.4l3.4-18.3v0
			c0-0.2-0.2-0.5-0.5-0.5c-0.2,0-0.4,0.2-0.5,0.4L118.8-40.2z"/>
		<path class="st0" d="M107.6-41.4c0,0.1,0,0.2,0,0.3c0,0.8,0.6,1.4,1.4,1.4c0.6,0,1.2-0.4,1.4-1l2.4-10.1l2.3,10
			c0.1,0.6,0.7,1.1,1.4,1.1c0.8,0,1.4-0.6,1.4-1.4c0-0.1,0-0.2,0-0.3l-3.2-13.3l0.3-1.2l0.2,0.9c0.2,0.6,0.7,0.7,0.7,0.7l3.3,0.8
			c0.1,0,0.1,0,0.2,0c0.5,0,1-0.4,1-1c0-0.5-0.3-0.8-0.7-0.9l-2.8-0.7l-0.8-3.2c-0.4-1.8-2.1-1.7-2.1-1.7c-1.6,0-2.1,1.7-2.1,1.7
			L107.6-41.4z"/>
		<path class="st0" d="M114.6-62.3c1.1,0,2-0.9,2-2c0-1.1-0.9-2-2-2c-1.1,0-2,0.9-2,2C112.6-63.2,113.5-62.3,114.6-62.3"/>
	</g>
</g>
<g>
	<circle cx="117" cy="-7" r="17"/>
</g>
<path d="M117,11c-9.9,0-18-8.1-18-18c0-9.9,8.1-18,18-18c9.9,0,18,8.1,18,18C135,2.9,126.9,11,117,11 M117-23.2
	c-8.9,0-16.2,7.3-16.2,16.2c0,8.9,7.3,16.2,16.2,16.2c8.9,0,16.2-7.3,16.2-16.2C133.2-15.9,125.9-23.2,117-23.2"/>
<g>
	<path class="st0" d="M128.2-5.9v-1.5c0-1.9-1.6-3.5-3.5-3.5h-1.7l-3.9-5.8c0,0-0.1-0.2-0.3-0.4c-0.3-0.5-1-0.5-1-0.5l-8.2,0
		c0,0-0.9,0-1,0.7c0,0.1,0,0.2,0,0.3c0,0.1,0,0.2,0,0.3c0,0.2,0,3.1,0,5.2h-1.1c-1.9,0-3.5,1.6-3.5,3.5V-4c0,0.4,0.1,0.7,0.2,1
		c0.9-1.1,2.2-1.8,3.7-1.8c2.4,0,4.4,1.9,4.7,4.2h8.5c0.2-2.4,2.2-4.2,4.7-4.2c1.3,0,2.4,0.5,3.2,1.3c0.4-0.1,0.8-0.4,0.9-0.9
		C130.1-5.4,129.1-5.9,128.2-5.9 M120.3-3.9H119c0.1-0.2,0.2-0.4,0.1-0.7c-0.1-0.7-0.7-0.7-0.7-0.7l-5.4,0c0,0-0.1,0-0.2,0l0-6.5
		c0,0,0-0.7-0.7-0.9c-0.7-0.1-1.1,0.6-1,1.1c0,0,0,0.2,0,0.4h-0.6l0-4.6c1.5,0,6.8,0,7.3,0c0,0,0,0,0,0c0.1,0.1,0.2,0.3,0.2,0.4
		c0.2,0.2,2.5,3.7,4.2,6.2V-9l-1.5-0.6c0,0-0.1,0-0.2-0.1l0.1-0.4c0,0,0-0.2-0.3-0.3c-0.4-0.1-0.6,0-0.6,0.2c0,0.1-0.2,1.4-0.3,1.5
		c0,0.1,0.1,0.3,0.5,0.4c0.4,0,0.4-0.1,0.4-0.1l0.1-0.3c0,0,0.1,0,0.1,0.1c0.1,0,0.9,0.4,1.7,0.7v3.5C121.6-4.1,121-3.9,120.3-3.9"
		/>
	<path class="st0" d="M125.8-3.8c-2,0-3.7,1.6-3.7,3.7c0,2,1.6,3.6,3.7,3.6c2,0,3.7-1.6,3.7-3.6C129.4-2.1,127.8-3.8,125.8-3.8
		 M125.8,2.2c-1.3,0-2.3-1-2.3-2.3c0-1.3,1-2.3,2.3-2.3c1.3,0,2.3,1,2.3,2.3C128.1,1.1,127.1,2.2,125.8,2.2"/>
	<path class="st0" d="M107.9-3.8c-2,0-3.7,1.6-3.7,3.7c0,2,1.6,3.6,3.7,3.6c2,0,3.6-1.6,3.6-3.6C111.6-2.1,109.9-3.8,107.9-3.8
		 M107.9,2.2c-1.3,0-2.3-1-2.3-2.3c0-1.3,1-2.3,2.3-2.3c1.3,0,2.3,1,2.3,2.3C110.2,1.1,109.2,2.2,107.9,2.2"/>
</g>
<g>
	<circle cx="119" cy="39" r="17"/>
</g>
<path d="M119,57c-9.9,0-18-8.1-18-18c0-9.9,8.1-18,18-18c9.9,0,18,8.1,18,18C137,48.9,128.9,57,119,57 M119,22.8
	c-8.9,0-16.2,7.3-16.2,16.2c0,8.9,7.3,16.2,16.2,16.2c8.9,0,16.2-7.3,16.2-16.2C135.2,30.1,127.9,22.8,119,22.8"/>
<g>
	<path class="st0" d="M111.6,48.6c2.3,0,4.1-1.8,4.1-4.1c0-2.3-1.8-4.1-4.1-4.1c-2.3,0-4.1,1.8-4.1,4.1
		C107.4,46.8,109.3,48.6,111.6,48.6 M106.5,44.5c0-2.8,2.3-5.1,5.1-5.1c2.8,0,5.1,2.3,5.1,5.1c0,2.8-2.3,5.1-5.1,5.1
		C108.8,49.6,106.5,47.3,106.5,44.5"/>
	<path class="st0" d="M126.4,48.7c2.3,0,4.1-1.8,4.1-4.1c0-2.3-1.8-4.1-4.1-4.1c-2.3,0-4.1,1.8-4.1,4.1
		C122.3,46.8,124.2,48.7,126.4,48.7 M121.4,44.5c0-2.8,2.3-5.1,5.1-5.1c2.8,0,5.1,2.3,5.1,5.1c0,2.8-2.3,5.1-5.1,5.1
		C123.7,49.6,121.4,47.3,121.4,44.5"/>
	<path class="st0" d="M121.4,32.2c1,0,1.9-0.8,1.9-1.9c0-1.1-0.9-1.9-1.9-1.9c-1.1,0-1.9,0.9-1.9,1.9
		C119.5,31.4,120.3,32.2,121.4,32.2"/>
	<path class="st0" d="M121.5,36.8c-0.3,0-0.6-0.1-0.8-0.5l-1.2-1.9l-2.5,2.5l2.4,1.2c1,0.5,0.8,1.3,0.8,1.3v5.4
		c0,0.6-0.5,1.1-1.1,1.1c-0.6,0-1.1-0.5-1.1-1.1v-4.3l-4.1-2.3c-0.5-0.3-0.8-0.8-0.8-1.4c0-0.4,0.2-0.8,0.4-1.1l4-4
		c0.5-0.6,1.2-0.5,1.2-0.5c0.8,0,1.3,0.7,1.3,0.7l2.1,3.3l3.2,0c1.1,0,1.1,1.5,0,1.5H121.5z"/>
</g>
<g>
	<circle cx="119" cy="90" r="17"/>
</g>
<path d="M119,108c-9.9,0-18-8.1-18-18c0-9.9,8.1-18,18-18c9.9,0,18,8.1,18,18C137,99.9,128.9,108,119,108 M119,73.8
	c-8.9,0-16.2,7.3-16.2,16.2c0,8.9,7.3,16.2,16.2,16.2c8.9,0,16.2-7.3,16.2-16.2C135.2,81.1,127.9,73.8,119,73.8"/>
<g>
	<path class="st0" d="M123.4,93.8c0,0,0,0.1,0,0.1c0,3.7-3,6.7-6.7,6.7s-6.7-3-6.7-6.7c0-2.2,1.1-4.2,2.8-5.5l-0.2-2
		c-2.6,1.5-4.4,4.3-4.4,7.5c0,4.7,3.8,8.5,8.5,8.5c4,0,7.4-2.8,8.3-6.5L123.4,93.8z"/>
	<path class="st0" d="M115.6,77.5c1.2,0,2.2,1,2.2,2.2s-1,2.2-2.2,2.2c-1.2,0-2.2-1-2.2-2.2S114.4,77.5,115.6,77.5"/>
	<path class="st0" d="M129.6,96.5l-4.9-6.8c-0.3-0.4-0.7-0.5-1.1-0.5c0,0-0.1,0-0.1,0H118l-0.1-1.2h4.1c0.5,0,0.9-0.4,0.9-0.9
		c0-0.5-0.4-0.9-0.9-0.9h-4.3l-0.2-2c-0.1-1.2-1.2-2-2.4-1.9c-1.2,0.1-2,1.2-1.9,2.4l0.6,5.6c0.1,1.1,1.1,1.9,2.1,1.9c0,0,0,0,0,0
		h7.3l4.2,5.9c0.4,0.6,1.2,0.7,1.8,0.2C129.9,97.9,130,97.1,129.6,96.5"/>
</g>
<g>
	<circle cx="123" cy="141" r="17"/>
</g>
<path d="M123,159c-9.9,0-18-8.1-18-18c0-9.9,8.1-18,18-18c9.9,0,18,8.1,18,18C141,150.9,132.9,159,123,159 M123,124.8
	c-8.9,0-16.2,7.3-16.2,16.2c0,8.9,7.3,16.2,16.2,16.2c8.9,0,16.2-7.3,16.2-16.2C139.2,132.1,131.9,124.8,123,124.8"/>
<g>
	<path class="st0" d="M127.1,149.2c-0.4,0-10.1,0.1-11,0c-0.8,0-2.1,0.6-1.8,1.7c0.2,1.1,1.5,1.1,1.5,1.1l11.6,0c0,0,1.3,0,1.5-1.1
		C129.2,149.7,127.9,149.1,127.1,149.2"/>
	<path class="st0" d="M131.2,138.5c-0.3,0-8,0-8.6,0c-0.6,0-1.6,0.4-1.4,1.3c0.2,0.9,1.2,0.8,1.2,0.8l9.1,0c0,0,1,0,1.2-0.9
		C132.8,138.9,131.8,138.5,131.2,138.5"/>
	<path class="st0" d="M130.9,141.5c-0.2,0-16,0-16.5,0c-0.5,0-1.2,0.3-1,0.9c0.1,0.5,0.5,0.6,0.7,0.6c0.3,2,1.5,2.7,1.5,2.7v2.6v2.8
		h10.1v-2.8h0.1c3.9-1.1,5-3.7,5.2-5.3l0.1,0c0,0,0.7,0,0.8-0.6C132.1,141.8,131.3,141.5,130.9,141.5"/>
	<path class="st0" d="M120.6,130v2.8l0.3,0c0,0,1.3,0,1.5-1.1C122.6,130.6,121.4,130,120.6,130"/>
	<rect x="114.4" y="130" class="st0" width="6.2" height="2.8"/>
	<rect x="113.9" y="132.7" class="st0" width="6.9" height="9.4"/>
</g>
<g>
	<circle cx="18" cy="18" r="17"/>
</g>
<path d="M18,36C8.1,36,0,27.9,0,18C0,8.1,8.1,0,18,0c9.9,0,18,8.1,18,18C36,27.9,27.9,36,18,36 M18,1.8C9.1,1.8,1.8,9.1,1.8,18
	c0,8.9,7.3,16.2,16.2,16.2c8.9,0,16.2-7.3,16.2-16.2C34.2,9.1,26.9,1.8,18,1.8"/>
<g>
	<path class="st0" d="M27.4,21.1c-0.6-0.2-1-0.8-1-1.4c0.1-0.8,0.6-1.3,1.4-1.3c0.2,0,0.4-0.1,0.5-0.3c0-0.3-0.1-0.3-0.4-0.4
		c-0.4-0.2-0.8-0.2-1.2-0.2c-1.9,0-3.3,0.9-4.1,2.6c-0.3,0.6-0.8,1-1.4,1.2c-0.2,0-0.4,0-0.6-0.1c-0.6-0.2-1-0.8-1-1.4
		c0.1-0.8,0.6-1.3,1.4-1.3c0.2,0,0.4-0.1,0.5-0.3c0-0.3-0.1-0.3-0.4-0.4c-0.4-0.2-0.8-0.2-1.2-0.2c-1.9,0-3.3,0.9-4.1,2.6
		c-0.3,0.6-0.8,1-1.4,1.2c-0.2,0-0.4,0-0.6-0.1c-0.6-0.2-1-0.8-1-1.4c0.1-0.8,0.6-1.3,1.4-1.3c0.2,0,0.4-0.1,0.5-0.3
		c0-0.3-0.1-0.3-0.4-0.4c-0.4-0.2-0.8-0.2-1.2-0.2c-1.9,0-3.3,0.9-4.1,2.6c-0.4,0.8-1,1.2-1.8,1.3c-0.2,0-2.4,0.2-2.5,0.3
		c0,0.2,0.1,0.3,0.1,0.5c1.2,5,7.8,8.7,13.2,8.7c5.6,0,12.2-4.1,13.1-9.5c0-0.1,0-0.1,0-0.2C30.8,21.2,28,21.3,27.4,21.1"/>
	<path class="st0" d="M19.7,8.4c0.3,1.4-0.5,2.7-1.9,3.1s-2.7-0.5-3.1-1.9c-0.3-1.4,0.5-2.7,1.9-3.1C18,6.2,19.4,7.1,19.7,8.4"/>
	<path class="st0" d="M19.6,15.2l3.2-4.5c0,0,0.6-0.7,0.5-2.2c-0.1-1.5-0.1-2.3-0.1-2.3s0-1.1-0.7-1c-0.7,0-1.1,0.5-1,1.1
		c0,0.7,0.2,2.9,0.2,2.9l-2.3,2.7c0,0-0.5,0.2-0.5,0.7c0,0.5,0.2,2.8,0.2,2.8S19.5,15.4,19.6,15.2"/>
	<path class="st0" d="M17.3,15.8l-5-2.5c0,0-0.9-0.3-1.5-1.7c-0.6-1.3-0.9-2.1-0.9-2.1s-0.5-0.9,0.2-1.2c0.7-0.3,1.2-0.1,1.4,0.5
		c0.3,0.6,1.2,2.6,1.2,2.6l3.2,1.3c0,0,0.5-0.1,0.8,0.4c0.2,0.5,1.2,2.6,1.2,2.6S17.6,15.9,17.3,15.8"/>
	<path class="st0" d="M17,17.8c0.8-0.7,1.9-1.1,3.2-1.1c0.3,0,0.5,0,0.7,0.1c-0.4-1.6-0.8-3.3-0.9-3.8c-0.3-1.2-1.2-0.8-1.2-0.8
		s-0.9,0.2-2,0.5c-1.1,0.3-0.7,1.4-0.7,1.4L17,17.8z"/>
</g>
<g>
	<path class="st0" d="M-103.9-57.9c-7.6,0-13.8,6.2-13.8,13.8c0,7.6,6.2,13.8,13.8,13.8c7.6,0,13.8-6.2,13.8-13.8
		C-90.1-51.7-96.3-57.9-103.9-57.9 M-97.9-40.6c0.7,0.7,1.3,2.3,0.1,3C-99-36.8-100-38-100-38l-3.8-3.9l-3.8,3.9
		c0,0-1.1,1.1-2.2,0.4c-1.2-0.7-0.6-2.3,0.1-3c0.3-0.3,1.8-1.8,3.6-3.6L-110-48c0,0-1.1-1.1-0.3-2.2c0.8-1.2,2.3-0.5,3,0.2
		c0.1,0.2,1.7,1.7,3.5,3.5c1.8-1.8,3.3-3.3,3.5-3.5c0.7-0.7,2.2-1.3,3-0.2c0.8,1.2-0.3,2.2-0.3,2.2l-3.8,3.8
		C-99.8-42.4-98.2-40.9-97.9-40.6"/>
</g>
<g>
	<path class="st0" d="M-99.8,5.5L-99.8,5.5c-0.1-2.2-1.8-3.9-4-3.9c-2.2,0-3.9,1.7-4,3.9l0,0c0,0,0,0,0,0.1c0,0,0,0,0,0.1
		c0,0.2,0,0.4,0,0.5c0.1,1.2,0.7,3.8,4,6.1c3.3-2.3,3.9-4.9,4-6.1c0-0.2,0-0.3,0-0.5C-99.8,5.6-99.8,5.6-99.8,5.5
		C-99.8,5.6-99.8,5.6-99.8,5.5 M-103.8,8.6c-1.7,0-3-1.3-3-3c0-1.7,1.3-3,3-3c1.7,0,3,1.3,3,3C-100.8,7.3-102.1,8.6-103.8,8.6"/>
	<path class="st0" d="M-102,5.4C-102,5.5-102,5.5-102,5.4C-102,5.5-102,5.5-102,5.4c0,0.1,0,0.1,0,0.1c0.1,0.1,0.2,0.2,0.3,0.3
		c0.1,0.1,0.1,0.2,0.1,0.2c0,0.1,0,0.2,0,0.3c0,0.1-0.1,0.1-0.1,0.2c0,0.1-0.1,0.1-0.2,0.2c-0.1,0.1-0.3,0.2-0.4,0.2
		c-0.1,0-0.1,0-0.2,0c-0.1,0-0.1,0-0.2,0c-0.1,0-0.2,0-0.3,0c-0.1,0-0.2,0-0.3,0c0,0-0.1,0-0.1,0c0,0,0,0-0.1-0.1c0,0,0-0.1,0-0.1
		c0,0,0-0.1,0-0.1c0-0.1,0-0.2,0-0.4c0-0.1,0-0.2,0-0.4c0-0.1,0-0.3,0-0.4c0-0.1,0-0.3,0-0.4c0-0.1,0-0.1,0-0.2c0-0.1,0-0.1,0-0.2
		c0-0.1,0-0.2,0-0.2c0-0.1,0-0.2,0-0.2c0,0,0-0.1,0-0.1c0,0,0-0.1,0-0.1c0,0,0,0,0,0c0,0,0,0,0,0c0.1,0,0.2,0,0.4,0
		c0.1,0,0.2,0,0.4,0c0.1,0,0.1,0,0.2,0c0,0,0.1,0,0.2,0c0.1,0,0.2,0,0.3,0.1c0.1,0,0.2,0.1,0.2,0.1c0,0,0.1,0.1,0.1,0.1
		c0,0,0.1,0.1,0.1,0.1c0,0.1,0,0.1,0.1,0.2c0,0.1,0,0.1,0,0.2c0,0.1,0,0.1,0,0.1c0,0,0,0.1-0.1,0.1c0,0-0.1,0.1-0.1,0.1
		C-101.9,5.4-101.9,5.4-102,5.4 M-103,5.2L-103,5.2c0,0.1,0.1,0.1,0.1,0.1c0,0,0,0,0.1,0s0.1,0,0.1,0c0,0,0.1,0,0.1,0
		c0,0,0.1,0,0.1,0c0,0,0.1,0,0.1-0.1c0,0,0,0,0-0.1c0-0.1,0-0.1,0-0.2c0,0,0-0.1-0.1-0.1c0,0-0.1-0.1-0.1-0.1
		c-0.1,0-0.1-0.1-0.2-0.1c-0.1,0-0.1,0-0.2,0c0,0,0,0-0.1,0c0,0,0,0,0,0c0,0.1,0,0.2,0,0.3C-103,5-103,5.1-103,5.2 M-102.9,5.8
		C-102.9,5.8-102.9,5.8-102.9,5.8C-102.9,5.8-103,5.8-102.9,5.8L-102.9,5.8l-0.1,0.3c0,0.1,0,0.1,0,0.2c0,0.1,0,0.1,0,0.2
		c0,0,0,0.1,0.1,0.1c0.1,0,0.1,0,0.2,0c0.1,0,0.1,0,0.2,0c0.1,0,0.1,0,0.2-0.1c0-0.1,0.1-0.1,0.1-0.2c0,0,0-0.1,0-0.1
		c0,0-0.1-0.1-0.1-0.1c-0.1-0.1-0.1-0.1-0.2-0.1c-0.1,0-0.1,0-0.2-0.1C-102.8,5.8-102.8,5.8-102.9,5.8
		C-102.8,5.8-102.8,5.8-102.9,5.8"/>
	<path class="st0" d="M-103.8,7C-103.8,7.1-103.8,7.1-103.8,7c0,0.1-0.1,0.1-0.1,0.1c0,0-0.1,0-0.1,0c0,0-0.1,0-0.1,0h-0.1h-0.1
		c-0.1,0-0.1,0-0.1-0.1c0-0.1,0-0.1-0.1-0.2s0-0.1-0.1-0.2c0-0.1-0.1-0.2-0.1-0.3c0,0,0,0,0,0c0,0,0,0,0,0c-0.1,0-0.1,0-0.2,0
		c-0.1,0-0.1,0-0.2,0c-0.1,0-0.1,0-0.2,0c-0.1,0-0.1,0-0.2,0c0,0,0,0,0,0c0,0.1,0,0.1,0,0.2c0,0,0,0.1,0,0.2c0,0,0,0.1,0,0.1
		c0,0,0,0.1,0,0.1c0,0,0,0.1,0,0.1c0,0,0,0.1,0,0.1c0,0,0,0,0,0c0,0,0,0,0,0h-0.1c0,0-0.1,0-0.1,0c0,0-0.1,0-0.1,0c0,0-0.1,0-0.1,0
		c0,0,0,0-0.1,0c0,0,0-0.1,0-0.1c0,0,0,0,0,0s0,0,0,0c0-0.1,0.1-0.2,0.1-0.3c0-0.1,0.1-0.2,0.1-0.3c0-0.1,0.1-0.2,0.1-0.3
		c0-0.1,0.1-0.2,0.1-0.3c0-0.1,0.1-0.2,0.1-0.3c0-0.1,0.1-0.2,0.1-0.3c0-0.1,0-0.2,0.1-0.2c0-0.1,0-0.2,0.1-0.2c0-0.1,0-0.1,0.1-0.2
		c0-0.1,0-0.1,0.1-0.2c0,0,0,0,0,0c0,0,0,0,0-0.1c0,0,0,0,0-0.1c0,0,0,0,0.1,0c0.1,0,0.2,0,0.2,0c0.1,0,0.1,0,0.2,0c0,0,0,0,0.1,0
		c0,0,0,0,0,0.1c0,0.1,0,0.1,0,0.1c0,0,0,0.1,0.1,0.1c0,0.1,0,0.1,0.1,0.2c0,0,0,0.1,0.1,0.1c0,0.1,0.1,0.3,0.1,0.4
		c0,0.1,0.1,0.3,0.1,0.4c0,0.1,0,0.1,0.1,0.2c0,0.1,0,0.1,0.1,0.2c0,0.1,0,0.2,0.1,0.3c0,0.1,0.1,0.2,0.1,0.3c0,0.1,0,0.2,0.1,0.2
		C-103.8,6.9-103.8,7-103.8,7 M-104.8,5.8C-104.8,5.8-104.8,5.8-104.8,5.8C-104.8,5.8-104.8,5.7-104.8,5.8c0-0.1,0-0.2,0-0.3
		c0-0.1,0-0.1-0.1-0.2c0,0,0-0.1,0-0.1c0,0,0-0.1,0-0.1c0,0,0,0,0,0c0,0,0,0,0,0c0,0,0,0,0,0.1c0,0,0,0,0,0.1l-0.1,0.2
		c0,0,0,0.1,0,0.1c0,0,0,0.1,0,0.1v0c0,0,0,0,0,0l0.1,0c0,0,0.1,0,0.1,0C-104.9,5.8-104.9,5.8-104.8,5.8"/>
	<path class="st0" d="M-102.5,15.8c-0.5,0.6-1.5,0.7-2.1,0.1c-0.6-0.5-0.7-1.5-0.1-2.1c0.5-0.6,1.5-0.7,2.1-0.1
		C-102,14.3-102,15.2-102.5,15.8"/>
	<path class="st0" d="M-108,15.1C-108,15.1-108,15.1-108,15.1c-0.6-0.2-1.1-0.4-1.6-0.6c-0.1,0-0.1-0.1-0.1-0.1
		c0-0.1,0.1-0.1,0.1-0.1c0.5,0.2,1,0.4,1.6,0.6c0.1,0,0.1,0.1,0.1,0.1C-107.9,15.1-108,15.1-108,15.1 M-99.6,15.1
		C-99.6,15.1-99.7,15-99.6,15.1c-0.1-0.1-0.1-0.2,0-0.2c0.5-0.2,1.1-0.4,1.6-0.6c0.1,0,0.1,0,0.1,0c0,0.1,0,0.1-0.1,0.1
		C-98.4,14.7-99,14.9-99.6,15.1C-99.5,15.1-99.6,15.1-99.6,15.1 M-111.1,13.7C-111.1,13.7-111.2,13.7-111.1,13.7
		c-0.5-0.3-1-0.7-1.4-1c0,0-0.1-0.1,0-0.2c0,0,0.1-0.1,0.2,0c0.4,0.4,0.9,0.7,1.4,1c0.1,0,0.1,0.1,0,0.1
		C-111,13.7-111.1,13.7-111.1,13.7 M-96.5,13.6C-96.5,13.6-96.6,13.6-96.5,13.6c-0.1-0.1-0.1-0.2,0-0.2c0.5-0.3,0.9-0.7,1.4-1
		c0,0,0.1,0,0.2,0c0,0,0,0.1,0,0.2C-95.5,12.9-95.9,13.2-96.5,13.6C-96.5,13.6-96.5,13.6-96.5,13.6 M-113.8,11.5
		C-113.8,11.5-113.8,11.5-113.8,11.5c-0.5-0.5-0.8-0.9-1.2-1.4c0,0,0-0.1,0-0.1c0,0,0.1,0,0.1,0c0.3,0.5,0.7,0.9,1.1,1.3
		C-113.6,11.4-113.6,11.4-113.8,11.5C-113.7,11.5-113.7,11.5-113.8,11.5 M-93.9,11.4C-93.9,11.4-93.9,11.4-93.9,11.4
		c-0.1-0.1-0.1-0.1-0.1-0.2c0.4-0.4,0.7-0.9,1.1-1.3c0,0,0.1-0.1,0.1,0c0,0,0.1,0.1,0,0.1C-93,10.4-93.4,10.9-93.9,11.4
		C-93.8,11.4-93.9,11.4-93.9,11.4 M-115.8,8.7C-115.8,8.7-115.8,8.7-115.8,8.7c-0.4-0.6-0.6-1.1-0.8-1.6c0-0.1,0-0.1,0.1-0.1
		c0.1,0,0.1,0,0.1,0.1c0.2,0.5,0.5,1,0.7,1.5C-115.6,8.6-115.7,8.7-115.8,8.7C-115.7,8.7-115.8,8.7-115.8,8.7 M-91.9,8.6
		C-91.9,8.6-91.9,8.6-91.9,8.6C-92,8.5-92,8.5-92,8.4c0.3-0.5,0.5-1,0.7-1.6c0-0.1,0.1-0.1,0.1-0.1c0.1,0,0.1,0.1,0.1,0.1
		c-0.2,0.5-0.4,1.1-0.7,1.6C-91.8,8.5-91.9,8.6-91.9,8.6 M-117,5.6C-117.1,5.6-117.1,5.5-117,5.6c-0.2-0.6-0.3-1.2-0.4-1.8
		c0-0.1,0-0.1,0.1-0.1c0.1,0,0.1,0,0.1,0.1c0.1,0.6,0.2,1.1,0.3,1.7C-116.9,5.5-116.9,5.5-117,5.6C-117,5.6-117,5.6-117,5.6
		 M-90.7,5.6C-90.7,5.6-90.7,5.6-90.7,5.6c-0.1,0-0.1-0.1-0.1-0.1c0.1-0.5,0.2-1.1,0.3-1.7c0-0.1,0.1-0.1,0.1-0.1
		c0.1,0,0.1,0.1,0.1,0.1c-0.1,0.6-0.2,1.1-0.3,1.7C-90.6,5.5-90.7,5.6-90.7,5.6 M-117.4,2.2c-0.1,0-0.1-0.1-0.1-0.1
		c0-0.5,0-0.9,0.1-1.4c0-0.1,0-0.2,0-0.4c0-0.1,0.1-0.1,0.1-0.1c0,0,0,0,0,0c0.1,0,0.1,0.1,0.1,0.1c0,0.1,0,0.2,0,0.4
		c0,0.4-0.1,0.9-0.1,1.3C-117.3,2.1-117.4,2.2-117.4,2.2L-117.4,2.2z M-90.4,2.4c-0.1,0-0.1-0.1-0.1-0.1c0-0.6,0-1.1-0.1-1.7
		c0-0.1,0-0.1,0.1-0.1c0.1,0,0.1,0,0.1,0.1c0.1,0.6,0.1,1.2,0.1,1.7C-90.2,2.3-90.3,2.4-90.4,2.4C-90.4,2.4-90.4,2.4-90.4,2.4
		 M-117-1.2C-117-1.2-117-1.2-117-1.2c-0.1,0-0.1-0.1-0.1-0.1c0.1-0.6,0.3-1.1,0.5-1.6c0-0.1,0.1-0.1,0.1-0.1c0.1,0,0.1,0.1,0.1,0.1
		c-0.2,0.5-0.4,1.1-0.5,1.6C-116.9-1.3-116.9-1.2-117-1.2 M-90.7-0.7C-90.7-0.7-90.8-0.8-90.7-0.7c-0.2-0.6-0.4-1.2-0.6-1.7
		c0-0.1,0-0.1,0.1-0.1c0.1,0,0.1,0,0.1,0.1c0.2,0.5,0.4,1.1,0.5,1.7C-90.6-0.8-90.6-0.8-90.7-0.7C-90.7-0.7-90.7-0.7-90.7-0.7
		 M-115.7-4.4C-115.7-4.4-115.7-4.4-115.7-4.4c-0.1,0-0.1-0.1-0.1-0.2c0.3-0.5,0.6-1,0.9-1.4c0,0,0.1-0.1,0.2,0c0,0,0.1,0.1,0,0.1
		c-0.3,0.5-0.7,0.9-0.9,1.4C-115.6-4.4-115.7-4.4-115.7-4.4 M-91.9-4C-91.9-4-91.9-4-91.9-4c-0.3-0.6-0.6-1.1-1-1.5c0,0,0-0.1,0-0.1
		c0,0,0.1,0,0.1,0c0.3,0.5,0.6,1,0.9,1.5C-91.7-4.1-91.7-4-91.9-4C-91.8-4-91.8-4-91.9-4 M-113.7-7.2
		C-113.7-7.2-113.7-7.2-113.7-7.2c-0.1-0.1-0.1-0.1-0.1-0.2c0.4-0.4,0.8-0.8,1.3-1.2c0,0,0.1,0,0.2,0c0,0,0,0.1,0,0.2
		C-112.8-8-113.2-7.6-113.7-7.2C-113.6-7.2-113.6-7.2-113.7-7.2 M-93.8-6.8C-93.8-6.8-93.8-6.8-93.8-6.8c-0.4-0.5-0.9-0.9-1.3-1.2
		c0,0-0.1-0.1,0-0.2c0,0,0.1-0.1,0.2,0c0.4,0.4,0.8,0.8,1.2,1.2C-93.7-6.9-93.7-6.8-93.8-6.8C-93.7-6.8-93.8-6.8-93.8-6.8 M-111-9.3
		C-111-9.3-111.1-9.3-111-9.3c-0.1-0.1-0.1-0.2,0-0.2c0.5-0.3,1-0.6,1.5-0.8c0.1,0,0.1,0,0.1,0.1c0,0.1,0,0.1-0.1,0.1
		C-109.9-9.9-110.4-9.6-111-9.3C-110.9-9.3-111-9.3-111-9.3 M-96.4-9C-96.4-9-96.4-9-96.4-9c-0.5-0.3-1-0.6-1.5-0.9
		c-0.1,0-0.1-0.1,0-0.1c0-0.1,0.1-0.1,0.1,0c0.5,0.3,1,0.6,1.5,0.9C-96.3-9.2-96.2-9.1-96.4-9C-96.3-9-96.3-9-96.4-9 M-107.9-10.7
		C-107.9-10.7-108-10.7-107.9-10.7c-0.1-0.1-0.1-0.2,0-0.2c0.6-0.2,1.1-0.3,1.7-0.4c0.1,0,0.1,0,0.1,0.1c0,0.1,0,0.1-0.1,0.1
		C-106.7-11-107.3-10.9-107.9-10.7C-107.8-10.7-107.9-10.7-107.9-10.7 M-99.4-10.6C-99.4-10.6-99.5-10.6-99.4-10.6
		c-0.6-0.2-1.1-0.3-1.7-0.5c-0.1,0-0.1-0.1-0.1-0.1c0-0.1,0.1-0.1,0.1-0.1c0.6,0.1,1.1,0.3,1.7,0.5c0.1,0,0.1,0.1,0.1,0.1
		C-99.3-10.6-99.4-10.6-99.4-10.6 M-104.5-11.3c-0.1,0-0.1,0-0.1-0.1c0-0.1,0-0.1,0.1-0.1c0.6,0,1.2,0,1.7,0c0,0,0,0,0,0
		c0.1,0,0.1,0.1,0.1,0.1c0,0.1-0.1,0.1-0.1,0.1C-103.4-11.3-103.9-11.3-104.5-11.3C-104.5-11.3-104.5-11.3-104.5-11.3"/>
	<path class="st1" d="M-108,15.1C-108,15.1-108,15.1-108,15.1c-0.6-0.2-1.1-0.4-1.6-0.6c-0.1,0-0.1-0.1-0.1-0.1
		c0-0.1,0.1-0.1,0.1-0.1c0.5,0.2,1,0.4,1.6,0.6c0.1,0,0.1,0.1,0.1,0.1C-107.9,15.1-108,15.1-108,15.1z M-99.6,15.1
		C-99.6,15.1-99.7,15-99.6,15.1c-0.1-0.1-0.1-0.2,0-0.2c0.5-0.2,1.1-0.4,1.6-0.6c0.1,0,0.1,0,0.1,0c0,0.1,0,0.1-0.1,0.1
		C-98.4,14.7-99,14.9-99.6,15.1C-99.5,15.1-99.6,15.1-99.6,15.1z M-111.1,13.7C-111.1,13.7-111.2,13.7-111.1,13.7
		c-0.5-0.3-1-0.7-1.4-1c0,0-0.1-0.1,0-0.2c0,0,0.1-0.1,0.2,0c0.4,0.4,0.9,0.7,1.4,1c0.1,0,0.1,0.1,0,0.1
		C-111,13.7-111.1,13.7-111.1,13.7z M-96.5,13.6C-96.5,13.6-96.6,13.6-96.5,13.6c-0.1-0.1-0.1-0.2,0-0.2c0.5-0.3,0.9-0.7,1.4-1
		c0,0,0.1,0,0.2,0c0,0,0,0.1,0,0.2C-95.5,12.9-95.9,13.2-96.5,13.6C-96.5,13.6-96.5,13.6-96.5,13.6z M-113.8,11.5
		C-113.8,11.5-113.8,11.5-113.8,11.5c-0.5-0.5-0.8-0.9-1.2-1.4c0,0,0-0.1,0-0.1c0,0,0.1,0,0.1,0c0.3,0.5,0.7,0.9,1.1,1.3
		C-113.6,11.4-113.6,11.4-113.8,11.5C-113.7,11.5-113.7,11.5-113.8,11.5z M-93.9,11.4C-93.9,11.4-93.9,11.4-93.9,11.4
		c-0.1-0.1-0.1-0.1-0.1-0.2c0.4-0.4,0.7-0.9,1.1-1.3c0,0,0.1-0.1,0.1,0c0,0,0.1,0.1,0,0.1C-93,10.4-93.4,10.9-93.9,11.4
		C-93.8,11.4-93.9,11.4-93.9,11.4z M-115.8,8.7C-115.8,8.7-115.8,8.7-115.8,8.7c-0.4-0.6-0.6-1.1-0.8-1.6c0-0.1,0-0.1,0.1-0.1
		c0.1,0,0.1,0,0.1,0.1c0.2,0.5,0.5,1,0.7,1.5C-115.6,8.6-115.7,8.7-115.8,8.7C-115.7,8.7-115.8,8.7-115.8,8.7z M-91.9,8.6
		C-91.9,8.6-91.9,8.6-91.9,8.6C-92,8.5-92,8.5-92,8.4c0.3-0.5,0.5-1,0.7-1.6c0-0.1,0.1-0.1,0.1-0.1c0.1,0,0.1,0.1,0.1,0.1
		c-0.2,0.5-0.4,1.1-0.7,1.6C-91.8,8.5-91.9,8.6-91.9,8.6z M-117,5.6C-117.1,5.6-117.1,5.5-117,5.6c-0.2-0.6-0.3-1.2-0.4-1.8
		c0-0.1,0-0.1,0.1-0.1c0.1,0,0.1,0,0.1,0.1c0.1,0.6,0.2,1.1,0.3,1.7C-116.9,5.5-116.9,5.5-117,5.6C-117,5.6-117,5.6-117,5.6z
		 M-90.7,5.6C-90.7,5.6-90.7,5.6-90.7,5.6c-0.1,0-0.1-0.1-0.1-0.1c0.1-0.5,0.2-1.1,0.3-1.7c0-0.1,0.1-0.1,0.1-0.1
		c0.1,0,0.1,0.1,0.1,0.1c-0.1,0.6-0.2,1.1-0.3,1.7C-90.6,5.5-90.7,5.6-90.7,5.6z M-117.4,2.2c-0.1,0-0.1-0.1-0.1-0.1
		c0-0.5,0-0.9,0.1-1.4c0-0.1,0-0.2,0-0.4c0-0.1,0.1-0.1,0.1-0.1c0,0,0,0,0,0c0.1,0,0.1,0.1,0.1,0.1c0,0.1,0,0.2,0,0.4
		c0,0.4-0.1,0.9-0.1,1.3C-117.3,2.1-117.4,2.2-117.4,2.2L-117.4,2.2z M-90.4,2.4c-0.1,0-0.1-0.1-0.1-0.1c0-0.6,0-1.1-0.1-1.7
		c0-0.1,0-0.1,0.1-0.1c0.1,0,0.1,0,0.1,0.1c0.1,0.6,0.1,1.2,0.1,1.7C-90.2,2.3-90.3,2.4-90.4,2.4C-90.4,2.4-90.4,2.4-90.4,2.4z
		 M-117-1.2C-117-1.2-117-1.2-117-1.2c-0.1,0-0.1-0.1-0.1-0.1c0.1-0.6,0.3-1.1,0.5-1.6c0-0.1,0.1-0.1,0.1-0.1c0.1,0,0.1,0.1,0.1,0.1
		c-0.2,0.5-0.4,1.1-0.5,1.6C-116.9-1.3-116.9-1.2-117-1.2z M-90.7-0.7C-90.7-0.7-90.8-0.8-90.7-0.7c-0.2-0.6-0.4-1.2-0.6-1.7
		c0-0.1,0-0.1,0.1-0.1c0.1,0,0.1,0,0.1,0.1c0.2,0.5,0.4,1.1,0.5,1.7C-90.6-0.8-90.6-0.8-90.7-0.7C-90.7-0.7-90.7-0.7-90.7-0.7z
		 M-115.7-4.4C-115.7-4.4-115.7-4.4-115.7-4.4c-0.1,0-0.1-0.1-0.1-0.2c0.3-0.5,0.6-1,0.9-1.4c0,0,0.1-0.1,0.2,0c0,0,0.1,0.1,0,0.1
		c-0.3,0.5-0.7,0.9-0.9,1.4C-115.6-4.4-115.7-4.4-115.7-4.4z M-91.9-4C-91.9-4-91.9-4-91.9-4c-0.3-0.6-0.6-1.1-1-1.5
		c0,0,0-0.1,0-0.1c0,0,0.1,0,0.1,0c0.3,0.5,0.6,1,0.9,1.5C-91.7-4.1-91.7-4-91.9-4C-91.8-4-91.8-4-91.9-4z M-113.7-7.2
		C-113.7-7.2-113.7-7.2-113.7-7.2c-0.1-0.1-0.1-0.1-0.1-0.2c0.4-0.4,0.8-0.8,1.3-1.2c0,0,0.1,0,0.2,0c0,0,0,0.1,0,0.2
		C-112.8-8-113.2-7.6-113.7-7.2C-113.6-7.2-113.6-7.2-113.7-7.2z M-93.8-6.8C-93.8-6.8-93.8-6.8-93.8-6.8c-0.4-0.5-0.9-0.9-1.3-1.2
		c0,0-0.1-0.1,0-0.2c0,0,0.1-0.1,0.2,0c0.4,0.4,0.8,0.8,1.2,1.2C-93.7-6.9-93.7-6.8-93.8-6.8C-93.7-6.8-93.8-6.8-93.8-6.8z
		 M-111-9.3C-111-9.3-111.1-9.3-111-9.3c-0.1-0.1-0.1-0.2,0-0.2c0.5-0.3,1-0.6,1.5-0.8c0.1,0,0.1,0,0.1,0.1c0,0.1,0,0.1-0.1,0.1
		C-109.9-9.9-110.4-9.6-111-9.3C-110.9-9.3-111-9.3-111-9.3z M-96.4-9C-96.4-9-96.4-9-96.4-9c-0.5-0.3-1-0.6-1.5-0.9
		c-0.1,0-0.1-0.1,0-0.1c0-0.1,0.1-0.1,0.1,0c0.5,0.3,1,0.6,1.5,0.9C-96.3-9.2-96.2-9.1-96.4-9C-96.3-9-96.3-9-96.4-9z M-107.9-10.7
		C-107.9-10.7-108-10.7-107.9-10.7c-0.1-0.1-0.1-0.2,0-0.2c0.6-0.2,1.1-0.3,1.7-0.4c0.1,0,0.1,0,0.1,0.1c0,0.1,0,0.1-0.1,0.1
		C-106.7-11-107.3-10.9-107.9-10.7C-107.8-10.7-107.9-10.7-107.9-10.7z M-99.4-10.6C-99.4-10.6-99.5-10.6-99.4-10.6
		c-0.6-0.2-1.1-0.3-1.7-0.5c-0.1,0-0.1-0.1-0.1-0.1c0-0.1,0.1-0.1,0.1-0.1c0.6,0.1,1.1,0.3,1.7,0.5c0.1,0,0.1,0.1,0.1,0.1
		C-99.3-10.6-99.4-10.6-99.4-10.6z M-104.5-11.3c-0.1,0-0.1,0-0.1-0.1c0-0.1,0-0.1,0.1-0.1c0.6,0,1.2,0,1.7,0c0,0,0,0,0,0
		c0.1,0,0.1,0.1,0.1,0.1c0,0.1-0.1,0.1-0.1,0.1C-103.4-11.3-103.9-11.3-104.5-11.3C-104.5-11.3-104.5-11.3-104.5-11.3z"/>
</g>
<g>
	<path class="st0" d="M-106.9,143.1l-1.7-2.8c-0.1-0.2-0.3-0.3-0.5-0.3c-0.2,0-0.4,0.1-0.5,0.3l-1.7,2.8c-0.1,0.1-0.3,0.5-0.3,1
		c0,1.5,0.9,2.5,2.4,2.5c0,0,0,0,0.1,0c0,0,0,0,0.1,0h0h0c0,0,0,0,0,0c0,0,0.1,0,0.1,0c1.5-0.1,2.4-1,2.4-2.5
		C-106.6,143.6-106.8,143.2-106.9,143.1 M-109,145.1C-109,145.1-109,145.1-109,145.1L-109,145.1C-109,145.1-109,145.1-109,145.1
		L-109,145.1L-109,145.1C-109,145.1-109,145.1-109,145.1c-0.1,0-0.1,0-0.1,0c-0.7,0-1.1-0.4-1.1-1.1c0-0.2,0.1-0.4,0.1-0.5l0.8-1.3
		c0-0.1,0.1-0.1,0.2-0.1s0.2,0,0.2,0.1l0.8,1.3c0,0.1,0.1,0.2,0.1,0.5C-107.9,144.7-108.3,145.1-109,145.1"/>
	<path class="st0" d="M-106.2,138.7h-0.8c0-0.2,0.1-0.5,0.1-0.5c0,0,0,0,0-0.1h12v5.3c0,0.9,0.4,1.8,0.9,2.4c2-1.9,4.8-5.5,4.8-10.7
		c0-5.8-3.6-9.2-5.5-10.6c-0.1,0.4-0.2,0.8-0.2,1.2v6.7h-3.8c-0.1-0.9-0.7-1.7-1.5-2.1v-1c0.1,0.1,0.3,0.2,0.6,0.2
		c1,0,1.5-0.6,1.6-1.5c0,0,0,0,0,0c0,0,0,0,0,0v0v0c0,0,0,0,0,0c0,0,0,0,0,0c0-1-0.6-1.5-1.6-1.5c-0.3,0-0.6,0.1-0.7,0.2l-1.6,1
		l-1.6-1c-0.1-0.1-0.3-0.2-0.6-0.2c-1,0-1.5,0.6-1.6,1.5c0,0,0,0,0,0v0v0v0v0c0,0,0,0,0,0c0,1,0.6,1.5,1.6,1.5
		c0.3,0,0.6-0.1,0.6-0.2l0.5-0.3c0,0.1,0,0.2,0,0.3v0.9c-1,0.3-1.7,1.2-1.8,2.2h-2.4c-0.1,0-0.1,0-0.2,0c-0.1,0-0.2,0-0.4,0
		c-1.4,0.4-4,1.8-4.3,6.1c0,0,0,0,0,0.1h-0.7c-0.5,0-0.8,0.4-0.8,0.8c0,0.5,0.4,0.8,0.8,0.8h6.4c0.5,0,0.8-0.4,0.8-0.8
		C-105.4,139.1-105.8,138.7-106.2,138.7"/>
</g>
<g>
	<g>
		<circle cx="111" cy="-143" r="17"/>
	</g>
	<path d="M111-125c-9.9,0-18-8.1-18-18c0-9.9,8.1-18,18-18c9.9,0,18,8.1,18,18C129-133.1,120.9-125,111-125 M111-159.2
		c-8.9,0-16.2,7.3-16.2,16.2c0,8.9,7.3,16.2,16.2,16.2c8.9,0,16.2-7.3,16.2-16.2C127.2-151.9,119.9-159.2,111-159.2"/>
	<polygon class="st0" points="114.5,-145.6 101.3,-152 101.3,-150.8 114.1,-144.7 	"/>
	<path class="st0" d="M104.1-144.6l-1.3-0.7c-0.4-0.2-0.9-0.1-1.2,0.3c-0.2,0.4-0.1,0.9,0.3,1.2l2,1.2v9.8c0,0.8,0.7,1.5,1.5,1.5
		c0.8,0,1.5-0.7,1.5-1.5l0-3.8l2.7,4.6c0.4,0.7,1.3,0.9,2,0.5c0.7-0.4,0.9-1.3,0.5-2l-2.5-4.2h5.6v5c0,0.8,0.7,1.5,1.5,1.5
		c0.8,0,1.5-0.7,1.5-1.5v-5c0.4,0,0.5-0.3,0.5-0.6v-3.7l-4.7-2.3H104.1z"/>
	<polygon class="st0" points="114.6,-151.4 114.6,-145.6 118.8,-143.6 118.8,-144.4 122.3,-144.4 123.5,-147.2 	"/>
</g>
<g>
	<path class="st0" d="M-112.3,57.1C-112.3,57.1-112.3,57.1-112.3,57.1c-0.7-0.1-1.2-0.4-1.7-0.8c0,0,0-0.1,0-0.2c0,0,0.1,0,0.2,0
		c0.4,0.4,0.9,0.7,1.5,0.8c0.1,0,0.1,0.1,0.1,0.1C-112.2,57.1-112.3,57.1-112.3,57.1 M-110.5,57c-0.1,0-0.1,0-0.1-0.1
		c0-0.1,0-0.1,0.1-0.1c0.6-0.1,1.2-0.4,1.6-0.8c0,0,0.1,0,0.2,0c0,0,0,0.1,0,0.2C-109.3,56.6-109.8,56.9-110.5,57
		C-110.5,57-110.5,57-110.5,57 M-114.9,54.8c0,0-0.1,0-0.1-0.1c-0.2-0.5-0.4-1.1-0.5-1.8c0-0.1,0-0.1,0.1-0.1c0.1,0,0.1,0,0.1,0.1
		c0.1,0.7,0.3,1.2,0.4,1.7C-114.8,54.7-114.8,54.8-114.9,54.8C-114.9,54.8-114.9,54.8-114.9,54.8 M-108,54.7
		C-108,54.7-108,54.7-108,54.7c-0.1,0-0.1-0.1-0.1-0.1c0.1-0.4,0.1-0.8,0.1-1.1c0-0.2,0-0.3,0-0.3l0-0.4c0-0.1,0.1-0.1,0.1-0.1
		c0.1,0,0.1,0.1,0.1,0.1v0.4c0,0,0,0.1,0,0.3c0,0.3,0,0.7-0.1,1.1C-107.9,54.7-107.9,54.7-108,54.7 M-100.8,54.1
		c-0.1,0-0.1,0-0.1-0.1c-0.1-0.3-0.1-0.6-0.1-0.6v-1.2c0-0.1,0.1-0.1,0.1-0.1c0.1,0,0.1,0.1,0.1,0.1v1.2c0,0,0,0.3,0.1,0.6
		C-100.7,54.1-100.8,54.1-100.8,54.1C-100.8,54.1-100.8,54.1-100.8,54.1 M-115.5,51.2c-0.1,0-0.1,0-0.1-0.1c0-0.1,0-0.3,0-0.4
		c0-0.9,0.1-1.5,0.1-1.5c0-0.1,0.1-0.1,0.1-0.1c0.1,0,0.1,0.1,0.1,0.1c0,0-0.1,0.6-0.1,1.4c0,0.1,0,0.2,0,0.4
		C-115.4,51.2-115.4,51.2-115.5,51.2L-115.5,51.2z M-97.2,57.1c0-0.1,0-0.1,0.1-0.1c0.6-0.1,1.1-0.3,1.5-0.8c0,0,0.1,0,0.2,0
		c0,0,0,0.1,0,0.2c-0.5,0.4-1,0.7-1.7,0.8c0,0,0,0,0,0C-97.1,57.1-97.2,57.1-97.2,57.1 M-98.9,57c-0.7-0.2-1.2-0.4-1.7-0.8
		c0,0,0-0.1,0-0.2c0,0,0.1-0.1,0.2,0c0.4,0.4,0.9,0.6,1.6,0.8c0.1,0,0.1,0.1,0.1,0.1C-98.8,57-98.8,57-98.9,57
		C-98.9,57-98.9,57-98.9,57 M-94.5,54.8c-0.1,0-0.1-0.1-0.1-0.1c0.2-0.5,0.3-1.1,0.4-1.7c0-0.1,0.1-0.1,0.1-0.1
		c0.1,0,0.1,0.1,0.1,0.1c-0.1,0.7-0.3,1.3-0.5,1.8C-94.4,54.8-94.4,54.8-94.5,54.8C-94.5,54.8-94.5,54.8-94.5,54.8 M-93.9,51.2
		c-0.1,0-0.1-0.1-0.1-0.1c0-0.1,0-0.3,0-0.4c0-0.8-0.1-1.4-0.1-1.4c0-0.1,0-0.1,0.1-0.1c0.1,0,0.1,0,0.1,0.1c0,0,0.1,0.6,0.1,1.5
		c0,0.1,0,0.2,0,0.4C-93.8,51.2-93.8,51.2-93.9,51.2L-93.9,51.2z M-107.9,51.1c-0.1,0-0.1,0-0.1-0.1v-1.8c0-0.1,0.1-0.1,0.1-0.1
		c0.1,0,0.1,0.1,0.1,0.1v1.8C-107.7,51-107.8,51.1-107.9,51.1 M-100.9,50.5c-0.1,0-0.1-0.1-0.1-0.1v-1.8c0-0.1,0.1-0.1,0.1-0.1
		c0.1,0,0.1,0.1,0.1,0.1v1.8C-100.8,50.4-100.8,50.5-100.9,50.5 M-107.9,47.4c-0.1,0-0.1-0.1-0.1-0.1v-1.8c0-0.1,0.1-0.1,0.1-0.1
		c0.1,0,0.1,0.1,0.1,0.1v1.8C-107.7,47.4-107.8,47.4-107.9,47.4 M-100.9,46.8c-0.1,0-0.1-0.1-0.1-0.1v-1.8c0-0.1,0.1-0.1,0.1-0.1
		c0.1,0,0.1,0.1,0.1,0.1v1.8C-100.8,46.8-100.8,46.8-100.9,46.8 M-107.9,43.8c-0.1,0-0.1-0.1-0.1-0.1v-0.1c0-0.1,0-0.9,0.2-1.7
		c0-0.1,0.1-0.1,0.1-0.1c0.1,0,0.1,0.1,0.1,0.1c-0.2,0.8-0.2,1.5-0.2,1.6v0.1C-107.7,43.7-107.8,43.8-107.9,43.8 M-100.9,43.2
		c-0.1,0-0.1-0.1-0.1-0.1v-0.4c0,0,0-0.1,0-0.3c0-0.2,0-0.6-0.1-1c0-0.1,0-0.1,0.1-0.1c0.1,0,0.1,0,0.1,0.1c0.1,0.4,0.1,0.8,0.1,1.1
		c0,0.2,0,0.3,0,0.3l0,0.4C-100.8,43.1-100.8,43.2-100.9,43.2 M-106.8,40.3C-106.9,40.3-106.9,40.3-106.8,40.3
		c-0.1-0.1-0.1-0.1-0.1-0.2c0.4-0.5,0.9-0.9,1.5-1.1c0.1,0,0.1,0,0.1,0.1c0,0.1,0,0.1-0.1,0.1C-105.9,39.4-106.4,39.8-106.8,40.3
		C-106.8,40.3-106.8,40.3-106.8,40.3 M-101.9,39.8C-102,39.8-102,39.8-101.9,39.8c-0.5-0.4-1-0.6-1.7-0.7c-0.1,0-0.1-0.1-0.1-0.1
		c0-0.1,0.1-0.1,0.1-0.1c0.7,0.1,1.3,0.3,1.7,0.7C-101.8,39.7-101.8,39.7-101.9,39.8C-101.9,39.8-101.9,39.8-101.9,39.8"/>
	<path class="st0" d="M-112.3,57.6c0,0-0.1,0-0.1,0c-0.7-0.1-1.4-0.4-1.9-0.9c-0.2-0.2-0.2-0.6,0-0.8c0.2-0.2,0.6-0.2,0.8,0
		c0.4,0.3,0.8,0.6,1.3,0.6c0.3,0,0.6,0.3,0.5,0.7C-111.8,57.4-112,57.6-112.3,57.6 M-97,57.6c-0.4,0-0.6-0.2-0.7-0.5c0,0,0,0,0,0
		c0-0.3,0.2-0.6,0.5-0.7c0.5-0.1,0.9-0.3,1.3-0.6c0.2-0.2,0.6-0.2,0.8,0c0.2,0.2,0.2,0.6,0,0.8C-95.6,57.2-96.2,57.5-97,57.6
		L-97,57.6z M-98.9,57.5c0,0-0.1,0-0.1,0c-0.8-0.2-1.4-0.5-1.9-0.9c-0.1-0.1-0.2-0.3-0.2-0.4c0-0.2,0-0.3,0.2-0.4
		c0.1-0.1,0.3-0.2,0.4-0.2c0.2,0,0.3,0.1,0.4,0.2c0.3,0.3,0.8,0.5,1.3,0.7c0.3,0.1,0.5,0.4,0.4,0.7C-98.4,57.3-98.6,57.5-98.9,57.5
		 M-100.2,55.9C-100.2,55.9-100.2,55.9-100.2,55.9C-100.2,55.9-100.2,55.9-100.2,55.9 M-110.5,57.5c-0.3,0-0.5-0.2-0.6-0.5
		c-0.1-0.3,0.1-0.6,0.4-0.7c0.5-0.1,1-0.3,1.3-0.7c0.1-0.1,0.3-0.2,0.4-0.2c0.2,0,0.3,0.1,0.4,0.2c0.1,0.1,0.2,0.3,0.2,0.4
		c0,0.2-0.1,0.3-0.2,0.4c-0.5,0.4-1.1,0.8-1.9,0.9C-110.4,57.5-110.5,57.5-110.5,57.5 M-108.7,56.4
		C-108.7,56.4-108.7,56.4-108.7,56.4C-108.7,56.4-108.7,56.4-108.7,56.4 M-94.5,55.3c-0.1,0-0.1,0-0.2,0c0,0,0,0,0,0
		c-0.1-0.1-0.3-0.2-0.3-0.3c-0.1-0.1-0.1-0.3,0-0.5c0.2-0.5,0.3-1,0.4-1.6c0-0.3,0.3-0.5,0.6-0.5c0.4,0.1,0.6,0.4,0.5,0.7
		c-0.1,0.7-0.3,1.3-0.5,1.9C-94,55.2-94.2,55.3-94.5,55.3 M-114.9,55.3c-0.2,0-0.5-0.1-0.6-0.4c-0.2-0.5-0.4-1.2-0.5-1.9
		c0-0.3,0.2-0.6,0.5-0.7c0.3,0,0.6,0.2,0.7,0.5c0.1,0.6,0.2,1.2,0.4,1.6c0,0.1,0,0.3,0,0.5c-0.1,0.1-0.2,0.3-0.3,0.3
		C-114.7,55.3-114.8,55.3-114.9,55.3 M-114.6,54.6L-114.6,54.6L-114.6,54.6z M-115,52.9L-115,52.9L-115,52.9z M-108,55.2
		c0,0-0.1,0-0.2,0c-0.3-0.1-0.5-0.4-0.4-0.7c0.1-0.4,0.1-0.7,0.1-0.9c0-0.1,0-0.2,0-0.2l0-0.5c0-0.3,0.3-0.6,0.6-0.6
		c0.3,0,0.6,0.3,0.6,0.6v0.4c0,0.1,0,0.2,0,0.3c0,0.3,0,0.7-0.2,1.2C-107.5,55-107.7,55.2-108,55.2 M-100.8,54.6
		c-0.3,0-0.5-0.2-0.6-0.5c-0.1-0.4-0.1-0.6-0.1-0.7v-1.2c0-0.3,0.3-0.6,0.6-0.6c0.3,0,0.6,0.3,0.6,0.6v1.2c0,0,0,0.2,0.1,0.5
		c0.1,0.3-0.1,0.6-0.5,0.7C-100.8,54.6-100.8,54.6-100.8,54.6 M-100.8,53.6v0.5V53.6L-100.8,53.6z M-101.2,54.1
		C-101.2,54.1-101.2,54.1-101.2,54.1C-101.2,54.1-101.2,54.1-101.2,54.1 M-100.5,53.9L-100.5,53.9L-100.5,53.9z M-93.9,51.7
		L-93.9,51.7c-0.3,0-0.6-0.3-0.6-0.6l0-0.4c0-0.8-0.1-1.4-0.1-1.4c0-0.1,0.1-0.3,0.1-0.4c0.1-0.1,0.2-0.2,0.4-0.2
		c0.1,0,0.3,0,0.4,0.1c0.1,0.1,0.2,0.3,0.2,0.4c0,0,0.1,0.7,0.1,1.5c0,0.1,0,0.3,0,0.4C-93.3,51.5-93.6,51.7-93.9,51.7 M-94.3,49.4
		L-94.3,49.4L-94.3,49.4z M-115.5,51.7c-0.3,0-0.6-0.3-0.6-0.6c0-0.1,0-0.3,0-0.4c0-0.9,0.1-1.5,0.1-1.5c0-0.2,0.1-0.3,0.2-0.4
		c0.1-0.1,0.3-0.1,0.5-0.1c0.1,0,0.2,0.1,0.3,0.2c0.1,0.1,0.1,0.3,0.1,0.4c0,0-0.1,0.6-0.1,1.4l0,0.4
		C-114.9,51.4-115.2,51.7-115.5,51.7L-115.5,51.7z M-115.1,51.1L-115.1,51.1L-115.1,51.1z M-115.1,49.3L-115.1,49.3L-115.1,49.3z
		 M-107.9,51.5c-0.3,0-0.6-0.3-0.6-0.6v-1.8c0-0.3,0.3-0.6,0.6-0.6c0.3,0,0.6,0.3,0.6,0.6v1.8C-107.3,51.3-107.5,51.5-107.9,51.5
		 M-100.9,51c-0.3,0-0.6-0.3-0.6-0.6v-1.8c0-0.3,0.3-0.6,0.6-0.6c0.3,0,0.6,0.3,0.6,0.6v1.8C-100.3,50.7-100.6,51-100.9,51
		 M-107.9,47.9c-0.3,0-0.6-0.3-0.6-0.6v-1.8c0-0.3,0.3-0.6,0.6-0.6c0.3,0,0.6,0.3,0.6,0.6v1.8C-107.3,47.6-107.5,47.9-107.9,47.9
		 M-100.9,47.3c-0.3,0-0.6-0.3-0.6-0.6v-1.8c0-0.3,0.3-0.6,0.6-0.6c0.3,0,0.6,0.3,0.6,0.6v1.8C-100.3,47-100.6,47.3-100.9,47.3
		 M-107.9,44.2c-0.3,0-0.6-0.3-0.6-0.6v-0.1c0-0.1,0-0.9,0.3-1.8c0.1-0.3,0.4-0.5,0.7-0.4c0.3,0.1,0.5,0.4,0.4,0.7
		c-0.2,0.8-0.2,1.4-0.2,1.5v0.1C-107.3,44-107.5,44.2-107.9,44.2 M-100.9,43.7c-0.3,0-0.6-0.3-0.6-0.6v-0.4c0-0.1,0-0.2,0-0.3
		c0-0.2,0-0.6-0.1-0.9c0-0.1,0-0.3,0.1-0.5c0.1-0.1,0.2-0.2,0.4-0.3c0.1,0,0.3,0,0.4,0.1c0.1,0.1,0.2,0.2,0.3,0.4
		c0.1,0.5,0.2,0.9,0.2,1.2c0,0.2,0,0.4,0,0.4l0,0.4C-100.3,43.4-100.6,43.7-100.9,43.7 M-100.5,43.1L-100.5,43.1L-100.5,43.1z
		 M-106.8,40.8c-0.1,0-0.3-0.1-0.4-0.1c-0.3-0.2-0.3-0.6-0.1-0.8c0.5-0.6,1-1,1.7-1.2c0.1,0,0.3,0,0.4,0c0.1,0.1,0.3,0.2,0.3,0.3
		c0.1,0.3-0.1,0.7-0.4,0.8c-0.5,0.2-0.9,0.4-1.2,0.8C-106.5,40.7-106.7,40.8-106.8,40.8 M-107.1,40C-107.1,40-107.1,40-107.1,40
		C-107.1,40-107.1,40-107.1,40 M-105.3,39.5C-105.3,39.5-105.3,39.5-105.3,39.5C-105.3,39.5-105.3,39.5-105.3,39.5 M-105.5,38.8
		C-105.5,38.8-105.5,38.8-105.5,38.8C-105.5,38.8-105.5,38.8-105.5,38.8 M-101.9,40.3c-0.1,0-0.3-0.1-0.4-0.1
		c-0.3-0.3-0.8-0.5-1.3-0.5c-0.1,0-0.3-0.1-0.4-0.2c-0.1-0.1-0.1-0.3-0.1-0.4c0-0.1,0.1-0.3,0.2-0.4c0.1-0.1,0.3-0.1,0.5-0.1
		c0.8,0.1,1.4,0.4,1.9,0.8c0.2,0.2,0.3,0.6,0.1,0.8C-101.6,40.2-101.8,40.3-101.9,40.3 M-103.5,38.7
		C-103.5,38.7-103.5,38.7-103.5,38.7C-103.5,38.7-103.5,38.7-103.5,38.7"/>
	<path class="st0" d="M-91.2,40.1L-91.2,40.1c-0.1-1.6-1.4-2.9-3-2.9c-1.6,0-3,1.3-3,2.9h0c0,0,0,0,0,0c0,0,0,0,0,0.1
		c0,0.1,0,0.3,0,0.4c0.1,0.9,0.5,2.9,3,4.6c2.5-1.7,2.9-3.7,3-4.6C-91.3,40.4-91.2,40.3-91.2,40.1C-91.2,40.1-91.2,40.1-91.2,40.1
		C-91.2,40.1-91.2,40.1-91.2,40.1 M-94.3,42.4c-1.2,0-2.3-1-2.3-2.3c0-1.2,1-2.3,2.3-2.3c1.2,0,2.3,1,2.3,2.3
		C-92,41.4-93,42.4-94.3,42.4"/>
	<path class="st0" d="M-93.3,40C-93.4,40-93.4,40-93.3,40c0,0.1,0,0.1,0,0.1c0,0,0,0,0,0c0.2,0.1,0.3,0.2,0.4,0.4
		c0.1,0.1,0.1,0.2,0.1,0.3c0,0.1,0,0.2,0,0.3c0,0.1-0.1,0.2-0.1,0.2s-0.1,0.1-0.2,0.2c-0.1,0.1-0.3,0.2-0.5,0.2c-0.1,0-0.2,0-0.3,0
		c-0.1,0-0.2,0-0.3,0c-0.1,0-0.3,0-0.4,0c-0.1,0-0.3,0-0.4,0c0,0-0.1,0-0.1,0c0,0-0.1,0-0.1-0.1c0,0,0-0.1,0-0.1c0,0,0-0.1,0-0.1
		c0-0.1,0-0.3,0-0.4s0-0.3,0-0.4c0-0.2,0-0.3,0-0.5c0-0.2,0-0.3,0-0.5c0-0.1,0-0.1,0-0.2c0-0.1,0-0.1,0-0.2c0-0.1,0-0.2,0-0.3
		c0-0.1,0-0.2,0-0.3c0,0,0-0.1,0-0.1c0,0,0-0.1,0-0.1c0,0,0,0,0-0.1c0,0,0,0,0,0c0.1,0,0.3,0,0.4,0c0.1,0,0.3,0,0.4,0
		c0.1,0,0.1,0,0.2,0c0.1,0,0.1,0,0.2,0c0.1,0,0.2,0,0.3,0.1c0.1,0,0.2,0.1,0.3,0.2c0.1,0,0.1,0.1,0.1,0.1c0,0,0.1,0.1,0.1,0.2
		c0,0.1,0.1,0.1,0.1,0.2c0,0.1,0,0.1,0,0.2c0,0.1,0,0.1,0,0.2c0,0.1,0,0.1-0.1,0.1c0,0-0.1,0.1-0.1,0.1
		C-93.3,39.9-93.3,39.9-93.3,40 M-94.5,39.7L-94.5,39.7c0,0.1,0.1,0.1,0.2,0.1c0,0,0.1,0,0.1,0s0.1,0,0.1,0c0,0,0.1,0,0.1,0
		c0,0,0.1,0,0.1,0c0,0,0.1,0,0.1-0.1c0,0,0-0.1,0.1-0.1c0-0.1,0-0.1,0-0.2c0-0.1,0-0.1-0.1-0.1c0,0-0.1-0.1-0.1-0.1
		c-0.1,0-0.1-0.1-0.2-0.1c-0.1,0-0.2,0-0.2,0c0,0-0.1,0-0.1,0c0,0,0,0,0,0.1c0,0.1,0,0.2,0,0.3C-94.5,39.5-94.5,39.6-94.5,39.7
		 M-94.4,40.4C-94.4,40.4-94.4,40.4-94.4,40.4c-0.1,0-0.1,0-0.1,0.1v0v0.3c0,0.1,0,0.1,0,0.2c0,0.1,0,0.1,0,0.2c0,0,0,0.1,0.1,0.1
		c0.1,0,0.2,0,0.2,0c0.1,0,0.2,0,0.2,0c0.1,0,0.1,0,0.2-0.1c0.1-0.1,0.1-0.1,0.1-0.2c0-0.1,0-0.1,0-0.1c0,0-0.1-0.1-0.1-0.1
		c-0.1-0.1-0.1-0.1-0.2-0.1c-0.1,0-0.2-0.1-0.2-0.1C-94.3,40.4-94.3,40.4-94.4,40.4C-94.3,40.4-94.4,40.4-94.4,40.4"/>
	<path class="st0" d="M-114.5,47.1c-0.3,0.4-0.9,0.4-1.3,0.1c-0.4-0.3-0.4-0.9-0.1-1.3c0.3-0.4,0.9-0.4,1.3-0.1
		C-114.2,46.2-114.1,46.8-114.5,47.1"/>
	<path class="st0" d="M-93.4,47.2c-0.3,0.4-0.9,0.4-1.3,0.1c-0.4-0.3-0.4-0.9-0.1-1.3c0.3-0.4,0.9-0.4,1.3-0.1
		C-93.1,46.3-93.1,46.9-93.4,47.2"/>
	<path class="st0" d="M-111.7,39.5L-111.7,39.5c-0.1-1.8-1.5-3.2-3.3-3.2c-1.8,0-3.2,1.4-3.3,3.2h0c0,0,0,0,0,0c0,0,0,0,0,0.1
		c0,0.1,0,0.3,0,0.4c0.1,1,0.6,3.1,3.3,5c2.7-1.9,3.2-4,3.3-5c0-0.1,0-0.3,0-0.4C-111.7,39.6-111.7,39.6-111.7,39.5
		C-111.7,39.6-111.7,39.6-111.7,39.5 M-115,42.1c-1.4,0-2.5-1.1-2.5-2.5c0-1.4,1.1-2.5,2.5-2.5c1.4,0,2.5,1.1,2.5,2.5
		C-112.5,41-113.6,42.1-115,42.1"/>
	<path class="st0" d="M-113.5,41.1C-113.5,41.1-113.5,41.1-113.5,41.1c0,0.1-0.1,0.1-0.1,0.1c0,0-0.1,0-0.1,0c0,0-0.1,0-0.1,0h-0.1
		h-0.1c-0.1,0-0.1,0-0.1-0.1c0-0.1-0.1-0.2-0.1-0.2c0-0.1-0.1-0.2-0.1-0.2c0-0.1-0.1-0.2-0.1-0.3c0,0,0,0,0,0c0,0,0,0-0.1,0
		c-0.1,0-0.1,0-0.2,0c-0.1,0-0.1,0-0.2,0c-0.1,0-0.1,0-0.2,0c-0.1,0-0.1,0-0.2,0c0,0,0,0,0,0c0,0.1,0,0.1,0,0.2c0,0.1,0,0.1,0,0.2
		c0,0,0,0.1,0,0.1s0,0.1,0,0.1c0,0.1,0,0.1,0,0.2c0,0,0,0.1,0,0.2c0,0,0,0,0,0.1c0,0,0,0-0.1,0h-0.1c0,0-0.1,0-0.1,0
		c0,0-0.1,0-0.1,0c0,0-0.1,0-0.2,0c0,0-0.1,0-0.1-0.1c0,0,0-0.1,0-0.1c0,0,0-0.1,0-0.1s0,0,0,0c0-0.1,0.1-0.2,0.1-0.3
		c0-0.1,0.1-0.2,0.1-0.3c0-0.1,0.1-0.3,0.1-0.4c0-0.1,0.1-0.3,0.1-0.4c0-0.1,0.1-0.2,0.1-0.3c0-0.1,0.1-0.2,0.1-0.4
		c0-0.1,0.1-0.2,0.1-0.3c0-0.1,0.1-0.2,0.1-0.3c0-0.1,0-0.2,0.1-0.2c0-0.1,0-0.2,0.1-0.2c0,0,0,0,0-0.1c0,0,0,0,0-0.1
		c0,0,0-0.1,0.1-0.1c0,0,0.1,0,0.1,0c0.1,0,0.2,0,0.3,0c0.1,0,0.2,0,0.3,0c0,0,0.1,0,0.1,0c0,0,0,0.1,0,0.1c0,0.1,0,0.1,0.1,0.2
		c0,0,0,0.1,0.1,0.2c0,0.1,0,0.1,0.1,0.2c0,0.1,0,0.1,0.1,0.2c0.1,0.2,0.1,0.3,0.2,0.5s0.1,0.3,0.2,0.5c0,0.1,0.1,0.2,0.1,0.3
		c0,0.1,0,0.2,0.1,0.3c0,0.1,0.1,0.2,0.1,0.3c0,0.1,0.1,0.2,0.1,0.3c0,0.1,0.1,0.2,0.1,0.3C-113.6,40.9-113.5,41-113.5,41.1
		 M-114.8,39.5C-114.7,39.5-114.7,39.5-114.8,39.5C-114.7,39.5-114.7,39.5-114.8,39.5c0-0.2,0-0.2,0-0.3c0-0.1,0-0.2-0.1-0.2
		c0,0,0-0.1,0-0.1c0,0,0-0.1,0-0.1c0,0,0,0,0,0c0,0,0,0,0,0c0,0,0,0,0,0.1c0,0,0,0.1,0,0.1l-0.1,0.3c0,0,0,0.1,0,0.1
		c0,0,0,0.1,0,0.1v0c0,0,0,0,0,0l0.1,0c0.1,0,0.1,0,0.2,0C-114.9,39.5-114.8,39.5-114.8,39.5"/>
</g>
<g>
	<path class="st0" d="M-95.5,95.9H-97c-0.1,0-0.3-0.1-0.3-0.3v-0.2c0-0.1,0.1-0.3,0.3-0.3h1.4c0.1,0,0.3,0.1,0.3,0.3v0.2
		C-95.3,95.8-95.4,95.9-95.5,95.9 M-99,95.9h-1.4c-0.1,0-0.3-0.1-0.3-0.3v-0.2c0-0.1,0.1-0.3,0.3-0.3h1.4c0.1,0,0.3,0.1,0.3,0.3v0.2
		C-98.7,95.8-98.9,95.9-99,95.9 M-102.4,95.9h-1.4c-0.1,0-0.3-0.1-0.3-0.3v-0.2c0-0.1,0.1-0.3,0.3-0.3h1.4c0.1,0,0.3,0.1,0.3,0.3
		v0.2C-102.1,95.8-102.3,95.9-102.4,95.9 M-105.5,95.9h-1.4c-0.1,0-0.3-0.1-0.3-0.3v-0.2c0-0.1,0.1-0.3,0.3-0.3h1.4
		c0.1,0,0.3,0.1,0.3,0.3v0.2C-105.2,95.8-105.4,95.9-105.5,95.9 M-108.5,95.9h-1.4c-0.1,0-0.3-0.1-0.3-0.3v-0.2
		c0-0.1,0.1-0.3,0.3-0.3h1.4c0.1,0,0.3,0.1,0.3,0.3v0.2C-108.2,95.8-108.3,95.9-108.5,95.9 M-111.6,95.9h-1.4
		c-0.1,0-0.3-0.1-0.3-0.3v-0.2c0-0.1,0.1-0.3,0.3-0.3h1.4c0.1,0,0.3,0.1,0.3,0.3v0.2C-111.3,95.8-111.4,95.9-111.6,95.9"/>
	<path class="st0" d="M-90.6,89.9L-90.6,89.9c0-1.3-1.1-2.3-2.3-2.3c-1.3,0-2.3,1-2.3,2.3h0c0,0,0,0,0,0c0,0,0,0,0,0
		c0,0.1,0,0.2,0,0.3c0.1,0.7,0.4,2.2,2.3,3.6c1.9-1.4,2.2-2.9,2.3-3.6C-90.6,90.2-90.6,90.1-90.6,89.9C-90.6,90-90.6,90-90.6,89.9
		C-90.6,89.9-90.6,89.9-90.6,89.9 M-92.9,91.7c-1,0-1.7-0.8-1.7-1.7c0-1,0.8-1.7,1.7-1.7c1,0,1.7,0.8,1.7,1.7
		C-91.2,90.9-92,91.7-92.9,91.7"/>
	<path class="st0" d="M-92.2,89.9C-92.2,89.9-92.3,89.9-92.2,89.9C-92.2,89.9-92.2,89.9-92.2,89.9c0,0.1,0,0.1,0,0.1
		c0.1,0.1,0.2,0.2,0.3,0.3c0,0.1,0.1,0.1,0.1,0.2c0,0.1,0,0.2,0,0.2c0,0.1-0.1,0.1-0.1,0.2c0,0-0.1,0.1-0.1,0.1
		c-0.1,0.1-0.2,0.2-0.4,0.2c-0.1,0-0.1,0-0.2,0c-0.1,0-0.1,0-0.2,0c-0.1,0-0.2,0-0.3,0c-0.1,0-0.2,0-0.3,0c0,0-0.1,0-0.1,0
		c0,0,0,0-0.1-0.1c0,0,0-0.1,0-0.1c0,0,0-0.1,0-0.1c0-0.1,0-0.2,0-0.3c0-0.1,0-0.2,0-0.3c0-0.1,0-0.2,0-0.3c0-0.1,0-0.2,0-0.4
		c0-0.1,0-0.1,0-0.2c0-0.1,0-0.1,0-0.2c0-0.1,0-0.1,0-0.2c0-0.1,0-0.1,0-0.2c0,0,0-0.1,0-0.1c0,0,0-0.1,0-0.1c0,0,0,0,0,0
		c0,0,0,0,0,0c0.1,0,0.2,0,0.3,0c0.1,0,0.2,0,0.3,0c0,0,0.1,0,0.1,0c0,0,0.1,0,0.1,0c0.1,0,0.2,0,0.2,0c0.1,0,0.1,0.1,0.2,0.1
		c0,0,0.1,0.1,0.1,0.1c0,0,0.1,0.1,0.1,0.1c0,0.1,0,0.1,0,0.2c0,0.1,0,0.1,0,0.2c0,0,0,0.1,0,0.1c0,0,0,0.1-0.1,0.1
		C-92.1,89.7-92.1,89.7-92.2,89.9C-92.2,89.8-92.2,89.8-92.2,89.9 M-93.1,89.6L-93.1,89.6c0,0.1,0,0.1,0.1,0.1c0,0,0,0,0.1,0
		c0,0,0,0,0.1,0c0,0,0.1,0,0.1,0c0,0,0,0,0.1,0c0,0,0,0,0.1,0c0,0,0,0,0-0.1c0-0.1,0-0.1,0-0.2c0,0,0-0.1,0-0.1s-0.1-0.1-0.1-0.1
		c-0.1,0-0.1,0-0.2-0.1c-0.1,0-0.1,0-0.2,0c0,0,0,0,0,0c0,0,0,0,0,0c0,0.1,0,0.2,0,0.2C-93.1,89.5-93.1,89.5-93.1,89.6 M-93,90.1
		C-93.1,90.1-93.1,90.1-93,90.1C-93.1,90.2-93.1,90.2-93,90.1L-93,90.1l-0.1,0.3c0,0.1,0,0.1,0,0.2c0,0.1,0,0.1,0,0.2c0,0,0,0.1,0,0
		c0.1,0,0.1,0,0.2,0c0.1,0,0.1,0,0.2,0c0.1,0,0.1,0,0.1-0.1c0,0,0.1-0.1,0.1-0.1c0,0,0-0.1,0-0.1s0-0.1-0.1-0.1c0,0-0.1-0.1-0.2-0.1
		c-0.1,0-0.1,0-0.2-0.1C-92.9,90.2-93,90.2-93,90.1C-93,90.2-93,90.1-93,90.1"/>
	<path class="st0" d="M-114.8,96.2c-0.4,0.5-1.1,0.5-1.5,0.1c-0.5-0.4-0.5-1.1-0.1-1.5s1.1-0.5,1.5-0.1
		C-114.4,95-114.4,95.7-114.8,96.2"/>
	<path class="st0" d="M-92.1,96.1c-0.4,0.5-1.1,0.5-1.5,0.1c-0.5-0.4-0.5-1.1-0.1-1.5c0.4-0.5,1.1-0.5,1.5-0.1
		C-91.8,94.9-91.7,95.6-92.1,96.1"/>
	<path class="st0" d="M-113,89.7L-113,89.7c0-1.4-1.2-2.5-2.5-2.5c-1.4,0-2.5,1.1-2.5,2.5l0,0c0,0,0,0,0,0c0,0,0,0,0,0
		c0,0.1,0,0.2,0,0.3c0.1,0.8,0.4,2.4,2.5,3.9c2.1-1.5,2.4-3.1,2.5-3.9C-113,90-113,89.9-113,89.7C-113,89.8-113,89.8-113,89.7
		C-113,89.7-113,89.7-113,89.7 M-115.5,91.7c-1.1,0-1.9-0.9-1.9-1.9c0-1.1,0.9-1.9,1.9-1.9c1.1,0,1.9,0.9,1.9,1.9
		C-113.6,90.8-114.5,91.7-115.5,91.7"/>
	<path class="st0" d="M-114.4,90.9C-114.4,90.9-114.4,91-114.4,90.9c0,0.1,0,0.1-0.1,0.1s-0.1,0-0.1,0c0,0-0.1,0-0.1,0h-0.1h-0.1
		c-0.1,0-0.1,0-0.1-0.1c0-0.1,0-0.1-0.1-0.2c0-0.1,0-0.1-0.1-0.2c0-0.1-0.1-0.2-0.1-0.3c0,0,0,0,0,0c0,0,0,0,0,0c-0.1,0-0.1,0-0.2,0
		c-0.1,0-0.1,0-0.2,0c-0.1,0-0.1,0-0.2,0c-0.1,0-0.1,0-0.2,0c0,0,0,0,0,0c0,0,0,0.1,0,0.1c0,0,0,0.1,0,0.1c0,0,0,0.1,0,0.1
		c0,0,0,0.1,0,0.1c0,0,0,0.1,0,0.1c0,0,0,0.1,0,0.1c0,0,0,0,0,0c0,0,0,0,0,0h-0.1c0,0-0.1,0-0.1,0c0,0-0.1,0-0.1,0c0,0-0.1,0-0.1,0
		c0,0,0,0-0.1,0c0,0,0-0.1,0-0.1c0,0,0,0,0,0c0,0,0,0,0,0c0-0.1,0.1-0.2,0.1-0.3c0-0.1,0.1-0.2,0.1-0.3c0-0.1,0.1-0.2,0.1-0.3
		c0-0.1,0.1-0.2,0.1-0.3c0-0.1,0.1-0.2,0.1-0.3c0-0.1,0.1-0.2,0.1-0.3c0-0.1,0-0.2,0.1-0.2c0-0.1,0-0.2,0.1-0.2c0-0.1,0-0.1,0-0.2
		c0-0.1,0-0.1,0-0.2c0,0,0,0,0,0c0,0,0,0,0,0c0,0,0,0,0-0.1c0,0,0,0,0.1,0c0.1,0,0.1,0,0.2,0c0.1,0,0.1,0,0.2,0c0,0,0,0,0.1,0
		c0,0,0,0,0,0.1c0,0.1,0,0.1,0,0.1c0,0,0,0.1,0,0.1c0,0,0,0.1,0,0.1c0,0,0,0.1,0.1,0.1c0,0.1,0.1,0.3,0.1,0.4c0,0.1,0.1,0.2,0.1,0.4
		c0,0.1,0,0.1,0.1,0.2c0,0.1,0,0.1,0.1,0.2c0,0.1,0,0.2,0.1,0.2c0,0.1,0.1,0.2,0.1,0.2c0,0.1,0,0.1,0.1,0.2
		C-114.5,90.8-114.5,90.8-114.4,90.9 M-115.4,89.7C-115.4,89.7-115.4,89.7-115.4,89.7C-115.4,89.7-115.4,89.7-115.4,89.7
		c0-0.1,0-0.2,0-0.3c0-0.1,0-0.1-0.1-0.2c0,0,0-0.1,0-0.1c0,0,0-0.1,0-0.1c0,0,0,0,0,0c0,0,0,0,0,0c0,0,0,0,0,0.1c0,0,0,0,0,0.1
		l-0.1,0.2c0,0,0,0.1,0,0.1c0,0,0,0.1,0,0.1v0c0,0,0,0,0,0l0.1,0c0,0,0.1,0,0.1,0C-115.5,89.7-115.5,89.7-115.4,89.7"/>
</g>
</svg>
