<?xml version="1.0" encoding="utf-8"?>
<!-- Generator: Adobe Illustrator 22.1.0, SVG Export Plug-In . SVG Version: 6.00 Build 0)  -->
<svg version="1.1" id="Layer_1" xmlns="http://www.w3.org/2000/svg" xmlns:xlink="http://www.w3.org/1999/xlink" x="0px" y="0px"
	 viewBox="0 0 36 36" style="enable-background:new 0 0 36 36;" xml:space="preserve">
<style type="text/css">
	.st0{fill:#FFFFFF;}
	.st1{fill:none;stroke:#FFFFFF;stroke-width:0.961;stroke-linecap:round;stroke-linejoin:round;stroke-miterlimit:10;}
</style>
<g>
	<circle cx="111" cy="-98" r="17"/>
</g>
<path d="M111-80c-9.9,0-18-8.1-18-18c0-9.9,8.1-18,18-18c9.9,0,18,8.1,18,18C129-88.1,120.9-80,111-80 M111-114.2
	c-8.9,0-16.2,7.3-16.2,16.2c0,8.9,7.3,16.2,16.2,16.2c8.9,0,16.2-7.3,16.2-16.2C127.2-106.9,119.9-114.2,111-114.2"/>
<g>
	<path class="st0" d="M109.6-106.9c1,0,1.7-0.8,1.7-1.7c0-1-0.8-1.7-1.7-1.7c-1,0-1.7,0.8-1.7,1.7
		C107.9-107.7,108.6-106.9,109.6-106.9"/>
	<path class="st0" d="M122.5-101.9l-1.8-0.4l-1.1,2.1c0.2,0,0.4,0.1,0.5,0.1C121.3-100.1,122.3-100.9,122.5-101.9 M99.9-98.3
		c0-1.4,1.1-2.6,2.6-2.6h5.4v-3.9c0-1,0.8-1.7,1.7-1.7c1,0,1.7,0.8,1.7,1.7v0.6l2.6,0.7c0.4,0.1,0.7,0.6,0.6,1
		c-0.1,0.5-0.5,0.7-1,0.6l-2.2-0.5v1.5h2.6l7.1-7.3l-0.2,1.9l3.5,2.3c0.6,0.3,0.8,1.1,0.5,1.7c-0.3,0.5-0.8,0.7-1.3,0.6l-0.3-0.1
		c-0.3,1.4-1.6,2.4-3,2.4c-0.3,0-0.6,0-0.8-0.1l-2.6,5.4v7.4c0,0.6-0.5,1.2-1.2,1.2c-0.6,0-1.1-0.5-1.1-1.2v-7.6h-5.8l-1,1.8
		l2.2,5.2c0.3,0.6,0.1,1.3-0.4,1.6c-0.6,0.3-1.3,0.1-1.6-0.4l-2.5-6v-1.9l-1.1,1.8v5.6c0,0.6-0.5,1.2-1.2,1.2
		c-0.6,0-1.2-0.5-1.2-1.2v-6.4l1-1.5v-5.1l-0.9,1.5v4.2h-1.8V-98.3z"/>
</g>
<g>
	<circle cx="18" cy="18" r="17"/>
</g>
<path d="M18,36C8.1,36,0,27.9,0,18C0,8.1,8.1,0,18,0c9.9,0,18,8.1,18,18C36,27.9,27.9,36,18,36 M18,1.8C9.1,1.8,1.8,9.1,1.8,18
	c0,8.9,7.3,16.2,16.2,16.2c8.9,0,16.2-7.3,16.2-16.2C34.2,9.1,26.9,1.8,18,1.8"/>
<g>
	<path class="st0" d="M-98.1,173.6c-0.4,0-10.1,0.1-11,0c-0.8,0-2.1,0.6-1.8,1.7c0.2,1.1,1.5,1.1,1.5,1.1l11.6,0c0,0,1.3,0,1.5-1.1
		C-96,174.1-97.2,173.6-98.1,173.6"/>
	<path class="st0" d="M-94,163c-0.3,0-8,0-8.6,0c-0.6,0-1.6,0.4-1.4,1.3c0.2,0.9,1.2,0.8,1.2,0.8l9.1,0c0,0,1,0,1.2-0.9
		C-92.4,163.4-93.3,163-94,163"/>
	<path class="st0" d="M-94.3,166c-0.2,0-16,0-16.5,0c-0.5,0-1.2,0.3-1,0.9c0.1,0.5,0.5,0.6,0.7,0.6c0.3,2,1.5,2.7,1.5,2.7v2.6v2.8
		h10.1v-2.8h0.1c3.9-1.1,5-3.7,5.2-5.3l0.1,0c0,0,0.7,0,0.8-0.6C-93.1,166.3-93.8,166-94.3,166"/>
	<path class="st0" d="M-104.6,154.5v2.8l0.3,0c0,0,1.3,0,1.5-1.1C-102.6,155.1-103.8,154.5-104.6,154.5"/>
	<rect x="-110.8" y="154.5" class="st0" width="6.2" height="2.8"/>
	<rect x="-111.2" y="157.2" class="st0" width="6.9" height="9.4"/>
</g>
<g>
	<path class="st0" d="M-95.7,217.4c-0.6-0.2-1-0.8-1-1.4c0.1-0.8,0.6-1.3,1.4-1.3c0.2,0,0.4-0.1,0.5-0.3c0-0.3-0.1-0.3-0.4-0.4
		c-0.4-0.2-0.8-0.2-1.2-0.2c-1.9,0-3.3,0.9-4.1,2.6c-0.3,0.6-0.8,1-1.4,1.2c-0.2,0-0.4,0-0.6-0.1c-0.6-0.2-1-0.8-1-1.4
		c0.1-0.8,0.6-1.3,1.4-1.3c0.2,0,0.4-0.1,0.5-0.3c0-0.3-0.1-0.3-0.4-0.4c-0.4-0.2-0.8-0.2-1.2-0.2c-1.9,0-3.3,0.9-4.1,2.6
		c-0.3,0.6-0.8,1-1.4,1.2c-0.2,0-0.4,0-0.6-0.1c-0.6-0.2-1-0.8-1-1.4c0.1-0.8,0.6-1.3,1.4-1.3c0.2,0,0.4-0.1,0.5-0.3
		c0-0.3-0.1-0.3-0.4-0.4c-0.4-0.2-0.8-0.2-1.2-0.2c-1.9,0-3.3,0.9-4.1,2.6c-0.4,0.8-1,1.2-1.8,1.3c-0.2,0-2.4,0.2-2.5,0.3
		c0,0.2,0.1,0.3,0.1,0.5c1.2,5,7.8,8.7,13.2,8.7c5.6,0,12.2-4.1,13.1-9.5c0-0.1,0-0.1,0-0.2C-92.3,217.5-95.1,217.6-95.7,217.4"/>
	<path class="st0" d="M-103.4,204.7c0.3,1.4-0.5,2.7-1.9,3.1s-2.7-0.5-3.1-1.9c-0.3-1.4,0.5-2.7,1.9-3.1
		C-105.1,202.5-103.8,203.3-103.4,204.7"/>
	<path class="st0" d="M-103.5,211.5l3.2-4.5c0,0,0.6-0.7,0.5-2.2c-0.1-1.5-0.1-2.3-0.1-2.3s0-1.1-0.7-1c-0.7,0-1.1,0.5-1,1.1
		c0,0.7,0.2,2.9,0.2,2.9l-2.3,2.7c0,0-0.5,0.2-0.5,0.7c0,0.5,0.2,2.8,0.2,2.8S-103.6,211.7-103.5,211.5"/>
	<path class="st0" d="M-105.8,212l-5-2.5c0,0-0.9-0.3-1.5-1.7c-0.6-1.3-0.9-2.1-0.9-2.1s-0.5-0.9,0.2-1.2c0.7-0.3,1.2-0.1,1.4,0.5
		c0.3,0.6,1.2,2.6,1.2,2.6l3.2,1.3c0,0,0.5-0.1,0.8,0.4c0.2,0.5,1.2,2.6,1.2,2.6S-105.5,212.2-105.8,212"/>
	<path class="st0" d="M-106.1,214.1c0.8-0.7,1.9-1.1,3.2-1.1c0.3,0,0.5,0,0.7,0.1c-0.4-1.6-0.8-3.3-0.9-3.8
		c-0.3-1.2-1.2-0.8-1.2-0.8s-0.9,0.2-2,0.5c-1.1,0.3-0.7,1.4-0.7,1.4L-106.1,214.1z"/>
</g>
<g>
	<path class="st0" d="M-105.9,245.1c-7.6,0-13.8,6.2-13.8,13.8c0,7.6,6.2,13.8,13.8,13.8c7.6,0,13.8-6.2,13.8-13.8
		C-92.1,251.3-98.3,245.1-105.9,245.1 M-99.9,262.4c0.7,0.7,1.3,2.3,0.1,3c-1.2,0.7-2.2-0.4-2.2-0.4l-3.8-3.9l-3.8,3.9
		c0,0-1.1,1.1-2.2,0.4c-1.2-0.7-0.6-2.3,0.1-3c0.3-0.3,1.8-1.8,3.6-3.6l-3.8-3.8c0,0-1.1-1.1-0.3-2.2c0.8-1.2,2.3-0.5,3,0.2
		c0.1,0.2,1.7,1.7,3.5,3.5c1.8-1.8,3.3-3.3,3.5-3.5c0.7-0.7,2.2-1.3,3-0.2c0.8,1.2-0.3,2.2-0.3,2.2l-3.8,3.8
		C-101.8,260.6-100.2,262.1-99.9,262.4"/>
</g>
<g>
	<path class="st0" d="M-101.8,308.5L-101.8,308.5c-0.1-2.2-1.8-3.9-4-3.9c-2.2,0-3.9,1.7-4,3.9l0,0c0,0,0,0,0,0.1c0,0,0,0,0,0.1
		c0,0.2,0,0.4,0,0.5c0.1,1.2,0.7,3.8,4,6.1c3.3-2.3,3.9-4.9,4-6.1c0-0.2,0-0.3,0-0.5C-101.8,308.6-101.8,308.6-101.8,308.5
		C-101.8,308.6-101.8,308.6-101.8,308.5 M-105.8,311.6c-1.7,0-3-1.3-3-3c0-1.7,1.3-3,3-3c1.7,0,3,1.3,3,3
		C-102.8,310.3-104.1,311.6-105.8,311.6"/>
	<path class="st0" d="M-104,308.4C-104,308.5-104,308.5-104,308.4C-104,308.5-104,308.5-104,308.4c0,0.1,0,0.1,0,0.1
		c0.1,0.1,0.2,0.2,0.3,0.3c0.1,0.1,0.1,0.2,0.1,0.2c0,0.1,0,0.2,0,0.3c0,0.1-0.1,0.1-0.1,0.2c0,0.1-0.1,0.1-0.2,0.2
		c-0.1,0.1-0.3,0.2-0.4,0.2c-0.1,0-0.1,0-0.2,0c-0.1,0-0.1,0-0.2,0c-0.1,0-0.2,0-0.3,0c-0.1,0-0.2,0-0.3,0c0,0-0.1,0-0.1,0
		c0,0,0,0-0.1-0.1c0,0,0-0.1,0-0.1c0,0,0-0.1,0-0.1c0-0.1,0-0.2,0-0.4c0-0.1,0-0.2,0-0.4c0-0.1,0-0.3,0-0.4c0-0.1,0-0.3,0-0.4
		c0-0.1,0-0.1,0-0.2c0-0.1,0-0.1,0-0.2c0-0.1,0-0.2,0-0.2c0-0.1,0-0.2,0-0.2c0,0,0-0.1,0-0.1c0,0,0-0.1,0-0.1c0,0,0,0,0,0
		c0,0,0,0,0,0c0.1,0,0.2,0,0.4,0c0.1,0,0.2,0,0.4,0c0.1,0,0.1,0,0.2,0c0,0,0.1,0,0.2,0c0.1,0,0.2,0,0.3,0.1c0.1,0,0.2,0.1,0.2,0.1
		c0,0,0.1,0.1,0.1,0.1c0,0,0.1,0.1,0.1,0.1c0,0.1,0,0.1,0.1,0.2c0,0.1,0,0.1,0,0.2c0,0.1,0,0.1,0,0.1c0,0,0,0.1-0.1,0.1
		c0,0-0.1,0.1-0.1,0.1C-103.9,308.4-103.9,308.4-104,308.4 M-105,308.2L-105,308.2c0,0.1,0.1,0.1,0.1,0.1c0,0,0,0,0.1,0s0.1,0,0.1,0
		c0,0,0.1,0,0.1,0c0,0,0.1,0,0.1,0c0,0,0.1,0,0.1-0.1c0,0,0,0,0-0.1c0-0.1,0-0.1,0-0.2c0,0,0-0.1-0.1-0.1c0,0-0.1-0.1-0.1-0.1
		c-0.1,0-0.1-0.1-0.2-0.1c-0.1,0-0.1,0-0.2,0c0,0,0,0-0.1,0c0,0,0,0,0,0c0,0.1,0,0.2,0,0.3C-105,308-105,308.1-105,308.2
		 M-104.9,308.8C-104.9,308.8-104.9,308.8-104.9,308.8C-104.9,308.8-105,308.8-104.9,308.8L-104.9,308.8l-0.1,0.3c0,0.1,0,0.1,0,0.2
		c0,0.1,0,0.1,0,0.2c0,0,0,0.1,0.1,0.1c0.1,0,0.1,0,0.2,0c0.1,0,0.1,0,0.2,0c0.1,0,0.1,0,0.2-0.1c0-0.1,0.1-0.1,0.1-0.2
		c0,0,0-0.1,0-0.1c0,0-0.1-0.1-0.1-0.1c-0.1-0.1-0.1-0.1-0.2-0.1c-0.1,0-0.1,0-0.2-0.1C-104.8,308.8-104.8,308.8-104.9,308.8
		C-104.8,308.8-104.8,308.8-104.9,308.8"/>
	<path class="st0" d="M-105.8,310C-105.8,310.1-105.8,310.1-105.8,310c0,0.1-0.1,0.1-0.1,0.1c0,0-0.1,0-0.1,0c0,0-0.1,0-0.1,0h-0.1
		h-0.1c-0.1,0-0.1,0-0.1-0.1c0-0.1,0-0.1-0.1-0.2s0-0.1-0.1-0.2c0-0.1-0.1-0.2-0.1-0.3c0,0,0,0,0,0c0,0,0,0,0,0c-0.1,0-0.1,0-0.2,0
		c-0.1,0-0.1,0-0.2,0c-0.1,0-0.1,0-0.2,0c-0.1,0-0.1,0-0.2,0c0,0,0,0,0,0c0,0.1,0,0.1,0,0.2c0,0,0,0.1,0,0.2c0,0,0,0.1,0,0.1
		c0,0,0,0.1,0,0.1c0,0,0,0.1,0,0.1c0,0,0,0.1,0,0.1c0,0,0,0,0,0c0,0,0,0,0,0h-0.1c0,0-0.1,0-0.1,0c0,0-0.1,0-0.1,0c0,0-0.1,0-0.1,0
		c0,0,0,0-0.1,0c0,0,0-0.1,0-0.1c0,0,0,0,0,0c0,0,0,0,0,0c0-0.1,0.1-0.2,0.1-0.3s0.1-0.2,0.1-0.3c0-0.1,0.1-0.2,0.1-0.3
		c0-0.1,0.1-0.2,0.1-0.3c0-0.1,0.1-0.2,0.1-0.3c0-0.1,0.1-0.2,0.1-0.3c0-0.1,0-0.2,0.1-0.2c0-0.1,0-0.2,0.1-0.2c0-0.1,0-0.1,0.1-0.2
		c0-0.1,0-0.1,0.1-0.2c0,0,0,0,0,0c0,0,0,0,0-0.1c0,0,0,0,0-0.1c0,0,0,0,0.1,0c0.1,0,0.2,0,0.2,0c0.1,0,0.1,0,0.2,0c0,0,0,0,0.1,0
		c0,0,0,0,0,0.1c0,0.1,0,0.1,0,0.1c0,0,0,0.1,0.1,0.1c0,0,0,0.1,0.1,0.1c0,0,0,0.1,0.1,0.1c0,0.1,0.1,0.3,0.1,0.4
		c0,0.1,0.1,0.3,0.1,0.4c0,0.1,0,0.1,0.1,0.2c0,0.1,0,0.1,0.1,0.2c0,0.1,0,0.2,0.1,0.3c0,0.1,0.1,0.2,0.1,0.3c0,0.1,0,0.2,0.1,0.2
		C-105.8,309.9-105.8,310-105.8,310 M-106.8,308.8C-106.8,308.8-106.8,308.8-106.8,308.8C-106.8,308.8-106.8,308.7-106.8,308.8
		c0-0.1,0-0.2,0-0.3c0-0.1,0-0.1-0.1-0.2c0,0,0-0.1,0-0.1c0,0,0-0.1,0-0.1c0,0,0,0,0,0c0,0,0,0,0,0c0,0,0,0,0,0.1c0,0,0,0,0,0.1
		l-0.1,0.2c0,0,0,0.1,0,0.1c0,0,0,0.1,0,0.1v0c0,0,0,0,0,0l0.1,0c0,0,0.1,0,0.1,0C-106.9,308.8-106.9,308.8-106.8,308.8"/>
	<path class="st0" d="M-104.5,318.8c-0.5,0.6-1.5,0.7-2.1,0.1c-0.6-0.5-0.7-1.5-0.1-2.1c0.5-0.6,1.5-0.7,2.1-0.1
		C-104,317.3-104,318.2-104.5,318.8"/>
	<path class="st0" d="M-110,318.1C-110,318.1-110,318.1-110,318.1c-0.6-0.2-1.1-0.4-1.6-0.6c-0.1,0-0.1-0.1-0.1-0.1
		c0-0.1,0.1-0.1,0.1-0.1c0.5,0.2,1,0.4,1.6,0.6c0.1,0,0.1,0.1,0.1,0.1C-109.9,318.1-110,318.1-110,318.1 M-101.6,318.1
		C-101.6,318.1-101.7,318-101.6,318.1c-0.1-0.1-0.1-0.2,0-0.2c0.5-0.2,1.1-0.4,1.6-0.6c0.1,0,0.1,0,0.1,0c0,0.1,0,0.1-0.1,0.1
		C-100.4,317.7-101,317.9-101.6,318.1C-101.5,318.1-101.6,318.1-101.6,318.1 M-113.1,316.7C-113.1,316.7-113.2,316.7-113.1,316.7
		c-0.5-0.3-1-0.7-1.4-1c0,0-0.1-0.1,0-0.2c0,0,0.1-0.1,0.2,0c0.4,0.4,0.9,0.7,1.4,1c0.1,0,0.1,0.1,0,0.1
		C-113,316.7-113.1,316.7-113.1,316.7 M-98.5,316.6C-98.5,316.6-98.6,316.6-98.5,316.6c-0.1-0.1-0.1-0.2,0-0.2
		c0.5-0.3,0.9-0.7,1.4-1c0,0,0.1,0,0.2,0c0,0,0,0.1,0,0.2C-97.5,315.9-97.9,316.2-98.5,316.6C-98.5,316.6-98.5,316.6-98.5,316.6
		 M-115.8,314.5C-115.8,314.5-115.8,314.5-115.8,314.5c-0.5-0.5-0.8-0.9-1.2-1.4c0,0,0-0.1,0-0.1c0,0,0.1,0,0.1,0
		c0.3,0.5,0.7,0.9,1.1,1.3C-115.6,314.4-115.6,314.4-115.8,314.5C-115.7,314.5-115.7,314.5-115.8,314.5 M-95.9,314.4
		C-95.9,314.4-95.9,314.4-95.9,314.4c-0.1-0.1-0.1-0.1-0.1-0.2c0.4-0.4,0.7-0.9,1.1-1.3c0,0,0.1-0.1,0.1,0c0,0,0.1,0.1,0,0.1
		C-95,313.4-95.4,313.9-95.9,314.4C-95.8,314.4-95.9,314.4-95.9,314.4 M-117.8,311.7C-117.8,311.7-117.8,311.7-117.8,311.7
		c-0.4-0.6-0.6-1.1-0.8-1.6c0-0.1,0-0.1,0.1-0.1c0.1,0,0.1,0,0.1,0.1c0.2,0.5,0.5,1,0.7,1.5C-117.6,311.6-117.7,311.7-117.8,311.7
		C-117.7,311.7-117.8,311.7-117.8,311.7 M-93.9,311.6C-93.9,311.6-93.9,311.6-93.9,311.6c-0.1,0-0.1-0.1-0.1-0.2
		c0.3-0.5,0.5-1,0.7-1.6c0-0.1,0.1-0.1,0.1-0.1c0.1,0,0.1,0.1,0.1,0.1c-0.2,0.5-0.4,1.1-0.7,1.6C-93.8,311.5-93.9,311.6-93.9,311.6
		 M-119,308.6C-119.1,308.6-119.1,308.5-119,308.6c-0.2-0.6-0.3-1.2-0.4-1.8c0-0.1,0-0.1,0.1-0.1c0.1,0,0.1,0,0.1,0.1
		c0.1,0.6,0.2,1.1,0.3,1.7C-118.9,308.5-118.9,308.5-119,308.6C-119,308.6-119,308.6-119,308.6 M-92.7,308.6
		C-92.7,308.6-92.7,308.6-92.7,308.6c-0.1,0-0.1-0.1-0.1-0.1c0.1-0.5,0.2-1.1,0.3-1.7c0-0.1,0.1-0.1,0.1-0.1c0.1,0,0.1,0.1,0.1,0.1
		c-0.1,0.6-0.2,1.1-0.3,1.7C-92.6,308.5-92.7,308.6-92.7,308.6 M-119.4,305.2c-0.1,0-0.1-0.1-0.1-0.1c0-0.5,0-0.9,0.1-1.4
		c0-0.1,0-0.2,0-0.4c0-0.1,0.1-0.1,0.1-0.1c0,0,0,0,0,0c0.1,0,0.1,0.1,0.1,0.1c0,0.1,0,0.2,0,0.4c0,0.4-0.1,0.9-0.1,1.3
		C-119.3,305.1-119.4,305.2-119.4,305.2L-119.4,305.2z M-92.4,305.4c-0.1,0-0.1-0.1-0.1-0.1c0-0.6,0-1.1-0.1-1.7
		c0-0.1,0-0.1,0.1-0.1c0.1,0,0.1,0,0.1,0.1c0.1,0.6,0.1,1.2,0.1,1.7C-92.2,305.3-92.3,305.4-92.4,305.4
		C-92.4,305.4-92.4,305.4-92.4,305.4 M-119,301.8C-119,301.8-119,301.8-119,301.8c-0.1,0-0.1-0.1-0.1-0.1c0.1-0.6,0.3-1.1,0.5-1.6
		c0-0.1,0.1-0.1,0.1-0.1c0.1,0,0.1,0.1,0.1,0.1c-0.2,0.5-0.4,1.1-0.5,1.6C-118.9,301.7-118.9,301.8-119,301.8 M-92.7,302.3
		C-92.7,302.3-92.8,302.2-92.7,302.3c-0.2-0.6-0.4-1.2-0.6-1.7c0-0.1,0-0.1,0.1-0.1c0.1,0,0.1,0,0.1,0.1c0.2,0.5,0.4,1.1,0.5,1.7
		C-92.6,302.2-92.6,302.2-92.7,302.3C-92.7,302.3-92.7,302.3-92.7,302.3 M-117.7,298.6C-117.7,298.6-117.7,298.6-117.7,298.6
		c-0.1,0-0.1-0.1-0.1-0.2c0.3-0.5,0.6-1,0.9-1.4c0,0,0.1-0.1,0.2,0c0,0,0.1,0.1,0,0.1c-0.3,0.5-0.7,0.9-0.9,1.4
		C-117.6,298.6-117.7,298.6-117.7,298.6 M-93.9,299C-93.9,299-93.9,299-93.9,299c-0.3-0.6-0.6-1.1-1-1.5c0,0,0-0.1,0-0.1
		s0.1,0,0.1,0c0.3,0.5,0.6,1,0.9,1.5C-93.7,298.9-93.7,299-93.9,299C-93.8,299-93.8,299-93.9,299 M-115.7,295.8
		C-115.7,295.8-115.7,295.8-115.7,295.8c-0.1-0.1-0.1-0.1-0.1-0.2c0.4-0.4,0.8-0.8,1.3-1.2c0,0,0.1,0,0.2,0c0,0,0,0.1,0,0.2
		C-114.8,295-115.2,295.4-115.7,295.8C-115.6,295.8-115.6,295.8-115.7,295.8 M-95.8,296.2C-95.8,296.2-95.8,296.2-95.8,296.2
		c-0.4-0.5-0.9-0.9-1.3-1.2c0,0-0.1-0.1,0-0.2c0,0,0.1,0,0.2,0c0.4,0.4,0.8,0.8,1.2,1.2C-95.7,296.1-95.7,296.2-95.8,296.2
		C-95.7,296.2-95.8,296.2-95.8,296.2 M-113,293.7C-113,293.7-113.1,293.7-113,293.7c-0.1-0.1-0.1-0.2,0-0.2c0.5-0.3,1-0.6,1.5-0.8
		c0.1,0,0.1,0,0.1,0.1c0,0.1,0,0.1-0.1,0.1C-111.9,293.1-112.4,293.4-113,293.7C-112.9,293.7-113,293.7-113,293.7 M-98.4,294
		C-98.4,294-98.4,294-98.4,294c-0.5-0.3-1-0.6-1.5-0.9c-0.1,0-0.1-0.1,0-0.1c0-0.1,0.1-0.1,0.1,0c0.5,0.3,1,0.5,1.5,0.9
		C-98.3,293.8-98.2,293.9-98.4,294C-98.3,294-98.3,294-98.4,294 M-109.9,292.3C-109.9,292.3-110,292.3-109.9,292.3
		c-0.1-0.1-0.1-0.2,0-0.2c0.6-0.2,1.1-0.3,1.7-0.4c0.1,0,0.1,0,0.1,0.1c0,0.1,0,0.1-0.1,0.1C-108.7,292-109.3,292.1-109.9,292.3
		C-109.8,292.3-109.9,292.3-109.9,292.3 M-101.4,292.4C-101.4,292.4-101.5,292.4-101.4,292.4c-0.6-0.2-1.1-0.3-1.7-0.5
		c-0.1,0-0.1-0.1-0.1-0.1c0-0.1,0.1-0.1,0.1-0.1c0.6,0.1,1.1,0.3,1.7,0.5c0.1,0,0.1,0.1,0.1,0.1
		C-101.3,292.4-101.4,292.4-101.4,292.4 M-106.5,291.7c-0.1,0-0.1,0-0.1-0.1c0-0.1,0-0.1,0.1-0.1c0.6,0,1.2,0,1.7,0c0,0,0,0,0,0
		c0.1,0,0.1,0.1,0.1,0.1s-0.1,0.1-0.1,0.1C-105.4,291.7-105.9,291.7-106.5,291.7C-106.5,291.7-106.5,291.7-106.5,291.7"/>
	<path class="st1" d="M-110,318.1C-110,318.1-110,318.1-110,318.1c-0.6-0.2-1.1-0.4-1.6-0.6c-0.1,0-0.1-0.1-0.1-0.1
		c0-0.1,0.1-0.1,0.1-0.1c0.5,0.2,1,0.4,1.6,0.6c0.1,0,0.1,0.1,0.1,0.1C-109.9,318.1-110,318.1-110,318.1z M-101.6,318.1
		C-101.6,318.1-101.7,318-101.6,318.1c-0.1-0.1-0.1-0.2,0-0.2c0.5-0.2,1.1-0.4,1.6-0.6c0.1,0,0.1,0,0.1,0c0,0.1,0,0.1-0.1,0.1
		C-100.4,317.7-101,317.9-101.6,318.1C-101.5,318.1-101.6,318.1-101.6,318.1z M-113.1,316.7C-113.1,316.7-113.2,316.7-113.1,316.7
		c-0.5-0.3-1-0.7-1.4-1c0,0-0.1-0.1,0-0.2c0,0,0.1-0.1,0.2,0c0.4,0.4,0.9,0.7,1.4,1c0.1,0,0.1,0.1,0,0.1
		C-113,316.7-113.1,316.7-113.1,316.7z M-98.5,316.6C-98.5,316.6-98.6,316.6-98.5,316.6c-0.1-0.1-0.1-0.2,0-0.2
		c0.5-0.3,0.9-0.7,1.4-1c0,0,0.1,0,0.2,0c0,0,0,0.1,0,0.2C-97.5,315.9-97.9,316.2-98.5,316.6C-98.5,316.6-98.5,316.6-98.5,316.6z
		 M-115.8,314.5C-115.8,314.5-115.8,314.5-115.8,314.5c-0.5-0.5-0.8-0.9-1.2-1.4c0,0,0-0.1,0-0.1c0,0,0.1,0,0.1,0
		c0.3,0.5,0.7,0.9,1.1,1.3C-115.6,314.4-115.6,314.4-115.8,314.5C-115.7,314.5-115.7,314.5-115.8,314.5z M-95.9,314.4
		C-95.9,314.4-95.9,314.4-95.9,314.4c-0.1-0.1-0.1-0.1-0.1-0.2c0.4-0.4,0.7-0.9,1.1-1.3c0,0,0.1-0.1,0.1,0c0,0,0.1,0.1,0,0.1
		C-95,313.4-95.4,313.9-95.9,314.4C-95.8,314.4-95.9,314.4-95.9,314.4z M-117.8,311.7C-117.8,311.7-117.8,311.7-117.8,311.7
		c-0.4-0.6-0.6-1.1-0.8-1.6c0-0.1,0-0.1,0.1-0.1c0.1,0,0.1,0,0.1,0.1c0.2,0.5,0.5,1,0.7,1.5C-117.6,311.6-117.7,311.7-117.8,311.7
		C-117.7,311.7-117.8,311.7-117.8,311.7z M-93.9,311.6C-93.9,311.6-93.9,311.6-93.9,311.6c-0.1,0-0.1-0.1-0.1-0.2
		c0.3-0.5,0.5-1,0.7-1.6c0-0.1,0.1-0.1,0.1-0.1c0.1,0,0.1,0.1,0.1,0.1c-0.2,0.5-0.4,1.1-0.7,1.6C-93.8,311.5-93.9,311.6-93.9,311.6z
		 M-119,308.6C-119.1,308.6-119.1,308.5-119,308.6c-0.2-0.6-0.3-1.2-0.4-1.8c0-0.1,0-0.1,0.1-0.1c0.1,0,0.1,0,0.1,0.1
		c0.1,0.6,0.2,1.1,0.3,1.7C-118.9,308.5-118.9,308.5-119,308.6C-119,308.6-119,308.6-119,308.6z M-92.7,308.6
		C-92.7,308.6-92.7,308.6-92.7,308.6c-0.1,0-0.1-0.1-0.1-0.1c0.1-0.5,0.2-1.1,0.3-1.7c0-0.1,0.1-0.1,0.1-0.1c0.1,0,0.1,0.1,0.1,0.1
		c-0.1,0.6-0.2,1.1-0.3,1.7C-92.6,308.5-92.7,308.6-92.7,308.6z M-119.4,305.2c-0.1,0-0.1-0.1-0.1-0.1c0-0.5,0-0.9,0.1-1.4
		c0-0.1,0-0.2,0-0.4c0-0.1,0.1-0.1,0.1-0.1c0,0,0,0,0,0c0.1,0,0.1,0.1,0.1,0.1c0,0.1,0,0.2,0,0.4c0,0.4-0.1,0.9-0.1,1.3
		C-119.3,305.1-119.4,305.2-119.4,305.2L-119.4,305.2z M-92.4,305.4c-0.1,0-0.1-0.1-0.1-0.1c0-0.6,0-1.1-0.1-1.7
		c0-0.1,0-0.1,0.1-0.1c0.1,0,0.1,0,0.1,0.1c0.1,0.6,0.1,1.2,0.1,1.7C-92.2,305.3-92.3,305.4-92.4,305.4
		C-92.4,305.4-92.4,305.4-92.4,305.4z M-119,301.8C-119,301.8-119,301.8-119,301.8c-0.1,0-0.1-0.1-0.1-0.1c0.1-0.6,0.3-1.1,0.5-1.6
		c0-0.1,0.1-0.1,0.1-0.1c0.1,0,0.1,0.1,0.1,0.1c-0.2,0.5-0.4,1.1-0.5,1.6C-118.9,301.7-118.9,301.8-119,301.8z M-92.7,302.3
		C-92.7,302.3-92.8,302.2-92.7,302.3c-0.2-0.6-0.4-1.2-0.6-1.7c0-0.1,0-0.1,0.1-0.1c0.1,0,0.1,0,0.1,0.1c0.2,0.5,0.4,1.1,0.5,1.7
		C-92.6,302.2-92.6,302.2-92.7,302.3C-92.7,302.3-92.7,302.3-92.7,302.3z M-117.7,298.6C-117.7,298.6-117.7,298.6-117.7,298.6
		c-0.1,0-0.1-0.1-0.1-0.2c0.3-0.5,0.6-1,0.9-1.4c0,0,0.1-0.1,0.2,0c0,0,0.1,0.1,0,0.1c-0.3,0.5-0.7,0.9-0.9,1.4
		C-117.6,298.6-117.7,298.6-117.7,298.6z M-93.9,299C-93.9,299-93.9,299-93.9,299c-0.3-0.6-0.6-1.1-1-1.5c0,0,0-0.1,0-0.1
		s0.1,0,0.1,0c0.3,0.5,0.6,1,0.9,1.5C-93.7,298.9-93.7,299-93.9,299C-93.8,299-93.8,299-93.9,299z M-115.7,295.8
		C-115.7,295.8-115.7,295.8-115.7,295.8c-0.1-0.1-0.1-0.1-0.1-0.2c0.4-0.4,0.8-0.8,1.3-1.2c0,0,0.1,0,0.2,0c0,0,0,0.1,0,0.2
		C-114.8,295-115.2,295.4-115.7,295.8C-115.6,295.8-115.6,295.8-115.7,295.8z M-95.8,296.2C-95.8,296.2-95.8,296.2-95.8,296.2
		c-0.4-0.5-0.9-0.9-1.3-1.2c0,0-0.1-0.1,0-0.2c0,0,0.1,0,0.2,0c0.4,0.4,0.8,0.8,1.2,1.2C-95.7,296.1-95.7,296.2-95.8,296.2
		C-95.7,296.2-95.8,296.2-95.8,296.2z M-113,293.7C-113,293.7-113.1,293.7-113,293.7c-0.1-0.1-0.1-0.2,0-0.2c0.5-0.3,1-0.6,1.5-0.8
		c0.1,0,0.1,0,0.1,0.1c0,0.1,0,0.1-0.1,0.1C-111.9,293.1-112.4,293.4-113,293.7C-112.9,293.7-113,293.7-113,293.7z M-98.4,294
		C-98.4,294-98.4,294-98.4,294c-0.5-0.3-1-0.6-1.5-0.9c-0.1,0-0.1-0.1,0-0.1c0-0.1,0.1-0.1,0.1,0c0.5,0.3,1,0.5,1.5,0.9
		C-98.3,293.8-98.2,293.9-98.4,294C-98.3,294-98.3,294-98.4,294z M-109.9,292.3C-109.9,292.3-110,292.3-109.9,292.3
		c-0.1-0.1-0.1-0.2,0-0.2c0.6-0.2,1.1-0.3,1.7-0.4c0.1,0,0.1,0,0.1,0.1c0,0.1,0,0.1-0.1,0.1C-108.7,292-109.3,292.1-109.9,292.3
		C-109.8,292.3-109.9,292.3-109.9,292.3z M-101.4,292.4C-101.4,292.4-101.5,292.4-101.4,292.4c-0.6-0.2-1.1-0.3-1.7-0.5
		c-0.1,0-0.1-0.1-0.1-0.1c0-0.1,0.1-0.1,0.1-0.1c0.6,0.1,1.1,0.3,1.7,0.5c0.1,0,0.1,0.1,0.1,0.1
		C-101.3,292.4-101.4,292.4-101.4,292.4z M-106.5,291.7c-0.1,0-0.1,0-0.1-0.1c0-0.1,0-0.1,0.1-0.1c0.6,0,1.2,0,1.7,0c0,0,0,0,0,0
		c0.1,0,0.1,0.1,0.1,0.1s-0.1,0.1-0.1,0.1C-105.4,291.7-105.9,291.7-106.5,291.7C-106.5,291.7-106.5,291.7-106.5,291.7z"/>
</g>
<g>
	<path class="st0" d="M-99.3,118c0,0,0,0.1,0,0.1c0,3.7-3,6.7-6.7,6.7s-6.7-3-6.7-6.7c0-2.2,1.1-4.2,2.8-5.5l-0.2-2
		c-2.6,1.5-4.4,4.3-4.4,7.5c0,4.7,3.8,8.5,8.5,8.5c4,0,7.4-2.8,8.3-6.5L-99.3,118z"/>
	<path class="st0" d="M-107.1,101.6c1.2,0,2.2,1,2.2,2.2s-1,2.2-2.2,2.2c-1.2,0-2.2-1-2.2-2.2S-108.3,101.6-107.1,101.6"/>
	<path class="st0" d="M-93.1,120.7l-4.9-6.8c-0.3-0.4-0.7-0.5-1.1-0.5c0,0-0.1,0-0.1,0h-5.6l-0.1-1.2h4.1c0.5,0,0.9-0.4,0.9-0.9
		c0-0.5-0.4-0.9-0.9-0.9h-4.3l-0.2-2c-0.1-1.2-1.2-2-2.4-1.9c-1.2,0.1-2,1.2-1.9,2.4l0.6,5.6c0.1,1.1,1.1,1.9,2.1,1.9c0,0,0,0,0,0
		h7.3l4.2,5.9c0.4,0.6,1.2,0.7,1.8,0.2C-92.9,122-92.7,121.2-93.1,120.7"/>
</g>
<g>
	<path class="st0" d="M-112.9,72.9c2.3,0,4.1-1.8,4.1-4.1c0-2.3-1.8-4.1-4.1-4.1c-2.3,0-4.1,1.8-4.1,4.1
		C-117,71.1-115.2,72.9-112.9,72.9 M-118,68.8c0-2.8,2.3-5.1,5.1-5.1c2.8,0,5.1,2.3,5.1,5.1c0,2.8-2.3,5.1-5.1,5.1
		C-115.7,73.9-118,71.6-118,68.8"/>
	<path class="st0" d="M-98,73c2.3,0,4.1-1.8,4.1-4.1c0-2.3-1.8-4.1-4.1-4.1c-2.3,0-4.1,1.8-4.1,4.1C-102.1,71.2-100.3,73-98,73
		 M-103.1,68.9c0-2.8,2.3-5.1,5.1-5.1c2.8,0,5.1,2.3,5.1,5.1c0,2.8-2.3,5.1-5.1,5.1C-100.8,73.9-103.1,71.7-103.1,68.9"/>
	<path class="st0" d="M-103.1,56.5c1,0,1.9-0.8,1.9-1.9c0-1.1-0.9-1.9-1.9-1.9c-1.1,0-1.9,0.9-1.9,1.9
		C-105,55.7-104.1,56.5-103.1,56.5"/>
	<path class="st0" d="M-103,61.1c-0.3,0-0.6-0.1-0.8-0.5l-1.2-1.9l-2.5,2.5l2.4,1.2c1,0.5,0.8,1.3,0.8,1.3v5.4
		c0,0.6-0.5,1.1-1.1,1.1c-0.6,0-1.1-0.5-1.1-1.1v-4.3l-4.1-2.3c-0.5-0.3-0.8-0.8-0.8-1.4c0-0.4,0.2-0.8,0.4-1.1l4-4
		c0.5-0.6,1.2-0.5,1.2-0.5c0.8,0,1.3,0.7,1.3,0.7l2.1,3.3l3.2,0c1.1,0,1.1,1.5,0,1.5H-103z"/>
</g>
<g>
	<path class="st0" d="M-108.9,446.1l-1.7-2.8c-0.1-0.2-0.3-0.3-0.5-0.3c-0.2,0-0.4,0.1-0.5,0.3l-1.7,2.8c-0.1,0.1-0.3,0.5-0.3,1
		c0,1.5,0.9,2.5,2.4,2.5c0,0,0,0,0.1,0c0,0,0,0,0.1,0h0h0c0,0,0,0,0,0c0,0,0.1,0,0.1,0c1.5-0.1,2.4-1,2.4-2.5
		C-108.6,446.6-108.8,446.2-108.9,446.1 M-111,448.1C-111,448.1-111,448.1-111,448.1L-111,448.1C-111,448.1-111,448.1-111,448.1
		L-111,448.1L-111,448.1C-111,448.1-111,448.1-111,448.1c-0.1,0-0.1,0-0.1,0c-0.7,0-1.1-0.4-1.1-1.1c0-0.2,0.1-0.4,0.1-0.5l0.8-1.3
		c0-0.1,0.1-0.1,0.2-0.1s0.2,0,0.2,0.1l0.8,1.3c0,0.1,0.1,0.2,0.1,0.5C-109.9,447.7-110.3,448.1-111,448.1"/>
	<path class="st0" d="M-108.2,441.7h-0.8c0-0.2,0.1-0.5,0.1-0.5c0,0,0,0,0-0.1h12v5.3c0,0.9,0.4,1.8,0.9,2.4c2-1.9,4.8-5.5,4.8-10.7
		c0-5.8-3.6-9.2-5.5-10.6c-0.1,0.4-0.2,0.8-0.2,1.2v6.7h-3.8c-0.1-0.9-0.7-1.7-1.5-2.1v-1c0.1,0.1,0.3,0.2,0.6,0.2
		c1,0,1.5-0.6,1.6-1.5c0,0,0,0,0,0c0,0,0,0,0,0v0v0c0,0,0,0,0,0c0,0,0,0,0,0c0-1-0.6-1.5-1.6-1.5c-0.3,0-0.6,0.1-0.7,0.2l-1.6,1
		l-1.6-1c-0.1-0.1-0.3-0.2-0.6-0.2c-1,0-1.5,0.6-1.6,1.5c0,0,0,0,0,0v0v0v0v0c0,0,0,0,0,0c0,1,0.6,1.5,1.6,1.5
		c0.3,0,0.6-0.1,0.6-0.2l0.5-0.3c0,0.1,0,0.2,0,0.3v0.9c-1,0.3-1.7,1.2-1.8,2.2h-2.4c-0.1,0-0.1,0-0.2,0c-0.1,0-0.2,0-0.4,0
		c-1.4,0.4-4,1.8-4.3,6.1c0,0,0,0,0,0.1h-0.7c-0.5,0-0.8,0.4-0.8,0.8c0,0.5,0.4,0.8,0.8,0.8h6.4c0.5,0,0.8-0.4,0.8-0.8
		C-107.4,442.1-107.8,441.7-108.2,441.7"/>
</g>
<g>
	<path class="st0" d="M14.1,10c0.1-0.3-0.1-0.6-0.4-0.7L12,8.9c-0.3-0.1-0.6,0.1-0.7,0.4l-1.4,5.8c-0.1,0.3,0.1,0.6,0.4,0.7l1.7,0.4
		c0.3,0.1,0.6-0.1,0.7-0.4L14.1,10z"/>
	<path class="st0" d="M21.8,30.8C21.8,30.8,21.8,30.8,21.8,30.8c0,0.3,0.2,0.5,0.5,0.5c0.2,0,0.4-0.2,0.5-0.4l3.4-18.3v0
		c0-0.2-0.2-0.5-0.5-0.5c-0.2,0-0.4,0.2-0.5,0.4L21.8,30.8z"/>
	<path class="st0" d="M10.6,29.6c0,0.1,0,0.2,0,0.3c0,0.8,0.6,1.4,1.4,1.4c0.6,0,1.2-0.4,1.4-1l2.4-10.1l2.3,10
		c0.1,0.6,0.7,1.1,1.4,1.1c0.8,0,1.4-0.6,1.4-1.4c0-0.1,0-0.2,0-0.3l-3.2-13.3l0.3-1.2l0.2,0.9c0.2,0.6,0.7,0.7,0.7,0.7l3.3,0.8
		c0.1,0,0.1,0,0.2,0c0.5,0,1-0.4,1-1c0-0.5-0.3-0.8-0.7-0.9l-2.8-0.7L19,11.7C18.6,10,16.9,10,16.9,10c-1.6,0-2.1,1.7-2.1,1.7
		L10.6,29.6z"/>
	<path class="st0" d="M17.6,8.7c1.1,0,2-0.9,2-2c0-1.1-0.9-2-2-2c-1.1,0-2,0.9-2,2C15.6,7.8,16.5,8.7,17.6,8.7"/>
</g>
<g>
	<g>
		<circle cx="111" cy="-143" r="17"/>
	</g>
	<path d="M111-125c-9.9,0-18-8.1-18-18c0-9.9,8.1-18,18-18c9.9,0,18,8.1,18,18C129-133.1,120.9-125,111-125 M111-159.2
		c-8.9,0-16.2,7.3-16.2,16.2c0,8.9,7.3,16.2,16.2,16.2c8.9,0,16.2-7.3,16.2-16.2C127.2-151.9,119.9-159.2,111-159.2"/>
	<polygon class="st0" points="114.5,-145.6 101.3,-152 101.3,-150.8 114.1,-144.7 	"/>
	<path class="st0" d="M104.1-144.6l-1.3-0.7c-0.4-0.2-0.9-0.1-1.2,0.3c-0.2,0.4-0.1,0.9,0.3,1.2l2,1.2v9.8c0,0.8,0.7,1.5,1.5,1.5
		c0.8,0,1.5-0.7,1.5-1.5l0-3.8l2.7,4.6c0.4,0.7,1.3,0.9,2,0.5c0.7-0.4,0.9-1.3,0.5-2l-2.5-4.2h5.6v5c0,0.8,0.7,1.5,1.5,1.5
		c0.8,0,1.5-0.7,1.5-1.5v-5c0.4,0,0.5-0.3,0.5-0.6v-3.7l-4.7-2.3H104.1z"/>
	<polygon class="st0" points="114.6,-151.4 114.6,-145.6 118.8,-143.6 118.8,-144.4 122.3,-144.4 123.5,-147.2 	"/>
</g>
<g>
	<path class="st0" d="M-94.4,15.6v-1.5c0-1.9-1.6-3.5-3.5-3.5h-1.7l-3.9-5.8c0,0-0.1-0.2-0.3-0.4c-0.3-0.5-1-0.5-1-0.5l-8.2,0
		c0,0-0.9,0-1,0.7c0,0.1,0,0.2,0,0.3c0,0.1,0,0.2,0,0.3c0,0.2,0,3.1,0,5.2h-1.1c-1.9,0-3.5,1.6-3.5,3.5v3.4c0,0.4,0.1,0.7,0.2,1
		c0.9-1.1,2.2-1.8,3.7-1.8c2.4,0,4.4,1.9,4.7,4.2h8.5c0.2-2.4,2.2-4.2,4.7-4.2c1.3,0,2.4,0.5,3.2,1.3c0.4-0.1,0.8-0.4,0.9-0.9
		C-92.6,16.2-93.6,15.7-94.4,15.6 M-102.4,17.6h-1.3c0.1-0.2,0.2-0.4,0.1-0.7c-0.1-0.7-0.7-0.7-0.7-0.7l-5.4,0c0,0-0.1,0-0.2,0
		l0-6.5c0,0,0-0.7-0.7-0.9c-0.7-0.1-1.1,0.6-1,1.1c0,0,0,0.2,0,0.4h-0.6l0-4.6c1.5,0,6.8,0,7.3,0c0,0,0,0,0,0
		c0.1,0.1,0.2,0.3,0.2,0.4c0.2,0.2,2.5,3.7,4.2,6.2v0.2l-1.5-0.6c0,0-0.1,0-0.2-0.1l0.1-0.4c0,0,0-0.2-0.3-0.3
		c-0.4-0.1-0.6,0-0.6,0.2c0,0.1-0.2,1.4-0.3,1.5c0,0.1,0.1,0.3,0.5,0.4c0.4,0,0.4-0.1,0.4-0.1l0.1-0.3c0,0,0.1,0,0.1,0.1
		c0.1,0,0.9,0.4,1.7,0.7V17C-101,17.4-101.7,17.6-102.4,17.6"/>
	<path class="st0" d="M-96.8,17.7c-2,0-3.7,1.6-3.7,3.7c0,2,1.6,3.6,3.7,3.6c2,0,3.6-1.6,3.6-3.6C-93.2,19.4-94.8,17.7-96.8,17.7
		 M-96.8,23.7c-1.3,0-2.3-1-2.3-2.3c0-1.3,1-2.3,2.3-2.3c1.3,0,2.3,1,2.3,2.3C-94.6,22.6-95.6,23.7-96.8,23.7"/>
	<path class="st0" d="M-114.7,17.7c-2,0-3.7,1.6-3.7,3.7c0,2,1.6,3.6,3.7,3.6c2,0,3.6-1.6,3.6-3.6
		C-111.1,19.4-112.7,17.7-114.7,17.7 M-114.7,23.7c-1.3,0-2.3-1-2.3-2.3c0-1.3,1-2.3,2.3-2.3c1.3,0,2.3,1,2.3,2.3
		C-112.4,22.6-113.5,23.7-114.7,23.7"/>
</g>
<g>
	<path class="st0" d="M-114.3,360.1C-114.3,360.1-114.3,360.1-114.3,360.1c-0.7-0.1-1.2-0.4-1.7-0.8c0,0,0-0.1,0-0.2
		c0,0,0.1,0,0.2,0c0.4,0.4,0.9,0.7,1.5,0.8c0.1,0,0.1,0.1,0.1,0.1C-114.2,360.1-114.3,360.1-114.3,360.1 M-112.5,360
		c-0.1,0-0.1,0-0.1-0.1c0-0.1,0-0.1,0.1-0.1c0.6-0.1,1.2-0.4,1.6-0.8c0,0,0.1,0,0.2,0c0,0,0,0.1,0,0.2
		C-111.3,359.6-111.8,359.9-112.5,360C-112.5,360-112.5,360-112.5,360 M-116.9,357.8c0,0-0.1,0-0.1-0.1c-0.2-0.5-0.4-1.1-0.5-1.8
		c0-0.1,0-0.1,0.1-0.1c0.1,0,0.1,0,0.1,0.1c0.1,0.7,0.3,1.2,0.4,1.7C-116.8,357.7-116.8,357.8-116.9,357.8
		C-116.9,357.8-116.9,357.8-116.9,357.8 M-110,357.7C-110,357.7-110,357.7-110,357.7c-0.1,0-0.1-0.1-0.1-0.1
		c0.1-0.4,0.1-0.8,0.1-1.1c0-0.2,0-0.3,0-0.3l0-0.4c0-0.1,0.1-0.1,0.1-0.1c0.1,0,0.1,0.1,0.1,0.1v0.4c0,0,0,0.1,0,0.3
		c0,0.3,0,0.7-0.1,1.1C-109.9,357.7-109.9,357.7-110,357.7 M-102.8,357.1c-0.1,0-0.1,0-0.1-0.1c-0.1-0.3-0.1-0.6-0.1-0.6v-1.2
		c0-0.1,0.1-0.1,0.1-0.1c0.1,0,0.1,0.1,0.1,0.1v1.2c0,0,0,0.3,0.1,0.6C-102.7,357.1-102.8,357.1-102.8,357.1
		C-102.8,357.1-102.8,357.1-102.8,357.1 M-117.5,354.2c-0.1,0-0.1,0-0.1-0.1c0-0.1,0-0.3,0-0.4c0-0.9,0.1-1.5,0.1-1.5
		c0-0.1,0.1-0.1,0.1-0.1c0.1,0,0.1,0.1,0.1,0.1c0,0-0.1,0.6-0.1,1.4c0,0.1,0,0.2,0,0.4C-117.4,354.2-117.4,354.2-117.5,354.2
		L-117.5,354.2z M-99.2,360.1c0-0.1,0-0.1,0.1-0.1c0.6-0.1,1.1-0.3,1.5-0.8c0,0,0.1,0,0.2,0c0,0,0,0.1,0,0.2c-0.5,0.4-1,0.7-1.7,0.8
		c0,0,0,0,0,0C-99.1,360.1-99.2,360.1-99.2,360.1 M-100.9,360c-0.7-0.2-1.2-0.4-1.7-0.8c0,0,0-0.1,0-0.2c0,0,0.1-0.1,0.2,0
		c0.4,0.4,0.9,0.6,1.6,0.8c0.1,0,0.1,0.1,0.1,0.1C-100.8,360-100.8,360-100.9,360C-100.9,360-100.9,360-100.9,360 M-96.5,357.8
		c-0.1,0-0.1-0.1-0.1-0.1c0.2-0.5,0.3-1.1,0.4-1.7c0-0.1,0.1-0.1,0.1-0.1c0.1,0,0.1,0.1,0.1,0.1c-0.1,0.7-0.3,1.3-0.5,1.8
		C-96.4,357.8-96.4,357.8-96.5,357.8C-96.5,357.8-96.5,357.8-96.5,357.8 M-95.9,354.2c-0.1,0-0.1-0.1-0.1-0.1c0-0.1,0-0.3,0-0.4
		c0-0.8-0.1-1.4-0.1-1.4c0-0.1,0-0.1,0.1-0.1c0.1,0,0.1,0,0.1,0.1c0,0,0.1,0.6,0.1,1.5c0,0.1,0,0.2,0,0.4
		C-95.8,354.2-95.8,354.2-95.9,354.2L-95.9,354.2z M-109.9,354.1c-0.1,0-0.1,0-0.1-0.1v-1.8c0-0.1,0.1-0.1,0.1-0.1
		c0.1,0,0.1,0.1,0.1,0.1v1.8C-109.7,354-109.8,354.1-109.9,354.1 M-102.9,353.5c-0.1,0-0.1-0.1-0.1-0.1v-1.8c0-0.1,0.1-0.1,0.1-0.1
		c0.1,0,0.1,0.1,0.1,0.1v1.8C-102.8,353.4-102.8,353.5-102.9,353.5 M-109.9,350.4c-0.1,0-0.1-0.1-0.1-0.1v-1.8
		c0-0.1,0.1-0.1,0.1-0.1c0.1,0,0.1,0.1,0.1,0.1v1.8C-109.7,350.4-109.8,350.4-109.9,350.4 M-102.9,349.8c-0.1,0-0.1-0.1-0.1-0.1
		v-1.8c0-0.1,0.1-0.1,0.1-0.1c0.1,0,0.1,0.1,0.1,0.1v1.8C-102.8,349.8-102.8,349.8-102.9,349.8 M-109.9,346.8
		c-0.1,0-0.1-0.1-0.1-0.1v-0.1c0-0.1,0-0.9,0.2-1.7c0-0.1,0.1-0.1,0.1-0.1c0.1,0,0.1,0.1,0.1,0.1c-0.2,0.8-0.2,1.5-0.2,1.6v0.1
		C-109.7,346.7-109.8,346.8-109.9,346.8 M-102.9,346.2c-0.1,0-0.1,0-0.1-0.1v-0.4c0,0,0-0.1,0-0.3c0-0.2,0-0.6-0.1-1
		c0-0.1,0-0.1,0.1-0.1c0.1,0,0.1,0,0.1,0.1c0.1,0.4,0.1,0.8,0.1,1.1c0,0.2,0,0.3,0,0.3l0,0.4C-102.8,346.1-102.8,346.2-102.9,346.2
		 M-108.8,343.3C-108.9,343.3-108.9,343.3-108.8,343.3c-0.1-0.1-0.1-0.1-0.1-0.2c0.4-0.5,0.9-0.9,1.5-1.1c0.1,0,0.1,0,0.1,0.1
		c0,0.1,0,0.1-0.1,0.1C-107.9,342.4-108.4,342.8-108.8,343.3C-108.8,343.3-108.8,343.3-108.8,343.3 M-103.9,342.8
		C-104,342.8-104,342.8-103.9,342.8c-0.5-0.4-1-0.6-1.7-0.7c-0.1,0-0.1-0.1-0.1-0.1c0-0.1,0.1-0.1,0.1-0.1c0.7,0.1,1.3,0.3,1.7,0.7
		C-103.8,342.7-103.8,342.7-103.9,342.8C-103.9,342.8-103.9,342.8-103.9,342.8"/>
	<path class="st0" d="M-114.3,360.6c0,0-0.1,0-0.1,0c-0.7-0.1-1.4-0.4-1.9-0.9c-0.2-0.2-0.2-0.6,0-0.8c0.2-0.2,0.6-0.2,0.8,0
		c0.4,0.3,0.8,0.6,1.3,0.6c0.3,0,0.6,0.3,0.5,0.7C-113.8,360.4-114,360.6-114.3,360.6 M-99,360.6c-0.4,0-0.6-0.2-0.7-0.5
		c0,0,0,0,0,0c0-0.3,0.2-0.6,0.5-0.7c0.5-0.1,0.9-0.3,1.3-0.6c0.2-0.2,0.6-0.2,0.8,0c0.2,0.2,0.2,0.6,0,0.8
		C-97.6,360.2-98.2,360.5-99,360.6L-99,360.6z M-100.9,360.5c0,0-0.1,0-0.1,0c-0.8-0.2-1.4-0.5-1.9-0.9c-0.1-0.1-0.2-0.3-0.2-0.4
		c0-0.2,0-0.3,0.2-0.4c0.1-0.1,0.3-0.2,0.4-0.2c0.2,0,0.3,0,0.4,0.2c0.3,0.3,0.8,0.5,1.3,0.7c0.3,0.1,0.5,0.4,0.4,0.7
		C-100.4,360.3-100.6,360.5-100.9,360.5 M-102.2,358.9C-102.2,358.9-102.2,358.9-102.2,358.9C-102.2,358.9-102.2,358.9-102.2,358.9
		 M-112.5,360.5c-0.3,0-0.5-0.2-0.6-0.5c-0.1-0.3,0.1-0.6,0.4-0.7c0.5-0.1,1-0.3,1.3-0.7c0.1-0.1,0.3-0.2,0.4-0.2
		c0.2,0,0.3,0.1,0.4,0.2c0.1,0.1,0.2,0.3,0.2,0.4c0,0.2-0.1,0.3-0.2,0.4c-0.5,0.4-1.1,0.8-1.9,0.9
		C-112.4,360.5-112.5,360.5-112.5,360.5 M-110.7,359.4C-110.7,359.4-110.7,359.4-110.7,359.4C-110.7,359.4-110.7,359.4-110.7,359.4
		 M-96.5,358.3c-0.1,0-0.1,0-0.2,0c0,0,0,0,0,0c-0.1-0.1-0.3-0.2-0.3-0.3c-0.1-0.1-0.1-0.3,0-0.5c0.2-0.5,0.3-1,0.4-1.6
		c0-0.3,0.3-0.5,0.6-0.5c0.4,0.1,0.6,0.4,0.5,0.7c-0.1,0.7-0.3,1.3-0.5,1.9C-96,358.2-96.2,358.3-96.5,358.3 M-116.9,358.3
		c-0.2,0-0.5-0.1-0.6-0.4c-0.2-0.5-0.4-1.2-0.5-1.9c0-0.3,0.2-0.6,0.5-0.7c0.3,0,0.6,0.2,0.7,0.5c0.1,0.6,0.2,1.2,0.4,1.6
		c0,0.1,0,0.3,0,0.5c-0.1,0.1-0.2,0.3-0.3,0.3C-116.7,358.3-116.8,358.3-116.9,358.3 M-116.6,357.6L-116.6,357.6L-116.6,357.6z
		 M-117,355.9L-117,355.9L-117,355.9z M-110,358.2c0,0-0.1,0-0.2,0c-0.3-0.1-0.5-0.4-0.4-0.7c0.1-0.4,0.1-0.7,0.1-0.9
		c0-0.1,0-0.2,0-0.2l0-0.5c0-0.3,0.3-0.6,0.6-0.6c0.3,0,0.6,0.3,0.6,0.6v0.4c0,0.1,0,0.2,0,0.3c0,0.3,0,0.7-0.2,1.2
		C-109.5,358-109.7,358.2-110,358.2 M-102.8,357.6c-0.3,0-0.5-0.2-0.6-0.5c-0.1-0.4-0.1-0.6-0.1-0.7v-1.2c0-0.3,0.3-0.6,0.6-0.6
		c0.3,0,0.6,0.3,0.6,0.6v1.2c0,0,0,0.2,0.1,0.5c0.1,0.3-0.1,0.6-0.5,0.7C-102.8,357.6-102.8,357.6-102.8,357.6 M-102.8,356.6v0.5
		V356.6L-102.8,356.6z M-103.2,357.1C-103.2,357.1-103.2,357.1-103.2,357.1C-103.2,357.1-103.2,357.1-103.2,357.1 M-102.5,356.9
		L-102.5,356.9L-102.5,356.9z M-95.9,354.7L-95.9,354.7c-0.3,0-0.6-0.3-0.6-0.6l0-0.4c0-0.8-0.1-1.4-0.1-1.4c0-0.1,0.1-0.3,0.1-0.4
		c0.1-0.1,0.2-0.2,0.4-0.2c0.1,0,0.3,0,0.4,0.1c0.1,0.1,0.2,0.3,0.2,0.4c0,0,0.1,0.7,0.1,1.5c0,0.1,0,0.3,0,0.4
		C-95.3,354.5-95.6,354.7-95.9,354.7 M-96.3,352.4L-96.3,352.4L-96.3,352.4z M-117.5,354.7c-0.3,0-0.6-0.3-0.6-0.6
		c0-0.1,0-0.3,0-0.4c0-0.9,0.1-1.5,0.1-1.5c0-0.2,0.1-0.3,0.2-0.4c0.1-0.1,0.3-0.1,0.5-0.1c0.1,0,0.2,0.1,0.3,0.2
		c0.1,0.1,0.1,0.3,0.1,0.4c0,0-0.1,0.6-0.1,1.4l0,0.4C-116.9,354.4-117.2,354.7-117.5,354.7L-117.5,354.7z M-117.1,354.1
		L-117.1,354.1L-117.1,354.1z M-117.1,352.3L-117.1,352.3L-117.1,352.3z M-109.9,354.5c-0.3,0-0.6-0.3-0.6-0.6v-1.8
		c0-0.3,0.3-0.6,0.6-0.6c0.3,0,0.6,0.3,0.6,0.6v1.8C-109.3,354.3-109.5,354.5-109.9,354.5 M-102.9,354c-0.3,0-0.6-0.3-0.6-0.6v-1.8
		c0-0.3,0.3-0.6,0.6-0.6c0.3,0,0.6,0.3,0.6,0.6v1.8C-102.3,353.7-102.6,354-102.9,354 M-109.9,350.9c-0.3,0-0.6-0.3-0.6-0.6v-1.8
		c0-0.3,0.3-0.6,0.6-0.6c0.3,0,0.6,0.3,0.6,0.6v1.8C-109.3,350.6-109.5,350.9-109.9,350.9 M-102.9,350.3c-0.3,0-0.6-0.3-0.6-0.6
		v-1.8c0-0.3,0.3-0.6,0.6-0.6c0.3,0,0.6,0.3,0.6,0.6v1.8C-102.3,350-102.6,350.3-102.9,350.3 M-109.9,347.2c-0.3,0-0.6-0.3-0.6-0.6
		v-0.1c0-0.1,0-0.9,0.3-1.8c0.1-0.3,0.4-0.5,0.7-0.4c0.3,0.1,0.5,0.4,0.4,0.7c-0.2,0.8-0.2,1.4-0.2,1.5v0.1
		C-109.3,347-109.5,347.2-109.9,347.2 M-102.9,346.7c-0.3,0-0.6-0.3-0.6-0.6v-0.4c0-0.1,0-0.2,0-0.3c0-0.2,0-0.6-0.1-0.9
		c0-0.1,0-0.3,0.1-0.5c0.1-0.1,0.2-0.2,0.4-0.3c0.1,0,0.3,0,0.4,0.1c0.1,0.1,0.2,0.2,0.3,0.4c0.1,0.5,0.2,0.9,0.2,1.2
		c0,0.2,0,0.4,0,0.4l0,0.3C-102.3,346.4-102.6,346.7-102.9,346.7 M-102.5,346.1L-102.5,346.1L-102.5,346.1z M-108.8,343.8
		c-0.1,0-0.3-0.1-0.4-0.1c-0.3-0.2-0.3-0.6-0.1-0.8c0.5-0.6,1-1,1.7-1.2c0.1,0,0.3,0,0.4,0c0.1,0.1,0.3,0.2,0.3,0.3
		c0.1,0.3-0.1,0.7-0.4,0.8c-0.5,0.2-0.9,0.4-1.2,0.8C-108.5,343.7-108.7,343.8-108.8,343.8 M-109.1,343
		C-109.1,343-109.1,343-109.1,343C-109.1,343-109.1,343-109.1,343 M-107.3,342.5C-107.3,342.5-107.3,342.5-107.3,342.5
		C-107.3,342.5-107.3,342.5-107.3,342.5 M-107.5,341.8C-107.5,341.8-107.5,341.8-107.5,341.8C-107.5,341.8-107.5,341.8-107.5,341.8
		 M-103.9,343.3c-0.1,0-0.3-0.1-0.4-0.1c-0.3-0.3-0.8-0.5-1.3-0.5c-0.1,0-0.3-0.1-0.4-0.2c-0.1-0.1-0.1-0.3-0.1-0.4
		c0-0.1,0.1-0.3,0.2-0.4c0.1-0.1,0.3-0.1,0.5-0.1c0.8,0.1,1.4,0.4,1.9,0.8c0.2,0.2,0.3,0.6,0.1,0.8
		C-103.6,343.2-103.8,343.3-103.9,343.3 M-105.5,341.7C-105.5,341.7-105.5,341.7-105.5,341.7C-105.5,341.7-105.5,341.7-105.5,341.7"
		/>
	<path class="st0" d="M-93.2,343.1L-93.2,343.1c-0.1-1.6-1.4-2.9-3-2.9c-1.6,0-3,1.3-3,2.9h0c0,0,0,0,0,0c0,0,0,0,0,0.1
		c0,0.1,0,0.3,0,0.4c0.1,0.9,0.5,2.9,3,4.6c2.5-1.7,2.9-3.7,3-4.6C-93.3,343.4-93.2,343.3-93.2,343.1
		C-93.2,343.1-93.2,343.1-93.2,343.1C-93.2,343.1-93.2,343.1-93.2,343.1 M-96.3,345.4c-1.2,0-2.3-1-2.3-2.3c0-1.2,1-2.3,2.3-2.3
		c1.2,0,2.3,1,2.3,2.3C-94,344.4-95,345.4-96.3,345.4"/>
	<path class="st0" d="M-95.3,343C-95.4,343-95.4,343-95.3,343c0,0.1,0,0.1,0,0.1c0,0,0,0,0,0c0.2,0.1,0.3,0.2,0.4,0.4
		c0.1,0.1,0.1,0.2,0.1,0.3c0,0.1,0,0.2,0,0.3c0,0.1-0.1,0.2-0.1,0.2c-0.1,0.1-0.1,0.1-0.2,0.2c-0.1,0.1-0.3,0.2-0.5,0.2
		c-0.1,0-0.2,0-0.3,0c-0.1,0-0.2,0-0.3,0c-0.1,0-0.3,0-0.4,0c-0.1,0-0.3,0-0.4,0c0,0-0.1,0-0.1,0c0,0-0.1,0-0.1-0.1c0,0,0-0.1,0-0.1
		c0,0,0-0.1,0-0.1c0-0.1,0-0.3,0-0.4c0-0.1,0-0.3,0-0.4c0-0.2,0-0.3,0-0.5c0-0.2,0-0.3,0-0.5c0-0.1,0-0.1,0-0.2c0-0.1,0-0.1,0-0.2
		c0-0.1,0-0.2,0-0.3c0-0.1,0-0.2,0-0.3c0,0,0-0.1,0-0.1c0,0,0-0.1,0-0.1c0,0,0,0,0,0c0,0,0,0,0,0c0.1,0,0.3,0,0.4,0
		c0.1,0,0.3,0,0.4,0c0.1,0,0.1,0,0.2,0c0.1,0,0.1,0,0.2,0c0.1,0,0.2,0,0.3,0.1c0.1,0,0.2,0.1,0.3,0.2c0.1,0,0.1,0.1,0.1,0.1
		c0,0,0.1,0.1,0.1,0.2c0,0.1,0.1,0.1,0.1,0.2c0,0.1,0,0.1,0,0.2c0,0.1,0,0.1,0,0.2c0,0.1,0,0.1-0.1,0.1c0,0-0.1,0.1-0.1,0.1
		C-95.3,342.9-95.3,342.9-95.3,343 M-96.5,342.7L-96.5,342.7c0,0.1,0.1,0.1,0.2,0.1c0,0,0.1,0,0.1,0c0,0,0.1,0,0.1,0
		c0,0,0.1,0,0.1,0c0,0,0.1,0,0.1,0c0,0,0.1,0,0.1-0.1c0,0,0-0.1,0.1-0.1c0-0.1,0-0.1,0-0.2c0-0.1,0-0.1-0.1-0.1c0,0-0.1-0.1-0.1-0.1
		c-0.1,0-0.1-0.1-0.2-0.1c-0.1,0-0.2,0-0.2,0c0,0-0.1,0-0.1,0c0,0,0,0,0,0c0,0.1,0,0.2,0,0.3C-96.5,342.5-96.5,342.6-96.5,342.7
		 M-96.4,343.4C-96.4,343.4-96.4,343.4-96.4,343.4c-0.1,0-0.1,0-0.1,0.1v0v0.3c0,0.1,0,0.1,0,0.2c0,0.1,0,0.1,0,0.2
		c0,0,0,0.1,0.1,0.1c0.1,0,0.2,0,0.2,0c0.1,0,0.2,0,0.2,0c0.1,0,0.1,0,0.2-0.1c0.1-0.1,0.1-0.1,0.1-0.2c0-0.1,0-0.1,0-0.1
		c0,0-0.1-0.1-0.1-0.1c-0.1-0.1-0.1-0.1-0.2-0.1c-0.1,0-0.2-0.1-0.2-0.1C-96.3,343.4-96.3,343.4-96.4,343.4
		C-96.3,343.4-96.4,343.4-96.4,343.4"/>
	<path class="st0" d="M-116.5,350.1c-0.3,0.4-0.9,0.4-1.3,0.1c-0.4-0.3-0.4-0.9-0.1-1.3c0.3-0.4,0.9-0.4,1.3-0.1
		C-116.2,349.2-116.1,349.8-116.5,350.1"/>
	<path class="st0" d="M-95.4,350.2c-0.3,0.4-0.9,0.4-1.3,0.1c-0.4-0.3-0.4-0.9-0.1-1.3c0.3-0.4,0.9-0.4,1.3-0.1
		C-95.1,349.3-95.1,349.9-95.4,350.2"/>
	<path class="st0" d="M-113.7,342.5L-113.7,342.5c-0.1-1.8-1.5-3.2-3.3-3.2c-1.8,0-3.2,1.4-3.3,3.2h0c0,0,0,0,0,0c0,0,0,0,0,0.1
		c0,0.1,0,0.3,0,0.4c0.1,1,0.6,3.1,3.3,5c2.7-1.9,3.2-4,3.3-5c0-0.1,0-0.3,0-0.4C-113.7,342.6-113.7,342.6-113.7,342.5
		C-113.7,342.6-113.7,342.6-113.7,342.5 M-117,345.1c-1.4,0-2.5-1.1-2.5-2.5c0-1.4,1.1-2.5,2.5-2.5c1.4,0,2.5,1.1,2.5,2.5
		C-114.5,344-115.6,345.1-117,345.1"/>
	<path class="st0" d="M-115.5,344.1C-115.5,344.1-115.5,344.1-115.5,344.1c0,0.1-0.1,0.1-0.1,0.1c0,0-0.1,0-0.1,0c0,0-0.1,0-0.1,0
		h-0.1h-0.1c-0.1,0-0.1,0-0.1-0.1c0-0.1-0.1-0.2-0.1-0.2c0-0.1-0.1-0.2-0.1-0.2c0-0.1-0.1-0.2-0.1-0.3c0,0,0,0,0,0c0,0,0,0-0.1,0
		c-0.1,0-0.1,0-0.2,0c-0.1,0-0.1,0-0.2,0c-0.1,0-0.1,0-0.2,0c-0.1,0-0.1,0-0.2,0c0,0,0,0,0,0c0,0.1,0,0.1,0,0.2c0,0.1,0,0.1,0,0.2
		c0,0,0,0.1,0,0.1s0,0.1,0,0.1c0,0.1,0,0.1,0,0.2c0,0,0,0.1,0,0.2c0,0,0,0,0,0.1c0,0,0,0-0.1,0h-0.1c0,0-0.1,0-0.1,0
		c0,0-0.1,0-0.1,0c0,0-0.1,0-0.2,0c0,0-0.1,0-0.1,0c0,0,0-0.1,0-0.1c0,0,0-0.1,0-0.1c0,0,0,0,0,0c0-0.1,0.1-0.2,0.1-0.3
		c0-0.1,0.1-0.2,0.1-0.3c0-0.1,0.1-0.3,0.1-0.4c0-0.1,0.1-0.3,0.1-0.4c0-0.1,0.1-0.2,0.1-0.3c0-0.1,0.1-0.2,0.1-0.4
		c0-0.1,0.1-0.2,0.1-0.3c0-0.1,0.1-0.2,0.1-0.3c0-0.1,0-0.2,0.1-0.2c0-0.1,0-0.2,0.1-0.2c0,0,0,0,0-0.1c0,0,0,0,0-0.1
		c0,0,0-0.1,0.1-0.1c0,0,0.1,0,0.1,0c0.1,0,0.2,0,0.3,0c0.1,0,0.2,0,0.3,0c0,0,0.1,0,0.1,0c0,0,0,0.1,0,0.1c0,0.1,0,0.1,0.1,0.2
		c0,0,0,0.1,0.1,0.2c0,0.1,0,0.1,0.1,0.2c0,0.1,0,0.1,0.1,0.2c0.1,0.2,0.1,0.3,0.2,0.5c0.1,0.2,0.1,0.3,0.2,0.5
		c0,0.1,0.1,0.2,0.1,0.3c0,0.1,0,0.2,0.1,0.3c0,0.1,0.1,0.2,0.1,0.3c0,0.1,0.1,0.2,0.1,0.3c0,0.1,0.1,0.2,0.1,0.3
		C-115.6,343.9-115.5,344-115.5,344.1 M-116.8,342.5C-116.7,342.5-116.7,342.5-116.8,342.5C-116.7,342.5-116.7,342.5-116.8,342.5
		c0-0.2,0-0.2,0-0.3c0-0.1,0-0.2-0.1-0.2c0,0,0-0.1,0-0.1c0,0,0-0.1,0-0.1c0,0,0,0,0,0c0,0,0,0,0,0c0,0,0,0,0,0.1c0,0,0,0.1,0,0.1
		l-0.1,0.3c0,0,0,0.1,0,0.1s0,0.1,0,0.1v0c0,0,0,0,0,0l0.1,0c0.1,0,0.1,0,0.2,0C-116.9,342.5-116.8,342.5-116.8,342.5"/>
</g>
<g>
	<path class="st0" d="M-97.5,398.9H-99c-0.1,0-0.3-0.1-0.3-0.3v-0.2c0-0.1,0.1-0.3,0.3-0.3h1.4c0.1,0,0.3,0.1,0.3,0.3v0.2
		C-97.3,398.8-97.4,398.9-97.5,398.9 M-101,398.9h-1.4c-0.1,0-0.3-0.1-0.3-0.3v-0.2c0-0.1,0.1-0.3,0.3-0.3h1.4
		c0.1,0,0.3,0.1,0.3,0.3v0.2C-100.7,398.8-100.9,398.9-101,398.9 M-104.4,398.9h-1.4c-0.1,0-0.3-0.1-0.3-0.3v-0.2
		c0-0.1,0.1-0.3,0.3-0.3h1.4c0.1,0,0.3,0.1,0.3,0.3v0.2C-104.1,398.8-104.3,398.9-104.4,398.9 M-107.5,398.9h-1.4
		c-0.1,0-0.3-0.1-0.3-0.3v-0.2c0-0.1,0.1-0.3,0.3-0.3h1.4c0.1,0,0.3,0.1,0.3,0.3v0.2C-107.2,398.8-107.4,398.9-107.5,398.9
		 M-110.5,398.9h-1.4c-0.1,0-0.3-0.1-0.3-0.3v-0.2c0-0.1,0.1-0.3,0.3-0.3h1.4c0.1,0,0.3,0.1,0.3,0.3v0.2
		C-110.2,398.8-110.3,398.9-110.5,398.9 M-113.6,398.9h-1.4c-0.1,0-0.3-0.1-0.3-0.3v-0.2c0-0.1,0.1-0.3,0.3-0.3h1.4
		c0.1,0,0.3,0.1,0.3,0.3v0.2C-113.3,398.8-113.4,398.9-113.6,398.9"/>
	<path class="st0" d="M-92.6,392.9L-92.6,392.9c0-1.3-1.1-2.3-2.3-2.3c-1.3,0-2.3,1-2.3,2.3h0c0,0,0,0,0,0c0,0,0,0,0,0
		c0,0.1,0,0.2,0,0.3c0.1,0.7,0.4,2.2,2.3,3.6c1.9-1.4,2.2-2.9,2.3-3.6C-92.6,393.2-92.6,393.1-92.6,392.9
		C-92.6,393-92.6,393-92.6,392.9C-92.6,392.9-92.6,392.9-92.6,392.9 M-94.9,394.7c-1,0-1.7-0.8-1.7-1.7c0-1,0.8-1.7,1.7-1.7
		c1,0,1.7,0.8,1.7,1.7C-93.2,393.9-94,394.7-94.9,394.7"/>
	<path class="st0" d="M-94.2,392.9C-94.2,392.9-94.3,392.9-94.2,392.9C-94.2,392.9-94.2,392.9-94.2,392.9c0,0.1,0,0.1,0,0.1
		c0.1,0.1,0.2,0.2,0.3,0.3c0,0.1,0.1,0.1,0.1,0.2c0,0.1,0,0.2,0,0.2c0,0.1-0.1,0.1-0.1,0.2c0,0-0.1,0.1-0.1,0.1
		c-0.1,0.1-0.2,0.2-0.4,0.2c-0.1,0-0.1,0-0.2,0c-0.1,0-0.1,0-0.2,0c-0.1,0-0.2,0-0.3,0c-0.1,0-0.2,0-0.3,0c0,0-0.1,0-0.1,0
		c0,0,0,0-0.1-0.1c0,0,0-0.1,0-0.1c0,0,0-0.1,0-0.1c0-0.1,0-0.2,0-0.3c0-0.1,0-0.2,0-0.3c0-0.1,0-0.2,0-0.3c0-0.1,0-0.2,0-0.4
		c0-0.1,0-0.1,0-0.2c0-0.1,0-0.1,0-0.2c0-0.1,0-0.1,0-0.2c0-0.1,0-0.1,0-0.2c0,0,0-0.1,0-0.1c0,0,0-0.1,0-0.1c0,0,0,0,0,0s0,0,0,0
		c0.1,0,0.2,0,0.3,0c0.1,0,0.2,0,0.3,0c0,0,0.1,0,0.1,0s0.1,0,0.1,0c0.1,0,0.2,0,0.2,0c0.1,0,0.1,0.1,0.2,0.1c0,0,0.1,0.1,0.1,0.1
		c0,0,0.1,0.1,0.1,0.1c0,0.1,0,0.1,0,0.2c0,0.1,0,0.1,0,0.2c0,0,0,0.1,0,0.1c0,0,0,0.1-0.1,0.1C-94.1,392.7-94.1,392.7-94.2,392.9
		C-94.2,392.8-94.2,392.8-94.2,392.9 M-95.1,392.6L-95.1,392.6c0,0.1,0,0.1,0.1,0.1c0,0,0,0,0.1,0c0,0,0,0,0.1,0c0,0,0.1,0,0.1,0
		c0,0,0,0,0.1,0c0,0,0,0,0.1,0c0,0,0,0,0-0.1c0-0.1,0-0.1,0-0.2c0,0,0-0.1,0-0.1s-0.1-0.1-0.1-0.1c-0.1,0-0.1,0-0.2-0.1
		c-0.1,0-0.1,0-0.2,0c0,0,0,0,0,0c0,0,0,0,0,0c0,0.1,0,0.2,0,0.2C-95.1,392.5-95.1,392.5-95.1,392.6 M-95,393.1
		C-95.1,393.1-95.1,393.1-95,393.1C-95.1,393.2-95.1,393.2-95,393.1L-95,393.1l-0.1,0.3c0,0.1,0,0.1,0,0.2c0,0.1,0,0.1,0,0.2
		c0,0,0,0.1,0,0c0.1,0,0.1,0,0.2,0c0.1,0,0.1,0,0.2,0c0.1,0,0.1,0,0.1-0.1c0,0,0.1-0.1,0.1-0.1c0,0,0-0.1,0-0.1c0,0,0-0.1-0.1-0.1
		c0,0-0.1-0.1-0.2-0.1c-0.1,0-0.1,0-0.2-0.1C-94.9,393.2-95,393.2-95,393.1C-95,393.2-95,393.1-95,393.1"/>
	<path class="st0" d="M-116.8,399.2c-0.4,0.5-1.1,0.5-1.5,0.1c-0.5-0.4-0.5-1.1-0.1-1.5s1.1-0.5,1.5-0.1
		C-116.4,398-116.4,398.7-116.8,399.2"/>
	<path class="st0" d="M-94.1,399.1c-0.4,0.5-1.1,0.5-1.5,0.1c-0.5-0.4-0.5-1.1-0.1-1.5c0.4-0.5,1.1-0.5,1.5-0.1
		S-93.7,398.6-94.1,399.1"/>
	<path class="st0" d="M-115,392.7L-115,392.7c0-1.4-1.2-2.5-2.5-2.5c-1.4,0-2.5,1.1-2.5,2.5l0,0c0,0,0,0,0,0c0,0,0,0,0,0
		c0,0.1,0,0.2,0,0.3c0.1,0.8,0.4,2.4,2.5,3.9c2.1-1.5,2.4-3.1,2.5-3.9C-115,393-115,392.9-115,392.7C-115,392.8-115,392.8-115,392.7
		C-115,392.7-115,392.7-115,392.7 M-117.5,394.7c-1.1,0-1.9-0.9-1.9-1.9c0-1.1,0.9-1.9,1.9-1.9c1.1,0,1.9,0.9,1.9,1.9
		C-115.6,393.8-116.5,394.7-117.5,394.7"/>
	<path class="st0" d="M-116.4,393.9C-116.4,393.9-116.4,394-116.4,393.9c0,0.1,0,0.1-0.1,0.1s-0.1,0-0.1,0c0,0-0.1,0-0.1,0h-0.1
		h-0.1c-0.1,0-0.1,0-0.1-0.1c0-0.1,0-0.1-0.1-0.2c0-0.1,0-0.1-0.1-0.2c0-0.1-0.1-0.2-0.1-0.3c0,0,0,0,0,0c0,0,0,0,0,0
		c-0.1,0-0.1,0-0.2,0c-0.1,0-0.1,0-0.2,0c-0.1,0-0.1,0-0.2,0c-0.1,0-0.1,0-0.2,0c0,0,0,0,0,0c0,0,0,0.1,0,0.1c0,0,0,0.1,0,0.1
		c0,0,0,0.1,0,0.1c0,0,0,0.1,0,0.1c0,0,0,0.1,0,0.1c0,0,0,0.1,0,0.1c0,0,0,0,0,0c0,0,0,0,0,0h-0.1c0,0-0.1,0-0.1,0c0,0-0.1,0-0.1,0
		c0,0-0.1,0-0.1,0c0,0,0,0-0.1,0c0,0,0,0,0-0.1c0,0,0,0,0,0c0,0,0,0,0,0c0-0.1,0.1-0.2,0.1-0.3c0-0.1,0.1-0.2,0.1-0.3
		c0-0.1,0.1-0.2,0.1-0.3c0-0.1,0.1-0.2,0.1-0.3c0-0.1,0.1-0.2,0.1-0.3c0-0.1,0.1-0.2,0.1-0.3c0-0.1,0-0.2,0.1-0.2
		c0-0.1,0-0.2,0.1-0.2c0-0.1,0-0.1,0-0.2c0-0.1,0-0.1,0-0.2c0,0,0,0,0,0c0,0,0,0,0,0c0,0,0,0,0-0.1c0,0,0,0,0.1,0c0.1,0,0.1,0,0.2,0
		c0.1,0,0.1,0,0.2,0c0,0,0,0,0.1,0c0,0,0,0,0,0.1c0,0.1,0,0.1,0,0.1c0,0,0,0.1,0,0.1c0,0,0,0.1,0,0.1c0,0,0,0.1,0.1,0.1
		c0,0.1,0.1,0.3,0.1,0.4c0,0.1,0.1,0.2,0.1,0.4c0,0.1,0,0.1,0.1,0.2c0,0.1,0,0.1,0.1,0.2c0,0.1,0,0.2,0.1,0.2c0,0.1,0.1,0.2,0.1,0.2
		c0,0.1,0,0.1,0.1,0.2C-116.5,393.8-116.5,393.8-116.4,393.9 M-117.4,392.7C-117.4,392.7-117.4,392.7-117.4,392.7
		C-117.4,392.7-117.4,392.7-117.4,392.7c0-0.1,0-0.2,0-0.3c0-0.1,0-0.1-0.1-0.2c0,0,0-0.1,0-0.1c0,0,0-0.1,0-0.1c0,0,0,0,0,0
		c0,0,0,0,0,0c0,0,0,0,0,0.1c0,0,0,0,0,0.1l-0.1,0.2c0,0,0,0.1,0,0.1c0,0,0,0.1,0,0.1v0c0,0,0,0,0,0l0.1,0c0,0,0.1,0,0.1,0
		C-117.5,392.7-117.5,392.7-117.4,392.7"/>
</g>
</svg>
